  0
SECTION
  2
BLOCKS
  0
ENDSEC
  0
SECTION
  2
ENTITIES
  0
LINE
  8
0
 10
288
 20
364.04
 11
40
 21
364.04
  0
LINE
  8
0
 10
40
 20
364.04
 11
40
 21
324.04
  0
LINE
  8
0
 10
40
 20
324.04
 11
288
 21
324.04
  0
LINE
  8
0
 10
288
 20
324.04
 11
288
 21
364.04
  0
LINE
  8
0
 10
44
 20
324.03
 11
4
 21
324.03
  0
LINE
  8
0
 10
4
 20
324.03
 11
4
 21
204.03
  0
LINE
  8
0
 10
4
 20
204.03
 11
44
 21
204.03
  0
LINE
  8
0
 10
44
 20
204.03
 11
44
 21
324.03
  0
LINE
  8
0
 10
324.02
 20
324.03
 11
284.02
 21
324.03
  0
LINE
  8
0
 10
284.02
 20
324.03
 11
284.02
 21
204.03
  0
LINE
  8
0
 10
284.02
 20
204.03
 11
324.02
 21
204.03
  0
LINE
  8
0
 10
324.02
 20
204.03
 11
324.02
 21
324.03
  0
LINE
  8
0
 10
284.01
 20
324.03
 11
44.01
 21
324.03
  0
LINE
  8
0
 10
44.01
 20
324.03
 11
44.01
 21
204.03
  0
LINE
  8
0
 10
44.01
 20
204.03
 11
284.01
 21
204.03
  0
LINE
  8
0
 10
284.01
 20
204.03
 11
284.01
 21
324.03
  0
LINE
  8
0
 10
288.01
 20
204.02
 11
40.01
 21
204.02
  0
LINE
  8
0
 10
40.01
 20
204.02
 11
40.01
 21
164.02
  0
LINE
  8
0
 10
40.01
 20
164.02
 11
288.01
 21
164.02
  0
LINE
  8
0
 10
288.01
 20
164.02
 11
288.01
 21
204.02
  0
LINE
  8
0
 10
288.01
 20
164.01
 11
40.01
 21
164.01
  0
LINE
  8
0
 10
40.01
 20
164.01
 11
40.01
 21
40.01
  0
LINE
  8
0
 10
40.01
 20
40.01
 11
288.01
 21
40.01
  0
LINE
  8
0
 10
288.01
 20
40.01
 11
288.01
 21
164.01
  0
LINE
  8
0
 10
40
 20
164.01
 11
0
 21
164.01
  0
LINE
  8
0
 10
0
 20
164.01
 11
0
 21
40.01
  0
LINE
  8
0
 10
0
 20
40.01
 11
40
 21
40.01
  0
LINE
  8
0
 10
40
 20
40.01
 11
40
 21
164.01
  0
LINE
  8
0
 10
328.02
 20
164.01
 11
288.02
 21
164.01
  0
LINE
  8
0
 10
288.02
 20
164.01
 11
288.02
 21
40.01
  0
LINE
  8
0
 10
288.02
 20
40.01
 11
328.02
 21
40.01
  0
LINE
  8
0
 10
328.02
 20
40.01
 11
328.02
 21
164.01
  0
LINE
  8
0
 10
355
 20
73
 11
330
 21
48.01
  0
LINE
  8
0
 10
330
 20
48.01
 11
380
 21
48.01
  0
LINE
  8
0
 10
380
 20
48.01
 11
355
 21
73
  0
LINE
  8
0
 10
405.01
 20
73
 11
380.01
 21
48.01
  0
LINE
  8
0
 10
380.01
 20
48.01
 11
430.01
 21
48.01
  0
LINE
  8
0
 10
430.01
 20
48.01
 11
405.01
 21
73
  0
LINE
  8
0
 10
380
 20
48
 11
330
 21
48
  0
LINE
  8
0
 10
330
 20
48
 11
330
 21
0
  0
LINE
  8
0
 10
330
 20
0
 11
380
 21
0
  0
LINE
  8
0
 10
380
 20
0
 11
380
 21
48
  0
LINE
  8
0
 10
430.01
 20
48
 11
380.01
 21
48
  0
LINE
  8
0
 10
380.01
 20
48
 11
380.01
 21
0
  0
LINE
  8
0
 10
380.01
 20
0
 11
430.01
 21
0
  0
LINE
  8
0
 10
430.01
 20
0
 11
430.01
 21
48
  0
LINE
  8
0
 10
288.01
 20
40
 11
40.01
 21
40
  0
LINE
  8
0
 10
40.01
 20
40
 11
40.01
 21
0
  0
LINE
  8
0
 10
40.01
 20
0
 11
288.01
 21
0
  0
LINE
  8
0
 10
288.01
 20
0
 11
288.01
 21
40
  0
LINE
  8
0
 10
380
 20
-0.00999451
 11
330
 21
-0.00999451
  0
LINE
  8
0
 10
330
 20
-0.00999451
 11
355
 21
-25
  0
LINE
  8
0
 10
355
 20
-25
 11
380
 21
-0.00999451
  0
LINE
  8
0
 10
430.01
 20
-0.00999451
 11
380.01
 21
-0.00999451
  0
LINE
  8
0
 10
380.01
 20
-0.00999451
 11
405.01
 21
-25
  0
LINE
  8
0
 10
405.01
 20
-25
 11
430.01
 21
-0.00999451
  0
ENDSEC
  0
SECTION
  2
OBJECTS
  0
DICTIONARY
  0
ENDSEC
  0
EOF
