  0
SECTION
  2
BLOCKS
  0
ENDSEC
  0
SECTION
  2
ENTITIES
  0
LINE
  8
0
 10
7.5
 20
11.5
 11
23
 21
11.5
  0
LINE
  8
0
 10
23
 20
11.5
 11
23
 21
18.36
  0
LINE
  8
0
 10
23
 20
18.36
 11
7.5
 21
18.36
  0
LINE
  8
0
 10
7.5
 20
18.36
 11
7.5
 21
19
  0
LINE
  8
0
 10
7.5
 20
19
 11
-3.5
 21
19
  0
LINE
  8
0
 10
-3.5
 20
19
 11
-3.5
 21
-4.75999
  0
LINE
  8
0
 10
-3.5
 20
-4.75999
 11
7.5
 21
-4.75999
  0
LINE
  8
0
 10
7.5
 20
-4.75999
 11
7.5
 21
11.5
  0
LINE
  8
0
 10
7.5
 20
16.81
 11
7.5
 21
16.91
  0
LINE
  8
0
 10
7.5
 20
16.91
 11
21.5
 21
16.91
  0
LINE
  8
0
 10
21.5
 20
16.91
 11
21.5
 21
16.81
  0
LINE
  8
0
 10
21.5
 20
16.81
 11
7.5
 21
16.81
  0
LINE
  8
0
 10
9.5
 20
13
 11
9.5
 21
15.6595
  0
LINE
  8
0
 10
9.5
 20
15.6595
 11
7.5
 21
15.6595
  0
LINE
  8
0
 10
7.5
 20
15.6595
 11
7.5
 21
15.6605
  0
LINE
  8
0
 10
7.5
 20
15.6605
 11
21.5
 21
15.6605
  0
LINE
  8
0
 10
21.5
 20
15.6605
 11
21.5
 21
15.6595
  0
LINE
  8
0
 10
21.5
 20
15.6595
 11
19.5
 21
15.6595
  0
LINE
  8
0
 10
19.5
 20
15.6595
 11
19.5
 21
13
  0
LINE
  8
0
 10
19.5
 20
13
 11
9.5
 21
13
  0
LINE
  8
0
 10
-0.156784
 20
8.50821
 11
-0.463516
 21
8.57341
  0
LINE
  8
0
 10
-0.463516
 20
8.57341
 11
-0.75
 21
8.70096
  0
LINE
  8
0
 10
-0.75
 20
8.70096
 11
-1.00369
 21
8.88527
  0
LINE
  8
0
 10
-1.00369
 20
8.88527
 11
-1.21352
 21
9.11832
  0
LINE
  8
0
 10
-1.21352
 20
9.11832
 11
-1.37032
 21
9.38989
  0
LINE
  8
0
 10
-1.37032
 20
9.38989
 11
-1.46721
 21
9.68813
  0
LINE
  8
0
 10
-1.46721
 20
9.68813
 11
-1.5
 21
10
  0
LINE
  8
0
 10
-1.5
 20
10
 11
-1.46721
 21
10.3119
  0
LINE
  8
0
 10
-1.46721
 20
10.3119
 11
-1.37032
 21
10.6101
  0
LINE
  8
0
 10
-1.37032
 20
10.6101
 11
-1.21352
 21
10.8817
  0
LINE
  8
0
 10
-1.21352
 20
10.8817
 11
-1.00369
 21
11.1147
  0
LINE
  8
0
 10
-1.00369
 20
11.1147
 11
-0.749985
 21
11.299
  0
LINE
  8
0
 10
-0.749985
 20
11.299
 11
-0.463516
 21
11.4266
  0
LINE
  8
0
 10
-0.463516
 20
11.4266
 11
-0.156784
 21
11.4918
  0
LINE
  8
0
 10
-0.156784
 20
11.4918
 11
0.156784
 21
11.4918
  0
LINE
  8
0
 10
0.156784
 20
11.4918
 11
0.463516
 21
11.4266
  0
LINE
  8
0
 10
0.463516
 20
11.4266
 11
0.75
 21
11.299
  0
LINE
  8
0
 10
0.75
 20
11.299
 11
1.00369
 21
11.1147
  0
LINE
  8
0
 10
1.00369
 20
11.1147
 11
1.21352
 21
10.8817
  0
LINE
  8
0
 10
1.21352
 20
10.8817
 11
1.37032
 21
10.6101
  0
LINE
  8
0
 10
1.37032
 20
10.6101
 11
1.46721
 21
10.3119
  0
LINE
  8
0
 10
1.46721
 20
10.3119
 11
1.5
 21
10
  0
LINE
  8
0
 10
1.5
 20
10
 11
1.46721
 21
9.68813
  0
LINE
  8
0
 10
1.46721
 20
9.68813
 11
1.37032
 21
9.38989
  0
LINE
  8
0
 10
1.37032
 20
9.38989
 11
1.21352
 21
9.11832
  0
LINE
  8
0
 10
1.21352
 20
9.11832
 11
1.00369
 21
8.88527
  0
LINE
  8
0
 10
1.00369
 20
8.88527
 11
0.75
 21
8.70096
  0
LINE
  8
0
 10
0.75
 20
8.70096
 11
0.463516
 21
8.57341
  0
LINE
  8
0
 10
0.463516
 20
8.57341
 11
0.156784
 21
8.50821
  0
LINE
  8
0
 10
0.156784
 20
8.50821
 11
-0.156784
 21
8.50821
  0
LINE
  8
0
 10
-0.153824
 20
-2.44516
 11
-0.459076
 21
-2.4066
  0
LINE
  8
0
 10
-0.459076
 20
-2.4066
 11
-0.75708
 21
-2.33008
  0
LINE
  8
0
 10
-0.75708
 20
-2.33008
 11
-1.04315
 21
-2.21681
  0
LINE
  8
0
 10
-1.04315
 20
-2.21681
 11
-1.31277
 21
-2.06859
  0
LINE
  8
0
 10
-1.31277
 20
-2.06859
 11
-1.56168
 21
-1.88776
  0
LINE
  8
0
 10
-1.56168
 20
-1.88776
 11
-1.78596
 21
-1.67714
  0
LINE
  8
0
 10
-1.78596
 20
-1.67714
 11
-1.98209
 21
-1.44006
  0
LINE
  8
0
 10
-1.98209
 20
-1.44006
 11
-2.14694
 21
-1.18028
  0
LINE
  8
0
 10
-2.14694
 20
-1.18028
 11
-2.27794
 21
-0.901901
  0
LINE
  8
0
 10
-2.27794
 20
-0.901901
 11
-2.37302
 21
-0.609283
  0
LINE
  8
0
 10
-2.37302
 20
-0.609283
 11
-2.43068
 21
-0.307053
  0
LINE
  8
0
 10
-2.43068
 20
-0.307053
 11
-2.45
 21
0
  0
LINE
  8
0
 10
-2.45
 20
0
 11
-2.43068
 21
0.307053
  0
LINE
  8
0
 10
-2.43068
 20
0.307053
 11
-2.37302
 21
0.609283
  0
LINE
  8
0
 10
-2.37302
 20
0.609283
 11
-2.27794
 21
0.901901
  0
LINE
  8
0
 10
-2.27794
 20
0.901901
 11
-2.14694
 21
1.18028
  0
LINE
  8
0
 10
-2.14694
 20
1.18028
 11
-1.98209
 21
1.44006
  0
LINE
  8
0
 10
-1.98209
 20
1.44006
 11
-1.78596
 21
1.67714
  0
LINE
  8
0
 10
-1.78596
 20
1.67714
 11
-1.56168
 21
1.88776
  0
LINE
  8
0
 10
-1.56168
 20
1.88776
 11
-1.31277
 21
2.06859
  0
LINE
  8
0
 10
-1.31277
 20
2.06859
 11
-1.04315
 21
2.21681
  0
LINE
  8
0
 10
-1.04315
 20
2.21681
 11
-0.75708
 21
2.33008
  0
LINE
  8
0
 10
-0.75708
 20
2.33008
 11
-0.459076
 21
2.4066
  0
LINE
  8
0
 10
-0.459076
 20
2.4066
 11
-0.153824
 21
2.44516
  0
LINE
  8
0
 10
-0.153824
 20
2.44516
 11
0.153824
 21
2.44516
  0
LINE
  8
0
 10
0.153824
 20
2.44516
 11
0.459076
 21
2.4066
  0
LINE
  8
0
 10
0.459076
 20
2.4066
 11
0.75708
 21
2.33008
  0
LINE
  8
0
 10
0.75708
 20
2.33008
 11
1.04315
 21
2.21681
  0
LINE
  8
0
 10
1.04315
 20
2.21681
 11
1.31277
 21
2.06859
  0
LINE
  8
0
 10
1.31277
 20
2.06859
 11
1.56168
 21
1.88776
  0
LINE
  8
0
 10
1.56168
 20
1.88776
 11
1.78596
 21
1.67714
  0
LINE
  8
0
 10
1.78596
 20
1.67714
 11
1.98209
 21
1.44006
  0
LINE
  8
0
 10
1.98209
 20
1.44006
 11
2.14694
 21
1.18028
  0
LINE
  8
0
 10
2.14694
 20
1.18028
 11
2.27794
 21
0.901901
  0
LINE
  8
0
 10
2.27794
 20
0.901901
 11
2.37302
 21
0.609283
  0
LINE
  8
0
 10
2.37302
 20
0.609283
 11
2.43068
 21
0.307053
  0
LINE
  8
0
 10
2.43068
 20
0.307053
 11
2.45
 21
0
  0
LINE
  8
0
 10
2.45
 20
0
 11
2.43068
 21
-0.307053
  0
LINE
  8
0
 10
2.43068
 20
-0.307053
 11
2.37302
 21
-0.609283
  0
LINE
  8
0
 10
2.37302
 20
-0.609283
 11
2.27794
 21
-0.901901
  0
LINE
  8
0
 10
2.27794
 20
-0.901901
 11
2.2187
 21
-1.02779
  0
LINE
  8
0
 10
2.2187
 20
-1.02779
 11
2.15587
 21
-1.02185
  0
LINE
  8
0
 10
2.15587
 20
-1.02185
 11
2.01779
 21
-1.0262
  0
LINE
  8
0
 10
2.01779
 20
-1.0262
 11
1.88135
 21
-1.04781
  0
LINE
  8
0
 10
1.88135
 20
-1.04781
 11
1.7487
 21
-1.08635
  0
LINE
  8
0
 10
1.7487
 20
-1.08635
 11
1.62192
 21
-1.1412
  0
LINE
  8
0
 10
1.62192
 20
-1.1412
 11
1.50302
 21
-1.21152
  0
LINE
  8
0
 10
1.50302
 20
-1.21152
 11
1.39388
 21
-1.29619
  0
LINE
  8
0
 10
1.39388
 20
-1.29619
 11
1.29619
 21
-1.39388
  0
LINE
  8
0
 10
1.29619
 20
-1.39388
 11
1.21152
 21
-1.50302
  0
LINE
  8
0
 10
1.21152
 20
-1.50302
 11
1.1412
 21
-1.62192
  0
LINE
  8
0
 10
1.1412
 20
-1.62192
 11
1.08635
 21
-1.7487
  0
LINE
  8
0
 10
1.08635
 20
-1.7487
 11
1.04781
 21
-1.88135
  0
LINE
  8
0
 10
1.04781
 20
-1.88135
 11
1.0262
 21
-2.01779
  0
LINE
  8
0
 10
1.0262
 20
-2.01779
 11
1.02185
 21
-2.15587
  0
LINE
  8
0
 10
1.02185
 20
-2.15587
 11
1.02817
 21
-2.22275
  0
LINE
  8
0
 10
1.02817
 20
-2.22275
 11
0.75708
 21
-2.33008
  0
LINE
  8
0
 10
0.75708
 20
-2.33008
 11
0.459076
 21
-2.4066
  0
LINE
  8
0
 10
0.459076
 20
-2.4066
 11
0.153824
 21
-2.44516
  0
LINE
  8
0
 10
0.153824
 20
-2.44516
 11
-0.153824
 21
-2.44516
  0
ENDSEC
  0
SECTION
  2
OBJECTS
  0
DICTIONARY
  0
ENDSEC
  0
EOF
