  0
SECTION
  2
BLOCKS
  0
ENDSEC
  0
SECTION
  2
ENTITIES
  0
LINE
  8
0
 10
-3.5
 11
-3.5
 20
-14.36
 21
19
  0
LINE
  8
0
 10
-3.5
 11
7.5
 20
19
 21
19
  0
LINE
  8
0
 10
7.5
 11
7.5
 20
19
 21
18.96
  0
LINE
  8
0
 10
7.5
 11
23
 20
18.96
 21
18.96
  0
LINE
  8
0
 10
23
 11
23
 20
18.96
 21
11.5
  0
LINE
  8
0
 10
23
 11
7.5
 20
11.5
 21
11.5
  0
LINE
  8
0
 10
7.5
 11
7.5
 20
11.5
 21
-14.36
  0
LINE
  8
0
 10
7.5
 11
-3.5
 20
-14.36
 21
-14.36
  0
LINE
  8
0
 10
-3
 11
-2.976
 20
0
 21
0.376
  0
LINE
  8
0
 10
-2.976
 11
-2.906
 20
0.376
 21
0.746
  0
LINE
  8
0
 10
-2.906
 11
-2.789
 20
0.746
 21
1.104
  0
LINE
  8
0
 10
-2.789
 11
-2.629
 20
1.104
 21
1.445
  0
LINE
  8
0
 10
-2.629
 11
-2.427
 20
1.445
 21
1.763
  0
LINE
  8
0
 10
-2.427
 11
-2.187
 20
1.763
 21
2.054
  0
LINE
  8
0
 10
-2.187
 11
-1.912
 20
2.054
 21
2.312
  0
LINE
  8
0
 10
-1.912
 11
-1.607
 20
2.312
 21
2.533
  0
LINE
  8
0
 10
-1.607
 11
-1.277
 20
2.533
 21
2.714
  0
LINE
  8
0
 10
-1.277
 11
-0.927
 20
2.714
 21
2.853
  0
LINE
  8
0
 10
-0.927
 11
-0.562
 20
2.853
 21
2.947
  0
LINE
  8
0
 10
-0.562
 11
-0.188
 20
2.947
 21
2.994
  0
LINE
  8
0
 10
-0.188
 11
0.188
 20
2.994
 21
2.994
  0
LINE
  8
0
 10
0.188
 11
0.562
 20
2.994
 21
2.947
  0
LINE
  8
0
 10
0.562
 11
0.927
 20
2.947
 21
2.853
  0
LINE
  8
0
 10
0.927
 11
1.277
 20
2.853
 21
2.714
  0
LINE
  8
0
 10
1.277
 11
1.607
 20
2.714
 21
2.533
  0
LINE
  8
0
 10
1.607
 11
1.912
 20
2.533
 21
2.312
  0
LINE
  8
0
 10
1.912
 11
2.187
 20
2.312
 21
2.054
  0
LINE
  8
0
 10
2.187
 11
2.427
 20
2.054
 21
1.763
  0
LINE
  8
0
 10
2.427
 11
2.629
 20
1.763
 21
1.445
  0
LINE
  8
0
 10
2.629
 11
2.789
 20
1.445
 21
1.104
  0
LINE
  8
0
 10
2.789
 11
2.906
 20
1.104
 21
0.746
  0
LINE
  8
0
 10
2.906
 11
2.976
 20
0.746
 21
0.376
  0
LINE
  8
0
 10
2.976
 11
3
 20
0.376
 21
0
  0
LINE
  8
0
 10
3
 11
2.976
 20
0
 21
-0.376
  0
LINE
  8
0
 10
2.976
 11
2.906
 20
-0.376
 21
-0.746
  0
LINE
  8
0
 10
2.906
 11
2.789
 20
-0.746
 21
-1.104
  0
LINE
  8
0
 10
2.789
 11
2.629
 20
-1.104
 21
-1.445
  0
LINE
  8
0
 10
2.629
 11
2.427
 20
-1.445
 21
-1.763
  0
LINE
  8
0
 10
2.427
 11
2.187
 20
-1.763
 21
-2.054
  0
LINE
  8
0
 10
2.187
 11
1.912
 20
-2.054
 21
-2.312
  0
LINE
  8
0
 10
1.912
 11
1.607
 20
-2.312
 21
-2.533
  0
LINE
  8
0
 10
1.607
 11
1.277
 20
-2.533
 21
-2.714
  0
LINE
  8
0
 10
1.277
 11
0.927
 20
-2.714
 21
-2.853
  0
LINE
  8
0
 10
0.927
 11
0.562
 20
-2.853
 21
-2.947
  0
LINE
  8
0
 10
0.562
 11
0.188
 20
-2.947
 21
-2.994
  0
LINE
  8
0
 10
0.188
 11
-0.188
 20
-2.994
 21
-2.994
  0
LINE
  8
0
 10
-0.188
 11
-0.562
 20
-2.994
 21
-2.947
  0
LINE
  8
0
 10
-0.562
 11
-0.927
 20
-2.947
 21
-2.853
  0
LINE
  8
0
 10
-0.927
 11
-1.277
 20
-2.853
 21
-2.714
  0
LINE
  8
0
 10
-1.277
 11
-1.607
 20
-2.714
 21
-2.533
  0
LINE
  8
0
 10
-1.607
 11
-1.912
 20
-2.533
 21
-2.312
  0
LINE
  8
0
 10
-1.912
 11
-2.187
 20
-2.312
 21
-2.054
  0
LINE
  8
0
 10
-2.187
 11
-2.427
 20
-2.054
 21
-1.763
  0
LINE
  8
0
 10
-2.427
 11
-2.629
 20
-1.763
 21
-1.445
  0
LINE
  8
0
 10
-2.629
 11
-2.789
 20
-1.445
 21
-1.104
  0
LINE
  8
0
 10
-2.789
 11
-2.906
 20
-1.104
 21
-0.746
  0
LINE
  8
0
 10
-2.906
 11
-2.976
 20
-0.746
 21
-0.376
  0
LINE
  8
0
 10
-2.976
 11
-3
 20
-0.376
 21
0
  0
LINE
  8
0
 10
-1.5
 11
-1.467
 20
-10
 21
-9.688
  0
LINE
  8
0
 10
-1.467
 11
-1.37
 20
-9.688
 21
-9.39
  0
LINE
  8
0
 10
-1.37
 11
-1.214
 20
-9.39
 21
-9.118
  0
LINE
  8
0
 10
-1.214
 11
-1.004
 20
-9.118
 21
-8.885
  0
LINE
  8
0
 10
-1.004
 11
-0.75
 20
-8.885
 21
-8.701
  0
LINE
  8
0
 10
-0.75
 11
-0.464
 20
-8.701
 21
-8.573
  0
LINE
  8
0
 10
-0.464
 11
-0.157
 20
-8.573
 21
-8.508
  0
LINE
  8
0
 10
-0.157
 11
0.157
 20
-8.508
 21
-8.508
  0
LINE
  8
0
 10
0.157
 11
0.464
 20
-8.508
 21
-8.573
  0
LINE
  8
0
 10
0.464
 11
0.75
 20
-8.573
 21
-8.701
  0
LINE
  8
0
 10
0.75
 11
1.004
 20
-8.701
 21
-8.885
  0
LINE
  8
0
 10
1.004
 11
1.214
 20
-8.885
 21
-9.118
  0
LINE
  8
0
 10
1.214
 11
1.37
 20
-9.118
 21
-9.39
  0
LINE
  8
0
 10
1.37
 11
1.467
 20
-9.39
 21
-9.688
  0
LINE
  8
0
 10
1.467
 11
1.5
 20
-9.688
 21
-10
  0
LINE
  8
0
 10
1.5
 11
1.467
 20
-10
 21
-10.312
  0
LINE
  8
0
 10
1.467
 11
1.37
 20
-10.312
 21
-10.61
  0
LINE
  8
0
 10
1.37
 11
1.214
 20
-10.61
 21
-10.882
  0
LINE
  8
0
 10
1.214
 11
1.004
 20
-10.882
 21
-11.115
  0
LINE
  8
0
 10
1.004
 11
0.75
 20
-11.115
 21
-11.299
  0
LINE
  8
0
 10
0.75
 11
0.464
 20
-11.299
 21
-11.427
  0
LINE
  8
0
 10
0.464
 11
0.157
 20
-11.427
 21
-11.492
  0
LINE
  8
0
 10
0.157
 11
-0.157
 20
-11.492
 21
-11.492
  0
LINE
  8
0
 10
-0.157
 11
-0.464
 20
-11.492
 21
-11.427
  0
LINE
  8
0
 10
-0.464
 11
-0.75
 20
-11.427
 21
-11.299
  0
LINE
  8
0
 10
-0.75
 11
-1.004
 20
-11.299
 21
-11.115
  0
LINE
  8
0
 10
-1.004
 11
-1.214
 20
-11.115
 21
-10.882
  0
LINE
  8
0
 10
-1.214
 11
-1.37
 20
-10.882
 21
-10.61
  0
LINE
  8
0
 10
-1.37
 11
-1.467
 20
-10.61
 21
-10.312
  0
LINE
  8
0
 10
-1.467
 11
-1.5
 20
-10.312
 21
-10
  0
LINE
  8
0
 10
-1.5
 11
-1.467
 20
10
 21
10.312
  0
LINE
  8
0
 10
-1.467
 11
-1.37
 20
10.312
 21
10.61
  0
LINE
  8
0
 10
-1.37
 11
-1.214
 20
10.61
 21
10.882
  0
LINE
  8
0
 10
-1.214
 11
-1.004
 20
10.882
 21
11.115
  0
LINE
  8
0
 10
-1.004
 11
-0.75
 20
11.115
 21
11.299
  0
LINE
  8
0
 10
-0.75
 11
-0.464
 20
11.299
 21
11.427
  0
LINE
  8
0
 10
-0.464
 11
-0.157
 20
11.427
 21
11.492
  0
LINE
  8
0
 10
-0.157
 11
0.157
 20
11.492
 21
11.492
  0
LINE
  8
0
 10
0.157
 11
0.464
 20
11.492
 21
11.427
  0
LINE
  8
0
 10
0.464
 11
0.75
 20
11.427
 21
11.299
  0
LINE
  8
0
 10
0.75
 11
1.004
 20
11.299
 21
11.115
  0
LINE
  8
0
 10
1.004
 11
1.214
 20
11.115
 21
10.882
  0
LINE
  8
0
 10
1.214
 11
1.37
 20
10.882
 21
10.61
  0
LINE
  8
0
 10
1.37
 11
1.467
 20
10.61
 21
10.312
  0
LINE
  8
0
 10
1.467
 11
1.5
 20
10.312
 21
10
  0
LINE
  8
0
 10
1.5
 11
1.467
 20
10
 21
9.688
  0
LINE
  8
0
 10
1.467
 11
1.37
 20
9.688
 21
9.39
  0
LINE
  8
0
 10
1.37
 11
1.214
 20
9.39
 21
9.118
  0
LINE
  8
0
 10
1.214
 11
1.004
 20
9.118
 21
8.885
  0
LINE
  8
0
 10
1.004
 11
0.75
 20
8.885
 21
8.701
  0
LINE
  8
0
 10
0.75
 11
0.464
 20
8.701
 21
8.573
  0
LINE
  8
0
 10
0.464
 11
0.157
 20
8.573
 21
8.508
  0
LINE
  8
0
 10
0.157
 11
-0.157
 20
8.508
 21
8.508
  0
LINE
  8
0
 10
-0.157
 11
-0.464
 20
8.508
 21
8.573
  0
LINE
  8
0
 10
-0.464
 11
-0.75
 20
8.573
 21
8.701
  0
LINE
  8
0
 10
-0.75
 11
-1.004
 20
8.701
 21
8.885
  0
LINE
  8
0
 10
-1.004
 11
-1.214
 20
8.885
 21
9.118
  0
LINE
  8
0
 10
-1.214
 11
-1.37
 20
9.118
 21
9.39
  0
LINE
  8
0
 10
-1.37
 11
-1.467
 20
9.39
 21
9.688
  0
LINE
  8
0
 10
-1.467
 11
-1.5
 20
9.688
 21
10
  0
LINE
  8
0
 10
7.5
 11
7.5
 20
15.659
 21
15.661
  0
LINE
  8
0
 10
7.5
 11
21.5
 20
15.661
 21
15.661
  0
LINE
  8
0
 10
21.5
 11
21.5
 20
15.661
 21
15.659
  0
LINE
  8
0
 10
21.5
 11
19.5
 20
15.659
 21
15.659
  0
LINE
  8
0
 10
19.5
 11
19.5
 20
15.659
 21
13
  0
LINE
  8
0
 10
19.5
 11
9.5
 20
13
 21
13
  0
LINE
  8
0
 10
9.5
 11
9.5
 20
13
 21
15.659
  0
LINE
  8
0
 10
9.5
 11
7.5
 20
15.659
 21
15.659
  0
LINE
  8
0
 10
7.5
 11
7.5
 20
17.41
 21
17.51
  0
LINE
  8
0
 10
7.5
 11
21.5
 20
17.51
 21
17.51
  0
LINE
  8
0
 10
21.5
 11
21.5
 20
17.51
 21
17.41
  0
LINE
  8
0
 10
21.5
 11
7.5
 20
17.41
 21
17.41
  0
ENDSEC
  0
SECTION
  2
OBJECTS
  0
DICTIONARY
  0
ENDSEC
  0
EOF
