  0
SECTION
  2
BLOCKS
  0
ENDSEC
  0
SECTION
  2
ENTITIES
  0
LINE
  8
0
 10
9.25
 20
51.7
 11
6.75
 21
51.7
  0
LINE
  8
0
 10
6.75
 20
51.7
 11
6.75
 21
32.8
  0
LINE
  8
0
 10
6.75
 20
32.8
 11
6.34999
 21
32.8
  0
LINE
  8
0
 10
6.34999
 20
32.8
 11
6.34999
 21
49.4979
  0
LINE
  8
0
 10
6.34999
 20
49.4979
 11
4.44351
 21
52.8
  0
LINE
  8
0
 10
4.44351
 20
52.8
 11
4.14999
 21
52.8
  0
LINE
  8
0
 10
4.14999
 20
52.8
 11
4.14999
 21
44.3
  0
LINE
  8
0
 10
4.14999
 20
44.3
 11
-2.20999
 21
44.3
  0
LINE
  8
0
 10
-2.20999
 20
44.3
 11
-2.20999
 21
9.15527e-005
  0
LINE
  8
0
 10
-2.20999
 20
9.15527e-005
 11
-1.9052
 21
9.15527e-005
  0
LINE
  8
0
 10
-1.9052
 20
9.15527e-005
 11
-0.00999451
 21
3.28268
  0
LINE
  8
0
 10
-0.00999451
 20
3.28268
 11
-0.00999451
 21
41.1
  0
LINE
  8
0
 10
-0.00999451
 20
41.1
 11
0
 21
41.1
  0
LINE
  8
0
 10
0
 20
41.1
 11
0
 21
3.29999
  0
LINE
  8
0
 10
0
 20
3.29999
 11
1.90526
 21
0
  0
LINE
  8
0
 10
1.90526
 20
0
 11
2.2
 21
0
  0
LINE
  8
0
 10
2.2
 20
0
 11
2.2
 21
11.6
  0
LINE
  8
0
 10
2.2
 20
11.6
 11
7.84999
 21
11.6
  0
LINE
  8
0
 10
7.84999
 20
11.6
 11
7.84999
 21
16.6305
  0
LINE
  8
0
 10
7.84999
 20
16.6305
 11
7.81839
 21
16.6436
  0
LINE
  8
0
 10
7.81839
 20
16.6436
 11
7.76488
 21
16.6764
  0
LINE
  8
0
 10
7.76488
 20
16.6764
 11
7.71715
 21
16.7172
  0
LINE
  8
0
 10
7.71715
 20
16.7172
 11
7.67639
 21
16.7649
  0
LINE
  8
0
 10
7.67639
 20
16.7649
 11
7.64359
 21
16.8184
  0
LINE
  8
0
 10
7.64359
 20
16.8184
 11
7.61957
 21
16.8764
  0
LINE
  8
0
 10
7.61957
 20
16.8764
 11
7.60492
 21
16.9374
  0
LINE
  8
0
 10
7.60492
 20
16.9374
 11
7.59999
 21
17
  0
LINE
  8
0
 10
7.59999
 20
17
 11
7.60492
 21
17.0626
  0
LINE
  8
0
 10
7.60492
 20
17.0626
 11
7.61957
 21
17.1236
  0
LINE
  8
0
 10
7.61957
 20
17.1236
 11
7.64359
 21
17.1816
  0
LINE
  8
0
 10
7.64359
 20
17.1816
 11
7.67639
 21
17.2351
  0
LINE
  8
0
 10
7.67639
 20
17.2351
 11
7.71715
 21
17.2828
  0
LINE
  8
0
 10
7.71715
 20
17.2828
 11
7.76488
 21
17.3236
  0
LINE
  8
0
 10
7.76488
 20
17.3236
 11
7.81839
 21
17.3564
  0
LINE
  8
0
 10
7.81839
 20
17.3564
 11
7.87639
 21
17.3804
  0
LINE
  8
0
 10
7.87639
 20
17.3804
 11
7.93742
 21
17.3951
  0
LINE
  8
0
 10
7.93742
 20
17.3951
 11
7.99998
 21
17.4
  0
LINE
  8
0
 10
7.99998
 20
17.4
 11
8.06255
 21
17.3951
  0
LINE
  8
0
 10
8.06255
 20
17.3951
 11
8.12358
 21
17.3804
  0
LINE
  8
0
 10
8.12358
 20
17.3804
 11
8.18158
 21
17.3564
  0
LINE
  8
0
 10
8.18158
 20
17.3564
 11
8.23509
 21
17.3236
  0
LINE
  8
0
 10
8.23509
 20
17.3236
 11
8.28282
 21
17.2828
  0
LINE
  8
0
 10
8.28282
 20
17.2828
 11
8.32358
 21
17.2351
  0
LINE
  8
0
 10
8.32358
 20
17.2351
 11
8.35638
 21
17.1816
  0
LINE
  8
0
 10
8.35638
 20
17.1816
 11
8.3804
 21
17.1236
  0
LINE
  8
0
 10
8.3804
 20
17.1236
 11
8.39505
 21
17.0626
  0
LINE
  8
0
 10
8.39505
 20
17.0626
 11
8.39998
 21
17
  0
LINE
  8
0
 10
8.39998
 20
17
 11
8.39505
 21
16.9374
  0
LINE
  8
0
 10
8.39505
 20
16.9374
 11
8.3804
 21
16.8764
  0
LINE
  8
0
 10
8.3804
 20
16.8764
 11
8.35638
 21
16.8184
  0
LINE
  8
0
 10
8.35638
 20
16.8184
 11
8.32358
 21
16.7649
  0
LINE
  8
0
 10
8.32358
 20
16.7649
 11
8.28282
 21
16.7172
  0
LINE
  8
0
 10
8.28282
 20
16.7172
 11
8.23509
 21
16.6764
  0
LINE
  8
0
 10
8.23509
 20
16.6764
 11
8.18158
 21
16.6436
  0
LINE
  8
0
 10
8.18158
 20
16.6436
 11
8.14998
 21
16.6305
  0
LINE
  8
0
 10
8.14998
 20
16.6305
 11
8.14999
 21
11.6
  0
LINE
  8
0
 10
8.14999
 20
11.6
 11
13.8
 21
11.6
  0
LINE
  8
0
 10
13.8
 20
11.6
 11
13.8
 21
0
  0
LINE
  8
0
 10
13.8
 20
0
 11
16
 21
0
  0
LINE
  8
0
 10
16
 20
0
 11
16
 21
44.3
  0
LINE
  8
0
 10
16
 20
44.3
 11
11.85
 21
44.3
  0
LINE
  8
0
 10
11.85
 20
44.3
 11
11.85
 21
52.8
  0
LINE
  8
0
 10
11.85
 20
52.8
 11
11.5565
 21
52.8
  0
LINE
  8
0
 10
11.5565
 20
52.8
 11
9.64999
 21
49.4979
  0
LINE
  8
0
 10
9.64999
 20
49.4979
 11
9.64999
 21
32.8
  0
LINE
  8
0
 10
9.64999
 20
32.8
 11
9.25
 21
32.8
  0
LINE
  8
0
 10
9.25
 20
32.8
 11
9.25
 21
51.7
  0
LINE
  8
0
 10
3.11241
 20
42.3049
 11
3.05139
 21
42.3196
  0
LINE
  8
0
 10
3.05139
 20
42.3196
 11
2.99339
 21
42.3436
  0
LINE
  8
0
 10
2.99339
 20
42.3436
 11
2.93988
 21
42.3764
  0
LINE
  8
0
 10
2.93988
 20
42.3764
 11
2.89215
 21
42.4171
  0
LINE
  8
0
 10
2.89215
 20
42.4171
 11
2.85138
 21
42.4649
  0
LINE
  8
0
 10
2.85138
 20
42.4649
 11
2.81859
 21
42.5184
  0
LINE
  8
0
 10
2.81859
 20
42.5184
 11
2.79457
 21
42.5764
  0
LINE
  8
0
 10
2.79457
 20
42.5764
 11
2.77992
 21
42.6374
  0
LINE
  8
0
 10
2.77992
 20
42.6374
 11
2.77499
 21
42.7
  0
LINE
  8
0
 10
2.77499
 20
42.7
 11
2.77992
 21
42.7625
  0
LINE
  8
0
 10
2.77992
 20
42.7625
 11
2.79457
 21
42.8236
  0
LINE
  8
0
 10
2.79457
 20
42.8236
 11
2.81859
 21
42.8816
  0
LINE
  8
0
 10
2.81859
 20
42.8816
 11
2.85138
 21
42.9351
  0
LINE
  8
0
 10
2.85138
 20
42.9351
 11
2.89215
 21
42.9828
  0
LINE
  8
0
 10
2.89215
 20
42.9828
 11
2.93988
 21
43.0236
  0
LINE
  8
0
 10
2.93988
 20
43.0236
 11
2.99339
 21
43.0564
  0
LINE
  8
0
 10
2.99339
 20
43.0564
 11
3.05139
 21
43.0804
  0
LINE
  8
0
 10
3.05139
 20
43.0804
 11
3.11241
 21
43.095
  0
LINE
  8
0
 10
3.11241
 20
43.095
 11
3.17499
 21
43.1
  0
LINE
  8
0
 10
3.17499
 20
43.1
 11
3.23756
 21
43.095
  0
LINE
  8
0
 10
3.23756
 20
43.095
 11
3.2986
 21
43.0804
  0
LINE
  8
0
 10
3.2986
 20
43.0804
 11
3.35658
 21
43.0564
  0
LINE
  8
0
 10
3.35658
 20
43.0564
 11
3.41011
 21
43.0236
  0
LINE
  8
0
 10
3.41011
 20
43.0236
 11
3.45784
 21
42.9828
  0
LINE
  8
0
 10
3.45784
 20
42.9828
 11
3.4986
 21
42.9351
  0
LINE
  8
0
 10
3.4986
 20
42.9351
 11
3.5314
 21
42.8816
  0
LINE
  8
0
 10
3.5314
 20
42.8816
 11
3.55542
 21
42.8236
  0
LINE
  8
0
 10
3.55542
 20
42.8236
 11
3.57007
 21
42.7625
  0
LINE
  8
0
 10
3.57007
 20
42.7625
 11
3.575
 21
42.7
  0
LINE
  8
0
 10
3.575
 20
42.7
 11
3.57007
 21
42.6374
  0
LINE
  8
0
 10
3.57007
 20
42.6374
 11
3.55542
 21
42.5764
  0
LINE
  8
0
 10
3.55542
 20
42.5764
 11
3.5314
 21
42.5184
  0
LINE
  8
0
 10
3.5314
 20
42.5184
 11
3.4986
 21
42.4649
  0
LINE
  8
0
 10
3.4986
 20
42.4649
 11
3.45784
 21
42.4171
  0
LINE
  8
0
 10
3.45784
 20
42.4171
 11
3.41011
 21
42.3764
  0
LINE
  8
0
 10
3.41011
 20
42.3764
 11
3.35658
 21
42.3436
  0
LINE
  8
0
 10
3.35658
 20
42.3436
 11
3.2986
 21
42.3196
  0
LINE
  8
0
 10
3.2986
 20
42.3196
 11
3.23756
 21
42.3049
  0
LINE
  8
0
 10
3.23756
 20
42.3049
 11
3.17499
 21
42.3
  0
LINE
  8
0
 10
3.17499
 20
42.3
 11
3.11241
 21
42.3049
  0
LINE
  8
0
 10
12.7624
 20
42.3049
 11
12.7014
 21
42.3196
  0
LINE
  8
0
 10
12.7014
 20
42.3196
 11
12.6434
 21
42.3436
  0
LINE
  8
0
 10
12.6434
 20
42.3436
 11
12.5899
 21
42.3764
  0
LINE
  8
0
 10
12.5899
 20
42.3764
 11
12.5421
 21
42.4171
  0
LINE
  8
0
 10
12.5421
 20
42.4171
 11
12.5014
 21
42.4649
  0
LINE
  8
0
 10
12.5014
 20
42.4649
 11
12.4686
 21
42.5184
  0
LINE
  8
0
 10
12.4686
 20
42.5184
 11
12.4446
 21
42.5764
  0
LINE
  8
0
 10
12.4446
 20
42.5764
 11
12.4299
 21
42.6374
  0
LINE
  8
0
 10
12.4299
 20
42.6374
 11
12.425
 21
42.7
  0
LINE
  8
0
 10
12.425
 20
42.7
 11
12.4299
 21
42.7625
  0
LINE
  8
0
 10
12.4299
 20
42.7625
 11
12.4446
 21
42.8236
  0
LINE
  8
0
 10
12.4446
 20
42.8236
 11
12.4686
 21
42.8816
  0
LINE
  8
0
 10
12.4686
 20
42.8816
 11
12.5014
 21
42.9351
  0
LINE
  8
0
 10
12.5014
 20
42.9351
 11
12.5421
 21
42.9828
  0
LINE
  8
0
 10
12.5421
 20
42.9828
 11
12.5899
 21
43.0236
  0
LINE
  8
0
 10
12.5899
 20
43.0236
 11
12.6434
 21
43.0564
  0
LINE
  8
0
 10
12.6434
 20
43.0564
 11
12.7014
 21
43.0804
  0
LINE
  8
0
 10
12.7014
 20
43.0804
 11
12.7624
 21
43.095
  0
LINE
  8
0
 10
12.7624
 20
43.095
 11
12.825
 21
43.1
  0
LINE
  8
0
 10
12.825
 20
43.1
 11
12.8876
 21
43.095
  0
LINE
  8
0
 10
12.8876
 20
43.095
 11
12.9486
 21
43.0804
  0
LINE
  8
0
 10
12.9486
 20
43.0804
 11
13.0066
 21
43.0564
  0
LINE
  8
0
 10
13.0066
 20
43.0564
 11
13.0601
 21
43.0236
  0
LINE
  8
0
 10
13.0601
 20
43.0236
 11
13.1078
 21
42.9828
  0
LINE
  8
0
 10
13.1078
 20
42.9828
 11
13.1486
 21
42.9351
  0
LINE
  8
0
 10
13.1486
 20
42.9351
 11
13.1814
 21
42.8816
  0
LINE
  8
0
 10
13.1814
 20
42.8816
 11
13.2054
 21
42.8236
  0
LINE
  8
0
 10
13.2054
 20
42.8236
 11
13.2201
 21
42.7625
  0
LINE
  8
0
 10
13.2201
 20
42.7625
 11
13.225
 21
42.7
  0
LINE
  8
0
 10
13.225
 20
42.7
 11
13.2201
 21
42.6374
  0
LINE
  8
0
 10
13.2201
 20
42.6374
 11
13.2054
 21
42.5764
  0
LINE
  8
0
 10
13.2054
 20
42.5764
 11
13.1814
 21
42.5184
  0
LINE
  8
0
 10
13.1814
 20
42.5184
 11
13.1486
 21
42.4649
  0
LINE
  8
0
 10
13.1486
 20
42.4649
 11
13.1078
 21
42.4171
  0
LINE
  8
0
 10
13.1078
 20
42.4171
 11
13.0601
 21
42.3764
  0
LINE
  8
0
 10
13.0601
 20
42.3764
 11
13.0066
 21
42.3436
  0
LINE
  8
0
 10
13.0066
 20
42.3436
 11
12.9486
 21
42.3196
  0
LINE
  8
0
 10
12.9486
 20
42.3196
 11
12.8876
 21
42.3049
  0
LINE
  8
0
 10
12.8876
 20
42.3049
 11
12.825
 21
42.3
  0
LINE
  8
0
 10
12.825
 20
42.3
 11
12.7624
 21
42.3049
  0
LINE
  8
0
 10
7.93744
 20
29.2049
 11
7.8764
 21
29.2196
  0
LINE
  8
0
 10
7.8764
 20
29.2196
 11
7.81841
 21
29.2436
  0
LINE
  8
0
 10
7.81841
 20
29.2436
 11
7.76489
 21
29.2764
  0
LINE
  8
0
 10
7.76489
 20
29.2764
 11
7.71716
 21
29.3171
  0
LINE
  8
0
 10
7.71716
 20
29.3171
 11
7.67641
 21
29.3649
  0
LINE
  8
0
 10
7.67641
 20
29.3649
 11
7.6436
 21
29.4184
  0
LINE
  8
0
 10
7.6436
 20
29.4184
 11
7.61958
 21
29.4764
  0
LINE
  8
0
 10
7.61958
 20
29.4764
 11
7.60493
 21
29.5374
  0
LINE
  8
0
 10
7.60493
 20
29.5374
 11
7.60001
 21
29.6
  0
LINE
  8
0
 10
7.60001
 20
29.6
 11
7.60493
 21
29.6625
  0
LINE
  8
0
 10
7.60493
 20
29.6625
 11
7.61958
 21
29.7236
  0
LINE
  8
0
 10
7.61958
 20
29.7236
 11
7.6436
 21
29.7816
  0
LINE
  8
0
 10
7.6436
 20
29.7816
 11
7.67641
 21
29.8351
  0
LINE
  8
0
 10
7.67641
 20
29.8351
 11
7.71716
 21
29.8828
  0
LINE
  8
0
 10
7.71716
 20
29.8828
 11
7.76489
 21
29.9236
  0
LINE
  8
0
 10
7.76489
 20
29.9236
 11
7.81841
 21
29.9564
  0
LINE
  8
0
 10
7.81841
 20
29.9564
 11
7.85001
 21
29.9695
  0
LINE
  8
0
 10
7.85001
 20
29.9695
 11
7.85001
 21
30.8305
  0
LINE
  8
0
 10
7.85001
 20
30.8305
 11
7.81841
 21
30.8436
  0
LINE
  8
0
 10
7.81841
 20
30.8436
 11
7.76489
 21
30.8764
  0
LINE
  8
0
 10
7.76489
 20
30.8764
 11
7.71716
 21
30.9171
  0
LINE
  8
0
 10
7.71716
 20
30.9171
 11
7.67641
 21
30.9649
  0
LINE
  8
0
 10
7.67641
 20
30.9649
 11
7.6436
 21
31.0184
  0
LINE
  8
0
 10
7.6436
 20
31.0184
 11
7.61958
 21
31.0764
  0
LINE
  8
0
 10
7.61958
 20
31.0764
 11
7.60493
 21
31.1374
  0
LINE
  8
0
 10
7.60493
 20
31.1374
 11
7.60001
 21
31.2
  0
LINE
  8
0
 10
7.60001
 20
31.2
 11
7.60493
 21
31.2626
  0
LINE
  8
0
 10
7.60493
 20
31.2626
 11
7.61958
 21
31.3236
  0
LINE
  8
0
 10
7.61958
 20
31.3236
 11
7.6436
 21
31.3816
  0
LINE
  8
0
 10
7.6436
 20
31.3816
 11
7.67641
 21
31.4351
  0
LINE
  8
0
 10
7.67641
 20
31.4351
 11
7.71716
 21
31.4828
  0
LINE
  8
0
 10
7.71716
 20
31.4828
 11
7.76489
 21
31.5236
  0
LINE
  8
0
 10
7.76489
 20
31.5236
 11
7.81841
 21
31.5564
  0
LINE
  8
0
 10
7.81841
 20
31.5564
 11
7.85001
 21
31.5695
  0
LINE
  8
0
 10
7.85001
 20
31.5695
 11
7.85001
 21
31.7
  0
LINE
  8
0
 10
7.85001
 20
31.7
 11
8.14999
 21
31.7
  0
LINE
  8
0
 10
8.14999
 20
31.7
 11
8.14999
 21
31.5695
  0
LINE
  8
0
 10
8.14999
 20
31.5695
 11
8.18159
 21
31.5564
  0
LINE
  8
0
 10
8.18159
 20
31.5564
 11
8.23511
 21
31.5236
  0
LINE
  8
0
 10
8.23511
 20
31.5236
 11
8.28284
 21
31.4828
  0
LINE
  8
0
 10
8.28284
 20
31.4828
 11
8.32359
 21
31.4351
  0
LINE
  8
0
 10
8.32359
 20
31.4351
 11
8.3564
 21
31.3816
  0
LINE
  8
0
 10
8.3564
 20
31.3816
 11
8.38042
 21
31.3236
  0
LINE
  8
0
 10
8.38042
 20
31.3236
 11
8.39507
 21
31.2626
  0
LINE
  8
0
 10
8.39507
 20
31.2626
 11
8.39999
 21
31.2
  0
LINE
  8
0
 10
8.39999
 20
31.2
 11
8.39507
 21
31.1374
  0
LINE
  8
0
 10
8.39507
 20
31.1374
 11
8.38042
 21
31.0764
  0
LINE
  8
0
 10
8.38042
 20
31.0764
 11
8.3564
 21
31.0184
  0
LINE
  8
0
 10
8.3564
 20
31.0184
 11
8.32359
 21
30.9649
  0
LINE
  8
0
 10
8.32359
 20
30.9649
 11
8.28284
 21
30.9171
  0
LINE
  8
0
 10
8.28284
 20
30.9171
 11
8.23511
 21
30.8764
  0
LINE
  8
0
 10
8.23511
 20
30.8764
 11
8.18159
 21
30.8436
  0
LINE
  8
0
 10
8.18159
 20
30.8436
 11
8.14999
 21
30.8305
  0
LINE
  8
0
 10
8.14999
 20
30.8305
 11
8.14999
 21
29.9695
  0
LINE
  8
0
 10
8.14999
 20
29.9695
 11
8.18159
 21
29.9564
  0
LINE
  8
0
 10
8.18159
 20
29.9564
 11
8.23511
 21
29.9236
  0
LINE
  8
0
 10
8.23511
 20
29.9236
 11
8.28284
 21
29.8828
  0
LINE
  8
0
 10
8.28284
 20
29.8828
 11
8.32359
 21
29.8351
  0
LINE
  8
0
 10
8.32359
 20
29.8351
 11
8.3564
 21
29.7816
  0
LINE
  8
0
 10
8.3564
 20
29.7816
 11
8.38042
 21
29.7236
  0
LINE
  8
0
 10
8.38042
 20
29.7236
 11
8.39507
 21
29.6625
  0
LINE
  8
0
 10
8.39507
 20
29.6625
 11
8.39999
 21
29.6
  0
LINE
  8
0
 10
8.39999
 20
29.6
 11
8.39507
 21
29.5374
  0
LINE
  8
0
 10
8.39507
 20
29.5374
 11
8.38042
 21
29.4764
  0
LINE
  8
0
 10
8.38042
 20
29.4764
 11
8.3564
 21
29.4184
  0
LINE
  8
0
 10
8.3564
 20
29.4184
 11
8.32359
 21
29.3649
  0
LINE
  8
0
 10
8.32359
 20
29.3649
 11
8.28284
 21
29.3171
  0
LINE
  8
0
 10
8.28284
 20
29.3171
 11
8.23511
 21
29.2764
  0
LINE
  8
0
 10
8.23511
 20
29.2764
 11
8.18159
 21
29.2436
  0
LINE
  8
0
 10
8.18159
 20
29.2436
 11
8.1236
 21
29.2196
  0
LINE
  8
0
 10
8.1236
 20
29.2196
 11
8.06256
 21
29.2049
  0
LINE
  8
0
 10
8.06256
 20
29.2049
 11
8
 21
29.2
  0
LINE
  8
0
 10
8
 20
29.2
 11
7.93744
 21
29.2049
  0
LINE
  8
0
 10
1.03741
 20
13.4049
 11
0.976379
 21
13.4196
  0
LINE
  8
0
 10
0.976379
 20
13.4196
 11
0.918396
 21
13.4436
  0
LINE
  8
0
 10
0.918396
 20
13.4436
 11
0.864883
 21
13.4764
  0
LINE
  8
0
 10
0.864883
 20
13.4764
 11
0.817154
 21
13.5172
  0
LINE
  8
0
 10
0.817154
 20
13.5172
 11
0.776382
 21
13.5649
  0
LINE
  8
0
 10
0.776382
 20
13.5649
 11
0.743591
 21
13.6184
  0
LINE
  8
0
 10
0.743591
 20
13.6184
 11
0.719574
 21
13.6764
  0
LINE
  8
0
 10
0.719574
 20
13.6764
 11
0.70491
 21
13.7374
  0
LINE
  8
0
 10
0.70491
 20
13.7374
 11
0.699997
 21
13.8
  0
LINE
  8
0
 10
0.699997
 20
13.8
 11
0.70491
 21
13.8626
  0
LINE
  8
0
 10
0.70491
 20
13.8626
 11
0.719574
 21
13.9236
  0
LINE
  8
0
 10
0.719574
 20
13.9236
 11
0.743591
 21
13.9816
  0
LINE
  8
0
 10
0.743591
 20
13.9816
 11
0.776382
 21
14.0351
  0
LINE
  8
0
 10
0.776382
 20
14.0351
 11
0.817154
 21
14.0828
  0
LINE
  8
0
 10
0.817154
 20
14.0828
 11
0.864883
 21
14.1236
  0
LINE
  8
0
 10
0.864883
 20
14.1236
 11
0.918396
 21
14.1564
  0
LINE
  8
0
 10
0.918396
 20
14.1564
 11
0.976379
 21
14.1804
  0
LINE
  8
0
 10
0.976379
 20
14.1804
 11
1.03741
 21
14.1951
  0
LINE
  8
0
 10
1.03741
 20
14.1951
 11
1.09999
 21
14.2
  0
LINE
  8
0
 10
1.09999
 20
14.2
 11
1.16257
 21
14.1951
  0
LINE
  8
0
 10
1.16257
 20
14.1951
 11
1.2236
 21
14.1804
  0
LINE
  8
0
 10
1.2236
 20
14.1804
 11
1.28159
 21
14.1564
  0
LINE
  8
0
 10
1.28159
 20
14.1564
 11
1.33511
 21
14.1236
  0
LINE
  8
0
 10
1.33511
 20
14.1236
 11
1.38283
 21
14.0828
  0
LINE
  8
0
 10
1.38283
 20
14.0828
 11
1.4236
 21
14.0351
  0
LINE
  8
0
 10
1.4236
 20
14.0351
 11
1.45639
 21
13.9816
  0
LINE
  8
0
 10
1.45639
 20
13.9816
 11
1.48041
 21
13.9236
  0
LINE
  8
0
 10
1.48041
 20
13.9236
 11
1.49507
 21
13.8626
  0
LINE
  8
0
 10
1.49507
 20
13.8626
 11
1.5
 21
13.8
  0
LINE
  8
0
 10
1.5
 20
13.8
 11
1.49507
 21
13.7374
  0
LINE
  8
0
 10
1.49507
 20
13.7374
 11
1.48041
 21
13.6764
  0
LINE
  8
0
 10
1.48041
 20
13.6764
 11
1.45639
 21
13.6184
  0
LINE
  8
0
 10
1.45639
 20
13.6184
 11
1.4236
 21
13.5649
  0
LINE
  8
0
 10
1.4236
 20
13.5649
 11
1.38283
 21
13.5172
  0
LINE
  8
0
 10
1.38283
 20
13.5172
 11
1.33511
 21
13.4764
  0
LINE
  8
0
 10
1.33511
 20
13.4764
 11
1.28159
 21
13.4436
  0
LINE
  8
0
 10
1.28159
 20
13.4436
 11
1.2236
 21
13.4196
  0
LINE
  8
0
 10
1.2236
 20
13.4196
 11
1.16257
 21
13.4049
  0
LINE
  8
0
 10
1.16257
 20
13.4049
 11
1.09999
 21
13.4
  0
LINE
  8
0
 10
1.09999
 20
13.4
 11
1.03741
 21
13.4049
  0
LINE
  8
0
 10
13.8
 20
41.1
 11
13.8
 21
16
  0
LINE
  8
0
 10
13.8
 20
16
 11
11.5696
 21
16
  0
LINE
  8
0
 10
11.5696
 20
16
 11
11.4304
 21
16.5239
  0
LINE
  8
0
 10
11.4304
 20
16.5239
 11
11.1147
 21
17.3267
  0
LINE
  8
0
 10
11.1147
 20
17.3267
 11
10.7224
 21
18.0426
  0
LINE
  8
0
 10
10.7224
 20
18.0426
 11
10.263
 21
18.6541
  0
LINE
  8
0
 10
10.263
 20
18.6541
 11
9.74785
 21
19.146
  0
LINE
  8
0
 10
9.74785
 20
19.146
 11
9.1897
 21
19.5063
  0
LINE
  8
0
 10
9.1897
 20
19.5063
 11
8.60226
 21
19.7261
  0
LINE
  8
0
 10
8.60226
 20
19.7261
 11
8.39615
 21
19.7514
  0
LINE
  8
0
 10
8.39615
 20
19.7514
 11
8.39505
 21
19.7374
  0
LINE
  8
0
 10
8.39505
 20
19.7374
 11
8.3804
 21
19.6764
  0
LINE
  8
0
 10
8.3804
 20
19.6764
 11
8.35638
 21
19.6184
  0
LINE
  8
0
 10
8.35638
 20
19.6184
 11
8.32358
 21
19.5649
  0
LINE
  8
0
 10
8.32358
 20
19.5649
 11
8.28282
 21
19.5172
  0
LINE
  8
0
 10
8.28282
 20
19.5172
 11
8.23509
 21
19.4764
  0
LINE
  8
0
 10
8.23509
 20
19.4764
 11
8.18158
 21
19.4436
  0
LINE
  8
0
 10
8.18158
 20
19.4436
 11
8.12358
 21
19.4196
  0
LINE
  8
0
 10
8.12358
 20
19.4196
 11
8.06255
 21
19.4049
  0
LINE
  8
0
 10
8.06255
 20
19.4049
 11
7.99998
 21
19.4
  0
LINE
  8
0
 10
7.99998
 20
19.4
 11
7.93742
 21
19.4049
  0
LINE
  8
0
 10
7.93742
 20
19.4049
 11
7.87639
 21
19.4196
  0
LINE
  8
0
 10
7.87639
 20
19.4196
 11
7.81839
 21
19.4436
  0
LINE
  8
0
 10
7.81839
 20
19.4436
 11
7.76488
 21
19.4764
  0
LINE
  8
0
 10
7.76488
 20
19.4764
 11
7.71715
 21
19.5172
  0
LINE
  8
0
 10
7.71715
 20
19.5172
 11
7.67639
 21
19.5649
  0
LINE
  8
0
 10
7.67639
 20
19.5649
 11
7.64359
 21
19.6184
  0
LINE
  8
0
 10
7.64359
 20
19.6184
 11
7.61957
 21
19.6764
  0
LINE
  8
0
 10
7.61957
 20
19.6764
 11
7.60492
 21
19.7374
  0
LINE
  8
0
 10
7.60492
 20
19.7374
 11
7.60382
 21
19.7514
  0
LINE
  8
0
 10
7.60382
 20
19.7514
 11
7.39772
 21
19.7261
  0
LINE
  8
0
 10
7.39772
 20
19.7261
 11
6.81027
 21
19.5063
  0
LINE
  8
0
 10
6.81027
 20
19.5063
 11
6.25212
 21
19.146
  0
LINE
  8
0
 10
6.25212
 20
19.146
 11
5.73701
 21
18.6541
  0
LINE
  8
0
 10
5.73701
 20
18.6541
 11
5.27762
 21
18.0426
  0
LINE
  8
0
 10
5.27762
 20
18.0426
 11
4.88527
 21
17.3267
  0
LINE
  8
0
 10
4.88527
 20
17.3267
 11
4.56961
 21
16.5239
  0
LINE
  8
0
 10
4.56961
 20
16.5239
 11
4.43036
 21
16
  0
LINE
  8
0
 10
4.43036
 20
16
 11
2.2
 21
16
  0
LINE
  8
0
 10
2.2
 20
16
 11
2.2
 21
41.1
  0
LINE
  8
0
 10
2.2
 20
41.1
 11
4.14999
 21
41.1
  0
LINE
  8
0
 10
4.14999
 20
41.1
 11
4.14999
 21
32.8
  0
LINE
  8
0
 10
4.14999
 20
32.8
 11
4.1974
 21
31.8614
  0
LINE
  8
0
 10
4.1974
 20
31.8614
 11
4.33842
 21
30.9459
  0
LINE
  8
0
 10
4.33842
 20
30.9459
 11
4.56963
 21
30.076
  0
LINE
  8
0
 10
4.56963
 20
30.076
 11
4.88528
 21
29.2733
  0
LINE
  8
0
 10
4.88528
 20
29.2733
 11
5.27763
 21
28.5574
  0
LINE
  8
0
 10
5.27763
 20
28.5574
 11
5.73703
 21
27.9459
  0
LINE
  8
0
 10
5.73703
 20
27.9459
 11
6.25214
 21
27.4539
  0
LINE
  8
0
 10
6.25214
 20
27.4539
 11
6.81029
 21
27.0937
  0
LINE
  8
0
 10
6.81029
 20
27.0937
 11
7.39772
 21
26.8739
  0
LINE
  8
0
 10
7.39772
 20
26.8739
 11
7.60384
 21
26.8486
  0
LINE
  8
0
 10
7.60384
 20
26.8486
 11
7.60493
 21
26.8625
  0
LINE
  8
0
 10
7.60493
 20
26.8625
 11
7.61958
 21
26.9236
  0
LINE
  8
0
 10
7.61958
 20
26.9236
 11
7.6436
 21
26.9816
  0
LINE
  8
0
 10
7.6436
 20
26.9816
 11
7.67641
 21
27.0351
  0
LINE
  8
0
 10
7.67641
 20
27.0351
 11
7.71716
 21
27.0828
  0
LINE
  8
0
 10
7.71716
 20
27.0828
 11
7.76489
 21
27.1236
  0
LINE
  8
0
 10
7.76489
 20
27.1236
 11
7.81841
 21
27.1564
  0
LINE
  8
0
 10
7.81841
 20
27.1564
 11
7.8764
 21
27.1804
  0
LINE
  8
0
 10
7.8764
 20
27.1804
 11
7.93744
 21
27.1951
  0
LINE
  8
0
 10
7.93744
 20
27.1951
 11
8
 21
27.2
  0
LINE
  8
0
 10
8
 20
27.2
 11
8.06256
 21
27.1951
  0
LINE
  8
0
 10
8.06256
 20
27.1951
 11
8.1236
 21
27.1804
  0
LINE
  8
0
 10
8.1236
 20
27.1804
 11
8.18159
 21
27.1564
  0
LINE
  8
0
 10
8.18159
 20
27.1564
 11
8.23511
 21
27.1236
  0
LINE
  8
0
 10
8.23511
 20
27.1236
 11
8.28284
 21
27.0828
  0
LINE
  8
0
 10
8.28284
 20
27.0828
 11
8.32359
 21
27.0351
  0
LINE
  8
0
 10
8.32359
 20
27.0351
 11
8.3564
 21
26.9816
  0
LINE
  8
0
 10
8.3564
 20
26.9816
 11
8.38042
 21
26.9236
  0
LINE
  8
0
 10
8.38042
 20
26.9236
 11
8.39507
 21
26.8625
  0
LINE
  8
0
 10
8.39507
 20
26.8625
 11
8.39616
 21
26.8486
  0
LINE
  8
0
 10
8.39616
 20
26.8486
 11
8.60226
 21
26.8739
  0
LINE
  8
0
 10
8.60226
 20
26.8739
 11
9.18971
 21
27.0937
  0
LINE
  8
0
 10
9.18971
 20
27.0937
 11
9.74786
 21
27.4539
  0
LINE
  8
0
 10
9.74786
 20
27.4539
 11
10.263
 21
27.9459
  0
LINE
  8
0
 10
10.263
 20
27.9459
 11
10.7224
 21
28.5574
  0
LINE
  8
0
 10
10.7224
 20
28.5574
 11
11.1147
 21
29.2733
  0
LINE
  8
0
 10
11.1147
 20
29.2733
 11
11.4304
 21
30.076
  0
LINE
  8
0
 10
11.4304
 20
30.076
 11
11.6616
 21
30.9459
  0
LINE
  8
0
 10
11.6616
 20
30.9459
 11
11.8026
 21
31.8614
  0
LINE
  8
0
 10
11.8026
 20
31.8614
 11
11.85
 21
32.8
  0
LINE
  8
0
 10
11.85
 20
32.8
 11
11.85
 21
41.1
  0
LINE
  8
0
 10
11.85
 20
41.1
 11
13.8
 21
41.1
  0
ENDSEC
  0
SECTION
  2
OBJECTS
  0
DICTIONARY
  0
ENDSEC
  0
EOF
