  0
SECTION
  2
BLOCKS
  0
ENDSEC
  0
SECTION
  2
ENTITIES
  0
LINE
  8
0
 10
9.25
 20
53
 11
6.75
 21
53
  0
LINE
  8
0
 10
6.75
 20
53
 11
6.75
 21
34.1
  0
LINE
  8
0
 10
6.75
 20
34.1
 11
6.34999
 21
34.1
  0
LINE
  8
0
 10
6.34999
 20
34.1
 11
6.34999
 21
50.4779
  0
LINE
  8
0
 10
6.34999
 20
50.4779
 11
4.25876
 21
54.1
  0
LINE
  8
0
 10
4.25876
 20
54.1
 11
3.95
 21
54.1
  0
LINE
  8
0
 10
3.95
 20
54.1
 11
3.95
 21
45.4
  0
LINE
  8
0
 10
3.95
 20
45.4
 11
-2.40999
 21
45.4
  0
LINE
  8
0
 10
-2.40999
 20
45.4
 11
-2.40999
 21
9.15527e-005
  0
LINE
  8
0
 10
-2.40999
 20
9.15527e-005
 11
-2.07841
 21
9.15527e-005
  0
LINE
  8
0
 10
-2.07841
 20
9.15527e-005
 11
-0.00999451
 21
3.58269
  0
LINE
  8
0
 10
-0.00999451
 20
3.58269
 11
-0.00999451
 21
42
  0
LINE
  8
0
 10
-0.00999451
 20
42
 11
0
 21
42
  0
LINE
  8
0
 10
0
 20
42
 11
0
 21
3.59999
  0
LINE
  8
0
 10
0
 20
3.59999
 11
2.07846
 21
0
  0
LINE
  8
0
 10
2.07846
 20
0
 11
2.39999
 21
0
  0
LINE
  8
0
 10
2.39999
 20
0
 11
2.39999
 21
11.2
  0
LINE
  8
0
 10
2.39999
 20
11.2
 11
7.84999
 21
11.2
  0
LINE
  8
0
 10
7.84999
 20
11.2
 11
7.84999
 21
16.4305
  0
LINE
  8
0
 10
7.84999
 20
16.4305
 11
7.81839
 21
16.4436
  0
LINE
  8
0
 10
7.81839
 20
16.4436
 11
7.76488
 21
16.4764
  0
LINE
  8
0
 10
7.76488
 20
16.4764
 11
7.71715
 21
16.5172
  0
LINE
  8
0
 10
7.71715
 20
16.5172
 11
7.67639
 21
16.5649
  0
LINE
  8
0
 10
7.67639
 20
16.5649
 11
7.64359
 21
16.6184
  0
LINE
  8
0
 10
7.64359
 20
16.6184
 11
7.61957
 21
16.6764
  0
LINE
  8
0
 10
7.61957
 20
16.6764
 11
7.60492
 21
16.7374
  0
LINE
  8
0
 10
7.60492
 20
16.7374
 11
7.59999
 21
16.8
  0
LINE
  8
0
 10
7.59999
 20
16.8
 11
7.60492
 21
16.8626
  0
LINE
  8
0
 10
7.60492
 20
16.8626
 11
7.61957
 21
16.9236
  0
LINE
  8
0
 10
7.61957
 20
16.9236
 11
7.64359
 21
16.9816
  0
LINE
  8
0
 10
7.64359
 20
16.9816
 11
7.67639
 21
17.0351
  0
LINE
  8
0
 10
7.67639
 20
17.0351
 11
7.71715
 21
17.0828
  0
LINE
  8
0
 10
7.71715
 20
17.0828
 11
7.76488
 21
17.1236
  0
LINE
  8
0
 10
7.76488
 20
17.1236
 11
7.81839
 21
17.1564
  0
LINE
  8
0
 10
7.81839
 20
17.1564
 11
7.87639
 21
17.1804
  0
LINE
  8
0
 10
7.87639
 20
17.1804
 11
7.93742
 21
17.1951
  0
LINE
  8
0
 10
7.93742
 20
17.1951
 11
7.99998
 21
17.2
  0
LINE
  8
0
 10
7.99998
 20
17.2
 11
8.06255
 21
17.1951
  0
LINE
  8
0
 10
8.06255
 20
17.1951
 11
8.12358
 21
17.1804
  0
LINE
  8
0
 10
8.12358
 20
17.1804
 11
8.18158
 21
17.1564
  0
LINE
  8
0
 10
8.18158
 20
17.1564
 11
8.23509
 21
17.1236
  0
LINE
  8
0
 10
8.23509
 20
17.1236
 11
8.28282
 21
17.0828
  0
LINE
  8
0
 10
8.28282
 20
17.0828
 11
8.32358
 21
17.0351
  0
LINE
  8
0
 10
8.32358
 20
17.0351
 11
8.35638
 21
16.9816
  0
LINE
  8
0
 10
8.35638
 20
16.9816
 11
8.3804
 21
16.9236
  0
LINE
  8
0
 10
8.3804
 20
16.9236
 11
8.39505
 21
16.8626
  0
LINE
  8
0
 10
8.39505
 20
16.8626
 11
8.39998
 21
16.8
  0
LINE
  8
0
 10
8.39998
 20
16.8
 11
8.39505
 21
16.7374
  0
LINE
  8
0
 10
8.39505
 20
16.7374
 11
8.3804
 21
16.6764
  0
LINE
  8
0
 10
8.3804
 20
16.6764
 11
8.35638
 21
16.6184
  0
LINE
  8
0
 10
8.35638
 20
16.6184
 11
8.32358
 21
16.5649
  0
LINE
  8
0
 10
8.32358
 20
16.5649
 11
8.28282
 21
16.5172
  0
LINE
  8
0
 10
8.28282
 20
16.5172
 11
8.23509
 21
16.4764
  0
LINE
  8
0
 10
8.23509
 20
16.4764
 11
8.18158
 21
16.4436
  0
LINE
  8
0
 10
8.18158
 20
16.4436
 11
8.14998
 21
16.4305
  0
LINE
  8
0
 10
8.14998
 20
16.4305
 11
8.14999
 21
11.2
  0
LINE
  8
0
 10
8.14999
 20
11.2
 11
13.6
 21
11.2
  0
LINE
  8
0
 10
13.6
 20
11.2
 11
13.6
 21
0
  0
LINE
  8
0
 10
13.6
 20
0
 11
16
 21
0
  0
LINE
  8
0
 10
16
 20
0
 11
16
 21
45.4
  0
LINE
  8
0
 10
16
 20
45.4
 11
12.05
 21
45.4
  0
LINE
  8
0
 10
12.05
 20
45.4
 11
12.05
 21
54.1
  0
LINE
  8
0
 10
12.05
 20
54.1
 11
11.7412
 21
54.1
  0
LINE
  8
0
 10
11.7412
 20
54.1
 11
9.64999
 21
50.4779
  0
LINE
  8
0
 10
9.64999
 20
50.4779
 11
9.64999
 21
34.1
  0
LINE
  8
0
 10
9.64999
 20
34.1
 11
9.25
 21
34.1
  0
LINE
  8
0
 10
9.25
 20
34.1
 11
9.25
 21
53
  0
LINE
  8
0
 10
3.11241
 20
43.3049
 11
3.05139
 21
43.3196
  0
LINE
  8
0
 10
3.05139
 20
43.3196
 11
2.99339
 21
43.3436
  0
LINE
  8
0
 10
2.99339
 20
43.3436
 11
2.93988
 21
43.3764
  0
LINE
  8
0
 10
2.93988
 20
43.3764
 11
2.89215
 21
43.4172
  0
LINE
  8
0
 10
2.89215
 20
43.4172
 11
2.85138
 21
43.4649
  0
LINE
  8
0
 10
2.85138
 20
43.4649
 11
2.81859
 21
43.5184
  0
LINE
  8
0
 10
2.81859
 20
43.5184
 11
2.79457
 21
43.5764
  0
LINE
  8
0
 10
2.79457
 20
43.5764
 11
2.77992
 21
43.6374
  0
LINE
  8
0
 10
2.77992
 20
43.6374
 11
2.77499
 21
43.7
  0
LINE
  8
0
 10
2.77499
 20
43.7
 11
2.77992
 21
43.7626
  0
LINE
  8
0
 10
2.77992
 20
43.7626
 11
2.79457
 21
43.8236
  0
LINE
  8
0
 10
2.79457
 20
43.8236
 11
2.81859
 21
43.8816
  0
LINE
  8
0
 10
2.81859
 20
43.8816
 11
2.85138
 21
43.9351
  0
LINE
  8
0
 10
2.85138
 20
43.9351
 11
2.89215
 21
43.9828
  0
LINE
  8
0
 10
2.89215
 20
43.9828
 11
2.93988
 21
44.0236
  0
LINE
  8
0
 10
2.93988
 20
44.0236
 11
2.99339
 21
44.0564
  0
LINE
  8
0
 10
2.99339
 20
44.0564
 11
3.05139
 21
44.0804
  0
LINE
  8
0
 10
3.05139
 20
44.0804
 11
3.11241
 21
44.0951
  0
LINE
  8
0
 10
3.11241
 20
44.0951
 11
3.17499
 21
44.1
  0
LINE
  8
0
 10
3.17499
 20
44.1
 11
3.23756
 21
44.0951
  0
LINE
  8
0
 10
3.23756
 20
44.0951
 11
3.2986
 21
44.0804
  0
LINE
  8
0
 10
3.2986
 20
44.0804
 11
3.35658
 21
44.0564
  0
LINE
  8
0
 10
3.35658
 20
44.0564
 11
3.41011
 21
44.0236
  0
LINE
  8
0
 10
3.41011
 20
44.0236
 11
3.45784
 21
43.9828
  0
LINE
  8
0
 10
3.45784
 20
43.9828
 11
3.4986
 21
43.9351
  0
LINE
  8
0
 10
3.4986
 20
43.9351
 11
3.5314
 21
43.8816
  0
LINE
  8
0
 10
3.5314
 20
43.8816
 11
3.55542
 21
43.8236
  0
LINE
  8
0
 10
3.55542
 20
43.8236
 11
3.57007
 21
43.7626
  0
LINE
  8
0
 10
3.57007
 20
43.7626
 11
3.575
 21
43.7
  0
LINE
  8
0
 10
3.575
 20
43.7
 11
3.57007
 21
43.6374
  0
LINE
  8
0
 10
3.57007
 20
43.6374
 11
3.55542
 21
43.5764
  0
LINE
  8
0
 10
3.55542
 20
43.5764
 11
3.5314
 21
43.5184
  0
LINE
  8
0
 10
3.5314
 20
43.5184
 11
3.4986
 21
43.4649
  0
LINE
  8
0
 10
3.4986
 20
43.4649
 11
3.45784
 21
43.4172
  0
LINE
  8
0
 10
3.45784
 20
43.4172
 11
3.41011
 21
43.3764
  0
LINE
  8
0
 10
3.41011
 20
43.3764
 11
3.35658
 21
43.3436
  0
LINE
  8
0
 10
3.35658
 20
43.3436
 11
3.2986
 21
43.3196
  0
LINE
  8
0
 10
3.2986
 20
43.3196
 11
3.23756
 21
43.3049
  0
LINE
  8
0
 10
3.23756
 20
43.3049
 11
3.17499
 21
43.3
  0
LINE
  8
0
 10
3.17499
 20
43.3
 11
3.11241
 21
43.3049
  0
LINE
  8
0
 10
12.7624
 20
43.3049
 11
12.7014
 21
43.3196
  0
LINE
  8
0
 10
12.7014
 20
43.3196
 11
12.6434
 21
43.3436
  0
LINE
  8
0
 10
12.6434
 20
43.3436
 11
12.5899
 21
43.3764
  0
LINE
  8
0
 10
12.5899
 20
43.3764
 11
12.5421
 21
43.4172
  0
LINE
  8
0
 10
12.5421
 20
43.4172
 11
12.5014
 21
43.4649
  0
LINE
  8
0
 10
12.5014
 20
43.4649
 11
12.4686
 21
43.5184
  0
LINE
  8
0
 10
12.4686
 20
43.5184
 11
12.4446
 21
43.5764
  0
LINE
  8
0
 10
12.4446
 20
43.5764
 11
12.4299
 21
43.6374
  0
LINE
  8
0
 10
12.4299
 20
43.6374
 11
12.425
 21
43.7
  0
LINE
  8
0
 10
12.425
 20
43.7
 11
12.4299
 21
43.7626
  0
LINE
  8
0
 10
12.4299
 20
43.7626
 11
12.4446
 21
43.8236
  0
LINE
  8
0
 10
12.4446
 20
43.8236
 11
12.4686
 21
43.8816
  0
LINE
  8
0
 10
12.4686
 20
43.8816
 11
12.5014
 21
43.9351
  0
LINE
  8
0
 10
12.5014
 20
43.9351
 11
12.5421
 21
43.9828
  0
LINE
  8
0
 10
12.5421
 20
43.9828
 11
12.5899
 21
44.0236
  0
LINE
  8
0
 10
12.5899
 20
44.0236
 11
12.6434
 21
44.0564
  0
LINE
  8
0
 10
12.6434
 20
44.0564
 11
12.7014
 21
44.0804
  0
LINE
  8
0
 10
12.7014
 20
44.0804
 11
12.7624
 21
44.0951
  0
LINE
  8
0
 10
12.7624
 20
44.0951
 11
12.825
 21
44.1
  0
LINE
  8
0
 10
12.825
 20
44.1
 11
12.8876
 21
44.0951
  0
LINE
  8
0
 10
12.8876
 20
44.0951
 11
12.9486
 21
44.0804
  0
LINE
  8
0
 10
12.9486
 20
44.0804
 11
13.0066
 21
44.0564
  0
LINE
  8
0
 10
13.0066
 20
44.0564
 11
13.0601
 21
44.0236
  0
LINE
  8
0
 10
13.0601
 20
44.0236
 11
13.1078
 21
43.9828
  0
LINE
  8
0
 10
13.1078
 20
43.9828
 11
13.1486
 21
43.9351
  0
LINE
  8
0
 10
13.1486
 20
43.9351
 11
13.1814
 21
43.8816
  0
LINE
  8
0
 10
13.1814
 20
43.8816
 11
13.2054
 21
43.8236
  0
LINE
  8
0
 10
13.2054
 20
43.8236
 11
13.2201
 21
43.7626
  0
LINE
  8
0
 10
13.2201
 20
43.7626
 11
13.225
 21
43.7
  0
LINE
  8
0
 10
13.225
 20
43.7
 11
13.2201
 21
43.6374
  0
LINE
  8
0
 10
13.2201
 20
43.6374
 11
13.2054
 21
43.5764
  0
LINE
  8
0
 10
13.2054
 20
43.5764
 11
13.1814
 21
43.5184
  0
LINE
  8
0
 10
13.1814
 20
43.5184
 11
13.1486
 21
43.4649
  0
LINE
  8
0
 10
13.1486
 20
43.4649
 11
13.1078
 21
43.4172
  0
LINE
  8
0
 10
13.1078
 20
43.4172
 11
13.0601
 21
43.3764
  0
LINE
  8
0
 10
13.0601
 20
43.3764
 11
13.0066
 21
43.3436
  0
LINE
  8
0
 10
13.0066
 20
43.3436
 11
12.9486
 21
43.3196
  0
LINE
  8
0
 10
12.9486
 20
43.3196
 11
12.8876
 21
43.3049
  0
LINE
  8
0
 10
12.8876
 20
43.3049
 11
12.825
 21
43.3
  0
LINE
  8
0
 10
12.825
 20
43.3
 11
12.7624
 21
43.3049
  0
LINE
  8
0
 10
7.93744
 20
30.5049
 11
7.8764
 21
30.5196
  0
LINE
  8
0
 10
7.8764
 20
30.5196
 11
7.81841
 21
30.5436
  0
LINE
  8
0
 10
7.81841
 20
30.5436
 11
7.76489
 21
30.5764
  0
LINE
  8
0
 10
7.76489
 20
30.5764
 11
7.71716
 21
30.6171
  0
LINE
  8
0
 10
7.71716
 20
30.6171
 11
7.67641
 21
30.6649
  0
LINE
  8
0
 10
7.67641
 20
30.6649
 11
7.6436
 21
30.7184
  0
LINE
  8
0
 10
7.6436
 20
30.7184
 11
7.61958
 21
30.7764
  0
LINE
  8
0
 10
7.61958
 20
30.7764
 11
7.60493
 21
30.8374
  0
LINE
  8
0
 10
7.60493
 20
30.8374
 11
7.60001
 21
30.9
  0
LINE
  8
0
 10
7.60001
 20
30.9
 11
7.60493
 21
30.9625
  0
LINE
  8
0
 10
7.60493
 20
30.9625
 11
7.61958
 21
31.0236
  0
LINE
  8
0
 10
7.61958
 20
31.0236
 11
7.6436
 21
31.0816
  0
LINE
  8
0
 10
7.6436
 20
31.0816
 11
7.67641
 21
31.1351
  0
LINE
  8
0
 10
7.67641
 20
31.1351
 11
7.71716
 21
31.1828
  0
LINE
  8
0
 10
7.71716
 20
31.1828
 11
7.76489
 21
31.2236
  0
LINE
  8
0
 10
7.76489
 20
31.2236
 11
7.81841
 21
31.2564
  0
LINE
  8
0
 10
7.81841
 20
31.2564
 11
7.85001
 21
31.2695
  0
LINE
  8
0
 10
7.85001
 20
31.2695
 11
7.85001
 21
32.1305
  0
LINE
  8
0
 10
7.85001
 20
32.1305
 11
7.81841
 21
32.1436
  0
LINE
  8
0
 10
7.81841
 20
32.1436
 11
7.76489
 21
32.1764
  0
LINE
  8
0
 10
7.76489
 20
32.1764
 11
7.71716
 21
32.2171
  0
LINE
  8
0
 10
7.71716
 20
32.2171
 11
7.67641
 21
32.2649
  0
LINE
  8
0
 10
7.67641
 20
32.2649
 11
7.6436
 21
32.3184
  0
LINE
  8
0
 10
7.6436
 20
32.3184
 11
7.61958
 21
32.3764
  0
LINE
  8
0
 10
7.61958
 20
32.3764
 11
7.60493
 21
32.4374
  0
LINE
  8
0
 10
7.60493
 20
32.4374
 11
7.60001
 21
32.5
  0
LINE
  8
0
 10
7.60001
 20
32.5
 11
7.60493
 21
32.5626
  0
LINE
  8
0
 10
7.60493
 20
32.5626
 11
7.61958
 21
32.6236
  0
LINE
  8
0
 10
7.61958
 20
32.6236
 11
7.6436
 21
32.6816
  0
LINE
  8
0
 10
7.6436
 20
32.6816
 11
7.67641
 21
32.7351
  0
LINE
  8
0
 10
7.67641
 20
32.7351
 11
7.71716
 21
32.7828
  0
LINE
  8
0
 10
7.71716
 20
32.7828
 11
7.76489
 21
32.8236
  0
LINE
  8
0
 10
7.76489
 20
32.8236
 11
7.81841
 21
32.8564
  0
LINE
  8
0
 10
7.81841
 20
32.8564
 11
7.85001
 21
32.8695
  0
LINE
  8
0
 10
7.85001
 20
32.8695
 11
7.85001
 21
33
  0
LINE
  8
0
 10
7.85001
 20
33
 11
8.14999
 21
33
  0
LINE
  8
0
 10
8.14999
 20
33
 11
8.14999
 21
32.8695
  0
LINE
  8
0
 10
8.14999
 20
32.8695
 11
8.18159
 21
32.8564
  0
LINE
  8
0
 10
8.18159
 20
32.8564
 11
8.23511
 21
32.8236
  0
LINE
  8
0
 10
8.23511
 20
32.8236
 11
8.28284
 21
32.7828
  0
LINE
  8
0
 10
8.28284
 20
32.7828
 11
8.32359
 21
32.7351
  0
LINE
  8
0
 10
8.32359
 20
32.7351
 11
8.3564
 21
32.6816
  0
LINE
  8
0
 10
8.3564
 20
32.6816
 11
8.38042
 21
32.6236
  0
LINE
  8
0
 10
8.38042
 20
32.6236
 11
8.39507
 21
32.5626
  0
LINE
  8
0
 10
8.39507
 20
32.5626
 11
8.39999
 21
32.5
  0
LINE
  8
0
 10
8.39999
 20
32.5
 11
8.39507
 21
32.4374
  0
LINE
  8
0
 10
8.39507
 20
32.4374
 11
8.38042
 21
32.3764
  0
LINE
  8
0
 10
8.38042
 20
32.3764
 11
8.3564
 21
32.3184
  0
LINE
  8
0
 10
8.3564
 20
32.3184
 11
8.32359
 21
32.2649
  0
LINE
  8
0
 10
8.32359
 20
32.2649
 11
8.28284
 21
32.2171
  0
LINE
  8
0
 10
8.28284
 20
32.2171
 11
8.23511
 21
32.1764
  0
LINE
  8
0
 10
8.23511
 20
32.1764
 11
8.18159
 21
32.1436
  0
LINE
  8
0
 10
8.18159
 20
32.1436
 11
8.14999
 21
32.1305
  0
LINE
  8
0
 10
8.14999
 20
32.1305
 11
8.14999
 21
31.2695
  0
LINE
  8
0
 10
8.14999
 20
31.2695
 11
8.18159
 21
31.2564
  0
LINE
  8
0
 10
8.18159
 20
31.2564
 11
8.23511
 21
31.2236
  0
LINE
  8
0
 10
8.23511
 20
31.2236
 11
8.28284
 21
31.1828
  0
LINE
  8
0
 10
8.28284
 20
31.1828
 11
8.32359
 21
31.1351
  0
LINE
  8
0
 10
8.32359
 20
31.1351
 11
8.3564
 21
31.0816
  0
LINE
  8
0
 10
8.3564
 20
31.0816
 11
8.38042
 21
31.0236
  0
LINE
  8
0
 10
8.38042
 20
31.0236
 11
8.39507
 21
30.9625
  0
LINE
  8
0
 10
8.39507
 20
30.9625
 11
8.39999
 21
30.9
  0
LINE
  8
0
 10
8.39999
 20
30.9
 11
8.39507
 21
30.8374
  0
LINE
  8
0
 10
8.39507
 20
30.8374
 11
8.38042
 21
30.7764
  0
LINE
  8
0
 10
8.38042
 20
30.7764
 11
8.3564
 21
30.7184
  0
LINE
  8
0
 10
8.3564
 20
30.7184
 11
8.32359
 21
30.6649
  0
LINE
  8
0
 10
8.32359
 20
30.6649
 11
8.28284
 21
30.6171
  0
LINE
  8
0
 10
8.28284
 20
30.6171
 11
8.23511
 21
30.5764
  0
LINE
  8
0
 10
8.23511
 20
30.5764
 11
8.18159
 21
30.5436
  0
LINE
  8
0
 10
8.18159
 20
30.5436
 11
8.1236
 21
30.5196
  0
LINE
  8
0
 10
8.1236
 20
30.5196
 11
8.06256
 21
30.5049
  0
LINE
  8
0
 10
8.06256
 20
30.5049
 11
8
 21
30.5
  0
LINE
  8
0
 10
8
 20
30.5
 11
7.93744
 21
30.5049
  0
LINE
  8
0
 10
1.13742
 20
13.2049
 11
1.07639
 21
13.2196
  0
LINE
  8
0
 10
1.07639
 20
13.2196
 11
1.0184
 21
13.2436
  0
LINE
  8
0
 10
1.0184
 20
13.2436
 11
0.964874
 21
13.2764
  0
LINE
  8
0
 10
0.964874
 20
13.2764
 11
0.917145
 21
13.3172
  0
LINE
  8
0
 10
0.917145
 20
13.3172
 11
0.876389
 21
13.3649
  0
LINE
  8
0
 10
0.876389
 20
13.3649
 11
0.843582
 21
13.4184
  0
LINE
  8
0
 10
0.843582
 20
13.4184
 11
0.819565
 21
13.4764
  0
LINE
  8
0
 10
0.819565
 20
13.4764
 11
0.804916
 21
13.5374
  0
LINE
  8
0
 10
0.804916
 20
13.5374
 11
0.799988
 21
13.6
  0
LINE
  8
0
 10
0.799988
 20
13.6
 11
0.804916
 21
13.6626
  0
LINE
  8
0
 10
0.804916
 20
13.6626
 11
0.819565
 21
13.7236
  0
LINE
  8
0
 10
0.819565
 20
13.7236
 11
0.843582
 21
13.7816
  0
LINE
  8
0
 10
0.843582
 20
13.7816
 11
0.876389
 21
13.8351
  0
LINE
  8
0
 10
0.876389
 20
13.8351
 11
0.917145
 21
13.8828
  0
LINE
  8
0
 10
0.917145
 20
13.8828
 11
0.964874
 21
13.9236
  0
LINE
  8
0
 10
0.964874
 20
13.9236
 11
1.0184
 21
13.9564
  0
LINE
  8
0
 10
1.0184
 20
13.9564
 11
1.07639
 21
13.9804
  0
LINE
  8
0
 10
1.07639
 20
13.9804
 11
1.13742
 21
13.9951
  0
LINE
  8
0
 10
1.13742
 20
13.9951
 11
1.2
 21
14
  0
LINE
  8
0
 10
1.2
 20
14
 11
1.26257
 21
13.9951
  0
LINE
  8
0
 10
1.26257
 20
13.9951
 11
1.32359
 21
13.9804
  0
LINE
  8
0
 10
1.32359
 20
13.9804
 11
1.38159
 21
13.9564
  0
LINE
  8
0
 10
1.38159
 20
13.9564
 11
1.4351
 21
13.9236
  0
LINE
  8
0
 10
1.4351
 20
13.9236
 11
1.48283
 21
13.8828
  0
LINE
  8
0
 10
1.48283
 20
13.8828
 11
1.52361
 21
13.8351
  0
LINE
  8
0
 10
1.52361
 20
13.8351
 11
1.5564
 21
13.7816
  0
LINE
  8
0
 10
1.5564
 20
13.7816
 11
1.58041
 21
13.7236
  0
LINE
  8
0
 10
1.58041
 20
13.7236
 11
1.59506
 21
13.6626
  0
LINE
  8
0
 10
1.59506
 20
13.6626
 11
1.59999
 21
13.6
  0
LINE
  8
0
 10
1.59999
 20
13.6
 11
1.59506
 21
13.5374
  0
LINE
  8
0
 10
1.59506
 20
13.5374
 11
1.58041
 21
13.4764
  0
LINE
  8
0
 10
1.58041
 20
13.4764
 11
1.5564
 21
13.4184
  0
LINE
  8
0
 10
1.5564
 20
13.4184
 11
1.52361
 21
13.3649
  0
LINE
  8
0
 10
1.52361
 20
13.3649
 11
1.48283
 21
13.3172
  0
LINE
  8
0
 10
1.48283
 20
13.3172
 11
1.4351
 21
13.2764
  0
LINE
  8
0
 10
1.4351
 20
13.2764
 11
1.38159
 21
13.2436
  0
LINE
  8
0
 10
1.38159
 20
13.2436
 11
1.32359
 21
13.2196
  0
LINE
  8
0
 10
1.32359
 20
13.2196
 11
1.26257
 21
13.2049
  0
LINE
  8
0
 10
1.26257
 20
13.2049
 11
1.2
 21
13.2
  0
LINE
  8
0
 10
1.2
 20
13.2
 11
1.13742
 21
13.2049
  0
LINE
  8
0
 10
13.6
 20
42
 11
13.6
 21
16
  0
LINE
  8
0
 10
13.6
 20
16
 11
11.6991
 21
16
  0
LINE
  8
0
 10
11.6991
 20
16
 11
11.6086
 21
16.3239
  0
LINE
  8
0
 10
11.6086
 20
16.3239
 11
11.2765
 21
17.1267
  0
LINE
  8
0
 10
11.2765
 20
17.1267
 11
10.8638
 21
17.8426
  0
LINE
  8
0
 10
10.8638
 20
17.8426
 11
10.3805
 21
18.4541
  0
LINE
  8
0
 10
10.3805
 20
18.4541
 11
9.83865
 21
18.946
  0
LINE
  8
0
 10
9.83865
 20
18.946
 11
9.25151
 21
19.3063
  0
LINE
  8
0
 10
9.25151
 20
19.3063
 11
8.63354
 21
19.5261
  0
LINE
  8
0
 10
8.63354
 20
19.5261
 11
8.39633
 21
19.5538
  0
LINE
  8
0
 10
8.39633
 20
19.5538
 11
8.39505
 21
19.5374
  0
LINE
  8
0
 10
8.39505
 20
19.5374
 11
8.3804
 21
19.4764
  0
LINE
  8
0
 10
8.3804
 20
19.4764
 11
8.35638
 21
19.4184
  0
LINE
  8
0
 10
8.35638
 20
19.4184
 11
8.32358
 21
19.3649
  0
LINE
  8
0
 10
8.32358
 20
19.3649
 11
8.28282
 21
19.3172
  0
LINE
  8
0
 10
8.28282
 20
19.3172
 11
8.23509
 21
19.2764
  0
LINE
  8
0
 10
8.23509
 20
19.2764
 11
8.18158
 21
19.2436
  0
LINE
  8
0
 10
8.18158
 20
19.2436
 11
8.12358
 21
19.2196
  0
LINE
  8
0
 10
8.12358
 20
19.2196
 11
8.06255
 21
19.2049
  0
LINE
  8
0
 10
8.06255
 20
19.2049
 11
7.99998
 21
19.2
  0
LINE
  8
0
 10
7.99998
 20
19.2
 11
7.93742
 21
19.2049
  0
LINE
  8
0
 10
7.93742
 20
19.2049
 11
7.87639
 21
19.2196
  0
LINE
  8
0
 10
7.87639
 20
19.2196
 11
7.81839
 21
19.2436
  0
LINE
  8
0
 10
7.81839
 20
19.2436
 11
7.76488
 21
19.2764
  0
LINE
  8
0
 10
7.76488
 20
19.2764
 11
7.71715
 21
19.3172
  0
LINE
  8
0
 10
7.71715
 20
19.3172
 11
7.67639
 21
19.3649
  0
LINE
  8
0
 10
7.67639
 20
19.3649
 11
7.64359
 21
19.4184
  0
LINE
  8
0
 10
7.64359
 20
19.4184
 11
7.61957
 21
19.4764
  0
LINE
  8
0
 10
7.61957
 20
19.4764
 11
7.60492
 21
19.5374
  0
LINE
  8
0
 10
7.60492
 20
19.5374
 11
7.60364
 21
19.5538
  0
LINE
  8
0
 10
7.60364
 20
19.5538
 11
7.36642
 21
19.5261
  0
LINE
  8
0
 10
7.36642
 20
19.5261
 11
6.74847
 21
19.3063
  0
LINE
  8
0
 10
6.74847
 20
19.3063
 11
6.16133
 21
18.946
  0
LINE
  8
0
 10
6.16133
 20
18.946
 11
5.61946
 21
18.4541
  0
LINE
  8
0
 10
5.61946
 20
18.4541
 11
5.1362
 21
17.8426
  0
LINE
  8
0
 10
5.1362
 20
17.8426
 11
4.72346
 21
17.1267
  0
LINE
  8
0
 10
4.72346
 20
17.1267
 11
4.39142
 21
16.3239
  0
LINE
  8
0
 10
4.39142
 20
16.3239
 11
4.30084
 21
16
  0
LINE
  8
0
 10
4.30084
 20
16
 11
2.39999
 21
16
  0
LINE
  8
0
 10
2.39999
 20
16
 11
2.39999
 21
42
  0
LINE
  8
0
 10
2.39999
 20
42
 11
3.95
 21
42
  0
LINE
  8
0
 10
3.95
 20
42
 11
3.95
 21
34.1
  0
LINE
  8
0
 10
3.95
 20
34.1
 11
3.99986
 21
33.1614
  0
LINE
  8
0
 10
3.99986
 20
33.1614
 11
4.14822
 21
32.2459
  0
LINE
  8
0
 10
4.14822
 20
32.2459
 11
4.39142
 21
31.3761
  0
LINE
  8
0
 10
4.39142
 20
31.3761
 11
4.72348
 21
30.5733
  0
LINE
  8
0
 10
4.72348
 20
30.5733
 11
5.13622
 21
29.8574
  0
LINE
  8
0
 10
5.13622
 20
29.8574
 11
5.61946
 21
29.2459
  0
LINE
  8
0
 10
5.61946
 20
29.2459
 11
6.16133
 21
28.754
  0
LINE
  8
0
 10
6.16133
 20
28.754
 11
6.74847
 21
28.3937
  0
LINE
  8
0
 10
6.74847
 20
28.3937
 11
7.36644
 21
28.1739
  0
LINE
  8
0
 10
7.36644
 20
28.1739
 11
7.60365
 21
28.1462
  0
LINE
  8
0
 10
7.60365
 20
28.1462
 11
7.60493
 21
28.1626
  0
LINE
  8
0
 10
7.60493
 20
28.1626
 11
7.61958
 21
28.2236
  0
LINE
  8
0
 10
7.61958
 20
28.2236
 11
7.6436
 21
28.2816
  0
LINE
  8
0
 10
7.6436
 20
28.2816
 11
7.67641
 21
28.3351
  0
LINE
  8
0
 10
7.67641
 20
28.3351
 11
7.71716
 21
28.3828
  0
LINE
  8
0
 10
7.71716
 20
28.3828
 11
7.76489
 21
28.4236
  0
LINE
  8
0
 10
7.76489
 20
28.4236
 11
7.81841
 21
28.4564
  0
LINE
  8
0
 10
7.81841
 20
28.4564
 11
7.8764
 21
28.4804
  0
LINE
  8
0
 10
7.8764
 20
28.4804
 11
7.93744
 21
28.4951
  0
LINE
  8
0
 10
7.93744
 20
28.4951
 11
8
 21
28.5
  0
LINE
  8
0
 10
8
 20
28.5
 11
8.06256
 21
28.4951
  0
LINE
  8
0
 10
8.06256
 20
28.4951
 11
8.1236
 21
28.4804
  0
LINE
  8
0
 10
8.1236
 20
28.4804
 11
8.18159
 21
28.4564
  0
LINE
  8
0
 10
8.18159
 20
28.4564
 11
8.23511
 21
28.4236
  0
LINE
  8
0
 10
8.23511
 20
28.4236
 11
8.28284
 21
28.3828
  0
LINE
  8
0
 10
8.28284
 20
28.3828
 11
8.32359
 21
28.3351
  0
LINE
  8
0
 10
8.32359
 20
28.3351
 11
8.3564
 21
28.2816
  0
LINE
  8
0
 10
8.3564
 20
28.2816
 11
8.38042
 21
28.2236
  0
LINE
  8
0
 10
8.38042
 20
28.2236
 11
8.39507
 21
28.1626
  0
LINE
  8
0
 10
8.39507
 20
28.1626
 11
8.39635
 21
28.1462
  0
LINE
  8
0
 10
8.39635
 20
28.1462
 11
8.63356
 21
28.1739
  0
LINE
  8
0
 10
8.63356
 20
28.1739
 11
9.25151
 21
28.3937
  0
LINE
  8
0
 10
9.25151
 20
28.3937
 11
9.83865
 21
28.754
  0
LINE
  8
0
 10
9.83865
 20
28.754
 11
10.3805
 21
29.2459
  0
LINE
  8
0
 10
10.3805
 20
29.2459
 11
10.8638
 21
29.8574
  0
LINE
  8
0
 10
10.8638
 20
29.8574
 11
11.2765
 21
30.5733
  0
LINE
  8
0
 10
11.2765
 20
30.5733
 11
11.6086
 21
31.3761
  0
LINE
  8
0
 10
11.6086
 20
31.3761
 11
11.8518
 21
32.2459
  0
LINE
  8
0
 10
11.8518
 20
32.2459
 11
12.0001
 21
33.1614
  0
LINE
  8
0
 10
12.0001
 20
33.1614
 11
12.05
 21
34.1
  0
LINE
  8
0
 10
12.05
 20
34.1
 11
12.05
 21
42
  0
LINE
  8
0
 10
12.05
 20
42
 11
13.6
 21
42
  0
ENDSEC
  0
SECTION
  2
OBJECTS
  0
DICTIONARY
  0
ENDSEC
  0
EOF
