  0
SECTION
  2
BLOCKS
  0
ENDSEC
  0
SECTION
  2
ENTITIES
  0
LINE
  8
0
 10
-0.00999451
 20
2.9827
 11
-0.00999451
 21
38.9
  0
LINE
  8
0
 10
-0.00999451
 20
38.9
 11
0
 21
38.9
  0
LINE
  8
0
 10
0
 20
38.9
 11
0
 21
3
  0
LINE
  8
0
 10
0
 20
3
 11
1.73204
 21
0
  0
LINE
  8
0
 10
1.73204
 20
0
 11
2
 21
0
  0
LINE
  8
0
 10
2
 20
0
 11
2
 21
8.59999
  0
LINE
  8
0
 10
2
 20
8.59999
 11
6.14999
 21
8.59999
  0
LINE
  8
0
 10
6.14999
 20
8.59999
 11
6.14999
 21
12.6
  0
LINE
  8
0
 10
6.14999
 20
12.6
 11
5.98447
 21
12.6
  0
LINE
  8
0
 10
5.98447
 20
12.6
 11
5.96713
 21
12.6418
  0
LINE
  8
0
 10
5.96713
 20
12.6418
 11
5.9543
 21
12.6953
  0
LINE
  8
0
 10
5.9543
 20
12.6953
 11
5.95
 21
12.75
  0
LINE
  8
0
 10
5.95
 20
12.75
 11
5.9543
 21
12.8047
  0
LINE
  8
0
 10
5.9543
 20
12.8047
 11
5.96713
 21
12.8582
  0
LINE
  8
0
 10
5.96713
 20
12.8582
 11
5.98814
 21
12.9089
  0
LINE
  8
0
 10
5.98814
 20
12.9089
 11
6.01685
 21
12.9557
  0
LINE
  8
0
 10
6.01685
 20
12.9557
 11
6.05251
 21
12.9975
  0
LINE
  8
0
 10
6.05251
 20
12.9975
 11
6.09427
 21
13.0332
  0
LINE
  8
0
 10
6.09427
 20
13.0332
 11
6.1411
 21
13.0618
  0
LINE
  8
0
 10
6.1411
 20
13.0618
 11
6.14999
 21
13.0655
  0
LINE
  8
0
 10
6.14999
 20
13.0655
 11
6.14999
 21
13.8345
  0
LINE
  8
0
 10
6.14999
 20
13.8345
 11
6.1411
 21
13.8382
  0
LINE
  8
0
 10
6.1411
 20
13.8382
 11
6.09427
 21
13.8669
  0
LINE
  8
0
 10
6.09427
 20
13.8669
 11
6.05251
 21
13.9025
  0
LINE
  8
0
 10
6.05251
 20
13.9025
 11
6.01685
 21
13.9443
  0
LINE
  8
0
 10
6.01685
 20
13.9443
 11
5.98814
 21
13.9911
  0
LINE
  8
0
 10
5.98814
 20
13.9911
 11
5.96713
 21
14.0418
  0
LINE
  8
0
 10
5.96713
 20
14.0418
 11
5.9543
 21
14.0952
  0
LINE
  8
0
 10
5.9543
 20
14.0952
 11
5.95
 21
14.15
  0
LINE
  8
0
 10
5.95
 20
14.15
 11
5.9543
 21
14.2047
  0
LINE
  8
0
 10
5.9543
 20
14.2047
 11
5.96713
 21
14.2581
  0
LINE
  8
0
 10
5.96713
 20
14.2581
 11
5.98814
 21
14.3089
  0
LINE
  8
0
 10
5.98814
 20
14.3089
 11
6.01685
 21
14.3557
  0
LINE
  8
0
 10
6.01685
 20
14.3557
 11
6.05251
 21
14.3975
  0
LINE
  8
0
 10
6.05251
 20
14.3975
 11
6.09427
 21
14.4331
  0
LINE
  8
0
 10
6.09427
 20
14.4331
 11
6.1411
 21
14.4618
  0
LINE
  8
0
 10
6.1411
 20
14.4618
 11
6.19183
 21
14.4828
  0
LINE
  8
0
 10
6.19183
 20
14.4828
 11
6.24524
 21
14.4957
  0
LINE
  8
0
 10
6.24524
 20
14.4957
 11
6.29999
 21
14.5
  0
LINE
  8
0
 10
6.29999
 20
14.5
 11
6.35474
 21
14.4957
  0
LINE
  8
0
 10
6.35474
 20
14.4957
 11
6.40814
 21
14.4828
  0
LINE
  8
0
 10
6.40814
 20
14.4828
 11
6.45888
 21
14.4618
  0
LINE
  8
0
 10
6.45888
 20
14.4618
 11
6.50571
 21
14.4331
  0
LINE
  8
0
 10
6.50571
 20
14.4331
 11
6.54747
 21
14.3975
  0
LINE
  8
0
 10
6.54747
 20
14.3975
 11
6.58313
 21
14.3557
  0
LINE
  8
0
 10
6.58313
 20
14.3557
 11
6.61183
 21
14.3089
  0
LINE
  8
0
 10
6.61183
 20
14.3089
 11
6.63284
 21
14.2581
  0
LINE
  8
0
 10
6.63284
 20
14.2581
 11
6.64568
 21
14.2047
  0
LINE
  8
0
 10
6.64568
 20
14.2047
 11
6.64998
 21
14.15
  0
LINE
  8
0
 10
6.64998
 20
14.15
 11
6.64568
 21
14.0952
  0
LINE
  8
0
 10
6.64568
 20
14.0952
 11
6.63284
 21
14.0418
  0
LINE
  8
0
 10
6.63284
 20
14.0418
 11
6.61183
 21
13.9911
  0
LINE
  8
0
 10
6.61183
 20
13.9911
 11
6.58313
 21
13.9443
  0
LINE
  8
0
 10
6.58313
 20
13.9443
 11
6.54747
 21
13.9025
  0
LINE
  8
0
 10
6.54747
 20
13.9025
 11
6.50571
 21
13.8669
  0
LINE
  8
0
 10
6.50571
 20
13.8669
 11
6.45888
 21
13.8382
  0
LINE
  8
0
 10
6.45888
 20
13.8382
 11
6.44998
 21
13.8345
  0
LINE
  8
0
 10
6.44998
 20
13.8345
 11
6.44998
 21
13.0655
  0
LINE
  8
0
 10
6.44998
 20
13.0655
 11
6.45888
 21
13.0618
  0
LINE
  8
0
 10
6.45888
 20
13.0618
 11
6.50571
 21
13.0332
  0
LINE
  8
0
 10
6.50571
 20
13.0332
 11
6.54747
 21
12.9975
  0
LINE
  8
0
 10
6.54747
 20
12.9975
 11
6.58313
 21
12.9557
  0
LINE
  8
0
 10
6.58313
 20
12.9557
 11
6.61183
 21
12.9089
  0
LINE
  8
0
 10
6.61183
 20
12.9089
 11
6.63284
 21
12.8582
  0
LINE
  8
0
 10
6.63284
 20
12.8582
 11
6.64568
 21
12.8047
  0
LINE
  8
0
 10
6.64568
 20
12.8047
 11
6.64998
 21
12.75
  0
LINE
  8
0
 10
6.64998
 20
12.75
 11
6.64568
 21
12.6953
  0
LINE
  8
0
 10
6.64568
 20
12.6953
 11
6.63284
 21
12.6418
  0
LINE
  8
0
 10
6.63284
 20
12.6418
 11
6.61551
 21
12.6
  0
LINE
  8
0
 10
6.61551
 20
12.6
 11
6.45
 21
12.6
  0
LINE
  8
0
 10
6.45
 20
12.6
 11
6.45
 21
8.59999
  0
LINE
  8
0
 10
6.45
 20
8.59999
 11
10.6
 21
8.59999
  0
LINE
  8
0
 10
10.6
 20
8.59999
 11
10.6
 21
0
  0
LINE
  8
0
 10
10.6
 20
0
 11
12.6
 21
0
  0
LINE
  8
0
 10
12.6
 20
0
 11
12.6
 21
41
  0
LINE
  8
0
 10
12.6
 20
41
 11
9.94998
 21
41
  0
LINE
  8
0
 10
9.94998
 20
41
 11
9.94998
 21
49.6
  0
LINE
  8
0
 10
9.94998
 20
49.6
 11
9.67172
 21
49.6
  0
LINE
  8
0
 10
9.67172
 20
49.6
 11
7.94998
 21
46.6179
  0
LINE
  8
0
 10
7.94998
 20
46.6179
 11
7.94998
 21
29.6
  0
LINE
  8
0
 10
7.94998
 20
29.6
 11
7.45499
 21
29.6
  0
LINE
  8
0
 10
7.45499
 20
29.6
 11
7.44077
 21
29.4193
  0
LINE
  8
0
 10
7.44077
 20
29.4193
 11
7.39847
 21
29.2431
  0
LINE
  8
0
 10
7.39847
 20
29.2431
 11
7.3291
 21
29.0756
  0
LINE
  8
0
 10
7.3291
 20
29.0756
 11
7.23441
 21
28.9211
  0
LINE
  8
0
 10
7.23441
 20
28.9211
 11
7.1167
 21
28.7833
  0
LINE
  8
0
 10
7.1167
 20
28.7833
 11
6.97888
 21
28.6656
  0
LINE
  8
0
 10
6.97888
 20
28.6656
 11
6.82436
 21
28.5709
  0
LINE
  8
0
 10
6.82436
 20
28.5709
 11
6.65691
 21
28.5015
  0
LINE
  8
0
 10
6.65691
 20
28.5015
 11
6.48067
 21
28.4592
  0
LINE
  8
0
 10
6.48067
 20
28.4592
 11
6.45
 21
28.4568
  0
LINE
  8
0
 10
6.45
 20
28.4568
 11
6.45
 21
27.7655
  0
LINE
  8
0
 10
6.45
 20
27.7655
 11
6.45889
 21
27.7618
  0
LINE
  8
0
 10
6.45889
 20
27.7618
 11
6.50572
 21
27.7331
  0
LINE
  8
0
 10
6.50572
 20
27.7331
 11
6.54749
 21
27.6975
  0
LINE
  8
0
 10
6.54749
 20
27.6975
 11
6.58315
 21
27.6557
  0
LINE
  8
0
 10
6.58315
 20
27.6557
 11
6.61185
 21
27.6089
  0
LINE
  8
0
 10
6.61185
 20
27.6089
 11
6.63286
 21
27.5581
  0
LINE
  8
0
 10
6.63286
 20
27.5581
 11
6.64569
 21
27.5047
  0
LINE
  8
0
 10
6.64569
 20
27.5047
 11
6.64999
 21
27.45
  0
LINE
  8
0
 10
6.64999
 20
27.45
 11
6.64569
 21
27.3952
  0
LINE
  8
0
 10
6.64569
 20
27.3952
 11
6.63286
 21
27.3418
  0
LINE
  8
0
 10
6.63286
 20
27.3418
 11
6.61185
 21
27.2911
  0
LINE
  8
0
 10
6.61185
 20
27.2911
 11
6.58315
 21
27.2443
  0
LINE
  8
0
 10
6.58315
 20
27.2443
 11
6.54749
 21
27.2025
  0
LINE
  8
0
 10
6.54749
 20
27.2025
 11
6.50572
 21
27.1668
  0
LINE
  8
0
 10
6.50572
 20
27.1668
 11
6.45889
 21
27.1381
  0
LINE
  8
0
 10
6.45889
 20
27.1381
 11
6.45
 21
27.1344
  0
LINE
  8
0
 10
6.45
 20
27.1344
 11
6.45
 21
26.3655
  0
LINE
  8
0
 10
6.45
 20
26.3655
 11
6.45889
 21
26.3618
  0
LINE
  8
0
 10
6.45889
 20
26.3618
 11
6.50572
 21
26.3331
  0
LINE
  8
0
 10
6.50572
 20
26.3331
 11
6.54749
 21
26.2975
  0
LINE
  8
0
 10
6.54749
 20
26.2975
 11
6.58315
 21
26.2557
  0
LINE
  8
0
 10
6.58315
 20
26.2557
 11
6.61185
 21
26.2089
  0
LINE
  8
0
 10
6.61185
 20
26.2089
 11
6.63286
 21
26.1581
  0
LINE
  8
0
 10
6.63286
 20
26.1581
 11
6.64569
 21
26.1047
  0
LINE
  8
0
 10
6.64569
 20
26.1047
 11
6.64999
 21
26.05
  0
LINE
  8
0
 10
6.64999
 20
26.05
 11
6.64569
 21
25.9952
  0
LINE
  8
0
 10
6.64569
 20
25.9952
 11
6.63286
 21
25.9418
  0
LINE
  8
0
 10
6.63286
 20
25.9418
 11
6.61185
 21
25.8911
  0
LINE
  8
0
 10
6.61185
 20
25.8911
 11
6.58315
 21
25.8443
  0
LINE
  8
0
 10
6.58315
 20
25.8443
 11
6.54749
 21
25.8025
  0
LINE
  8
0
 10
6.54749
 20
25.8025
 11
6.50572
 21
25.7668
  0
LINE
  8
0
 10
6.50572
 20
25.7668
 11
6.45889
 21
25.7381
  0
LINE
  8
0
 10
6.45889
 20
25.7381
 11
6.40816
 21
25.7171
  0
LINE
  8
0
 10
6.40816
 20
25.7171
 11
6.35475
 21
25.7043
  0
LINE
  8
0
 10
6.35475
 20
25.7043
 11
6.3
 21
25.7
  0
LINE
  8
0
 10
6.3
 20
25.7
 11
6.24525
 21
25.7043
  0
LINE
  8
0
 10
6.24525
 20
25.7043
 11
6.19185
 21
25.7171
  0
LINE
  8
0
 10
6.19185
 20
25.7171
 11
6.14111
 21
25.7381
  0
LINE
  8
0
 10
6.14111
 20
25.7381
 11
6.09428
 21
25.7668
  0
LINE
  8
0
 10
6.09428
 20
25.7668
 11
6.05252
 21
25.8025
  0
LINE
  8
0
 10
6.05252
 20
25.8025
 11
6.01686
 21
25.8443
  0
LINE
  8
0
 10
6.01686
 20
25.8443
 11
5.98816
 21
25.8911
  0
LINE
  8
0
 10
5.98816
 20
25.8911
 11
5.96715
 21
25.9418
  0
LINE
  8
0
 10
5.96715
 20
25.9418
 11
5.95432
 21
25.9952
  0
LINE
  8
0
 10
5.95432
 20
25.9952
 11
5.95001
 21
26.05
  0
LINE
  8
0
 10
5.95001
 20
26.05
 11
5.95432
 21
26.1047
  0
LINE
  8
0
 10
5.95432
 20
26.1047
 11
5.96715
 21
26.1581
  0
LINE
  8
0
 10
5.96715
 20
26.1581
 11
5.98816
 21
26.2089
  0
LINE
  8
0
 10
5.98816
 20
26.2089
 11
6.01686
 21
26.2557
  0
LINE
  8
0
 10
6.01686
 20
26.2557
 11
6.05252
 21
26.2975
  0
LINE
  8
0
 10
6.05252
 20
26.2975
 11
6.09428
 21
26.3331
  0
LINE
  8
0
 10
6.09428
 20
26.3331
 11
6.14111
 21
26.3618
  0
LINE
  8
0
 10
6.14111
 20
26.3618
 11
6.15001
 21
26.3655
  0
LINE
  8
0
 10
6.15001
 20
26.3655
 11
6.15001
 21
27.1344
  0
LINE
  8
0
 10
6.15001
 20
27.1344
 11
6.14111
 21
27.1381
  0
LINE
  8
0
 10
6.14111
 20
27.1381
 11
6.09428
 21
27.1668
  0
LINE
  8
0
 10
6.09428
 20
27.1668
 11
6.05252
 21
27.2025
  0
LINE
  8
0
 10
6.05252
 20
27.2025
 11
6.01686
 21
27.2443
  0
LINE
  8
0
 10
6.01686
 20
27.2443
 11
5.98816
 21
27.2911
  0
LINE
  8
0
 10
5.98816
 20
27.2911
 11
5.96715
 21
27.3418
  0
LINE
  8
0
 10
5.96715
 20
27.3418
 11
5.95432
 21
27.3952
  0
LINE
  8
0
 10
5.95432
 20
27.3952
 11
5.95001
 21
27.45
  0
LINE
  8
0
 10
5.95001
 20
27.45
 11
5.95432
 21
27.5047
  0
LINE
  8
0
 10
5.95432
 20
27.5047
 11
5.96715
 21
27.5581
  0
LINE
  8
0
 10
5.96715
 20
27.5581
 11
5.98816
 21
27.6089
  0
LINE
  8
0
 10
5.98816
 20
27.6089
 11
6.01686
 21
27.6557
  0
LINE
  8
0
 10
6.01686
 20
27.6557
 11
6.05252
 21
27.6975
  0
LINE
  8
0
 10
6.05252
 20
27.6975
 11
6.09428
 21
27.7331
  0
LINE
  8
0
 10
6.09428
 20
27.7331
 11
6.14111
 21
27.7618
  0
LINE
  8
0
 10
6.14111
 20
27.7618
 11
6.15001
 21
27.7655
  0
LINE
  8
0
 10
6.15001
 20
27.7655
 11
6.15001
 21
28.4568
  0
LINE
  8
0
 10
6.15001
 20
28.4568
 11
6.11931
 21
28.4592
  0
LINE
  8
0
 10
6.11931
 20
28.4592
 11
5.94308
 21
28.5015
  0
LINE
  8
0
 10
5.94308
 20
28.5015
 11
5.77563
 21
28.5709
  0
LINE
  8
0
 10
5.77563
 20
28.5709
 11
5.62109
 21
28.6656
  0
LINE
  8
0
 10
5.62109
 20
28.6656
 11
5.48329
 21
28.7833
  0
LINE
  8
0
 10
5.48329
 20
28.7833
 11
5.36559
 21
28.9211
  0
LINE
  8
0
 10
5.36559
 20
28.9211
 11
5.27087
 21
29.0756
  0
LINE
  8
0
 10
5.27087
 20
29.0756
 11
5.20152
 21
29.2431
  0
LINE
  8
0
 10
5.20152
 20
29.2431
 11
5.15921
 21
29.4193
  0
LINE
  8
0
 10
5.15921
 20
29.4193
 11
5.14499
 21
29.6
  0
LINE
  8
0
 10
5.14499
 20
29.6
 11
4.64999
 21
29.6
  0
LINE
  8
0
 10
4.64999
 20
29.6
 11
4.64999
 21
46.6179
  0
LINE
  8
0
 10
4.64999
 20
46.6179
 11
2.92827
 21
49.6
  0
LINE
  8
0
 10
2.92827
 20
49.6
 11
2.64999
 21
49.6
  0
LINE
  8
0
 10
2.64999
 20
49.6
 11
2.64999
 21
41
  0
LINE
  8
0
 10
2.64999
 20
41
 11
-2.00999
 21
41
  0
LINE
  8
0
 10
-2.00999
 20
41
 11
-2.00999
 21
0
  0
LINE
  8
0
 10
-2.00999
 20
0
 11
-1.73206
 21
0
  0
LINE
  8
0
 10
-1.73206
 20
0
 11
-0.00999451
 21
2.9827
  0
LINE
  8
0
 10
2.27023
 20
39.6043
 11
2.21684
 21
39.6171
  0
LINE
  8
0
 10
2.21684
 20
39.6171
 11
2.16609
 21
39.6381
  0
LINE
  8
0
 10
2.16609
 20
39.6381
 11
2.11926
 21
39.6668
  0
LINE
  8
0
 10
2.11926
 20
39.6668
 11
2.0775
 21
39.7025
  0
LINE
  8
0
 10
2.0775
 20
39.7025
 11
2.04184
 21
39.7443
  0
LINE
  8
0
 10
2.04184
 20
39.7443
 11
2.01314
 21
39.7911
  0
LINE
  8
0
 10
2.01314
 20
39.7911
 11
1.99213
 21
39.8418
  0
LINE
  8
0
 10
1.99213
 20
39.8418
 11
1.97929
 21
39.8952
  0
LINE
  8
0
 10
1.97929
 20
39.8952
 11
1.97499
 21
39.95
  0
LINE
  8
0
 10
1.97499
 20
39.95
 11
1.97929
 21
40.0047
  0
LINE
  8
0
 10
1.97929
 20
40.0047
 11
1.99213
 21
40.0581
  0
LINE
  8
0
 10
1.99213
 20
40.0581
 11
2.01314
 21
40.1089
  0
LINE
  8
0
 10
2.01314
 20
40.1089
 11
2.04184
 21
40.1557
  0
LINE
  8
0
 10
2.04184
 20
40.1557
 11
2.0775
 21
40.1975
  0
LINE
  8
0
 10
2.0775
 20
40.1975
 11
2.11926
 21
40.2331
  0
LINE
  8
0
 10
2.11926
 20
40.2331
 11
2.16609
 21
40.2618
  0
LINE
  8
0
 10
2.16609
 20
40.2618
 11
2.21684
 21
40.2828
  0
LINE
  8
0
 10
2.21684
 20
40.2828
 11
2.27023
 21
40.2957
  0
LINE
  8
0
 10
2.27023
 20
40.2957
 11
2.325
 21
40.3
  0
LINE
  8
0
 10
2.325
 20
40.3
 11
2.37975
 21
40.2957
  0
LINE
  8
0
 10
2.37975
 20
40.2957
 11
2.43315
 21
40.2828
  0
LINE
  8
0
 10
2.43315
 20
40.2828
 11
2.48389
 21
40.2618
  0
LINE
  8
0
 10
2.48389
 20
40.2618
 11
2.53072
 21
40.2331
  0
LINE
  8
0
 10
2.53072
 20
40.2331
 11
2.57248
 21
40.1975
  0
LINE
  8
0
 10
2.57248
 20
40.1975
 11
2.60815
 21
40.1557
  0
LINE
  8
0
 10
2.60815
 20
40.1557
 11
2.63684
 21
40.1089
  0
LINE
  8
0
 10
2.63684
 20
40.1089
 11
2.64999
 21
40.0771
  0
LINE
  8
0
 10
2.64999
 20
40.0771
 11
2.64999
 21
39.8228
  0
LINE
  8
0
 10
2.64999
 20
39.8228
 11
2.63684
 21
39.7911
  0
LINE
  8
0
 10
2.63684
 20
39.7911
 11
2.60815
 21
39.7443
  0
LINE
  8
0
 10
2.60815
 20
39.7443
 11
2.57248
 21
39.7025
  0
LINE
  8
0
 10
2.57248
 20
39.7025
 11
2.53072
 21
39.6668
  0
LINE
  8
0
 10
2.53072
 20
39.6668
 11
2.48389
 21
39.6381
  0
LINE
  8
0
 10
2.48389
 20
39.6381
 11
2.43315
 21
39.6171
  0
LINE
  8
0
 10
2.43315
 20
39.6171
 11
2.37975
 21
39.6043
  0
LINE
  8
0
 10
2.37975
 20
39.6043
 11
2.325
 21
39.6
  0
LINE
  8
0
 10
2.325
 20
39.6
 11
2.27023
 21
39.6043
  0
LINE
  8
0
 10
10.2202
 20
39.6043
 11
10.1668
 21
39.6171
  0
LINE
  8
0
 10
10.1668
 20
39.6171
 11
10.1161
 21
39.6381
  0
LINE
  8
0
 10
10.1161
 20
39.6381
 11
10.0693
 21
39.6668
  0
LINE
  8
0
 10
10.0693
 20
39.6668
 11
10.0275
 21
39.7025
  0
LINE
  8
0
 10
10.0275
 20
39.7025
 11
9.99184
 21
39.7443
  0
LINE
  8
0
 10
9.99184
 20
39.7443
 11
9.96313
 21
39.7911
  0
LINE
  8
0
 10
9.96313
 20
39.7911
 11
9.94998
 21
39.8228
  0
LINE
  8
0
 10
9.94998
 20
39.8228
 11
9.94998
 21
40.0771
  0
LINE
  8
0
 10
9.94998
 20
40.0771
 11
9.96313
 21
40.1089
  0
LINE
  8
0
 10
9.96313
 20
40.1089
 11
9.99184
 21
40.1557
  0
LINE
  8
0
 10
9.99184
 20
40.1557
 11
10.0275
 21
40.1975
  0
LINE
  8
0
 10
10.0275
 20
40.1975
 11
10.0693
 21
40.2331
  0
LINE
  8
0
 10
10.0693
 20
40.2331
 11
10.1161
 21
40.2618
  0
LINE
  8
0
 10
10.1161
 20
40.2618
 11
10.1668
 21
40.2828
  0
LINE
  8
0
 10
10.1668
 20
40.2828
 11
10.2202
 21
40.2957
  0
LINE
  8
0
 10
10.2202
 20
40.2957
 11
10.275
 21
40.3
  0
LINE
  8
0
 10
10.275
 20
40.3
 11
10.3297
 21
40.2957
  0
LINE
  8
0
 10
10.3297
 20
40.2957
 11
10.3831
 21
40.2828
  0
LINE
  8
0
 10
10.3831
 20
40.2828
 11
10.4339
 21
40.2618
  0
LINE
  8
0
 10
10.4339
 20
40.2618
 11
10.4807
 21
40.2331
  0
LINE
  8
0
 10
10.4807
 20
40.2331
 11
10.5225
 21
40.1975
  0
LINE
  8
0
 10
10.5225
 20
40.1975
 11
10.5582
 21
40.1557
  0
LINE
  8
0
 10
10.5582
 20
40.1557
 11
10.5868
 21
40.1089
  0
LINE
  8
0
 10
10.5868
 20
40.1089
 11
10.6079
 21
40.0581
  0
LINE
  8
0
 10
10.6079
 20
40.0581
 11
10.6207
 21
40.0047
  0
LINE
  8
0
 10
10.6207
 20
40.0047
 11
10.625
 21
39.95
  0
LINE
  8
0
 10
10.625
 20
39.95
 11
10.6207
 21
39.8952
  0
LINE
  8
0
 10
10.6207
 20
39.8952
 11
10.6079
 21
39.8418
  0
LINE
  8
0
 10
10.6079
 20
39.8418
 11
10.5868
 21
39.7911
  0
LINE
  8
0
 10
10.5868
 20
39.7911
 11
10.5582
 21
39.7443
  0
LINE
  8
0
 10
10.5582
 20
39.7443
 11
10.5225
 21
39.7025
  0
LINE
  8
0
 10
10.5225
 20
39.7025
 11
10.4807
 21
39.6668
  0
LINE
  8
0
 10
10.4807
 20
39.6668
 11
10.4339
 21
39.6381
  0
LINE
  8
0
 10
10.4339
 20
39.6381
 11
10.3831
 21
39.6171
  0
LINE
  8
0
 10
10.3831
 20
39.6171
 11
10.3297
 21
39.6043
  0
LINE
  8
0
 10
10.3297
 20
39.6043
 11
10.275
 21
39.6
  0
LINE
  8
0
 10
10.275
 20
39.6
 11
10.2202
 21
39.6043
  0
LINE
  8
0
 10
2.65001
 20
29.6
 11
2.69495
 21
28.6614
  0
LINE
  8
0
 10
2.69495
 20
28.6614
 11
2.82864
 21
27.7459
  0
LINE
  8
0
 10
2.82864
 20
27.7459
 11
3.04784
 21
26.8761
  0
LINE
  8
0
 10
3.04784
 20
26.8761
 11
3.34709
 21
26.0733
  0
LINE
  8
0
 10
3.34709
 20
26.0733
 11
3.71907
 21
25.3574
  0
LINE
  8
0
 10
3.71907
 20
25.3574
 11
4.15459
 21
24.7459
  0
LINE
  8
0
 10
4.15459
 20
24.7459
 11
4.64294
 21
24.254
  0
LINE
  8
0
 10
4.64294
 20
24.254
 11
5.17209
 21
23.8937
  0
LINE
  8
0
 10
5.17209
 20
23.8937
 11
5.72902
 21
23.6739
  0
LINE
  8
0
 10
5.72902
 20
23.6739
 11
5.95354
 21
23.6448
  0
LINE
  8
0
 10
5.95354
 20
23.6448
 11
5.95432
 21
23.6547
  0
LINE
  8
0
 10
5.95432
 20
23.6547
 11
5.96715
 21
23.7081
  0
LINE
  8
0
 10
5.96715
 20
23.7081
 11
5.98816
 21
23.7589
  0
LINE
  8
0
 10
5.98816
 20
23.7589
 11
6.01686
 21
23.8057
  0
LINE
  8
0
 10
6.01686
 20
23.8057
 11
6.05252
 21
23.8475
  0
LINE
  8
0
 10
6.05252
 20
23.8475
 11
6.09428
 21
23.8831
  0
LINE
  8
0
 10
6.09428
 20
23.8831
 11
6.14111
 21
23.9118
  0
LINE
  8
0
 10
6.14111
 20
23.9118
 11
6.19185
 21
23.9328
  0
LINE
  8
0
 10
6.19185
 20
23.9328
 11
6.24525
 21
23.9457
  0
LINE
  8
0
 10
6.24525
 20
23.9457
 11
6.3
 21
23.95
  0
LINE
  8
0
 10
6.3
 20
23.95
 11
6.35475
 21
23.9457
  0
LINE
  8
0
 10
6.35475
 20
23.9457
 11
6.40816
 21
23.9328
  0
LINE
  8
0
 10
6.40816
 20
23.9328
 11
6.45889
 21
23.9118
  0
LINE
  8
0
 10
6.45889
 20
23.9118
 11
6.50572
 21
23.8831
  0
LINE
  8
0
 10
6.50572
 20
23.8831
 11
6.54749
 21
23.8475
  0
LINE
  8
0
 10
6.54749
 20
23.8475
 11
6.58315
 21
23.8057
  0
LINE
  8
0
 10
6.58315
 20
23.8057
 11
6.61185
 21
23.7589
  0
LINE
  8
0
 10
6.61185
 20
23.7589
 11
6.63286
 21
23.7081
  0
LINE
  8
0
 10
6.63286
 20
23.7081
 11
6.64569
 21
23.6547
  0
LINE
  8
0
 10
6.64569
 20
23.6547
 11
6.64647
 21
23.6448
  0
LINE
  8
0
 10
6.64647
 20
23.6448
 11
6.87099
 21
23.6739
  0
LINE
  8
0
 10
6.87099
 20
23.6739
 11
7.42792
 21
23.8937
  0
LINE
  8
0
 10
7.42792
 20
23.8937
 11
7.95708
 21
24.254
  0
LINE
  8
0
 10
7.95708
 20
24.254
 11
8.44542
 21
24.7459
  0
LINE
  8
0
 10
8.44542
 20
24.7459
 11
8.88095
 21
25.3574
  0
LINE
  8
0
 10
8.88095
 20
25.3574
 11
9.25291
 21
26.0733
  0
LINE
  8
0
 10
9.25291
 20
26.0733
 11
9.55219
 21
26.8761
  0
LINE
  8
0
 10
9.55219
 20
26.8761
 11
9.77136
 21
27.7459
  0
LINE
  8
0
 10
9.77136
 20
27.7459
 11
9.90506
 21
28.6614
  0
LINE
  8
0
 10
9.90506
 20
28.6614
 11
9.94998
 21
29.6
  0
LINE
  8
0
 10
9.94998
 20
29.6
 11
9.94998
 21
38.9
  0
LINE
  8
0
 10
9.94998
 20
38.9
 11
10.6
 21
38.9
  0
LINE
  8
0
 10
10.6
 20
38.9
 11
10.6
 21
12.6
  0
LINE
  8
0
 10
10.6
 20
12.6
 11
9.73457
 21
12.6
  0
LINE
  8
0
 10
9.73457
 20
12.6
 11
9.55215
 21
13.3239
  0
LINE
  8
0
 10
9.55215
 20
13.3239
 11
9.2529
 21
14.1267
  0
LINE
  8
0
 10
9.2529
 20
14.1267
 11
8.88092
 21
14.8426
  0
LINE
  8
0
 10
8.88092
 20
14.8426
 11
8.4454
 21
15.4541
  0
LINE
  8
0
 10
8.4454
 20
15.4541
 11
7.95705
 21
15.946
  0
LINE
  8
0
 10
7.95705
 20
15.946
 11
7.4279
 21
16.3063
  0
LINE
  8
0
 10
7.4279
 20
16.3063
 11
6.87097
 21
16.5261
  0
LINE
  8
0
 10
6.87097
 20
16.5261
 11
6.64645
 21
16.5552
  0
LINE
  8
0
 10
6.64645
 20
16.5552
 11
6.64568
 21
16.5452
  0
LINE
  8
0
 10
6.64568
 20
16.5452
 11
6.63284
 21
16.4918
  0
LINE
  8
0
 10
6.63284
 20
16.4918
 11
6.61183
 21
16.4411
  0
LINE
  8
0
 10
6.61183
 20
16.4411
 11
6.58313
 21
16.3943
  0
LINE
  8
0
 10
6.58313
 20
16.3943
 11
6.54747
 21
16.3525
  0
LINE
  8
0
 10
6.54747
 20
16.3525
 11
6.50571
 21
16.3168
  0
LINE
  8
0
 10
6.50571
 20
16.3168
 11
6.45888
 21
16.2881
  0
LINE
  8
0
 10
6.45888
 20
16.2881
 11
6.40814
 21
16.2671
  0
LINE
  8
0
 10
6.40814
 20
16.2671
 11
6.35474
 21
16.2543
  0
LINE
  8
0
 10
6.35474
 20
16.2543
 11
6.29999
 21
16.25
  0
LINE
  8
0
 10
6.29999
 20
16.25
 11
6.24524
 21
16.2543
  0
LINE
  8
0
 10
6.24524
 20
16.2543
 11
6.19183
 21
16.2671
  0
LINE
  8
0
 10
6.19183
 20
16.2671
 11
6.1411
 21
16.2881
  0
LINE
  8
0
 10
6.1411
 20
16.2881
 11
6.09427
 21
16.3168
  0
LINE
  8
0
 10
6.09427
 20
16.3168
 11
6.05251
 21
16.3525
  0
LINE
  8
0
 10
6.05251
 20
16.3525
 11
6.01685
 21
16.3943
  0
LINE
  8
0
 10
6.01685
 20
16.3943
 11
5.98814
 21
16.4411
  0
LINE
  8
0
 10
5.98814
 20
16.4411
 11
5.96713
 21
16.4918
  0
LINE
  8
0
 10
5.96713
 20
16.4918
 11
5.9543
 21
16.5452
  0
LINE
  8
0
 10
5.9543
 20
16.5452
 11
5.95352
 21
16.5552
  0
LINE
  8
0
 10
5.95352
 20
16.5552
 11
5.729
 21
16.5261
  0
LINE
  8
0
 10
5.729
 20
16.5261
 11
5.17207
 21
16.3063
  0
LINE
  8
0
 10
5.17207
 20
16.3063
 11
4.64291
 21
15.946
  0
LINE
  8
0
 10
4.64291
 20
15.946
 11
4.15457
 21
15.4541
  0
LINE
  8
0
 10
4.15457
 20
15.4541
 11
3.71904
 21
14.8426
  0
LINE
  8
0
 10
3.71904
 20
14.8426
 11
3.34708
 21
14.1267
  0
LINE
  8
0
 10
3.34708
 20
14.1267
 11
3.04781
 21
13.3239
  0
LINE
  8
0
 10
3.04781
 20
13.3239
 11
2.86539
 21
12.6
  0
LINE
  8
0
 10
2.86539
 20
12.6
 11
2
 21
12.6
  0
LINE
  8
0
 10
2
 20
12.6
 11
2
 21
38.9
  0
LINE
  8
0
 10
2
 20
38.9
 11
2.64999
 21
38.9
  0
LINE
  8
0
 10
2.64999
 20
38.9
 11
2.65001
 21
29.6
  0
LINE
  8
0
 10
0.945236
 20
10.2543
 11
0.89183
 21
10.2671
  0
LINE
  8
0
 10
0.89183
 20
10.2671
 11
0.841095
 21
10.2881
  0
LINE
  8
0
 10
0.841095
 20
10.2881
 11
0.794266
 21
10.3168
  0
LINE
  8
0
 10
0.794266
 20
10.3168
 11
0.752502
 21
10.3525
  0
LINE
  8
0
 10
0.752502
 20
10.3525
 11
0.716843
 21
10.3943
  0
LINE
  8
0
 10
0.716843
 20
10.3943
 11
0.688141
 21
10.4411
  0
LINE
  8
0
 10
0.688141
 20
10.4411
 11
0.66713
 21
10.4918
  0
LINE
  8
0
 10
0.66713
 20
10.4918
 11
0.654297
 21
10.5452
  0
LINE
  8
0
 10
0.654297
 20
10.5452
 11
0.649994
 21
10.6
  0
LINE
  8
0
 10
0.649994
 20
10.6
 11
0.654297
 21
10.6547
  0
LINE
  8
0
 10
0.654297
 20
10.6547
 11
0.66713
 21
10.7081
  0
LINE
  8
0
 10
0.66713
 20
10.7081
 11
0.688141
 21
10.7589
  0
LINE
  8
0
 10
0.688141
 20
10.7589
 11
0.716843
 21
10.8057
  0
LINE
  8
0
 10
0.716843
 20
10.8057
 11
0.752502
 21
10.8475
  0
LINE
  8
0
 10
0.752502
 20
10.8475
 11
0.794266
 21
10.8831
  0
LINE
  8
0
 10
0.794266
 20
10.8831
 11
0.841095
 21
10.9118
  0
LINE
  8
0
 10
0.841095
 20
10.9118
 11
0.89183
 21
10.9329
  0
LINE
  8
0
 10
0.89183
 20
10.9329
 11
0.945236
 21
10.9457
  0
LINE
  8
0
 10
0.945236
 20
10.9457
 11
1
 21
10.95
  0
LINE
  8
0
 10
1
 20
10.95
 11
1.05475
 21
10.9457
  0
LINE
  8
0
 10
1.05475
 20
10.9457
 11
1.10815
 21
10.9329
  0
LINE
  8
0
 10
1.10815
 20
10.9329
 11
1.15889
 21
10.9118
  0
LINE
  8
0
 10
1.15889
 20
10.9118
 11
1.20572
 21
10.8831
  0
LINE
  8
0
 10
1.20572
 20
10.8831
 11
1.24748
 21
10.8475
  0
LINE
  8
0
 10
1.24748
 20
10.8475
 11
1.28314
 21
10.8057
  0
LINE
  8
0
 10
1.28314
 20
10.8057
 11
1.31184
 21
10.7589
  0
LINE
  8
0
 10
1.31184
 20
10.7589
 11
1.33286
 21
10.7081
  0
LINE
  8
0
 10
1.33286
 20
10.7081
 11
1.34569
 21
10.6547
  0
LINE
  8
0
 10
1.34569
 20
10.6547
 11
1.34999
 21
10.6
  0
LINE
  8
0
 10
1.34999
 20
10.6
 11
1.34569
 21
10.5452
  0
LINE
  8
0
 10
1.34569
 20
10.5452
 11
1.33286
 21
10.4918
  0
LINE
  8
0
 10
1.33286
 20
10.4918
 11
1.31184
 21
10.4411
  0
LINE
  8
0
 10
1.31184
 20
10.4411
 11
1.28314
 21
10.3943
  0
LINE
  8
0
 10
1.28314
 20
10.3943
 11
1.24748
 21
10.3525
  0
LINE
  8
0
 10
1.24748
 20
10.3525
 11
1.20572
 21
10.3168
  0
LINE
  8
0
 10
1.20572
 20
10.3168
 11
1.15889
 21
10.2881
  0
LINE
  8
0
 10
1.15889
 20
10.2881
 11
1.10815
 21
10.2671
  0
LINE
  8
0
 10
1.10815
 20
10.2671
 11
1.05475
 21
10.2543
  0
LINE
  8
0
 10
1.05475
 20
10.2543
 11
0.999985
 21
10.25
  0
LINE
  8
0
 10
0.999985
 20
10.25
 11
0.945236
 21
10.2543
  0
ENDSEC
  0
SECTION
  2
OBJECTS
  0
DICTIONARY
  0
ENDSEC
  0
EOF
