  0
SECTION
  2
BLOCKS
  0
ENDSEC
  0
SECTION
  2
ENTITIES
  0
LINE
  8
0
 10
-1.71
 11
-1.71
 20
0
 21
41.3
  0
LINE
  8
0
 10
-1.71
 11
3.256
 20
41.3
 21
41.3
  0
LINE
  8
0
 10
3.256
 11
3.256
 20
41.3
 21
49.3
  0
LINE
  8
0
 10
3.256
 11
3.465
 20
49.3
 21
49.3
  0
LINE
  8
0
 10
3.465
 11
4.956
 20
49.3
 21
46.718
  0
LINE
  8
0
 10
4.956
 11
4.956
 20
46.718
 21
29.3
  0
LINE
  8
0
 10
4.956
 11
5.269
 20
29.3
 21
29.3
  0
LINE
  8
0
 10
5.269
 11
5.278
 20
29.3
 21
29.186
  0
LINE
  8
0
 10
5.278
 11
5.305
 20
29.186
 21
29.074
  0
LINE
  8
0
 10
5.305
 11
5.349
 20
29.074
 21
28.968
  0
LINE
  8
0
 10
5.349
 11
5.409
 20
28.968
 21
28.871
  0
LINE
  8
0
 10
5.409
 11
5.483
 20
28.871
 21
28.783
  0
LINE
  8
0
 10
5.483
 11
5.571
 20
28.783
 21
28.709
  0
LINE
  8
0
 10
5.571
 11
5.668
 20
28.709
 21
28.649
  0
LINE
  8
0
 10
5.668
 11
5.774
 20
28.649
 21
28.605
  0
LINE
  8
0
 10
5.774
 11
5.85
 20
28.605
 21
28.587
  0
LINE
  8
0
 10
5.85
 11
5.85
 20
28.587
 21
27.466
  0
LINE
  8
0
 10
5.85
 11
5.841
 20
27.466
 21
27.462
  0
LINE
  8
0
 10
5.841
 11
5.794
 20
27.462
 21
27.433
  0
LINE
  8
0
 10
5.794
 11
5.753
 20
27.433
 21
27.397
  0
LINE
  8
0
 10
5.753
 11
5.717
 20
27.397
 21
27.356
  0
LINE
  8
0
 10
5.717
 11
5.688
 20
27.356
 21
27.309
  0
LINE
  8
0
 10
5.688
 11
5.667
 20
27.309
 21
27.258
  0
LINE
  8
0
 10
5.667
 11
5.654
 20
27.258
 21
27.205
  0
LINE
  8
0
 10
5.654
 11
5.65
 20
27.205
 21
27.15
  0
LINE
  8
0
 10
5.65
 11
5.654
 20
27.15
 21
27.095
  0
LINE
  8
0
 10
5.654
 11
5.667
 20
27.095
 21
27.042
  0
LINE
  8
0
 10
5.667
 11
5.688
 20
27.042
 21
26.991
  0
LINE
  8
0
 10
5.688
 11
5.717
 20
26.991
 21
26.944
  0
LINE
  8
0
 10
5.717
 11
5.753
 20
26.944
 21
26.903
  0
LINE
  8
0
 10
5.753
 11
5.794
 20
26.903
 21
26.867
  0
LINE
  8
0
 10
5.794
 11
5.841
 20
26.867
 21
26.838
  0
LINE
  8
0
 10
5.841
 11
5.85
 20
26.838
 21
26.834
  0
LINE
  8
0
 10
5.85
 11
5.85
 20
26.834
 21
26.066
  0
LINE
  8
0
 10
5.85
 11
5.841
 20
26.066
 21
26.062
  0
LINE
  8
0
 10
5.841
 11
5.794
 20
26.062
 21
26.033
  0
LINE
  8
0
 10
5.794
 11
5.753
 20
26.033
 21
25.997
  0
LINE
  8
0
 10
5.753
 11
5.717
 20
25.997
 21
25.956
  0
LINE
  8
0
 10
5.717
 11
5.688
 20
25.956
 21
25.909
  0
LINE
  8
0
 10
5.688
 11
5.667
 20
25.909
 21
25.858
  0
LINE
  8
0
 10
5.667
 11
5.654
 20
25.858
 21
25.805
  0
LINE
  8
0
 10
5.654
 11
5.65
 20
25.805
 21
25.75
  0
LINE
  8
0
 10
5.65
 11
5.654
 20
25.75
 21
25.695
  0
LINE
  8
0
 10
5.654
 11
5.667
 20
25.695
 21
25.642
  0
LINE
  8
0
 10
5.667
 11
5.688
 20
25.642
 21
25.591
  0
LINE
  8
0
 10
5.688
 11
5.717
 20
25.591
 21
25.544
  0
LINE
  8
0
 10
5.717
 11
5.753
 20
25.544
 21
25.503
  0
LINE
  8
0
 10
5.753
 11
5.794
 20
25.503
 21
25.467
  0
LINE
  8
0
 10
5.794
 11
5.841
 20
25.467
 21
25.438
  0
LINE
  8
0
 10
5.841
 11
5.892
 20
25.438
 21
25.417
  0
LINE
  8
0
 10
5.892
 11
5.945
 20
25.417
 21
25.404
  0
LINE
  8
0
 10
5.945
 11
6
 20
25.404
 21
25.4
  0
LINE
  8
0
 10
6
 11
6.055
 20
25.4
 21
25.404
  0
LINE
  8
0
 10
6.055
 11
6.108
 20
25.404
 21
25.417
  0
LINE
  8
0
 10
6.108
 11
6.159
 20
25.417
 21
25.438
  0
LINE
  8
0
 10
6.159
 11
6.206
 20
25.438
 21
25.467
  0
LINE
  8
0
 10
6.206
 11
6.247
 20
25.467
 21
25.503
  0
LINE
  8
0
 10
6.247
 11
6.283
 20
25.503
 21
25.544
  0
LINE
  8
0
 10
6.283
 11
6.312
 20
25.544
 21
25.591
  0
LINE
  8
0
 10
6.312
 11
6.333
 20
25.591
 21
25.642
  0
LINE
  8
0
 10
6.333
 11
6.346
 20
25.642
 21
25.695
  0
LINE
  8
0
 10
6.346
 11
6.35
 20
25.695
 21
25.75
  0
LINE
  8
0
 10
6.35
 11
6.346
 20
25.75
 21
25.805
  0
LINE
  8
0
 10
6.346
 11
6.333
 20
25.805
 21
25.858
  0
LINE
  8
0
 10
6.333
 11
6.312
 20
25.858
 21
25.909
  0
LINE
  8
0
 10
6.312
 11
6.283
 20
25.909
 21
25.956
  0
LINE
  8
0
 10
6.283
 11
6.247
 20
25.956
 21
25.997
  0
LINE
  8
0
 10
6.247
 11
6.206
 20
25.997
 21
26.033
  0
LINE
  8
0
 10
6.206
 11
6.159
 20
26.033
 21
26.062
  0
LINE
  8
0
 10
6.159
 11
6.15
 20
26.062
 21
26.066
  0
LINE
  8
0
 10
6.15
 11
6.15
 20
26.066
 21
26.834
  0
LINE
  8
0
 10
6.15
 11
6.159
 20
26.834
 21
26.838
  0
LINE
  8
0
 10
6.159
 11
6.206
 20
26.838
 21
26.867
  0
LINE
  8
0
 10
6.206
 11
6.247
 20
26.867
 21
26.903
  0
LINE
  8
0
 10
6.247
 11
6.283
 20
26.903
 21
26.944
  0
LINE
  8
0
 10
6.283
 11
6.312
 20
26.944
 21
26.991
  0
LINE
  8
0
 10
6.312
 11
6.333
 20
26.991
 21
27.042
  0
LINE
  8
0
 10
6.333
 11
6.346
 20
27.042
 21
27.095
  0
LINE
  8
0
 10
6.346
 11
6.35
 20
27.095
 21
27.15
  0
LINE
  8
0
 10
6.35
 11
6.346
 20
27.15
 21
27.205
  0
LINE
  8
0
 10
6.346
 11
6.333
 20
27.205
 21
27.258
  0
LINE
  8
0
 10
6.333
 11
6.312
 20
27.258
 21
27.309
  0
LINE
  8
0
 10
6.312
 11
6.283
 20
27.309
 21
27.356
  0
LINE
  8
0
 10
6.283
 11
6.247
 20
27.356
 21
27.397
  0
LINE
  8
0
 10
6.247
 11
6.206
 20
27.397
 21
27.433
  0
LINE
  8
0
 10
6.206
 11
6.159
 20
27.433
 21
27.462
  0
LINE
  8
0
 10
6.159
 11
6.15
 20
27.462
 21
27.466
  0
LINE
  8
0
 10
6.15
 11
6.15
 20
27.466
 21
28.587
  0
LINE
  8
0
 10
6.15
 11
6.226
 20
28.587
 21
28.605
  0
LINE
  8
0
 10
6.226
 11
6.332
 20
28.605
 21
28.649
  0
LINE
  8
0
 10
6.332
 11
6.429
 20
28.649
 21
28.709
  0
LINE
  8
0
 10
6.429
 11
6.517
 20
28.709
 21
28.783
  0
LINE
  8
0
 10
6.517
 11
6.591
 20
28.783
 21
28.871
  0
LINE
  8
0
 10
6.591
 11
6.651
 20
28.871
 21
28.968
  0
LINE
  8
0
 10
6.651
 11
6.695
 20
28.968
 21
29.074
  0
LINE
  8
0
 10
6.695
 11
6.722
 20
29.074
 21
29.186
  0
LINE
  8
0
 10
6.722
 11
6.731
 20
29.186
 21
29.3
  0
LINE
  8
0
 10
6.731
 11
7.044
 20
29.3
 21
29.3
  0
LINE
  8
0
 10
7.044
 11
7.044
 20
29.3
 21
46.718
  0
LINE
  8
0
 10
7.044
 11
8.535
 20
46.718
 21
49.3
  0
LINE
  8
0
 10
8.535
 11
8.744
 20
49.3
 21
49.3
  0
LINE
  8
0
 10
8.744
 11
8.744
 20
49.3
 21
41.3
  0
LINE
  8
0
 10
8.744
 11
12
 20
41.3
 21
41.3
  0
LINE
  8
0
 10
12
 11
12
 20
41.3
 21
0
  0
LINE
  8
0
 10
12
 11
10.3
 20
0
 21
0
  0
LINE
  8
0
 10
10.3
 11
10.3
 20
0
 21
8.6
  0
LINE
  8
0
 10
10.3
 11
6.15
 20
8.6
 21
8.6
  0
LINE
  8
0
 10
6.15
 11
6.15
 20
8.6
 21
12.134
  0
LINE
  8
0
 10
6.15
 11
6.159
 20
12.134
 21
12.138
  0
LINE
  8
0
 10
6.159
 11
6.206
 20
12.138
 21
12.167
  0
LINE
  8
0
 10
6.206
 11
6.247
 20
12.167
 21
12.203
  0
LINE
  8
0
 10
6.247
 11
6.283
 20
12.203
 21
12.244
  0
LINE
  8
0
 10
6.283
 11
6.312
 20
12.244
 21
12.291
  0
LINE
  8
0
 10
6.312
 11
6.333
 20
12.291
 21
12.342
  0
LINE
  8
0
 10
6.333
 11
6.346
 20
12.342
 21
12.395
  0
LINE
  8
0
 10
6.346
 11
6.35
 20
12.395
 21
12.45
  0
LINE
  8
0
 10
6.35
 11
6.346
 20
12.45
 21
12.505
  0
LINE
  8
0
 10
6.346
 11
6.333
 20
12.505
 21
12.558
  0
LINE
  8
0
 10
6.333
 11
6.312
 20
12.558
 21
12.609
  0
LINE
  8
0
 10
6.312
 11
6.283
 20
12.609
 21
12.656
  0
LINE
  8
0
 10
6.283
 11
6.247
 20
12.656
 21
12.697
  0
LINE
  8
0
 10
6.247
 11
6.206
 20
12.697
 21
12.733
  0
LINE
  8
0
 10
6.206
 11
6.159
 20
12.733
 21
12.762
  0
LINE
  8
0
 10
6.159
 11
6.15
 20
12.762
 21
12.766
  0
LINE
  8
0
 10
6.15
 11
6.15
 20
12.766
 21
13.534
  0
LINE
  8
0
 10
6.15
 11
6.159
 20
13.534
 21
13.538
  0
LINE
  8
0
 10
6.159
 11
6.206
 20
13.538
 21
13.567
  0
LINE
  8
0
 10
6.206
 11
6.247
 20
13.567
 21
13.603
  0
LINE
  8
0
 10
6.247
 11
6.283
 20
13.603
 21
13.644
  0
LINE
  8
0
 10
6.283
 11
6.312
 20
13.644
 21
13.691
  0
LINE
  8
0
 10
6.312
 11
6.333
 20
13.691
 21
13.742
  0
LINE
  8
0
 10
6.333
 11
6.346
 20
13.742
 21
13.795
  0
LINE
  8
0
 10
6.346
 11
6.35
 20
13.795
 21
13.85
  0
LINE
  8
0
 10
6.35
 11
6.346
 20
13.85
 21
13.905
  0
LINE
  8
0
 10
6.346
 11
6.333
 20
13.905
 21
13.958
  0
LINE
  8
0
 10
6.333
 11
6.312
 20
13.958
 21
14.009
  0
LINE
  8
0
 10
6.312
 11
6.283
 20
14.009
 21
14.056
  0
LINE
  8
0
 10
6.283
 11
6.247
 20
14.056
 21
14.097
  0
LINE
  8
0
 10
6.247
 11
6.206
 20
14.097
 21
14.133
  0
LINE
  8
0
 10
6.206
 11
6.159
 20
14.133
 21
14.162
  0
LINE
  8
0
 10
6.159
 11
6.108
 20
14.162
 21
14.183
  0
LINE
  8
0
 10
6.108
 11
6.055
 20
14.183
 21
14.196
  0
LINE
  8
0
 10
6.055
 11
6
 20
14.196
 21
14.2
  0
LINE
  8
0
 10
6
 11
5.945
 20
14.2
 21
14.196
  0
LINE
  8
0
 10
5.945
 11
5.892
 20
14.196
 21
14.183
  0
LINE
  8
0
 10
5.892
 11
5.841
 20
14.183
 21
14.162
  0
LINE
  8
0
 10
5.841
 11
5.794
 20
14.162
 21
14.133
  0
LINE
  8
0
 10
5.794
 11
5.753
 20
14.133
 21
14.097
  0
LINE
  8
0
 10
5.753
 11
5.717
 20
14.097
 21
14.056
  0
LINE
  8
0
 10
5.717
 11
5.688
 20
14.056
 21
14.009
  0
LINE
  8
0
 10
5.688
 11
5.667
 20
14.009
 21
13.958
  0
LINE
  8
0
 10
5.667
 11
5.654
 20
13.958
 21
13.905
  0
LINE
  8
0
 10
5.654
 11
5.65
 20
13.905
 21
13.85
  0
LINE
  8
0
 10
5.65
 11
5.654
 20
13.85
 21
13.795
  0
LINE
  8
0
 10
5.654
 11
5.667
 20
13.795
 21
13.742
  0
LINE
  8
0
 10
5.667
 11
5.688
 20
13.742
 21
13.691
  0
LINE
  8
0
 10
5.688
 11
5.717
 20
13.691
 21
13.644
  0
LINE
  8
0
 10
5.717
 11
5.753
 20
13.644
 21
13.603
  0
LINE
  8
0
 10
5.753
 11
5.794
 20
13.603
 21
13.567
  0
LINE
  8
0
 10
5.794
 11
5.841
 20
13.567
 21
13.538
  0
LINE
  8
0
 10
5.841
 11
5.85
 20
13.538
 21
13.534
  0
LINE
  8
0
 10
5.85
 11
5.85
 20
13.534
 21
12.766
  0
LINE
  8
0
 10
5.85
 11
5.841
 20
12.766
 21
12.762
  0
LINE
  8
0
 10
5.841
 11
5.794
 20
12.762
 21
12.733
  0
LINE
  8
0
 10
5.794
 11
5.753
 20
12.733
 21
12.697
  0
LINE
  8
0
 10
5.753
 11
5.717
 20
12.697
 21
12.656
  0
LINE
  8
0
 10
5.717
 11
5.688
 20
12.656
 21
12.609
  0
LINE
  8
0
 10
5.688
 11
5.667
 20
12.609
 21
12.558
  0
LINE
  8
0
 10
5.667
 11
5.654
 20
12.558
 21
12.505
  0
LINE
  8
0
 10
5.654
 11
5.65
 20
12.505
 21
12.45
  0
LINE
  8
0
 10
5.65
 11
5.654
 20
12.45
 21
12.395
  0
LINE
  8
0
 10
5.654
 11
5.667
 20
12.395
 21
12.342
  0
LINE
  8
0
 10
5.667
 11
5.688
 20
12.342
 21
12.291
  0
LINE
  8
0
 10
5.688
 11
5.717
 20
12.291
 21
12.244
  0
LINE
  8
0
 10
5.717
 11
5.753
 20
12.244
 21
12.203
  0
LINE
  8
0
 10
5.753
 11
5.794
 20
12.203
 21
12.167
  0
LINE
  8
0
 10
5.794
 11
5.841
 20
12.167
 21
12.138
  0
LINE
  8
0
 10
5.841
 11
5.85
 20
12.138
 21
12.134
  0
LINE
  8
0
 10
5.85
 11
5.85
 20
12.134
 21
8.6
  0
LINE
  8
0
 10
5.85
 11
1.7
 20
8.6
 21
8.6
  0
LINE
  8
0
 10
1.7
 11
1.7
 20
8.6
 21
0
  0
LINE
  8
0
 10
1.7
 11
1.472
 20
0
 21
0
  0
LINE
  8
0
 10
1.472
 11
0
 20
0
 21
2.55
  0
LINE
  8
0
 10
0
 11
0
 20
2.55
 21
39.2
  0
LINE
  8
0
 10
0
 11
-0.01
 20
39.2
 21
39.2
  0
LINE
  8
0
 10
-0.01
 11
-0.01
 20
39.2
 21
2.533
  0
LINE
  8
0
 10
-0.01
 11
-1.472
 20
2.533
 21
0
  0
LINE
  8
0
 10
-1.472
 11
-1.71
 20
0
 21
0
  0
LINE
  8
0
 10
0.5
 11
0.504
 20
10.3
 21
10.355
  0
LINE
  8
0
 10
0.504
 11
0.517
 20
10.355
 21
10.408
  0
LINE
  8
0
 10
0.517
 11
0.538
 20
10.408
 21
10.459
  0
LINE
  8
0
 10
0.538
 11
0.567
 20
10.459
 21
10.506
  0
LINE
  8
0
 10
0.567
 11
0.603
 20
10.506
 21
10.547
  0
LINE
  8
0
 10
0.603
 11
0.644
 20
10.547
 21
10.583
  0
LINE
  8
0
 10
0.644
 11
0.691
 20
10.583
 21
10.612
  0
LINE
  8
0
 10
0.691
 11
0.742
 20
10.612
 21
10.633
  0
LINE
  8
0
 10
0.742
 11
0.795
 20
10.633
 21
10.646
  0
LINE
  8
0
 10
0.795
 11
0.85
 20
10.646
 21
10.65
  0
LINE
  8
0
 10
0.85
 11
0.905
 20
10.65
 21
10.646
  0
LINE
  8
0
 10
0.905
 11
0.958
 20
10.646
 21
10.633
  0
LINE
  8
0
 10
0.958
 11
1.009
 20
10.633
 21
10.612
  0
LINE
  8
0
 10
1.009
 11
1.056
 20
10.612
 21
10.583
  0
LINE
  8
0
 10
1.056
 11
1.097
 20
10.583
 21
10.547
  0
LINE
  8
0
 10
1.097
 11
1.133
 20
10.547
 21
10.506
  0
LINE
  8
0
 10
1.133
 11
1.162
 20
10.506
 21
10.459
  0
LINE
  8
0
 10
1.162
 11
1.183
 20
10.459
 21
10.408
  0
LINE
  8
0
 10
1.183
 11
1.196
 20
10.408
 21
10.355
  0
LINE
  8
0
 10
1.196
 11
1.2
 20
10.355
 21
10.3
  0
LINE
  8
0
 10
1.2
 11
1.196
 20
10.3
 21
10.245
  0
LINE
  8
0
 10
1.196
 11
1.183
 20
10.245
 21
10.192
  0
LINE
  8
0
 10
1.183
 11
1.162
 20
10.192
 21
10.141
  0
LINE
  8
0
 10
1.162
 11
1.133
 20
10.141
 21
10.094
  0
LINE
  8
0
 10
1.133
 11
1.097
 20
10.094
 21
10.053
  0
LINE
  8
0
 10
1.097
 11
1.056
 20
10.053
 21
10.017
  0
LINE
  8
0
 10
1.056
 11
1.009
 20
10.017
 21
9.988
  0
LINE
  8
0
 10
1.009
 11
0.958
 20
9.988
 21
9.967
  0
LINE
  8
0
 10
0.958
 11
0.905
 20
9.967
 21
9.954
  0
LINE
  8
0
 10
0.905
 11
0.85
 20
9.954
 21
9.95
  0
LINE
  8
0
 10
0.85
 11
0.795
 20
9.95
 21
9.954
  0
LINE
  8
0
 10
0.795
 11
0.742
 20
9.954
 21
9.967
  0
LINE
  8
0
 10
0.742
 11
0.691
 20
9.967
 21
9.988
  0
LINE
  8
0
 10
0.691
 11
0.644
 20
9.988
 21
10.017
  0
LINE
  8
0
 10
0.644
 11
0.603
 20
10.017
 21
10.053
  0
LINE
  8
0
 10
0.603
 11
0.567
 20
10.053
 21
10.094
  0
LINE
  8
0
 10
0.567
 11
0.538
 20
10.094
 21
10.141
  0
LINE
  8
0
 10
0.538
 11
0.517
 20
10.141
 21
10.192
  0
LINE
  8
0
 10
0.517
 11
0.504
 20
10.192
 21
10.245
  0
LINE
  8
0
 10
0.504
 11
0.5
 20
10.245
 21
10.3
  0
LINE
  8
0
 10
1.7
 11
1.7
 20
12
 21
39.2
  0
LINE
  8
0
 10
1.7
 11
3.256
 20
39.2
 21
39.2
  0
LINE
  8
0
 10
3.256
 11
3.256
 20
39.2
 21
29.3
  0
LINE
  8
0
 10
3.256
 11
3.29
 20
29.3
 21
28.362
  0
LINE
  8
0
 10
3.29
 11
3.391
 20
28.362
 21
27.446
  0
LINE
  8
0
 10
3.391
 11
3.555
 20
27.446
 21
26.576
  0
LINE
  8
0
 10
3.555
 11
3.78
 20
26.576
 21
25.773
  0
LINE
  8
0
 10
3.78
 11
4.06
 20
25.773
 21
25.058
  0
LINE
  8
0
 10
4.06
 11
4.387
 20
25.058
 21
24.446
  0
LINE
  8
0
 10
4.387
 11
4.754
 20
24.446
 21
23.954
  0
LINE
  8
0
 10
4.754
 11
5.152
 20
23.954
 21
23.595
  0
LINE
  8
0
 10
5.152
 11
5.571
 20
23.595
 21
23.374
  0
LINE
  8
0
 10
5.571
 11
5.655
 20
23.374
 21
23.359
  0
LINE
  8
0
 10
5.655
 11
5.667
 20
23.359
 21
23.408
  0
LINE
  8
0
 10
5.667
 11
5.688
 20
23.408
 21
23.459
  0
LINE
  8
0
 10
5.688
 11
5.717
 20
23.459
 21
23.506
  0
LINE
  8
0
 10
5.717
 11
5.753
 20
23.506
 21
23.547
  0
LINE
  8
0
 10
5.753
 11
5.794
 20
23.547
 21
23.583
  0
LINE
  8
0
 10
5.794
 11
5.841
 20
23.583
 21
23.612
  0
LINE
  8
0
 10
5.841
 11
5.892
 20
23.612
 21
23.633
  0
LINE
  8
0
 10
5.892
 11
5.945
 20
23.633
 21
23.646
  0
LINE
  8
0
 10
5.945
 11
6
 20
23.646
 21
23.65
  0
LINE
  8
0
 10
6
 11
6.055
 20
23.65
 21
23.646
  0
LINE
  8
0
 10
6.055
 11
6.108
 20
23.646
 21
23.633
  0
LINE
  8
0
 10
6.108
 11
6.159
 20
23.633
 21
23.612
  0
LINE
  8
0
 10
6.159
 11
6.206
 20
23.612
 21
23.583
  0
LINE
  8
0
 10
6.206
 11
6.247
 20
23.583
 21
23.547
  0
LINE
  8
0
 10
6.247
 11
6.283
 20
23.547
 21
23.506
  0
LINE
  8
0
 10
6.283
 11
6.312
 20
23.506
 21
23.459
  0
LINE
  8
0
 10
6.312
 11
6.333
 20
23.459
 21
23.408
  0
LINE
  8
0
 10
6.333
 11
6.345
 20
23.408
 21
23.359
  0
LINE
  8
0
 10
6.345
 11
6.429
 20
23.359
 21
23.374
  0
LINE
  8
0
 10
6.429
 11
6.848
 20
23.374
 21
23.595
  0
LINE
  8
0
 10
6.848
 11
7.246
 20
23.595
 21
23.954
  0
LINE
  8
0
 10
7.246
 11
7.613
 20
23.954
 21
24.446
  0
LINE
  8
0
 10
7.613
 11
7.94
 20
24.446
 21
25.058
  0
LINE
  8
0
 10
7.94
 11
8.22
 20
25.058
 21
25.773
  0
LINE
  8
0
 10
8.22
 11
8.445
 20
25.773
 21
26.576
  0
LINE
  8
0
 10
8.445
 11
8.609
 20
26.576
 21
27.446
  0
LINE
  8
0
 10
8.609
 11
8.71
 20
27.446
 21
28.362
  0
LINE
  8
0
 10
8.71
 11
8.744
 20
28.362
 21
29.3
  0
LINE
  8
0
 10
8.744
 11
8.744
 20
29.3
 21
39.2
  0
LINE
  8
0
 10
8.744
 11
10.3
 20
39.2
 21
39.2
  0
LINE
  8
0
 10
10.3
 11
10.3
 20
39.2
 21
12
  0
LINE
  8
0
 10
10.3
 11
8.626
 20
12
 21
12
  0
LINE
  8
0
 10
8.626
 11
8.609
 20
12
 21
12.154
  0
LINE
  8
0
 10
8.609
 11
8.445
 20
12.154
 21
13.024
  0
LINE
  8
0
 10
8.445
 11
8.22
 20
13.024
 21
13.827
  0
LINE
  8
0
 10
8.22
 11
7.94
 20
13.827
 21
14.542
  0
LINE
  8
0
 10
7.94
 11
7.613
 20
14.542
 21
15.154
  0
LINE
  8
0
 10
7.613
 11
7.246
 20
15.154
 21
15.646
  0
LINE
  8
0
 10
7.246
 11
6.848
 20
15.646
 21
16.005
  0
LINE
  8
0
 10
6.848
 11
6.429
 20
16.005
 21
16.226
  0
LINE
  8
0
 10
6.429
 11
6.345
 20
16.226
 21
16.241
  0
LINE
  8
0
 10
6.345
 11
6.333
 20
16.241
 21
16.192
  0
LINE
  8
0
 10
6.333
 11
6.312
 20
16.192
 21
16.141
  0
LINE
  8
0
 10
6.312
 11
6.283
 20
16.141
 21
16.094
  0
LINE
  8
0
 10
6.283
 11
6.247
 20
16.094
 21
16.053
  0
LINE
  8
0
 10
6.247
 11
6.206
 20
16.053
 21
16.017
  0
LINE
  8
0
 10
6.206
 11
6.159
 20
16.017
 21
15.988
  0
LINE
  8
0
 10
6.159
 11
6.108
 20
15.988
 21
15.967
  0
LINE
  8
0
 10
6.108
 11
6.055
 20
15.967
 21
15.954
  0
LINE
  8
0
 10
6.055
 11
6
 20
15.954
 21
15.95
  0
LINE
  8
0
 10
6
 11
5.945
 20
15.95
 21
15.954
  0
LINE
  8
0
 10
5.945
 11
5.892
 20
15.954
 21
15.967
  0
LINE
  8
0
 10
5.892
 11
5.841
 20
15.967
 21
15.988
  0
LINE
  8
0
 10
5.841
 11
5.794
 20
15.988
 21
16.017
  0
LINE
  8
0
 10
5.794
 11
5.753
 20
16.017
 21
16.053
  0
LINE
  8
0
 10
5.753
 11
5.717
 20
16.053
 21
16.094
  0
LINE
  8
0
 10
5.717
 11
5.688
 20
16.094
 21
16.141
  0
LINE
  8
0
 10
5.688
 11
5.667
 20
16.141
 21
16.192
  0
LINE
  8
0
 10
5.667
 11
5.655
 20
16.192
 21
16.241
  0
LINE
  8
0
 10
5.655
 11
5.571
 20
16.241
 21
16.226
  0
LINE
  8
0
 10
5.571
 11
5.152
 20
16.226
 21
16.005
  0
LINE
  8
0
 10
5.152
 11
4.754
 20
16.005
 21
15.646
  0
LINE
  8
0
 10
4.754
 11
4.387
 20
15.646
 21
15.154
  0
LINE
  8
0
 10
4.387
 11
4.06
 20
15.154
 21
14.542
  0
LINE
  8
0
 10
4.06
 11
3.78
 20
14.542
 21
13.827
  0
LINE
  8
0
 10
3.78
 11
3.555
 20
13.827
 21
13.024
  0
LINE
  8
0
 10
3.555
 11
3.391
 20
13.024
 21
12.154
  0
LINE
  8
0
 10
3.391
 11
3.374
 20
12.154
 21
12
  0
LINE
  8
0
 10
3.374
 11
1.7
 20
12
 21
12
  0
LINE
  8
0
 10
2.128
 11
2.132
 20
40.25
 21
40.305
  0
LINE
  8
0
 10
2.132
 11
2.145
 20
40.305
 21
40.358
  0
LINE
  8
0
 10
2.145
 11
2.166
 20
40.358
 21
40.409
  0
LINE
  8
0
 10
2.166
 11
2.195
 20
40.409
 21
40.456
  0
LINE
  8
0
 10
2.195
 11
2.231
 20
40.456
 21
40.497
  0
LINE
  8
0
 10
2.231
 11
2.272
 20
40.497
 21
40.533
  0
LINE
  8
0
 10
2.272
 11
2.319
 20
40.533
 21
40.562
  0
LINE
  8
0
 10
2.319
 11
2.37
 20
40.562
 21
40.583
  0
LINE
  8
0
 10
2.37
 11
2.423
 20
40.583
 21
40.596
  0
LINE
  8
0
 10
2.423
 11
2.478
 20
40.596
 21
40.6
  0
LINE
  8
0
 10
2.478
 11
2.533
 20
40.6
 21
40.596
  0
LINE
  8
0
 10
2.533
 11
2.586
 20
40.596
 21
40.583
  0
LINE
  8
0
 10
2.586
 11
2.637
 20
40.583
 21
40.562
  0
LINE
  8
0
 10
2.637
 11
2.684
 20
40.562
 21
40.533
  0
LINE
  8
0
 10
2.684
 11
2.725
 20
40.533
 21
40.497
  0
LINE
  8
0
 10
2.725
 11
2.761
 20
40.497
 21
40.456
  0
LINE
  8
0
 10
2.761
 11
2.79
 20
40.456
 21
40.409
  0
LINE
  8
0
 10
2.79
 11
2.811
 20
40.409
 21
40.358
  0
LINE
  8
0
 10
2.811
 11
2.824
 20
40.358
 21
40.305
  0
LINE
  8
0
 10
2.824
 11
2.828
 20
40.305
 21
40.25
  0
LINE
  8
0
 10
2.828
 11
2.824
 20
40.25
 21
40.195
  0
LINE
  8
0
 10
2.824
 11
2.811
 20
40.195
 21
40.142
  0
LINE
  8
0
 10
2.811
 11
2.79
 20
40.142
 21
40.091
  0
LINE
  8
0
 10
2.79
 11
2.761
 20
40.091
 21
40.044
  0
LINE
  8
0
 10
2.761
 11
2.725
 20
40.044
 21
40.003
  0
LINE
  8
0
 10
2.725
 11
2.684
 20
40.003
 21
39.967
  0
LINE
  8
0
 10
2.684
 11
2.637
 20
39.967
 21
39.938
  0
LINE
  8
0
 10
2.637
 11
2.586
 20
39.938
 21
39.917
  0
LINE
  8
0
 10
2.586
 11
2.533
 20
39.917
 21
39.904
  0
LINE
  8
0
 10
2.533
 11
2.478
 20
39.904
 21
39.9
  0
LINE
  8
0
 10
2.478
 11
2.423
 20
39.9
 21
39.904
  0
LINE
  8
0
 10
2.423
 11
2.37
 20
39.904
 21
39.917
  0
LINE
  8
0
 10
2.37
 11
2.319
 20
39.917
 21
39.938
  0
LINE
  8
0
 10
2.319
 11
2.272
 20
39.938
 21
39.967
  0
LINE
  8
0
 10
2.272
 11
2.231
 20
39.967
 21
40.003
  0
LINE
  8
0
 10
2.231
 11
2.195
 20
40.003
 21
40.044
  0
LINE
  8
0
 10
2.195
 11
2.166
 20
40.044
 21
40.091
  0
LINE
  8
0
 10
2.166
 11
2.145
 20
40.091
 21
40.142
  0
LINE
  8
0
 10
2.145
 11
2.132
 20
40.142
 21
40.195
  0
LINE
  8
0
 10
2.132
 11
2.128
 20
40.195
 21
40.25
  0
LINE
  8
0
 10
9.172
 11
9.176
 20
40.25
 21
40.305
  0
LINE
  8
0
 10
9.176
 11
9.189
 20
40.305
 21
40.358
  0
LINE
  8
0
 10
9.189
 11
9.21
 20
40.358
 21
40.409
  0
LINE
  8
0
 10
9.21
 11
9.239
 20
40.409
 21
40.456
  0
LINE
  8
0
 10
9.239
 11
9.275
 20
40.456
 21
40.497
  0
LINE
  8
0
 10
9.275
 11
9.316
 20
40.497
 21
40.533
  0
LINE
  8
0
 10
9.316
 11
9.363
 20
40.533
 21
40.562
  0
LINE
  8
0
 10
9.363
 11
9.414
 20
40.562
 21
40.583
  0
LINE
  8
0
 10
9.414
 11
9.467
 20
40.583
 21
40.596
  0
LINE
  8
0
 10
9.467
 11
9.522
 20
40.596
 21
40.6
  0
LINE
  8
0
 10
9.522
 11
9.577
 20
40.6
 21
40.596
  0
LINE
  8
0
 10
9.577
 11
9.63
 20
40.596
 21
40.583
  0
LINE
  8
0
 10
9.63
 11
9.681
 20
40.583
 21
40.562
  0
LINE
  8
0
 10
9.681
 11
9.728
 20
40.562
 21
40.533
  0
LINE
  8
0
 10
9.728
 11
9.769
 20
40.533
 21
40.497
  0
LINE
  8
0
 10
9.769
 11
9.805
 20
40.497
 21
40.456
  0
LINE
  8
0
 10
9.805
 11
9.834
 20
40.456
 21
40.409
  0
LINE
  8
0
 10
9.834
 11
9.855
 20
40.409
 21
40.358
  0
LINE
  8
0
 10
9.855
 11
9.868
 20
40.358
 21
40.305
  0
LINE
  8
0
 10
9.868
 11
9.872
 20
40.305
 21
40.25
  0
LINE
  8
0
 10
9.872
 11
9.868
 20
40.25
 21
40.195
  0
LINE
  8
0
 10
9.868
 11
9.855
 20
40.195
 21
40.142
  0
LINE
  8
0
 10
9.855
 11
9.834
 20
40.142
 21
40.091
  0
LINE
  8
0
 10
9.834
 11
9.805
 20
40.091
 21
40.044
  0
LINE
  8
0
 10
9.805
 11
9.769
 20
40.044
 21
40.003
  0
LINE
  8
0
 10
9.769
 11
9.728
 20
40.003
 21
39.967
  0
LINE
  8
0
 10
9.728
 11
9.681
 20
39.967
 21
39.938
  0
LINE
  8
0
 10
9.681
 11
9.63
 20
39.938
 21
39.917
  0
LINE
  8
0
 10
9.63
 11
9.577
 20
39.917
 21
39.904
  0
LINE
  8
0
 10
9.577
 11
9.522
 20
39.904
 21
39.9
  0
LINE
  8
0
 10
9.522
 11
9.467
 20
39.9
 21
39.904
  0
LINE
  8
0
 10
9.467
 11
9.414
 20
39.904
 21
39.917
  0
LINE
  8
0
 10
9.414
 11
9.363
 20
39.917
 21
39.938
  0
LINE
  8
0
 10
9.363
 11
9.316
 20
39.938
 21
39.967
  0
LINE
  8
0
 10
9.316
 11
9.275
 20
39.967
 21
40.003
  0
LINE
  8
0
 10
9.275
 11
9.239
 20
40.003
 21
40.044
  0
LINE
  8
0
 10
9.239
 11
9.21
 20
40.044
 21
40.091
  0
LINE
  8
0
 10
9.21
 11
9.189
 20
40.091
 21
40.142
  0
LINE
  8
0
 10
9.189
 11
9.176
 20
40.142
 21
40.195
  0
LINE
  8
0
 10
9.176
 11
9.172
 20
40.195
 21
40.25
  0
ENDSEC
  0
SECTION
  2
OBJECTS
  0
DICTIONARY
  0
ENDSEC
  0
EOF
