  0
SECTION
  2
BLOCKS
  0
ENDSEC
  0
SECTION
  2
ENTITIES
  0
LINE
  8
0
 10
2.2
 20
9.59999
 11
6.84999
 21
9.59999
  0
LINE
  8
0
 10
6.84999
 20
9.59999
 11
6.84999
 21
14.6305
  0
LINE
  8
0
 10
6.84999
 20
14.6305
 11
6.81839
 21
14.6436
  0
LINE
  8
0
 10
6.81839
 20
14.6436
 11
6.76488
 21
14.6764
  0
LINE
  8
0
 10
6.76488
 20
14.6764
 11
6.71715
 21
14.7172
  0
LINE
  8
0
 10
6.71715
 20
14.7172
 11
6.67639
 21
14.7649
  0
LINE
  8
0
 10
6.67639
 20
14.7649
 11
6.64359
 21
14.8184
  0
LINE
  8
0
 10
6.64359
 20
14.8184
 11
6.61957
 21
14.8764
  0
LINE
  8
0
 10
6.61957
 20
14.8764
 11
6.60492
 21
14.9374
  0
LINE
  8
0
 10
6.60492
 20
14.9374
 11
6.59999
 21
15
  0
LINE
  8
0
 10
6.59999
 20
15
 11
6.60492
 21
15.0626
  0
LINE
  8
0
 10
6.60492
 20
15.0626
 11
6.61957
 21
15.1236
  0
LINE
  8
0
 10
6.61957
 20
15.1236
 11
6.64359
 21
15.1816
  0
LINE
  8
0
 10
6.64359
 20
15.1816
 11
6.67639
 21
15.2351
  0
LINE
  8
0
 10
6.67639
 20
15.2351
 11
6.71715
 21
15.2828
  0
LINE
  8
0
 10
6.71715
 20
15.2828
 11
6.76488
 21
15.3236
  0
LINE
  8
0
 10
6.76488
 20
15.3236
 11
6.81839
 21
15.3564
  0
LINE
  8
0
 10
6.81839
 20
15.3564
 11
6.87639
 21
15.3804
  0
LINE
  8
0
 10
6.87639
 20
15.3804
 11
6.93742
 21
15.3951
  0
LINE
  8
0
 10
6.93742
 20
15.3951
 11
6.99998
 21
15.4
  0
LINE
  8
0
 10
6.99998
 20
15.4
 11
7.06255
 21
15.3951
  0
LINE
  8
0
 10
7.06255
 20
15.3951
 11
7.12358
 21
15.3804
  0
LINE
  8
0
 10
7.12358
 20
15.3804
 11
7.18158
 21
15.3564
  0
LINE
  8
0
 10
7.18158
 20
15.3564
 11
7.23509
 21
15.3236
  0
LINE
  8
0
 10
7.23509
 20
15.3236
 11
7.28282
 21
15.2828
  0
LINE
  8
0
 10
7.28282
 20
15.2828
 11
7.32358
 21
15.2351
  0
LINE
  8
0
 10
7.32358
 20
15.2351
 11
7.35638
 21
15.1816
  0
LINE
  8
0
 10
7.35638
 20
15.1816
 11
7.3804
 21
15.1236
  0
LINE
  8
0
 10
7.3804
 20
15.1236
 11
7.39505
 21
15.0626
  0
LINE
  8
0
 10
7.39505
 20
15.0626
 11
7.39998
 21
15
  0
LINE
  8
0
 10
7.39998
 20
15
 11
7.39505
 21
14.9374
  0
LINE
  8
0
 10
7.39505
 20
14.9374
 11
7.3804
 21
14.8764
  0
LINE
  8
0
 10
7.3804
 20
14.8764
 11
7.35638
 21
14.8184
  0
LINE
  8
0
 10
7.35638
 20
14.8184
 11
7.32358
 21
14.7649
  0
LINE
  8
0
 10
7.32358
 20
14.7649
 11
7.28282
 21
14.7172
  0
LINE
  8
0
 10
7.28282
 20
14.7172
 11
7.23509
 21
14.6764
  0
LINE
  8
0
 10
7.23509
 20
14.6764
 11
7.18158
 21
14.6436
  0
LINE
  8
0
 10
7.18158
 20
14.6436
 11
7.14998
 21
14.6305
  0
LINE
  8
0
 10
7.14998
 20
14.6305
 11
7.14999
 21
9.59999
  0
LINE
  8
0
 10
7.14999
 20
9.59999
 11
11.8
 21
9.59999
  0
LINE
  8
0
 10
11.8
 20
9.59999
 11
11.8
 21
0
  0
LINE
  8
0
 10
11.8
 20
0
 11
14
 21
0
  0
LINE
  8
0
 10
14
 20
0
 11
14
 21
42.3
  0
LINE
  8
0
 10
14
 20
42.3
 11
10.85
 21
42.3
  0
LINE
  8
0
 10
10.85
 20
42.3
 11
10.85
 21
50.8
  0
LINE
  8
0
 10
10.85
 20
50.8
 11
10.5565
 21
50.8
  0
LINE
  8
0
 10
10.5565
 20
50.8
 11
8.64999
 21
47.4979
  0
LINE
  8
0
 10
8.64999
 20
47.4979
 11
8.64999
 21
30.8
  0
LINE
  8
0
 10
8.64999
 20
30.8
 11
8.155
 21
30.8
  0
LINE
  8
0
 10
8.155
 20
30.8
 11
8.14078
 21
30.6193
  0
LINE
  8
0
 10
8.14078
 20
30.6193
 11
8.09846
 21
30.4431
  0
LINE
  8
0
 10
8.09846
 20
30.4431
 11
8.0291
 21
30.2756
  0
LINE
  8
0
 10
8.0291
 20
30.2756
 11
7.9344
 21
30.1211
  0
LINE
  8
0
 10
7.9344
 20
30.1211
 11
7.8167
 21
29.9833
  0
LINE
  8
0
 10
7.8167
 20
29.9833
 11
7.67888
 21
29.8656
  0
LINE
  8
0
 10
7.67888
 20
29.8656
 11
7.52435
 21
29.7709
  0
LINE
  8
0
 10
7.52435
 20
29.7709
 11
7.3569
 21
29.7015
  0
LINE
  8
0
 10
7.3569
 20
29.7015
 11
7.18068
 21
29.6592
  0
LINE
  8
0
 10
7.18068
 20
29.6592
 11
7.14999
 21
29.6568
  0
LINE
  8
0
 10
7.14999
 20
29.6568
 11
7.14999
 21
29.5695
  0
LINE
  8
0
 10
7.14999
 20
29.5695
 11
7.18159
 21
29.5564
  0
LINE
  8
0
 10
7.18159
 20
29.5564
 11
7.23511
 21
29.5236
  0
LINE
  8
0
 10
7.23511
 20
29.5236
 11
7.28284
 21
29.4828
  0
LINE
  8
0
 10
7.28284
 20
29.4828
 11
7.32359
 21
29.4351
  0
LINE
  8
0
 10
7.32359
 20
29.4351
 11
7.3564
 21
29.3816
  0
LINE
  8
0
 10
7.3564
 20
29.3816
 11
7.38042
 21
29.3236
  0
LINE
  8
0
 10
7.38042
 20
29.3236
 11
7.39507
 21
29.2626
  0
LINE
  8
0
 10
7.39507
 20
29.2626
 11
7.39999
 21
29.2
  0
LINE
  8
0
 10
7.39999
 20
29.2
 11
7.39507
 21
29.1374
  0
LINE
  8
0
 10
7.39507
 20
29.1374
 11
7.38042
 21
29.0764
  0
LINE
  8
0
 10
7.38042
 20
29.0764
 11
7.3564
 21
29.0184
  0
LINE
  8
0
 10
7.3564
 20
29.0184
 11
7.32359
 21
28.9649
  0
LINE
  8
0
 10
7.32359
 20
28.9649
 11
7.28284
 21
28.9171
  0
LINE
  8
0
 10
7.28284
 20
28.9171
 11
7.23511
 21
28.8764
  0
LINE
  8
0
 10
7.23511
 20
28.8764
 11
7.18159
 21
28.8436
  0
LINE
  8
0
 10
7.18159
 20
28.8436
 11
7.14999
 21
28.8305
  0
LINE
  8
0
 10
7.14999
 20
28.8305
 11
7.14999
 21
27.9695
  0
LINE
  8
0
 10
7.14999
 20
27.9695
 11
7.18159
 21
27.9564
  0
LINE
  8
0
 10
7.18159
 20
27.9564
 11
7.23511
 21
27.9236
  0
LINE
  8
0
 10
7.23511
 20
27.9236
 11
7.28284
 21
27.8828
  0
LINE
  8
0
 10
7.28284
 20
27.8828
 11
7.32359
 21
27.8351
  0
LINE
  8
0
 10
7.32359
 20
27.8351
 11
7.3564
 21
27.7816
  0
LINE
  8
0
 10
7.3564
 20
27.7816
 11
7.38042
 21
27.7236
  0
LINE
  8
0
 10
7.38042
 20
27.7236
 11
7.39507
 21
27.6625
  0
LINE
  8
0
 10
7.39507
 20
27.6625
 11
7.39999
 21
27.6
  0
LINE
  8
0
 10
7.39999
 20
27.6
 11
7.39507
 21
27.5374
  0
LINE
  8
0
 10
7.39507
 20
27.5374
 11
7.38042
 21
27.4764
  0
LINE
  8
0
 10
7.38042
 20
27.4764
 11
7.3564
 21
27.4184
  0
LINE
  8
0
 10
7.3564
 20
27.4184
 11
7.32359
 21
27.3649
  0
LINE
  8
0
 10
7.32359
 20
27.3649
 11
7.28284
 21
27.3171
  0
LINE
  8
0
 10
7.28284
 20
27.3171
 11
7.23511
 21
27.2764
  0
LINE
  8
0
 10
7.23511
 20
27.2764
 11
7.18159
 21
27.2436
  0
LINE
  8
0
 10
7.18159
 20
27.2436
 11
7.1236
 21
27.2196
  0
LINE
  8
0
 10
7.1236
 20
27.2196
 11
7.06256
 21
27.2049
  0
LINE
  8
0
 10
7.06256
 20
27.2049
 11
7
 21
27.2
  0
LINE
  8
0
 10
7
 20
27.2
 11
6.93744
 21
27.2049
  0
LINE
  8
0
 10
6.93744
 20
27.2049
 11
6.8764
 21
27.2196
  0
LINE
  8
0
 10
6.8764
 20
27.2196
 11
6.81841
 21
27.2436
  0
LINE
  8
0
 10
6.81841
 20
27.2436
 11
6.76489
 21
27.2764
  0
LINE
  8
0
 10
6.76489
 20
27.2764
 11
6.71716
 21
27.3171
  0
LINE
  8
0
 10
6.71716
 20
27.3171
 11
6.67641
 21
27.3649
  0
LINE
  8
0
 10
6.67641
 20
27.3649
 11
6.6436
 21
27.4184
  0
LINE
  8
0
 10
6.6436
 20
27.4184
 11
6.61958
 21
27.4764
  0
LINE
  8
0
 10
6.61958
 20
27.4764
 11
6.60493
 21
27.5374
  0
LINE
  8
0
 10
6.60493
 20
27.5374
 11
6.60001
 21
27.6
  0
LINE
  8
0
 10
6.60001
 20
27.6
 11
6.60493
 21
27.6625
  0
LINE
  8
0
 10
6.60493
 20
27.6625
 11
6.61958
 21
27.7236
  0
LINE
  8
0
 10
6.61958
 20
27.7236
 11
6.6436
 21
27.7816
  0
LINE
  8
0
 10
6.6436
 20
27.7816
 11
6.67641
 21
27.8351
  0
LINE
  8
0
 10
6.67641
 20
27.8351
 11
6.71716
 21
27.8828
  0
LINE
  8
0
 10
6.71716
 20
27.8828
 11
6.76489
 21
27.9236
  0
LINE
  8
0
 10
6.76489
 20
27.9236
 11
6.81841
 21
27.9564
  0
LINE
  8
0
 10
6.81841
 20
27.9564
 11
6.85001
 21
27.9695
  0
LINE
  8
0
 10
6.85001
 20
27.9695
 11
6.85001
 21
28.8305
  0
LINE
  8
0
 10
6.85001
 20
28.8305
 11
6.81841
 21
28.8436
  0
LINE
  8
0
 10
6.81841
 20
28.8436
 11
6.76489
 21
28.8764
  0
LINE
  8
0
 10
6.76489
 20
28.8764
 11
6.71716
 21
28.9171
  0
LINE
  8
0
 10
6.71716
 20
28.9171
 11
6.67641
 21
28.9649
  0
LINE
  8
0
 10
6.67641
 20
28.9649
 11
6.6436
 21
29.0184
  0
LINE
  8
0
 10
6.6436
 20
29.0184
 11
6.61958
 21
29.0764
  0
LINE
  8
0
 10
6.61958
 20
29.0764
 11
6.60493
 21
29.1374
  0
LINE
  8
0
 10
6.60493
 20
29.1374
 11
6.60001
 21
29.2
  0
LINE
  8
0
 10
6.60001
 20
29.2
 11
6.60493
 21
29.2626
  0
LINE
  8
0
 10
6.60493
 20
29.2626
 11
6.61958
 21
29.3236
  0
LINE
  8
0
 10
6.61958
 20
29.3236
 11
6.6436
 21
29.3816
  0
LINE
  8
0
 10
6.6436
 20
29.3816
 11
6.67641
 21
29.4351
  0
LINE
  8
0
 10
6.67641
 20
29.4351
 11
6.71716
 21
29.4828
  0
LINE
  8
0
 10
6.71716
 20
29.4828
 11
6.76489
 21
29.5236
  0
LINE
  8
0
 10
6.76489
 20
29.5236
 11
6.81841
 21
29.5564
  0
LINE
  8
0
 10
6.81841
 20
29.5564
 11
6.85001
 21
29.5695
  0
LINE
  8
0
 10
6.85001
 20
29.5695
 11
6.85001
 21
29.6568
  0
LINE
  8
0
 10
6.85001
 20
29.6568
 11
6.81931
 21
29.6592
  0
LINE
  8
0
 10
6.81931
 20
29.6592
 11
6.64308
 21
29.7015
  0
LINE
  8
0
 10
6.64308
 20
29.7015
 11
6.47563
 21
29.7709
  0
LINE
  8
0
 10
6.47563
 20
29.7709
 11
6.32111
 21
29.8656
  0
LINE
  8
0
 10
6.32111
 20
29.8656
 11
6.18329
 21
29.9833
  0
LINE
  8
0
 10
6.18329
 20
29.9833
 11
6.06558
 21
30.1211
  0
LINE
  8
0
 10
6.06558
 20
30.1211
 11
5.97089
 21
30.2756
  0
LINE
  8
0
 10
5.97089
 20
30.2756
 11
5.90152
 21
30.4431
  0
LINE
  8
0
 10
5.90152
 20
30.4431
 11
5.85921
 21
30.6193
  0
LINE
  8
0
 10
5.85921
 20
30.6193
 11
5.84499
 21
30.8
  0
LINE
  8
0
 10
5.84499
 20
30.8
 11
5.34999
 21
30.8
  0
LINE
  8
0
 10
5.34999
 20
30.8
 11
5.34999
 21
47.4979
  0
LINE
  8
0
 10
5.34999
 20
47.4979
 11
3.44351
 21
50.8
  0
LINE
  8
0
 10
3.44351
 20
50.8
 11
3.14999
 21
50.8
  0
LINE
  8
0
 10
3.14999
 20
50.8
 11
3.14999
 21
42.3
  0
LINE
  8
0
 10
3.14999
 20
42.3
 11
-2.20999
 21
42.3
  0
LINE
  8
0
 10
-2.20999
 20
42.3
 11
-2.20999
 21
9.15527e-005
  0
LINE
  8
0
 10
-2.20999
 20
9.15527e-005
 11
-1.9052
 21
9.15527e-005
  0
LINE
  8
0
 10
-1.9052
 20
9.15527e-005
 11
-0.00999451
 21
3.28268
  0
LINE
  8
0
 10
-0.00999451
 20
3.28268
 11
-0.00999451
 21
39.1
  0
LINE
  8
0
 10
-0.00999451
 20
39.1
 11
0
 21
39.1
  0
LINE
  8
0
 10
0
 20
39.1
 11
0
 21
3.29999
  0
LINE
  8
0
 10
0
 20
3.29999
 11
1.90526
 21
0
  0
LINE
  8
0
 10
1.90526
 20
0
 11
2.2
 21
0
  0
LINE
  8
0
 10
2.2
 20
0
 11
2.2
 21
9.59999
  0
LINE
  8
0
 10
2.61241
 20
40.3049
 11
2.55139
 21
40.3196
  0
LINE
  8
0
 10
2.55139
 20
40.3196
 11
2.49339
 21
40.3436
  0
LINE
  8
0
 10
2.49339
 20
40.3436
 11
2.43988
 21
40.3764
  0
LINE
  8
0
 10
2.43988
 20
40.3764
 11
2.39215
 21
40.4171
  0
LINE
  8
0
 10
2.39215
 20
40.4171
 11
2.35138
 21
40.4649
  0
LINE
  8
0
 10
2.35138
 20
40.4649
 11
2.31859
 21
40.5184
  0
LINE
  8
0
 10
2.31859
 20
40.5184
 11
2.29457
 21
40.5764
  0
LINE
  8
0
 10
2.29457
 20
40.5764
 11
2.27992
 21
40.6374
  0
LINE
  8
0
 10
2.27992
 20
40.6374
 11
2.27499
 21
40.7
  0
LINE
  8
0
 10
2.27499
 20
40.7
 11
2.27992
 21
40.7625
  0
LINE
  8
0
 10
2.27992
 20
40.7625
 11
2.29457
 21
40.8236
  0
LINE
  8
0
 10
2.29457
 20
40.8236
 11
2.31859
 21
40.8816
  0
LINE
  8
0
 10
2.31859
 20
40.8816
 11
2.35138
 21
40.9351
  0
LINE
  8
0
 10
2.35138
 20
40.9351
 11
2.39215
 21
40.9828
  0
LINE
  8
0
 10
2.39215
 20
40.9828
 11
2.43988
 21
41.0236
  0
LINE
  8
0
 10
2.43988
 20
41.0236
 11
2.49339
 21
41.0564
  0
LINE
  8
0
 10
2.49339
 20
41.0564
 11
2.55139
 21
41.0804
  0
LINE
  8
0
 10
2.55139
 20
41.0804
 11
2.61241
 21
41.095
  0
LINE
  8
0
 10
2.61241
 20
41.095
 11
2.67499
 21
41.1
  0
LINE
  8
0
 10
2.67499
 20
41.1
 11
2.73756
 21
41.095
  0
LINE
  8
0
 10
2.73756
 20
41.095
 11
2.7986
 21
41.0804
  0
LINE
  8
0
 10
2.7986
 20
41.0804
 11
2.85658
 21
41.0564
  0
LINE
  8
0
 10
2.85658
 20
41.0564
 11
2.91011
 21
41.0236
  0
LINE
  8
0
 10
2.91011
 20
41.0236
 11
2.95784
 21
40.9828
  0
LINE
  8
0
 10
2.95784
 20
40.9828
 11
2.9986
 21
40.9351
  0
LINE
  8
0
 10
2.9986
 20
40.9351
 11
3.0314
 21
40.8816
  0
LINE
  8
0
 10
3.0314
 20
40.8816
 11
3.05542
 21
40.8236
  0
LINE
  8
0
 10
3.05542
 20
40.8236
 11
3.07007
 21
40.7625
  0
LINE
  8
0
 10
3.07007
 20
40.7625
 11
3.075
 21
40.7
  0
LINE
  8
0
 10
3.075
 20
40.7
 11
3.07007
 21
40.6374
  0
LINE
  8
0
 10
3.07007
 20
40.6374
 11
3.05542
 21
40.5764
  0
LINE
  8
0
 10
3.05542
 20
40.5764
 11
3.0314
 21
40.5184
  0
LINE
  8
0
 10
3.0314
 20
40.5184
 11
2.9986
 21
40.4649
  0
LINE
  8
0
 10
2.9986
 20
40.4649
 11
2.95784
 21
40.4171
  0
LINE
  8
0
 10
2.95784
 20
40.4171
 11
2.91011
 21
40.3764
  0
LINE
  8
0
 10
2.91011
 20
40.3764
 11
2.85658
 21
40.3436
  0
LINE
  8
0
 10
2.85658
 20
40.3436
 11
2.7986
 21
40.3196
  0
LINE
  8
0
 10
2.7986
 20
40.3196
 11
2.73756
 21
40.3049
  0
LINE
  8
0
 10
2.73756
 20
40.3049
 11
2.67499
 21
40.3
  0
LINE
  8
0
 10
2.67499
 20
40.3
 11
2.61241
 21
40.3049
  0
LINE
  8
0
 10
11.2624
 20
40.3049
 11
11.2014
 21
40.3196
  0
LINE
  8
0
 10
11.2014
 20
40.3196
 11
11.1434
 21
40.3436
  0
LINE
  8
0
 10
11.1434
 20
40.3436
 11
11.0899
 21
40.3764
  0
LINE
  8
0
 10
11.0899
 20
40.3764
 11
11.0421
 21
40.4171
  0
LINE
  8
0
 10
11.0421
 20
40.4171
 11
11.0014
 21
40.4649
  0
LINE
  8
0
 10
11.0014
 20
40.4649
 11
10.9686
 21
40.5184
  0
LINE
  8
0
 10
10.9686
 20
40.5184
 11
10.9446
 21
40.5764
  0
LINE
  8
0
 10
10.9446
 20
40.5764
 11
10.9299
 21
40.6374
  0
LINE
  8
0
 10
10.9299
 20
40.6374
 11
10.925
 21
40.7
  0
LINE
  8
0
 10
10.925
 20
40.7
 11
10.9299
 21
40.7625
  0
LINE
  8
0
 10
10.9299
 20
40.7625
 11
10.9446
 21
40.8236
  0
LINE
  8
0
 10
10.9446
 20
40.8236
 11
10.9686
 21
40.8816
  0
LINE
  8
0
 10
10.9686
 20
40.8816
 11
11.0014
 21
40.9351
  0
LINE
  8
0
 10
11.0014
 20
40.9351
 11
11.0421
 21
40.9828
  0
LINE
  8
0
 10
11.0421
 20
40.9828
 11
11.0899
 21
41.0236
  0
LINE
  8
0
 10
11.0899
 20
41.0236
 11
11.1434
 21
41.0564
  0
LINE
  8
0
 10
11.1434
 20
41.0564
 11
11.2014
 21
41.0804
  0
LINE
  8
0
 10
11.2014
 20
41.0804
 11
11.2624
 21
41.095
  0
LINE
  8
0
 10
11.2624
 20
41.095
 11
11.325
 21
41.1
  0
LINE
  8
0
 10
11.325
 20
41.1
 11
11.3876
 21
41.095
  0
LINE
  8
0
 10
11.3876
 20
41.095
 11
11.4486
 21
41.0804
  0
LINE
  8
0
 10
11.4486
 20
41.0804
 11
11.5066
 21
41.0564
  0
LINE
  8
0
 10
11.5066
 20
41.0564
 11
11.5601
 21
41.0236
  0
LINE
  8
0
 10
11.5601
 20
41.0236
 11
11.6078
 21
40.9828
  0
LINE
  8
0
 10
11.6078
 20
40.9828
 11
11.6486
 21
40.9351
  0
LINE
  8
0
 10
11.6486
 20
40.9351
 11
11.6814
 21
40.8816
  0
LINE
  8
0
 10
11.6814
 20
40.8816
 11
11.7054
 21
40.8236
  0
LINE
  8
0
 10
11.7054
 20
40.8236
 11
11.7201
 21
40.7625
  0
LINE
  8
0
 10
11.7201
 20
40.7625
 11
11.725
 21
40.7
  0
LINE
  8
0
 10
11.725
 20
40.7
 11
11.7201
 21
40.6374
  0
LINE
  8
0
 10
11.7201
 20
40.6374
 11
11.7054
 21
40.5764
  0
LINE
  8
0
 10
11.7054
 20
40.5764
 11
11.6814
 21
40.5184
  0
LINE
  8
0
 10
11.6814
 20
40.5184
 11
11.6486
 21
40.4649
  0
LINE
  8
0
 10
11.6486
 20
40.4649
 11
11.6078
 21
40.4171
  0
LINE
  8
0
 10
11.6078
 20
40.4171
 11
11.5601
 21
40.3764
  0
LINE
  8
0
 10
11.5601
 20
40.3764
 11
11.5066
 21
40.3436
  0
LINE
  8
0
 10
11.5066
 20
40.3436
 11
11.4486
 21
40.3196
  0
LINE
  8
0
 10
11.4486
 20
40.3196
 11
11.3876
 21
40.3049
  0
LINE
  8
0
 10
11.3876
 20
40.3049
 11
11.325
 21
40.3
  0
LINE
  8
0
 10
11.325
 20
40.3
 11
11.2624
 21
40.3049
  0
LINE
  8
0
 10
2.2
 20
14
 11
2.2
 21
39.1
  0
LINE
  8
0
 10
2.2
 20
39.1
 11
3.14999
 21
39.1
  0
LINE
  8
0
 10
3.14999
 20
39.1
 11
3.14999
 21
30.8
  0
LINE
  8
0
 10
3.14999
 20
30.8
 11
3.1974
 21
29.8614
  0
LINE
  8
0
 10
3.1974
 20
29.8614
 11
3.33842
 21
28.9459
  0
LINE
  8
0
 10
3.33842
 20
28.9459
 11
3.56963
 21
28.076
  0
LINE
  8
0
 10
3.56963
 20
28.076
 11
3.88528
 21
27.2733
  0
LINE
  8
0
 10
3.88528
 20
27.2733
 11
4.27763
 21
26.5574
  0
LINE
  8
0
 10
4.27763
 20
26.5574
 11
4.73703
 21
25.9459
  0
LINE
  8
0
 10
4.73703
 20
25.9459
 11
5.25214
 21
25.4539
  0
LINE
  8
0
 10
5.25214
 20
25.4539
 11
5.81029
 21
25.0937
  0
LINE
  8
0
 10
5.81029
 20
25.0937
 11
6.39772
 21
24.8739
  0
LINE
  8
0
 10
6.39772
 20
24.8739
 11
6.60384
 21
24.8486
  0
LINE
  8
0
 10
6.60384
 20
24.8486
 11
6.60493
 21
24.8625
  0
LINE
  8
0
 10
6.60493
 20
24.8625
 11
6.61958
 21
24.9236
  0
LINE
  8
0
 10
6.61958
 20
24.9236
 11
6.6436
 21
24.9816
  0
LINE
  8
0
 10
6.6436
 20
24.9816
 11
6.67641
 21
25.0351
  0
LINE
  8
0
 10
6.67641
 20
25.0351
 11
6.71716
 21
25.0828
  0
LINE
  8
0
 10
6.71716
 20
25.0828
 11
6.76489
 21
25.1236
  0
LINE
  8
0
 10
6.76489
 20
25.1236
 11
6.81841
 21
25.1564
  0
LINE
  8
0
 10
6.81841
 20
25.1564
 11
6.8764
 21
25.1804
  0
LINE
  8
0
 10
6.8764
 20
25.1804
 11
6.93744
 21
25.1951
  0
LINE
  8
0
 10
6.93744
 20
25.1951
 11
7
 21
25.2
  0
LINE
  8
0
 10
7
 20
25.2
 11
7.06256
 21
25.1951
  0
LINE
  8
0
 10
7.06256
 20
25.1951
 11
7.1236
 21
25.1804
  0
LINE
  8
0
 10
7.1236
 20
25.1804
 11
7.18159
 21
25.1564
  0
LINE
  8
0
 10
7.18159
 20
25.1564
 11
7.23511
 21
25.1236
  0
LINE
  8
0
 10
7.23511
 20
25.1236
 11
7.28284
 21
25.0828
  0
LINE
  8
0
 10
7.28284
 20
25.0828
 11
7.32359
 21
25.0351
  0
LINE
  8
0
 10
7.32359
 20
25.0351
 11
7.3564
 21
24.9816
  0
LINE
  8
0
 10
7.3564
 20
24.9816
 11
7.38042
 21
24.9236
  0
LINE
  8
0
 10
7.38042
 20
24.9236
 11
7.39507
 21
24.8625
  0
LINE
  8
0
 10
7.39507
 20
24.8625
 11
7.39616
 21
24.8486
  0
LINE
  8
0
 10
7.39616
 20
24.8486
 11
7.60226
 21
24.8739
  0
LINE
  8
0
 10
7.60226
 20
24.8739
 11
8.18971
 21
25.0937
  0
LINE
  8
0
 10
8.18971
 20
25.0937
 11
8.74786
 21
25.4539
  0
LINE
  8
0
 10
8.74786
 20
25.4539
 11
9.26297
 21
25.9459
  0
LINE
  8
0
 10
9.26297
 20
25.9459
 11
9.72237
 21
26.5574
  0
LINE
  8
0
 10
9.72237
 20
26.5574
 11
10.1147
 21
27.2733
  0
LINE
  8
0
 10
10.1147
 20
27.2733
 11
10.4304
 21
28.076
  0
LINE
  8
0
 10
10.4304
 20
28.076
 11
10.6616
 21
28.9459
  0
LINE
  8
0
 10
10.6616
 20
28.9459
 11
10.8026
 21
29.8614
  0
LINE
  8
0
 10
10.8026
 20
29.8614
 11
10.85
 21
30.8
  0
LINE
  8
0
 10
10.85
 20
30.8
 11
10.85
 21
39.1
  0
LINE
  8
0
 10
10.85
 20
39.1
 11
11.8
 21
39.1
  0
LINE
  8
0
 10
11.8
 20
39.1
 11
11.8
 21
14
  0
LINE
  8
0
 10
11.8
 20
14
 11
10.5696
 21
14
  0
LINE
  8
0
 10
10.5696
 20
14
 11
10.4304
 21
14.5239
  0
LINE
  8
0
 10
10.4304
 20
14.5239
 11
10.1147
 21
15.3267
  0
LINE
  8
0
 10
10.1147
 20
15.3267
 11
9.72235
 21
16.0426
  0
LINE
  8
0
 10
9.72235
 20
16.0426
 11
9.26295
 21
16.6541
  0
LINE
  8
0
 10
9.26295
 20
16.6541
 11
8.74785
 21
17.146
  0
LINE
  8
0
 10
8.74785
 20
17.146
 11
8.1897
 21
17.5063
  0
LINE
  8
0
 10
8.1897
 20
17.5063
 11
7.60226
 21
17.7261
  0
LINE
  8
0
 10
7.60226
 20
17.7261
 11
7.39615
 21
17.7514
  0
LINE
  8
0
 10
7.39615
 20
17.7514
 11
7.39505
 21
17.7374
  0
LINE
  8
0
 10
7.39505
 20
17.7374
 11
7.3804
 21
17.6764
  0
LINE
  8
0
 10
7.3804
 20
17.6764
 11
7.35638
 21
17.6184
  0
LINE
  8
0
 10
7.35638
 20
17.6184
 11
7.32358
 21
17.5649
  0
LINE
  8
0
 10
7.32358
 20
17.5649
 11
7.28282
 21
17.5172
  0
LINE
  8
0
 10
7.28282
 20
17.5172
 11
7.23509
 21
17.4764
  0
LINE
  8
0
 10
7.23509
 20
17.4764
 11
7.18158
 21
17.4436
  0
LINE
  8
0
 10
7.18158
 20
17.4436
 11
7.12358
 21
17.4196
  0
LINE
  8
0
 10
7.12358
 20
17.4196
 11
7.06255
 21
17.4049
  0
LINE
  8
0
 10
7.06255
 20
17.4049
 11
6.99998
 21
17.4
  0
LINE
  8
0
 10
6.99998
 20
17.4
 11
6.93742
 21
17.4049
  0
LINE
  8
0
 10
6.93742
 20
17.4049
 11
6.87639
 21
17.4196
  0
LINE
  8
0
 10
6.87639
 20
17.4196
 11
6.81839
 21
17.4436
  0
LINE
  8
0
 10
6.81839
 20
17.4436
 11
6.76488
 21
17.4764
  0
LINE
  8
0
 10
6.76488
 20
17.4764
 11
6.71715
 21
17.5172
  0
LINE
  8
0
 10
6.71715
 20
17.5172
 11
6.67639
 21
17.5649
  0
LINE
  8
0
 10
6.67639
 20
17.5649
 11
6.64359
 21
17.6184
  0
LINE
  8
0
 10
6.64359
 20
17.6184
 11
6.61957
 21
17.6764
  0
LINE
  8
0
 10
6.61957
 20
17.6764
 11
6.60492
 21
17.7374
  0
LINE
  8
0
 10
6.60492
 20
17.7374
 11
6.60382
 21
17.7514
  0
LINE
  8
0
 10
6.60382
 20
17.7514
 11
6.39772
 21
17.7261
  0
LINE
  8
0
 10
6.39772
 20
17.7261
 11
5.81027
 21
17.5063
  0
LINE
  8
0
 10
5.81027
 20
17.5063
 11
5.25212
 21
17.146
  0
LINE
  8
0
 10
5.25212
 20
17.146
 11
4.73701
 21
16.6541
  0
LINE
  8
0
 10
4.73701
 20
16.6541
 11
4.27762
 21
16.0426
  0
LINE
  8
0
 10
4.27762
 20
16.0426
 11
3.88527
 21
15.3267
  0
LINE
  8
0
 10
3.88527
 20
15.3267
 11
3.56961
 21
14.5239
  0
LINE
  8
0
 10
3.56961
 20
14.5239
 11
3.43036
 21
14
  0
LINE
  8
0
 10
3.43036
 20
14
 11
2.2
 21
14
  0
LINE
  8
0
 10
1.03741
 20
11.4049
 11
0.976379
 21
11.4196
  0
LINE
  8
0
 10
0.976379
 20
11.4196
 11
0.918396
 21
11.4436
  0
LINE
  8
0
 10
0.918396
 20
11.4436
 11
0.864883
 21
11.4764
  0
LINE
  8
0
 10
0.864883
 20
11.4764
 11
0.817154
 21
11.5172
  0
LINE
  8
0
 10
0.817154
 20
11.5172
 11
0.776382
 21
11.5649
  0
LINE
  8
0
 10
0.776382
 20
11.5649
 11
0.743591
 21
11.6184
  0
LINE
  8
0
 10
0.743591
 20
11.6184
 11
0.719574
 21
11.6764
  0
LINE
  8
0
 10
0.719574
 20
11.6764
 11
0.70491
 21
11.7374
  0
LINE
  8
0
 10
0.70491
 20
11.7374
 11
0.699997
 21
11.8
  0
LINE
  8
0
 10
0.699997
 20
11.8
 11
0.70491
 21
11.8626
  0
LINE
  8
0
 10
0.70491
 20
11.8626
 11
0.719574
 21
11.9236
  0
LINE
  8
0
 10
0.719574
 20
11.9236
 11
0.743591
 21
11.9816
  0
LINE
  8
0
 10
0.743591
 20
11.9816
 11
0.776382
 21
12.0351
  0
LINE
  8
0
 10
0.776382
 20
12.0351
 11
0.817154
 21
12.0828
  0
LINE
  8
0
 10
0.817154
 20
12.0828
 11
0.864883
 21
12.1236
  0
LINE
  8
0
 10
0.864883
 20
12.1236
 11
0.918396
 21
12.1564
  0
LINE
  8
0
 10
0.918396
 20
12.1564
 11
0.976379
 21
12.1804
  0
LINE
  8
0
 10
0.976379
 20
12.1804
 11
1.03741
 21
12.1951
  0
LINE
  8
0
 10
1.03741
 20
12.1951
 11
1.09999
 21
12.2
  0
LINE
  8
0
 10
1.09999
 20
12.2
 11
1.16257
 21
12.1951
  0
LINE
  8
0
 10
1.16257
 20
12.1951
 11
1.2236
 21
12.1804
  0
LINE
  8
0
 10
1.2236
 20
12.1804
 11
1.28159
 21
12.1564
  0
LINE
  8
0
 10
1.28159
 20
12.1564
 11
1.33511
 21
12.1236
  0
LINE
  8
0
 10
1.33511
 20
12.1236
 11
1.38283
 21
12.0828
  0
LINE
  8
0
 10
1.38283
 20
12.0828
 11
1.4236
 21
12.0351
  0
LINE
  8
0
 10
1.4236
 20
12.0351
 11
1.45639
 21
11.9816
  0
LINE
  8
0
 10
1.45639
 20
11.9816
 11
1.48041
 21
11.9236
  0
LINE
  8
0
 10
1.48041
 20
11.9236
 11
1.49507
 21
11.8626
  0
LINE
  8
0
 10
1.49507
 20
11.8626
 11
1.5
 21
11.8
  0
LINE
  8
0
 10
1.5
 20
11.8
 11
1.49507
 21
11.7374
  0
LINE
  8
0
 10
1.49507
 20
11.7374
 11
1.48041
 21
11.6764
  0
LINE
  8
0
 10
1.48041
 20
11.6764
 11
1.45639
 21
11.6184
  0
LINE
  8
0
 10
1.45639
 20
11.6184
 11
1.4236
 21
11.5649
  0
LINE
  8
0
 10
1.4236
 20
11.5649
 11
1.38283
 21
11.5172
  0
LINE
  8
0
 10
1.38283
 20
11.5172
 11
1.33511
 21
11.4764
  0
LINE
  8
0
 10
1.33511
 20
11.4764
 11
1.28159
 21
11.4436
  0
LINE
  8
0
 10
1.28159
 20
11.4436
 11
1.2236
 21
11.4196
  0
LINE
  8
0
 10
1.2236
 20
11.4196
 11
1.16257
 21
11.4049
  0
LINE
  8
0
 10
1.16257
 20
11.4049
 11
1.09999
 21
11.4
  0
LINE
  8
0
 10
1.09999
 20
11.4
 11
1.03741
 21
11.4049
  0
ENDSEC
  0
SECTION
  2
OBJECTS
  0
DICTIONARY
  0
ENDSEC
  0
EOF
