  0
SECTION
  2
BLOCKS
  0
ENDSEC
  0
SECTION
  2
ENTITIES
  0
LINE
  8
0
 10
0
 11
0
 20
-36.46
 21
2.3
  0
LINE
  8
0
 10
0
 11
5.03
 20
2.3
 21
2.3
  0
LINE
  8
0
 10
5.03
 11
5.03
 20
2.3
 21
-0.035
  0
LINE
  8
0
 10
5.03
 11
3.5
 20
-0.035
 21
-0.035
  0
LINE
  8
0
 10
3.5
 11
3.5
 20
-0.035
 21
-2.765
  0
LINE
  8
0
 10
3.5
 11
5.03
 20
-2.765
 21
-2.765
  0
LINE
  8
0
 10
5.03
 11
5.03
 20
-2.765
 21
-5.1
  0
LINE
  8
0
 10
5.03
 11
3.5
 20
-5.1
 21
-5.1
  0
LINE
  8
0
 10
3.5
 11
3.5
 20
-5.1
 21
-17.96
  0
LINE
  8
0
 10
3.5
 11
7.8
 20
-17.96
 21
-17.96
  0
LINE
  8
0
 10
7.8
 11
7.8
 20
-17.96
 21
-17.97
  0
LINE
  8
0
 10
7.8
 11
8.5
 20
-17.97
 21
-17.989
  0
LINE
  8
0
 10
8.5
 11
8.448
 20
-17.989
 21
-19.988
  0
LINE
  8
0
 10
8.448
 11
8.017
 20
-19.988
 21
-24.978
  0
LINE
  8
0
 10
8.017
 11
7.317
 20
-24.978
 21
-24.96
  0
LINE
  8
0
 10
7.317
 11
7.448
 20
-24.96
 21
-19.96
  0
LINE
  8
0
 10
7.448
 11
5.8
 20
-19.96
 21
-19.96
  0
LINE
  8
0
 10
5.8
 11
5.8
 20
-19.96
 21
-30.36
  0
LINE
  8
0
 10
5.8
 11
7.448
 20
-30.36
 21
-30.36
  0
LINE
  8
0
 10
7.448
 11
7.317
 20
-30.36
 21
-25.362
  0
LINE
  8
0
 10
7.317
 11
8.017
 20
-25.362
 21
-25.344
  0
LINE
  8
0
 10
8.017
 11
8.447
 20
-25.344
 21
-30.335
  0
LINE
  8
0
 10
8.447
 11
8.5
 20
-30.335
 21
-32.334
  0
LINE
  8
0
 10
8.5
 11
7.8
 20
-32.334
 21
-32.352
  0
LINE
  8
0
 10
7.8
 11
7.8
 20
-32.352
 21
-32.36
  0
LINE
  8
0
 10
7.8
 11
3.5
 20
-32.36
 21
-32.36
  0
LINE
  8
0
 10
3.5
 11
3.5
 20
-32.36
 21
-32.96
  0
LINE
  8
0
 10
3.5
 11
16.5
 20
-32.96
 21
-32.96
  0
LINE
  8
0
 10
16.5
 11
16.5
 20
-32.96
 21
-5.1
  0
LINE
  8
0
 10
16.5
 11
14.97
 20
-5.1
 21
-5.1
  0
LINE
  8
0
 10
14.97
 11
14.97
 20
-5.1
 21
-2.765
  0
LINE
  8
0
 10
14.97
 11
16.5
 20
-2.765
 21
-2.765
  0
LINE
  8
0
 10
16.5
 11
16.5
 20
-2.765
 21
-0.035
  0
LINE
  8
0
 10
16.5
 11
14.97
 20
-0.035
 21
-0.035
  0
LINE
  8
0
 10
14.97
 11
14.97
 20
-0.035
 21
2.3
  0
LINE
  8
0
 10
14.97
 11
16.5
 20
2.3
 21
2.3
  0
LINE
  8
0
 10
16.5
 11
16.5
 20
2.3
 21
27.546
  0
LINE
  8
0
 10
16.5
 11
8.25
 20
27.546
 21
27.546
  0
LINE
  8
0
 10
8.25
 11
8.25
 20
27.546
 21
31.046
  0
LINE
  8
0
 10
8.25
 11
9.995
 20
31.046
 21
31.046
  0
LINE
  8
0
 10
9.995
 11
9.995
 20
31.046
 21
30.446
  0
LINE
  8
0
 10
9.995
 11
10.005
 20
30.446
 21
30.446
  0
LINE
  8
0
 10
10.005
 11
10.005
 20
30.446
 21
31.046
  0
LINE
  8
0
 10
10.005
 11
20
 20
31.046
 21
31.046
  0
LINE
  8
0
 10
20
 11
20
 20
31.046
 21
-5.99
  0
LINE
  8
0
 10
20
 11
19.1
 20
-5.99
 21
-5.99
  0
LINE
  8
0
 10
19.1
 11
19.1
 20
-5.99
 21
-6
  0
LINE
  8
0
 10
19.1
 11
20
 20
-6
 21
-6
  0
LINE
  8
0
 10
20
 11
20
 20
-6
 21
-9.99
  0
LINE
  8
0
 10
20
 11
19.1
 20
-9.99
 21
-9.99
  0
LINE
  8
0
 10
19.1
 11
19.1
 20
-9.99
 21
-10
  0
LINE
  8
0
 10
19.1
 11
20
 20
-10
 21
-10
  0
LINE
  8
0
 10
20
 11
20
 20
-10
 21
-36.46
  0
LINE
  8
0
 10
20
 11
10.005
 20
-36.46
 21
-36.46
  0
LINE
  8
0
 10
10.005
 11
10.005
 20
-36.46
 21
-35.56
  0
LINE
  8
0
 10
10.005
 11
9.995
 20
-35.56
 21
-35.56
  0
LINE
  8
0
 10
9.995
 11
9.995
 20
-35.56
 21
-36.46
  0
LINE
  8
0
 10
9.995
 11
0
 20
-36.46
 21
-36.46
  0
ENDSEC
  0
SECTION
  2
OBJECTS
  0
DICTIONARY
  0
ENDSEC
  0
EOF
