  0
SECTION
  2
BLOCKS
  0
ENDSEC
  0
SECTION
  2
ENTITIES
  0
LINE
  8
0
 10
16.5
 20
2.29999
 11
14.97
 21
2.29999
  0
LINE
  8
0
 10
14.97
 20
2.29999
 11
14.97
 21
-0.0349884
  0
LINE
  8
0
 10
14.97
 20
-0.0349884
 11
16.5
 21
-0.0349884
  0
LINE
  8
0
 10
16.5
 20
-0.0349884
 11
16.5
 21
-2.765
  0
LINE
  8
0
 10
16.5
 20
-2.765
 11
14.97
 21
-2.765
  0
LINE
  8
0
 10
14.97
 20
-2.765
 11
14.97
 21
-5.09999
  0
LINE
  8
0
 10
14.97
 20
-5.09999
 11
16.5
 21
-5.09999
  0
LINE
  8
0
 10
16.5
 20
-5.09999
 11
16.5
 21
-32.95
  0
LINE
  8
0
 10
16.5
 20
-32.95
 11
6.79999
 21
-32.95
  0
LINE
  8
0
 10
6.79999
 20
-32.95
 11
6.79999
 21
-30.56
  0
LINE
  8
0
 10
6.79999
 20
-30.56
 11
4.89998
 21
-30.56
  0
LINE
  8
0
 10
4.89998
 20
-30.56
 11
4.89998
 21
-31.16
  0
LINE
  8
0
 10
4.89998
 20
-31.16
 11
3.59999
 21
-31.16
  0
LINE
  8
0
 10
3.59999
 20
-31.16
 11
3.59999
 21
-19.16
  0
LINE
  8
0
 10
3.59999
 20
-19.16
 11
4.89998
 21
-19.16
  0
LINE
  8
0
 10
4.89998
 20
-19.16
 11
4.89998
 21
-19.76
  0
LINE
  8
0
 10
4.89998
 20
-19.76
 11
6.79999
 21
-19.76
  0
LINE
  8
0
 10
6.79999
 20
-19.76
 11
6.79999
 21
-17.16
  0
LINE
  8
0
 10
6.79999
 20
-17.16
 11
3.5
 21
-17.16
  0
LINE
  8
0
 10
3.5
 20
-17.16
 11
3.5
 21
-5.09999
  0
LINE
  8
0
 10
3.5
 20
-5.09999
 11
5.03
 21
-5.09999
  0
LINE
  8
0
 10
5.03
 20
-5.09999
 11
5.03
 21
-2.765
  0
LINE
  8
0
 10
5.03
 20
-2.765
 11
3.5
 21
-2.765
  0
LINE
  8
0
 10
3.5
 20
-2.765
 11
3.5
 21
-0.0349884
  0
LINE
  8
0
 10
3.5
 20
-0.0349884
 11
5.03
 21
-0.0349884
  0
LINE
  8
0
 10
5.03
 20
-0.0349884
 11
5.03
 21
2.29999
  0
LINE
  8
0
 10
5.03
 20
2.29999
 11
0
 21
2.29999
  0
LINE
  8
0
 10
0
 20
2.29999
 11
0
 21
-36.45
  0
LINE
  8
0
 10
0
 20
-36.45
 11
9.995
 21
-36.45
  0
LINE
  8
0
 10
9.995
 20
-36.45
 11
9.995
 21
-35.56
  0
LINE
  8
0
 10
9.995
 20
-35.56
 11
10.005
 21
-35.56
  0
LINE
  8
0
 10
10.005
 20
-35.56
 11
10.005
 21
-36.45
  0
LINE
  8
0
 10
10.005
 20
-36.45
 11
20
 21
-36.45
  0
LINE
  8
0
 10
20
 20
-36.45
 11
20
 21
-20
  0
LINE
  8
0
 10
20
 20
-20
 11
19.1
 21
-20
  0
LINE
  8
0
 10
19.1
 20
-20
 11
19.1
 21
-19.8
  0
LINE
  8
0
 10
19.1
 20
-19.8
 11
20
 21
-19.8
  0
LINE
  8
0
 10
20
 20
-19.8
 11
20
 21
15
  0
LINE
  8
0
 10
20
 20
15
 11
19.1
 21
15
  0
LINE
  8
0
 10
19.1
 20
15
 11
19.1
 21
15.2
  0
LINE
  8
0
 10
19.1
 20
15.2
 11
20
 21
15.2
  0
LINE
  8
0
 10
20
 20
15.2
 11
20
 21
31.0459
  0
LINE
  8
0
 10
20
 20
31.0459
 11
10.005
 21
31.0459
  0
LINE
  8
0
 10
10.005
 20
31.0459
 11
10.005
 21
30.4459
  0
LINE
  8
0
 10
10.005
 20
30.4459
 11
9.995
 21
30.4459
  0
LINE
  8
0
 10
9.995
 20
30.4459
 11
9.995
 21
31.0459
  0
LINE
  8
0
 10
9.995
 20
31.0459
 11
8.25
 21
31.0459
  0
LINE
  8
0
 10
8.25
 20
31.0459
 11
8.25
 21
27.5459
  0
LINE
  8
0
 10
8.25
 20
27.5459
 11
16.5
 21
27.5459
  0
LINE
  8
0
 10
16.5
 20
27.5459
 11
16.5
 21
2.29999
  0
ENDSEC
  0
SECTION
  2
OBJECTS
  0
DICTIONARY
  0
ENDSEC
  0
EOF
