  0
SECTION
  2
BLOCKS
  0
ENDSEC
  0
SECTION
  2
ENTITIES
  0
LINE
  8
0
 10
5.03
 20
-5.09999
 11
5.03
 21
-2.765
  0
LINE
  8
0
 10
5.03
 20
-2.765
 11
3.5
 21
-2.765
  0
LINE
  8
0
 10
3.5
 20
-2.765
 11
3.5
 21
-0.0349884
  0
LINE
  8
0
 10
3.5
 20
-0.0349884
 11
5.03
 21
-0.0349884
  0
LINE
  8
0
 10
5.03
 20
-0.0349884
 11
5.03
 21
2.29999
  0
LINE
  8
0
 10
5.03
 20
2.29999
 11
0
 21
2.29999
  0
LINE
  8
0
 10
0
 20
2.29999
 11
0
 21
-36.46
  0
LINE
  8
0
 10
0
 20
-36.46
 11
9.995
 21
-36.46
  0
LINE
  8
0
 10
9.995
 20
-36.46
 11
9.995
 21
-35.56
  0
LINE
  8
0
 10
9.995
 20
-35.56
 11
10.005
 21
-35.56
  0
LINE
  8
0
 10
10.005
 20
-35.56
 11
10.005
 21
-36.46
  0
LINE
  8
0
 10
10.005
 20
-36.46
 11
20
 21
-36.46
  0
LINE
  8
0
 10
20
 20
-36.46
 11
20
 21
31.0459
  0
LINE
  8
0
 10
20
 20
31.0459
 11
10.005
 21
31.0459
  0
LINE
  8
0
 10
10.005
 20
31.0459
 11
10.005
 21
30.4459
  0
LINE
  8
0
 10
10.005
 20
30.4459
 11
9.995
 21
30.4459
  0
LINE
  8
0
 10
9.995
 20
30.4459
 11
9.995
 21
31.0459
  0
LINE
  8
0
 10
9.995
 20
31.0459
 11
8.25
 21
31.0459
  0
LINE
  8
0
 10
8.25
 20
31.0459
 11
8.25
 21
27.5459
  0
LINE
  8
0
 10
8.25
 20
27.5459
 11
16.5
 21
27.5459
  0
LINE
  8
0
 10
16.5
 20
27.5459
 11
16.5
 21
2.29999
  0
LINE
  8
0
 10
16.5
 20
2.29999
 11
14.97
 21
2.29999
  0
LINE
  8
0
 10
14.97
 20
2.29999
 11
14.97
 21
-0.0349884
  0
LINE
  8
0
 10
14.97
 20
-0.0349884
 11
16.5
 21
-0.0349884
  0
LINE
  8
0
 10
16.5
 20
-0.0349884
 11
16.5
 21
-2.765
  0
LINE
  8
0
 10
16.5
 20
-2.765
 11
14.97
 21
-2.765
  0
LINE
  8
0
 10
14.97
 20
-2.765
 11
14.97
 21
-5.09999
  0
LINE
  8
0
 10
14.97
 20
-5.09999
 11
16.5
 21
-5.09999
  0
LINE
  8
0
 10
16.5
 20
-5.09999
 11
16.5
 21
-32.96
  0
LINE
  8
0
 10
16.5
 20
-32.96
 11
3.5
 21
-32.96
  0
LINE
  8
0
 10
3.5
 20
-32.96
 11
3.5
 21
-32.36
  0
LINE
  8
0
 10
3.5
 20
-32.36
 11
7.29999
 21
-32.36
  0
LINE
  8
0
 10
7.29999
 20
-32.36
 11
7.29999
 21
-32.3521
  0
LINE
  8
0
 10
7.29999
 20
-32.3521
 11
7.99963
 21
-32.3338
  0
LINE
  8
0
 10
7.99963
 20
-32.3338
 11
7.94728
 21
-30.3345
  0
LINE
  8
0
 10
7.94728
 20
-30.3345
 11
7.58194
 21
-27.8432
  0
LINE
  8
0
 10
7.58194
 20
-27.8432
 11
6.88219
 21
-27.8615
  0
LINE
  8
0
 10
6.88219
 20
-27.8615
 11
6.94762
 21
-30.36
  0
LINE
  8
0
 10
6.94762
 20
-30.36
 11
5.29999
 21
-30.36
  0
LINE
  8
0
 10
5.29999
 20
-30.36
 11
5.29999
 21
-19.96
  0
LINE
  8
0
 10
5.29999
 20
-19.96
 11
6.94768
 21
-19.96
  0
LINE
  8
0
 10
6.94768
 20
-19.96
 11
6.88219
 21
-22.4608
  0
LINE
  8
0
 10
6.88219
 20
-22.4608
 11
7.58194
 21
-22.4792
  0
LINE
  8
0
 10
7.58194
 20
-22.4792
 11
7.94728
 21
-19.9879
  0
LINE
  8
0
 10
7.94728
 20
-19.9879
 11
7.99963
 21
-17.9886
  0
LINE
  8
0
 10
7.99963
 20
-17.9886
 11
7.29999
 21
-17.9702
  0
LINE
  8
0
 10
7.29999
 20
-17.9702
 11
7.29999
 21
-17.96
  0
LINE
  8
0
 10
7.29999
 20
-17.96
 11
3.5
 21
-17.96
  0
LINE
  8
0
 10
3.5
 20
-17.96
 11
3.5
 21
-5.09999
  0
LINE
  8
0
 10
3.5
 20
-5.09999
 11
5.03
 21
-5.09999
  0
LINE
  8
0
 10
19.095
 20
15.0087
 11
19.961
 21
15.5087
  0
LINE
  8
0
 10
19.961
 20
15.5087
 11
19.966
 21
15.5
  0
LINE
  8
0
 10
19.966
 20
15.5
 11
19.1
 21
15
  0
LINE
  8
0
 10
19.1
 20
15
 11
19.095
 21
15.0087
  0
LINE
  8
0
 10
19.1
 20
-20
 11
19.105
 21
-19.9913
  0
LINE
  8
0
 10
19.105
 20
-19.9913
 11
19.971
 21
-20.4913
  0
LINE
  8
0
 10
19.971
 20
-20.4913
 11
19.966
 21
-20.5
  0
LINE
  8
0
 10
19.966
 20
-20.5
 11
19.1
 21
-20
  0
ENDSEC
  0
SECTION
  2
OBJECTS
  0
DICTIONARY
  0
ENDSEC
  0
EOF
