  0
SECTION
  2
BLOCKS
  0
ENDSEC
  0
SECTION
  2
ENTITIES
  0
LINE
  8
0
 10
2.7
 20
47.2833
 11
2.67888
 21
47.2833
  0
LINE
  8
0
 10
2.67888
 20
47.2833
 11
2.62169
 21
47.6444
  0
LINE
  8
0
 10
2.62169
 20
47.6444
 11
2.39442
 21
48.0904
  0
LINE
  8
0
 10
2.39442
 20
48.0904
 11
2.04045
 21
48.4444
  0
LINE
  8
0
 10
2.04045
 20
48.4444
 11
1.59442
 21
48.6717
  0
LINE
  8
0
 10
1.59442
 20
48.6717
 11
1.09999
 21
48.75
  0
LINE
  8
0
 10
1.09999
 20
48.75
 11
0.60556
 21
48.6717
  0
LINE
  8
0
 10
0.60556
 20
48.6717
 11
0.159531
 21
48.4444
  0
LINE
  8
0
 10
0.159531
 20
48.4444
 11
-0.194427
 21
48.0904
  0
LINE
  8
0
 10
-0.194427
 20
48.0904
 11
-0.421692
 21
47.6444
  0
LINE
  8
0
 10
-0.421692
 20
47.6444
 11
-0.478882
 21
47.2833
  0
LINE
  8
0
 10
-0.478882
 20
47.2833
 11
-0.5
 21
47.2833
  0
LINE
  8
0
 10
-0.5
 20
47.2833
 11
-0.5
 21
46.05
  0
LINE
  8
0
 10
-0.5
 20
46.05
 11
-1.39999
 21
46.05
  0
LINE
  8
0
 10
-1.39999
 20
46.05
 11
-1.39999
 21
36.05
  0
LINE
  8
0
 10
-1.39999
 20
36.05
 11
0
 21
36.05
  0
LINE
  8
0
 10
0
 20
36.05
 11
0
 21
24.35
  0
LINE
  8
0
 10
0
 20
24.35
 11
-1.7
 21
24.35
  0
LINE
  8
0
 10
-1.7
 20
24.35
 11
-1.7
 21
12.35
  0
LINE
  8
0
 10
-1.7
 20
12.35
 11
0
 21
12.35
  0
LINE
  8
0
 10
0
 20
12.35
 11
0
 21
4.30815
  0
LINE
  8
0
 10
0
 20
4.30815
 11
-0.0313721
 21
4.28136
  0
LINE
  8
0
 10
-0.0313721
 20
4.28136
 11
-0.194427
 21
4.09045
  0
LINE
  8
0
 10
-0.194427
 20
4.09045
 11
-0.325623
 21
3.87637
  0
LINE
  8
0
 10
-0.325623
 20
3.87637
 11
-0.421692
 21
3.64442
  0
LINE
  8
0
 10
-0.421692
 20
3.64442
 11
-0.480316
 21
3.40028
  0
LINE
  8
0
 10
-0.480316
 20
3.40028
 11
-0.5
 21
3.14999
  0
LINE
  8
0
 10
-0.5
 20
3.14999
 11
-0.5
 21
1.59999
  0
LINE
  8
0
 10
-0.5
 20
1.59999
 11
-0.421692
 21
1.10556
  0
LINE
  8
0
 10
-0.421692
 20
1.10556
 11
-0.194427
 21
0.659531
  0
LINE
  8
0
 10
-0.194427
 20
0.659531
 11
0.159531
 21
0.305573
  0
LINE
  8
0
 10
0.159531
 20
0.305573
 11
0.60556
 21
0.0783081
  0
LINE
  8
0
 10
0.60556
 20
0.0783081
 11
1.09999
 21
0
  0
LINE
  8
0
 10
1.09999
 20
0
 11
1.59442
 21
0.0783081
  0
LINE
  8
0
 10
1.59442
 20
0.0783081
 11
2.04045
 21
0.305573
  0
LINE
  8
0
 10
2.04045
 20
0.305573
 11
2.39442
 21
0.659531
  0
LINE
  8
0
 10
2.39442
 20
0.659531
 11
2.62169
 21
1.10556
  0
LINE
  8
0
 10
2.62169
 20
1.10556
 11
2.7
 21
1.59999
  0
LINE
  8
0
 10
2.7
 20
1.59999
 11
2.7
 21
3.14999
  0
LINE
  8
0
 10
2.7
 20
3.14999
 11
2.6803
 21
3.40028
  0
LINE
  8
0
 10
2.6803
 20
3.40028
 11
2.62169
 21
3.64442
  0
LINE
  8
0
 10
2.62169
 20
3.64442
 11
2.5256
 21
3.87637
  0
LINE
  8
0
 10
2.5256
 20
3.87637
 11
2.39442
 21
4.09045
  0
LINE
  8
0
 10
2.39442
 20
4.09045
 11
2.23137
 21
4.28136
  0
LINE
  8
0
 10
2.23137
 20
4.28136
 11
2.2
 21
4.30815
  0
LINE
  8
0
 10
2.2
 20
4.30815
 11
2.2
 21
12.35
  0
LINE
  8
0
 10
2.2
 20
12.35
 11
3.89998
 21
12.35
  0
LINE
  8
0
 10
3.89998
 20
12.35
 11
3.89998
 21
24.35
  0
LINE
  8
0
 10
3.89998
 20
24.35
 11
2.2
 21
24.35
  0
LINE
  8
0
 10
2.2
 20
24.35
 11
2.2
 21
36.05
  0
LINE
  8
0
 10
2.2
 20
36.05
 11
3.59999
 21
36.05
  0
LINE
  8
0
 10
3.59999
 20
36.05
 11
3.59999
 21
46.05
  0
LINE
  8
0
 10
3.59999
 20
46.05
 11
2.7
 21
46.05
  0
LINE
  8
0
 10
2.7
 20
46.05
 11
2.7
 21
47.2833
  0
LINE
  8
0
 10
0.493774
 20
46.75
 11
1.09999
 21
47.8
  0
LINE
  8
0
 10
1.09999
 20
47.8
 11
1.70621
 21
46.75
  0
LINE
  8
0
 10
1.70621
 20
46.75
 11
0.493774
 21
46.75
  0
LINE
  8
0
 10
-0.600006
 20
13.45
 11
-0.600006
 21
23.25
  0
LINE
  8
0
 10
-0.600006
 20
23.25
 11
-0.100006
 21
23.25
  0
LINE
  8
0
 10
-0.100006
 20
23.25
 11
-0.100006
 21
22.75
  0
LINE
  8
0
 10
-0.100006
 20
22.75
 11
2.29999
 21
22.75
  0
LINE
  8
0
 10
2.29999
 20
22.75
 11
2.29999
 21
23.25
  0
LINE
  8
0
 10
2.29999
 20
23.25
 11
2.79999
 21
23.25
  0
LINE
  8
0
 10
2.79999
 20
23.25
 11
2.79999
 21
13.45
  0
LINE
  8
0
 10
2.79999
 20
13.45
 11
2.29999
 21
13.45
  0
LINE
  8
0
 10
2.29999
 20
13.45
 11
2.29999
 21
13.95
  0
LINE
  8
0
 10
2.29999
 20
13.95
 11
-0.100006
 21
13.95
  0
LINE
  8
0
 10
-0.100006
 20
13.95
 11
-0.100006
 21
13.45
  0
LINE
  8
0
 10
-0.100006
 20
13.45
 11
-0.600006
 21
13.45
  0
LINE
  8
0
 10
0.849991
 20
2.71698
 11
0.69548
 21
2.85609
  0
LINE
  8
0
 10
0.69548
 20
2.85609
 11
0.610916
 21
3.04604
  0
LINE
  8
0
 10
0.610916
 20
3.04604
 11
0.610916
 21
3.25395
  0
LINE
  8
0
 10
0.610916
 20
3.25395
 11
0.69548
 21
3.44388
  0
LINE
  8
0
 10
0.69548
 20
3.44388
 11
0.849991
 21
3.58301
  0
LINE
  8
0
 10
0.849991
 20
3.58301
 11
1.04773
 21
3.64725
  0
LINE
  8
0
 10
1.04773
 20
3.64725
 11
1.2545
 21
3.62552
  0
LINE
  8
0
 10
1.2545
 20
3.62552
 11
1.43456
 21
3.52156
  0
LINE
  8
0
 10
1.43456
 20
3.52156
 11
1.55676
 21
3.35336
  0
LINE
  8
0
 10
1.55676
 20
3.35336
 11
1.59999
 21
3.14999
  0
LINE
  8
0
 10
1.59999
 20
3.14999
 11
1.55676
 21
2.94662
  0
LINE
  8
0
 10
1.55676
 20
2.94662
 11
1.43456
 21
2.77843
  0
LINE
  8
0
 10
1.43456
 20
2.77843
 11
1.2545
 21
2.67447
  0
LINE
  8
0
 10
1.2545
 20
2.67447
 11
1.04773
 21
2.65273
  0
LINE
  8
0
 10
1.04773
 20
2.65273
 11
0.849991
 21
2.71698
  0
LINE
  8
0
 10
0.493774
 20
1.95
 11
1.70621
 21
1.95
  0
LINE
  8
0
 10
1.70621
 20
1.95
 11
1.09999
 21
0.899994
  0
LINE
  8
0
 10
1.09999
 20
0.899994
 11
0.493774
 21
1.95
  0
ENDSEC
  0
SECTION
  2
OBJECTS
  0
DICTIONARY
  0
ENDSEC
  0
EOF
