  0
SECTION
  2
BLOCKS
  0
ENDSEC
  0
SECTION
  2
ENTITIES
  0
LINE
  8
0
 10
-1.6
 11
-1.6
 20
12.712
 21
23.912
  0
LINE
  8
0
 10
-1.6
 11
0
 20
23.912
 21
23.912
  0
LINE
  8
0
 10
0
 11
0
 20
23.912
 21
36.05
  0
LINE
  8
0
 10
0
 11
-1.4
 20
36.05
 21
36.05
  0
LINE
  8
0
 10
-1.4
 11
-1.4
 20
36.05
 21
46.05
  0
LINE
  8
0
 10
-1.4
 11
-0.5
 20
46.05
 21
46.05
  0
LINE
  8
0
 10
-0.5
 11
-0.5
 20
46.05
 21
48.7
  0
LINE
  8
0
 10
-0.5
 11
2.7
 20
48.7
 21
48.7
  0
LINE
  8
0
 10
2.7
 11
2.7
 20
48.7
 21
46.05
  0
LINE
  8
0
 10
2.7
 11
3.6
 20
46.05
 21
46.05
  0
LINE
  8
0
 10
3.6
 11
3.6
 20
46.05
 21
36.05
  0
LINE
  8
0
 10
3.6
 11
2.2
 20
36.05
 21
36.05
  0
LINE
  8
0
 10
2.2
 11
2.2
 20
36.05
 21
23.912
  0
LINE
  8
0
 10
2.2
 11
3.8
 20
23.912
 21
23.912
  0
LINE
  8
0
 10
3.8
 11
3.8
 20
23.912
 21
12.712
  0
LINE
  8
0
 10
3.8
 11
2.2
 20
12.712
 21
12.712
  0
LINE
  8
0
 10
2.2
 11
2.2
 20
12.712
 21
4.2
  0
LINE
  8
0
 10
2.2
 11
2.7
 20
4.2
 21
4.2
  0
LINE
  8
0
 10
2.7
 11
2.7
 20
4.2
 21
0
  0
LINE
  8
0
 10
2.7
 11
-0.5
 20
0
 21
0
  0
LINE
  8
0
 10
-0.5
 11
-0.5
 20
0
 21
4.2
  0
LINE
  8
0
 10
-0.5
 11
0
 20
4.2
 21
4.2
  0
LINE
  8
0
 10
0
 11
0
 20
4.2
 21
12.712
  0
LINE
  8
0
 10
0
 11
-1.6
 20
12.712
 21
12.712
  0
LINE
  8
0
 10
-0.5
 11
-0.5
 20
13.813
 21
22.813
  0
LINE
  8
0
 10
-0.5
 11
2.7
 20
22.813
 21
22.813
  0
LINE
  8
0
 10
2.7
 11
2.7
 20
22.813
 21
13.813
  0
LINE
  8
0
 10
2.7
 11
-0.5
 20
13.813
 21
13.813
  0
LINE
  8
0
 10
0.494
 11
1.706
 20
1.95
 21
1.95
  0
LINE
  8
0
 10
1.706
 11
1.1
 20
1.95
 21
0.9
  0
LINE
  8
0
 10
1.1
 11
0.494
 20
0.9
 21
1.95
  0
LINE
  8
0
 10
0.494
 11
1.1
 20
46.75
 21
47.8
  0
LINE
  8
0
 10
1.1
 11
1.706
 20
47.8
 21
46.75
  0
LINE
  8
0
 10
1.706
 11
0.494
 20
46.75
 21
46.75
  0
LINE
  8
0
 10
0.611
 11
0.611
 20
3.046
 21
3.254
  0
LINE
  8
0
 10
0.611
 11
0.695
 20
3.254
 21
3.444
  0
LINE
  8
0
 10
0.695
 11
0.85
 20
3.444
 21
3.583
  0
LINE
  8
0
 10
0.85
 11
1.048
 20
3.583
 21
3.647
  0
LINE
  8
0
 10
1.048
 11
1.255
 20
3.647
 21
3.626
  0
LINE
  8
0
 10
1.255
 11
1.435
 20
3.626
 21
3.522
  0
LINE
  8
0
 10
1.435
 11
1.557
 20
3.522
 21
3.353
  0
LINE
  8
0
 10
1.557
 11
1.6
 20
3.353
 21
3.15
  0
LINE
  8
0
 10
1.6
 11
1.557
 20
3.15
 21
2.947
  0
LINE
  8
0
 10
1.557
 11
1.435
 20
2.947
 21
2.778
  0
LINE
  8
0
 10
1.435
 11
1.255
 20
2.778
 21
2.674
  0
LINE
  8
0
 10
1.255
 11
1.048
 20
2.674
 21
2.653
  0
LINE
  8
0
 10
1.048
 11
0.85
 20
2.653
 21
2.717
  0
LINE
  8
0
 10
0.85
 11
0.695
 20
2.717
 21
2.856
  0
LINE
  8
0
 10
0.695
 11
0.611
 20
2.856
 21
3.046
  0
ENDSEC
  0
SECTION
  2
OBJECTS
  0
DICTIONARY
  0
ENDSEC
  0
EOF
