  0
SECTION
  2
BLOCKS
  0
ENDSEC
  0
SECTION
  2
ENTITIES
  0
LINE
  8
0
 10
2.36067
 20
-7.01257
 11
3.44402
 21
-6.75249
  0
LINE
  8
0
 10
3.44402
 20
-6.75249
 11
4.47333
 21
-6.32614
  0
LINE
  8
0
 10
4.47333
 20
-6.32614
 11
5.42326
 21
-5.74402
  0
LINE
  8
0
 10
5.42326
 20
-5.74402
 11
6.27045
 21
-5.02045
  0
LINE
  8
0
 10
6.27045
 20
-5.02045
 11
6.99402
 21
-4.17326
  0
LINE
  8
0
 10
6.99402
 20
-4.17326
 11
7.57614
 21
-3.22333
  0
LINE
  8
0
 10
7.57614
 20
-3.22333
 11
8.00249
 21
-2.19402
  0
LINE
  8
0
 10
8.00249
 20
-2.19402
 11
8.26257
 21
-1.11067
  0
LINE
  8
0
 10
8.26257
 20
-1.11067
 11
8.34999
 21
0
  0
LINE
  8
0
 10
8.34999
 20
0
 11
8.26257
 21
1.11067
  0
LINE
  8
0
 10
8.26257
 20
1.11067
 11
8.00249
 21
2.19402
  0
LINE
  8
0
 10
8.00249
 20
2.19402
 11
7.57614
 21
3.22333
  0
LINE
  8
0
 10
7.57614
 20
3.22333
 11
6.99402
 21
4.17326
  0
LINE
  8
0
 10
6.99402
 20
4.17326
 11
6.27045
 21
5.02045
  0
LINE
  8
0
 10
6.27045
 20
5.02045
 11
5.42326
 21
5.74402
  0
LINE
  8
0
 10
5.42326
 20
5.74402
 11
4.47333
 21
6.32614
  0
LINE
  8
0
 10
4.47333
 20
6.32614
 11
3.44402
 21
6.75249
  0
LINE
  8
0
 10
3.44402
 20
6.75249
 11
2.36067
 21
7.01257
  0
LINE
  8
0
 10
2.36067
 20
7.01257
 11
1.25
 21
7.09999
  0
LINE
  8
0
 10
1.25
 20
7.09999
 11
-1.25
 21
7.09999
  0
LINE
  8
0
 10
-1.25
 20
7.09999
 11
-2.36067
 21
7.01257
  0
LINE
  8
0
 10
-2.36067
 20
7.01257
 11
-3.44402
 21
6.75249
  0
LINE
  8
0
 10
-3.44402
 20
6.75249
 11
-4.47333
 21
6.32614
  0
LINE
  8
0
 10
-4.47333
 20
6.32614
 11
-5.42326
 21
5.74402
  0
LINE
  8
0
 10
-5.42326
 20
5.74402
 11
-6.27045
 21
5.02045
  0
LINE
  8
0
 10
-6.27045
 20
5.02045
 11
-6.99402
 21
4.17326
  0
LINE
  8
0
 10
-6.99402
 20
4.17326
 11
-7.57614
 21
3.22333
  0
LINE
  8
0
 10
-7.57614
 20
3.22333
 11
-8.00249
 21
2.19402
  0
LINE
  8
0
 10
-8.00249
 20
2.19402
 11
-8.26257
 21
1.11067
  0
LINE
  8
0
 10
-8.26257
 20
1.11067
 11
-8.34999
 21
0
  0
LINE
  8
0
 10
-8.34999
 20
0
 11
-8.26257
 21
-1.11067
  0
LINE
  8
0
 10
-8.26257
 20
-1.11067
 11
-8.00249
 21
-2.19402
  0
LINE
  8
0
 10
-8.00249
 20
-2.19402
 11
-7.57614
 21
-3.22333
  0
LINE
  8
0
 10
-7.57614
 20
-3.22333
 11
-6.99402
 21
-4.17326
  0
LINE
  8
0
 10
-6.99402
 20
-4.17326
 11
-6.27045
 21
-5.02045
  0
LINE
  8
0
 10
-6.27045
 20
-5.02045
 11
-5.42326
 21
-5.74402
  0
LINE
  8
0
 10
-5.42326
 20
-5.74402
 11
-4.47333
 21
-6.32614
  0
LINE
  8
0
 10
-4.47333
 20
-6.32614
 11
-3.44402
 21
-6.75249
  0
LINE
  8
0
 10
-3.44402
 20
-6.75249
 11
-2.36067
 21
-7.01257
  0
LINE
  8
0
 10
-2.36067
 20
-7.01257
 11
-1.25
 21
-7.09999
  0
LINE
  8
0
 10
-1.25
 20
-7.09999
 11
1.25
 21
-7.09999
  0
LINE
  8
0
 10
1.25
 20
-7.09999
 11
2.36067
 21
-7.01257
  0
LINE
  8
0
 10
-1.25
 20
-3.09999
 11
-1.73494
 21
-3.06183
  0
LINE
  8
0
 10
-1.73494
 20
-3.06183
 11
-2.20795
 21
-2.94827
  0
LINE
  8
0
 10
-2.20795
 20
-2.94827
 11
-2.65736
 21
-2.76212
  0
LINE
  8
0
 10
-2.65736
 20
-2.76212
 11
-3.07213
 21
-2.50795
  0
LINE
  8
0
 10
-3.07213
 20
-2.50795
 11
-3.44202
 21
-2.19202
  0
LINE
  8
0
 10
-3.44202
 20
-2.19202
 11
-3.75795
 21
-1.82213
  0
LINE
  8
0
 10
-3.75795
 20
-1.82213
 11
-4.01212
 21
-1.40736
  0
LINE
  8
0
 10
-4.01212
 20
-1.40736
 11
-4.19827
 21
-0.957947
  0
LINE
  8
0
 10
-4.19827
 20
-0.957947
 11
-4.31183
 21
-0.48494
  0
LINE
  8
0
 10
-4.31183
 20
-0.48494
 11
-4.34999
 21
0
  0
LINE
  8
0
 10
-4.34999
 20
0
 11
-4.31183
 21
0.48494
  0
LINE
  8
0
 10
-4.31183
 20
0.48494
 11
-4.19827
 21
0.957947
  0
LINE
  8
0
 10
-4.19827
 20
0.957947
 11
-4.01212
 21
1.40736
  0
LINE
  8
0
 10
-4.01212
 20
1.40736
 11
-3.75795
 21
1.82213
  0
LINE
  8
0
 10
-3.75795
 20
1.82213
 11
-3.44202
 21
2.19202
  0
LINE
  8
0
 10
-3.44202
 20
2.19202
 11
-3.07213
 21
2.50795
  0
LINE
  8
0
 10
-3.07213
 20
2.50795
 11
-2.65736
 21
2.76212
  0
LINE
  8
0
 10
-2.65736
 20
2.76212
 11
-2.20795
 21
2.94827
  0
LINE
  8
0
 10
-2.20795
 20
2.94827
 11
-1.73494
 21
3.06183
  0
LINE
  8
0
 10
-1.73494
 20
3.06183
 11
-1.25
 21
3.09999
  0
LINE
  8
0
 10
-1.25
 20
3.09999
 11
1.25
 21
3.09999
  0
LINE
  8
0
 10
1.25
 20
3.09999
 11
1.73494
 21
3.06183
  0
LINE
  8
0
 10
1.73494
 20
3.06183
 11
2.20795
 21
2.94827
  0
LINE
  8
0
 10
2.20795
 20
2.94827
 11
2.65736
 21
2.76212
  0
LINE
  8
0
 10
2.65736
 20
2.76212
 11
3.07213
 21
2.50795
  0
LINE
  8
0
 10
3.07213
 20
2.50795
 11
3.44202
 21
2.19202
  0
LINE
  8
0
 10
3.44202
 20
2.19202
 11
3.75795
 21
1.82213
  0
LINE
  8
0
 10
3.75795
 20
1.82213
 11
4.01212
 21
1.40736
  0
LINE
  8
0
 10
4.01212
 20
1.40736
 11
4.19827
 21
0.957947
  0
LINE
  8
0
 10
4.19827
 20
0.957947
 11
4.31183
 21
0.48494
  0
LINE
  8
0
 10
4.31183
 20
0.48494
 11
4.34999
 21
0
  0
LINE
  8
0
 10
4.34999
 20
0
 11
4.31183
 21
-0.48494
  0
LINE
  8
0
 10
4.31183
 20
-0.48494
 11
4.19827
 21
-0.957947
  0
LINE
  8
0
 10
4.19827
 20
-0.957947
 11
4.01212
 21
-1.40736
  0
LINE
  8
0
 10
4.01212
 20
-1.40736
 11
3.75795
 21
-1.82213
  0
LINE
  8
0
 10
3.75795
 20
-1.82213
 11
3.44202
 21
-2.19202
  0
LINE
  8
0
 10
3.44202
 20
-2.19202
 11
3.07213
 21
-2.50795
  0
LINE
  8
0
 10
3.07213
 20
-2.50795
 11
2.65736
 21
-2.76212
  0
LINE
  8
0
 10
2.65736
 20
-2.76212
 11
2.20795
 21
-2.94827
  0
LINE
  8
0
 10
2.20795
 20
-2.94827
 11
1.73494
 21
-3.06183
  0
LINE
  8
0
 10
1.73494
 20
-3.06183
 11
1.25
 21
-3.09999
  0
LINE
  8
0
 10
1.25
 20
-3.09999
 11
-1.25
 21
-3.09999
  0
ENDSEC
  0
SECTION
  2
OBJECTS
  0
DICTIONARY
  0
ENDSEC
  0
EOF
