  0
SECTION
  2
BLOCKS
  0
ENDSEC
  0
SECTION
  2
ENTITIES
  0
LINE
  8
0
 10
1.68889
 20
-7.50642
 11
2.84853
 21
-7.22803
  0
LINE
  8
0
 10
2.84853
 20
-7.22803
 11
3.95032
 21
-6.77164
  0
LINE
  8
0
 10
3.95032
 20
-6.77164
 11
4.96716
 21
-6.14853
  0
LINE
  8
0
 10
4.96716
 20
-6.14853
 11
5.87401
 21
-5.37401
  0
LINE
  8
0
 10
5.87401
 20
-5.37401
 11
6.64853
 21
-4.46716
  0
LINE
  8
0
 10
6.64853
 20
-4.46716
 11
7.27164
 21
-3.45032
  0
LINE
  8
0
 10
7.27164
 20
-3.45032
 11
7.72803
 21
-2.34853
  0
LINE
  8
0
 10
7.72803
 20
-2.34853
 11
8.00642
 21
-1.18889
  0
LINE
  8
0
 10
8.00642
 20
-1.18889
 11
8.09999
 21
0
  0
LINE
  8
0
 10
8.09999
 20
0
 11
8.00642
 21
1.18889
  0
LINE
  8
0
 10
8.00642
 20
1.18889
 11
7.72803
 21
2.34853
  0
LINE
  8
0
 10
7.72803
 20
2.34853
 11
7.27164
 21
3.45032
  0
LINE
  8
0
 10
7.27164
 20
3.45032
 11
6.64853
 21
4.46716
  0
LINE
  8
0
 10
6.64853
 20
4.46716
 11
5.87401
 21
5.37401
  0
LINE
  8
0
 10
5.87401
 20
5.37401
 11
4.96716
 21
6.14853
  0
LINE
  8
0
 10
4.96716
 20
6.14853
 11
3.95032
 21
6.77164
  0
LINE
  8
0
 10
3.95032
 20
6.77164
 11
2.84853
 21
7.22803
  0
LINE
  8
0
 10
2.84853
 20
7.22803
 11
1.68889
 21
7.50642
  0
LINE
  8
0
 10
1.68889
 20
7.50642
 11
0.5
 21
7.59999
  0
LINE
  8
0
 10
0.5
 20
7.59999
 11
-0.5
 21
7.59999
  0
LINE
  8
0
 10
-0.5
 20
7.59999
 11
-1.68889
 21
7.50642
  0
LINE
  8
0
 10
-1.68889
 20
7.50642
 11
-2.84853
 21
7.22803
  0
LINE
  8
0
 10
-2.84853
 20
7.22803
 11
-3.95032
 21
6.77164
  0
LINE
  8
0
 10
-3.95032
 20
6.77164
 11
-4.96716
 21
6.14853
  0
LINE
  8
0
 10
-4.96716
 20
6.14853
 11
-5.87401
 21
5.37401
  0
LINE
  8
0
 10
-5.87401
 20
5.37401
 11
-6.64853
 21
4.46716
  0
LINE
  8
0
 10
-6.64853
 20
4.46716
 11
-7.27164
 21
3.45032
  0
LINE
  8
0
 10
-7.27164
 20
3.45032
 11
-7.72803
 21
2.34853
  0
LINE
  8
0
 10
-7.72803
 20
2.34853
 11
-8.00642
 21
1.18889
  0
LINE
  8
0
 10
-8.00642
 20
1.18889
 11
-8.09999
 21
0
  0
LINE
  8
0
 10
-8.09999
 20
0
 11
-8.00642
 21
-1.18889
  0
LINE
  8
0
 10
-8.00642
 20
-1.18889
 11
-7.72803
 21
-2.34853
  0
LINE
  8
0
 10
-7.72803
 20
-2.34853
 11
-7.27164
 21
-3.45032
  0
LINE
  8
0
 10
-7.27164
 20
-3.45032
 11
-6.64853
 21
-4.46716
  0
LINE
  8
0
 10
-6.64853
 20
-4.46716
 11
-5.87401
 21
-5.37401
  0
LINE
  8
0
 10
-5.87401
 20
-5.37401
 11
-4.96716
 21
-6.14853
  0
LINE
  8
0
 10
-4.96716
 20
-6.14853
 11
-3.95032
 21
-6.77164
  0
LINE
  8
0
 10
-3.95032
 20
-6.77164
 11
-2.84853
 21
-7.22803
  0
LINE
  8
0
 10
-2.84853
 20
-7.22803
 11
-1.68889
 21
-7.50642
  0
LINE
  8
0
 10
-1.68889
 20
-7.50642
 11
-0.5
 21
-7.59999
  0
LINE
  8
0
 10
-0.5
 20
-7.59999
 11
0.5
 21
-7.59999
  0
LINE
  8
0
 10
0.5
 20
-7.59999
 11
1.68889
 21
-7.50642
  0
LINE
  8
0
 10
-0.5
 20
-3.59999
 11
-1.06316
 21
-3.55566
  0
LINE
  8
0
 10
-1.06316
 20
-3.55566
 11
-1.61246
 21
-3.4238
  0
LINE
  8
0
 10
-1.61246
 20
-3.4238
 11
-2.13435
 21
-3.20761
  0
LINE
  8
0
 10
-2.13435
 20
-3.20761
 11
-2.61601
 21
-2.91246
  0
LINE
  8
0
 10
-2.61601
 20
-2.91246
 11
-3.04558
 21
-2.54558
  0
LINE
  8
0
 10
-3.04558
 20
-2.54558
 11
-3.41246
 21
-2.11601
  0
LINE
  8
0
 10
-3.41246
 20
-2.11601
 11
-3.70761
 21
-1.63435
  0
LINE
  8
0
 10
-3.70761
 20
-1.63435
 11
-3.9238
 21
-1.11246
  0
LINE
  8
0
 10
-3.9238
 20
-1.11246
 11
-4.05566
 21
-0.563156
  0
LINE
  8
0
 10
-4.05566
 20
-0.563156
 11
-4.09999
 21
0
  0
LINE
  8
0
 10
-4.09999
 20
0
 11
-4.05566
 21
0.563156
  0
LINE
  8
0
 10
-4.05566
 20
0.563156
 11
-3.9238
 21
1.11246
  0
LINE
  8
0
 10
-3.9238
 20
1.11246
 11
-3.70761
 21
1.63435
  0
LINE
  8
0
 10
-3.70761
 20
1.63435
 11
-3.41246
 21
2.11601
  0
LINE
  8
0
 10
-3.41246
 20
2.11601
 11
-3.04558
 21
2.54558
  0
LINE
  8
0
 10
-3.04558
 20
2.54558
 11
-2.61601
 21
2.91246
  0
LINE
  8
0
 10
-2.61601
 20
2.91246
 11
-2.13435
 21
3.20761
  0
LINE
  8
0
 10
-2.13435
 20
3.20761
 11
-1.61246
 21
3.4238
  0
LINE
  8
0
 10
-1.61246
 20
3.4238
 11
-1.06316
 21
3.55566
  0
LINE
  8
0
 10
-1.06316
 20
3.55566
 11
-0.5
 21
3.59999
  0
LINE
  8
0
 10
-0.5
 20
3.59999
 11
0.5
 21
3.59999
  0
LINE
  8
0
 10
0.5
 20
3.59999
 11
1.06316
 21
3.55566
  0
LINE
  8
0
 10
1.06316
 20
3.55566
 11
1.61246
 21
3.4238
  0
LINE
  8
0
 10
1.61246
 20
3.4238
 11
2.13435
 21
3.20761
  0
LINE
  8
0
 10
2.13435
 20
3.20761
 11
2.61601
 21
2.91246
  0
LINE
  8
0
 10
2.61601
 20
2.91246
 11
3.04558
 21
2.54558
  0
LINE
  8
0
 10
3.04558
 20
2.54558
 11
3.41246
 21
2.11601
  0
LINE
  8
0
 10
3.41246
 20
2.11601
 11
3.70761
 21
1.63435
  0
LINE
  8
0
 10
3.70761
 20
1.63435
 11
3.9238
 21
1.11246
  0
LINE
  8
0
 10
3.9238
 20
1.11246
 11
4.05566
 21
0.563156
  0
LINE
  8
0
 10
4.05566
 20
0.563156
 11
4.09999
 21
0
  0
LINE
  8
0
 10
4.09999
 20
0
 11
4.05566
 21
-0.563156
  0
LINE
  8
0
 10
4.05566
 20
-0.563156
 11
3.9238
 21
-1.11246
  0
LINE
  8
0
 10
3.9238
 20
-1.11246
 11
3.70761
 21
-1.63435
  0
LINE
  8
0
 10
3.70761
 20
-1.63435
 11
3.41246
 21
-2.11601
  0
LINE
  8
0
 10
3.41246
 20
-2.11601
 11
3.04558
 21
-2.54558
  0
LINE
  8
0
 10
3.04558
 20
-2.54558
 11
2.61601
 21
-2.91246
  0
LINE
  8
0
 10
2.61601
 20
-2.91246
 11
2.13435
 21
-3.20761
  0
LINE
  8
0
 10
2.13435
 20
-3.20761
 11
1.61246
 21
-3.4238
  0
LINE
  8
0
 10
1.61246
 20
-3.4238
 11
1.06316
 21
-3.55566
  0
LINE
  8
0
 10
1.06316
 20
-3.55566
 11
0.5
 21
-3.59999
  0
LINE
  8
0
 10
0.5
 20
-3.59999
 11
-0.5
 21
-3.59999
  0
ENDSEC
  0
SECTION
  2
OBJECTS
  0
DICTIONARY
  0
ENDSEC
  0
EOF
