  0
SECTION
  2
BLOCKS
  0
ENDSEC
  0
SECTION
  2
ENTITIES
  0
LINE
  8
0
 10
1.53246
 20
-6.51874
 11
2.53951
 21
-6.27696
  0
LINE
  8
0
 10
2.53951
 20
-6.27696
 11
3.49632
 21
-5.88063
  0
LINE
  8
0
 10
3.49632
 20
-5.88063
 11
4.37938
 21
-5.33951
  0
LINE
  8
0
 10
4.37938
 20
-5.33951
 11
5.1669
 21
-4.6669
  0
LINE
  8
0
 10
5.1669
 20
-4.6669
 11
5.83951
 21
-3.87938
  0
LINE
  8
0
 10
5.83951
 20
-3.87938
 11
6.38063
 21
-2.99632
  0
LINE
  8
0
 10
6.38063
 20
-2.99632
 11
6.77696
 21
-2.03951
  0
LINE
  8
0
 10
6.77696
 20
-2.03951
 11
7.01874
 21
-1.03246
  0
LINE
  8
0
 10
7.01874
 20
-1.03246
 11
7.09999
 21
0
  0
LINE
  8
0
 10
7.09999
 20
0
 11
7.01874
 21
1.03246
  0
LINE
  8
0
 10
7.01874
 20
1.03246
 11
6.77696
 21
2.03951
  0
LINE
  8
0
 10
6.77696
 20
2.03951
 11
6.38063
 21
2.99632
  0
LINE
  8
0
 10
6.38063
 20
2.99632
 11
5.83951
 21
3.87938
  0
LINE
  8
0
 10
5.83951
 20
3.87938
 11
5.1669
 21
4.6669
  0
LINE
  8
0
 10
5.1669
 20
4.6669
 11
4.37938
 21
5.33951
  0
LINE
  8
0
 10
4.37938
 20
5.33951
 11
3.49632
 21
5.88063
  0
LINE
  8
0
 10
3.49632
 20
5.88063
 11
2.53951
 21
6.27696
  0
LINE
  8
0
 10
2.53951
 20
6.27696
 11
1.53246
 21
6.51874
  0
LINE
  8
0
 10
1.53246
 20
6.51874
 11
0.5
 21
6.59999
  0
LINE
  8
0
 10
0.5
 20
6.59999
 11
-0.5
 21
6.59999
  0
LINE
  8
0
 10
-0.5
 20
6.59999
 11
-1.53246
 21
6.51874
  0
LINE
  8
0
 10
-1.53246
 20
6.51874
 11
-2.53951
 21
6.27696
  0
LINE
  8
0
 10
-2.53951
 20
6.27696
 11
-3.49632
 21
5.88063
  0
LINE
  8
0
 10
-3.49632
 20
5.88063
 11
-4.37938
 21
5.33951
  0
LINE
  8
0
 10
-4.37938
 20
5.33951
 11
-5.1669
 21
4.6669
  0
LINE
  8
0
 10
-5.1669
 20
4.6669
 11
-5.83951
 21
3.87938
  0
LINE
  8
0
 10
-5.83951
 20
3.87938
 11
-6.38063
 21
2.99632
  0
LINE
  8
0
 10
-6.38063
 20
2.99632
 11
-6.77696
 21
2.03951
  0
LINE
  8
0
 10
-6.77696
 20
2.03951
 11
-7.01874
 21
1.03246
  0
LINE
  8
0
 10
-7.01874
 20
1.03246
 11
-7.09999
 21
0
  0
LINE
  8
0
 10
-7.09999
 20
0
 11
-7.01874
 21
-1.03246
  0
LINE
  8
0
 10
-7.01874
 20
-1.03246
 11
-6.77696
 21
-2.03951
  0
LINE
  8
0
 10
-6.77696
 20
-2.03951
 11
-6.38063
 21
-2.99632
  0
LINE
  8
0
 10
-6.38063
 20
-2.99632
 11
-5.83951
 21
-3.87938
  0
LINE
  8
0
 10
-5.83951
 20
-3.87938
 11
-5.1669
 21
-4.6669
  0
LINE
  8
0
 10
-5.1669
 20
-4.6669
 11
-4.37938
 21
-5.33951
  0
LINE
  8
0
 10
-4.37938
 20
-5.33951
 11
-3.49632
 21
-5.88063
  0
LINE
  8
0
 10
-3.49632
 20
-5.88063
 11
-2.53951
 21
-6.27696
  0
LINE
  8
0
 10
-2.53951
 20
-6.27696
 11
-1.53246
 21
-6.51874
  0
LINE
  8
0
 10
-1.53246
 20
-6.51874
 11
-0.5
 21
-6.59999
  0
LINE
  8
0
 10
-0.5
 20
-6.59999
 11
0.5
 21
-6.59999
  0
LINE
  8
0
 10
0.5
 20
-6.59999
 11
1.53246
 21
-6.51874
  0
LINE
  8
0
 10
-0.5
 20
-3.59999
 11
-1.06316
 21
-3.55566
  0
LINE
  8
0
 10
-1.06316
 20
-3.55566
 11
-1.61246
 21
-3.4238
  0
LINE
  8
0
 10
-1.61246
 20
-3.4238
 11
-2.13435
 21
-3.20761
  0
LINE
  8
0
 10
-2.13435
 20
-3.20761
 11
-2.61601
 21
-2.91246
  0
LINE
  8
0
 10
-2.61601
 20
-2.91246
 11
-3.04558
 21
-2.54558
  0
LINE
  8
0
 10
-3.04558
 20
-2.54558
 11
-3.41246
 21
-2.11601
  0
LINE
  8
0
 10
-3.41246
 20
-2.11601
 11
-3.70761
 21
-1.63435
  0
LINE
  8
0
 10
-3.70761
 20
-1.63435
 11
-3.9238
 21
-1.11246
  0
LINE
  8
0
 10
-3.9238
 20
-1.11246
 11
-4.05566
 21
-0.563156
  0
LINE
  8
0
 10
-4.05566
 20
-0.563156
 11
-4.09999
 21
0
  0
LINE
  8
0
 10
-4.09999
 20
0
 11
-4.05566
 21
0.563156
  0
LINE
  8
0
 10
-4.05566
 20
0.563156
 11
-3.9238
 21
1.11246
  0
LINE
  8
0
 10
-3.9238
 20
1.11246
 11
-3.70761
 21
1.63435
  0
LINE
  8
0
 10
-3.70761
 20
1.63435
 11
-3.41246
 21
2.11601
  0
LINE
  8
0
 10
-3.41246
 20
2.11601
 11
-3.04558
 21
2.54558
  0
LINE
  8
0
 10
-3.04558
 20
2.54558
 11
-2.61601
 21
2.91246
  0
LINE
  8
0
 10
-2.61601
 20
2.91246
 11
-2.13435
 21
3.20761
  0
LINE
  8
0
 10
-2.13435
 20
3.20761
 11
-1.61246
 21
3.4238
  0
LINE
  8
0
 10
-1.61246
 20
3.4238
 11
-1.06316
 21
3.55566
  0
LINE
  8
0
 10
-1.06316
 20
3.55566
 11
-0.5
 21
3.59999
  0
LINE
  8
0
 10
-0.5
 20
3.59999
 11
0.5
 21
3.59999
  0
LINE
  8
0
 10
0.5
 20
3.59999
 11
1.06316
 21
3.55566
  0
LINE
  8
0
 10
1.06316
 20
3.55566
 11
1.61246
 21
3.4238
  0
LINE
  8
0
 10
1.61246
 20
3.4238
 11
2.13435
 21
3.20761
  0
LINE
  8
0
 10
2.13435
 20
3.20761
 11
2.61601
 21
2.91246
  0
LINE
  8
0
 10
2.61601
 20
2.91246
 11
3.04558
 21
2.54558
  0
LINE
  8
0
 10
3.04558
 20
2.54558
 11
3.41246
 21
2.11601
  0
LINE
  8
0
 10
3.41246
 20
2.11601
 11
3.70761
 21
1.63435
  0
LINE
  8
0
 10
3.70761
 20
1.63435
 11
3.9238
 21
1.11246
  0
LINE
  8
0
 10
3.9238
 20
1.11246
 11
4.05566
 21
0.563156
  0
LINE
  8
0
 10
4.05566
 20
0.563156
 11
4.09999
 21
0
  0
LINE
  8
0
 10
4.09999
 20
0
 11
4.05566
 21
-0.563156
  0
LINE
  8
0
 10
4.05566
 20
-0.563156
 11
3.9238
 21
-1.11246
  0
LINE
  8
0
 10
3.9238
 20
-1.11246
 11
3.70761
 21
-1.63435
  0
LINE
  8
0
 10
3.70761
 20
-1.63435
 11
3.41246
 21
-2.11601
  0
LINE
  8
0
 10
3.41246
 20
-2.11601
 11
3.04558
 21
-2.54558
  0
LINE
  8
0
 10
3.04558
 20
-2.54558
 11
2.61601
 21
-2.91246
  0
LINE
  8
0
 10
2.61601
 20
-2.91246
 11
2.13435
 21
-3.20761
  0
LINE
  8
0
 10
2.13435
 20
-3.20761
 11
1.61246
 21
-3.4238
  0
LINE
  8
0
 10
1.61246
 20
-3.4238
 11
1.06316
 21
-3.55566
  0
LINE
  8
0
 10
1.06316
 20
-3.55566
 11
0.5
 21
-3.59999
  0
LINE
  8
0
 10
0.5
 20
-3.59999
 11
-0.5
 21
-3.59999
  0
ENDSEC
  0
SECTION
  2
OBJECTS
  0
DICTIONARY
  0
ENDSEC
  0
EOF
