  0
SECTION
  2
BLOCKS
  0
ENDSEC
  0
SECTION
  2
ENTITIES
  0
LINE
  8
0
 10
3.59503
 20
-6.91382
 11
4.66312
 21
-6.65739
  0
LINE
  8
0
 10
4.66312
 20
-6.65739
 11
5.67793
 21
-6.23705
  0
LINE
  8
0
 10
5.67793
 20
-6.23705
 11
6.61449
 21
-5.66312
  0
LINE
  8
0
 10
6.61449
 20
-5.66312
 11
7.44974
 21
-4.94974
  0
LINE
  8
0
 10
7.44974
 20
-4.94974
 11
8.16312
 21
-4.11449
  0
LINE
  8
0
 10
8.16312
 20
-4.11449
 11
8.73705
 21
-3.17793
  0
LINE
  8
0
 10
8.73705
 20
-3.17793
 11
9.15739
 21
-2.16312
  0
LINE
  8
0
 10
9.15739
 20
-2.16312
 11
9.41382
 21
-1.09503
  0
LINE
  8
0
 10
9.41382
 20
-1.09503
 11
9.5
 21
0
  0
LINE
  8
0
 10
9.5
 20
0
 11
9.41382
 21
1.09503
  0
LINE
  8
0
 10
9.41382
 20
1.09503
 11
9.15739
 21
2.16312
  0
LINE
  8
0
 10
9.15739
 20
2.16312
 11
8.73705
 21
3.17793
  0
LINE
  8
0
 10
8.73705
 20
3.17793
 11
8.16312
 21
4.11449
  0
LINE
  8
0
 10
8.16312
 20
4.11449
 11
7.44974
 21
4.94974
  0
LINE
  8
0
 10
7.44974
 20
4.94974
 11
6.61449
 21
5.66312
  0
LINE
  8
0
 10
6.61449
 20
5.66312
 11
5.67793
 21
6.23705
  0
LINE
  8
0
 10
5.67793
 20
6.23705
 11
4.66312
 21
6.65739
  0
LINE
  8
0
 10
4.66312
 20
6.65739
 11
3.59503
 21
6.91382
  0
LINE
  8
0
 10
3.59503
 20
6.91382
 11
2.5
 21
7
  0
LINE
  8
0
 10
2.5
 20
7
 11
-2.5
 21
7
  0
LINE
  8
0
 10
-2.5
 20
7
 11
-3.59503
 21
6.91382
  0
LINE
  8
0
 10
-3.59503
 20
6.91382
 11
-4.66312
 21
6.65739
  0
LINE
  8
0
 10
-4.66312
 20
6.65739
 11
-5.67793
 21
6.23705
  0
LINE
  8
0
 10
-5.67793
 20
6.23705
 11
-6.61449
 21
5.66312
  0
LINE
  8
0
 10
-6.61449
 20
5.66312
 11
-7.44974
 21
4.94974
  0
LINE
  8
0
 10
-7.44974
 20
4.94974
 11
-8.16312
 21
4.11449
  0
LINE
  8
0
 10
-8.16312
 20
4.11449
 11
-8.73705
 21
3.17793
  0
LINE
  8
0
 10
-8.73705
 20
3.17793
 11
-9.15739
 21
2.16312
  0
LINE
  8
0
 10
-9.15739
 20
2.16312
 11
-9.41382
 21
1.09503
  0
LINE
  8
0
 10
-9.41382
 20
1.09503
 11
-9.5
 21
0
  0
LINE
  8
0
 10
-9.5
 20
0
 11
-9.41382
 21
-1.09503
  0
LINE
  8
0
 10
-9.41382
 20
-1.09503
 11
-9.15739
 21
-2.16312
  0
LINE
  8
0
 10
-9.15739
 20
-2.16312
 11
-8.73705
 21
-3.17793
  0
LINE
  8
0
 10
-8.73705
 20
-3.17793
 11
-8.16312
 21
-4.11449
  0
LINE
  8
0
 10
-8.16312
 20
-4.11449
 11
-7.44974
 21
-4.94974
  0
LINE
  8
0
 10
-7.44974
 20
-4.94974
 11
-6.61449
 21
-5.66312
  0
LINE
  8
0
 10
-6.61449
 20
-5.66312
 11
-5.67793
 21
-6.23705
  0
LINE
  8
0
 10
-5.67793
 20
-6.23705
 11
-4.66312
 21
-6.65739
  0
LINE
  8
0
 10
-4.66312
 20
-6.65739
 11
-3.59503
 21
-6.91382
  0
LINE
  8
0
 10
-3.59503
 20
-6.91382
 11
-2.5
 21
-7
  0
LINE
  8
0
 10
-2.5
 20
-7
 11
2.5
 21
-7
  0
LINE
  8
0
 10
2.5
 20
-7
 11
3.59503
 21
-6.91382
  0
LINE
  8
0
 10
-2.5
 20
-4
 11
-3.12573
 21
-3.95074
  0
LINE
  8
0
 10
-3.12573
 20
-3.95074
 11
-3.73605
 21
-3.80421
  0
LINE
  8
0
 10
-3.73605
 20
-3.80421
 11
-4.31595
 21
-3.56403
  0
LINE
  8
0
 10
-4.31595
 20
-3.56403
 11
-4.85114
 21
-3.23605
  0
LINE
  8
0
 10
-4.85114
 20
-3.23605
 11
-5.32841
 21
-2.82841
  0
LINE
  8
0
 10
-5.32841
 20
-2.82841
 11
-5.73605
 21
-2.35114
  0
LINE
  8
0
 10
-5.73605
 20
-2.35114
 11
-6.06403
 21
-1.81595
  0
LINE
  8
0
 10
-6.06403
 20
-1.81595
 11
-6.30421
 21
-1.23605
  0
LINE
  8
0
 10
-6.30421
 20
-1.23605
 11
-6.45074
 21
-0.625732
  0
LINE
  8
0
 10
-6.45074
 20
-0.625732
 11
-6.5
 21
0
  0
LINE
  8
0
 10
-6.5
 20
0
 11
-6.45074
 21
0.625732
  0
LINE
  8
0
 10
-6.45074
 20
0.625732
 11
-6.30421
 21
1.23605
  0
LINE
  8
0
 10
-6.30421
 20
1.23605
 11
-6.06403
 21
1.81595
  0
LINE
  8
0
 10
-6.06403
 20
1.81595
 11
-5.73605
 21
2.35114
  0
LINE
  8
0
 10
-5.73605
 20
2.35114
 11
-5.32841
 21
2.82841
  0
LINE
  8
0
 10
-5.32841
 20
2.82841
 11
-4.85114
 21
3.23605
  0
LINE
  8
0
 10
-4.85114
 20
3.23605
 11
-4.31595
 21
3.56403
  0
LINE
  8
0
 10
-4.31595
 20
3.56403
 11
-3.73605
 21
3.80421
  0
LINE
  8
0
 10
-3.73605
 20
3.80421
 11
-3.12573
 21
3.95074
  0
LINE
  8
0
 10
-3.12573
 20
3.95074
 11
-2.5
 21
4
  0
LINE
  8
0
 10
-2.5
 20
4
 11
2.5
 21
4
  0
LINE
  8
0
 10
2.5
 20
4
 11
3.12573
 21
3.95074
  0
LINE
  8
0
 10
3.12573
 20
3.95074
 11
3.73605
 21
3.80421
  0
LINE
  8
0
 10
3.73605
 20
3.80421
 11
4.31595
 21
3.56403
  0
LINE
  8
0
 10
4.31595
 20
3.56403
 11
4.85114
 21
3.23605
  0
LINE
  8
0
 10
4.85114
 20
3.23605
 11
5.32841
 21
2.82841
  0
LINE
  8
0
 10
5.32841
 20
2.82841
 11
5.73605
 21
2.35114
  0
LINE
  8
0
 10
5.73605
 20
2.35114
 11
6.06403
 21
1.81595
  0
LINE
  8
0
 10
6.06403
 20
1.81595
 11
6.30421
 21
1.23605
  0
LINE
  8
0
 10
6.30421
 20
1.23605
 11
6.45074
 21
0.625732
  0
LINE
  8
0
 10
6.45074
 20
0.625732
 11
6.5
 21
0
  0
LINE
  8
0
 10
6.5
 20
0
 11
6.45074
 21
-0.625732
  0
LINE
  8
0
 10
6.45074
 20
-0.625732
 11
6.30421
 21
-1.23605
  0
LINE
  8
0
 10
6.30421
 20
-1.23605
 11
6.06403
 21
-1.81595
  0
LINE
  8
0
 10
6.06403
 20
-1.81595
 11
5.73605
 21
-2.35114
  0
LINE
  8
0
 10
5.73605
 20
-2.35114
 11
5.32841
 21
-2.82841
  0
LINE
  8
0
 10
5.32841
 20
-2.82841
 11
4.85114
 21
-3.23605
  0
LINE
  8
0
 10
4.85114
 20
-3.23605
 11
4.31595
 21
-3.56403
  0
LINE
  8
0
 10
4.31595
 20
-3.56403
 11
3.73605
 21
-3.80421
  0
LINE
  8
0
 10
3.73605
 20
-3.80421
 11
3.12573
 21
-3.95074
  0
LINE
  8
0
 10
3.12573
 20
-3.95074
 11
2.5
 21
-4
  0
LINE
  8
0
 10
2.5
 20
-4
 11
-2.5
 21
-4
  0
ENDSEC
  0
SECTION
  2
OBJECTS
  0
DICTIONARY
  0
ENDSEC
  0
EOF
