  0
SECTION
  2
BLOCKS
  0
ENDSEC
  0
SECTION
  2
ENTITIES
  0
LINE
  8
0
 10
0.774338
 20
-4.88905
 11
1.52963
 21
-4.70772
  0
LINE
  8
0
 10
1.52963
 20
-4.70772
 11
2.24724
 21
-4.41048
  0
LINE
  8
0
 10
2.24724
 20
-4.41048
 11
2.90953
 21
-4.00462
  0
LINE
  8
0
 10
2.90953
 20
-4.00462
 11
3.50017
 21
-3.50017
  0
LINE
  8
0
 10
3.50017
 20
-3.50017
 11
4.00462
 21
-2.90953
  0
LINE
  8
0
 10
4.00462
 20
-2.90953
 11
4.41048
 21
-2.24724
  0
LINE
  8
0
 10
4.41048
 20
-2.24724
 11
4.70772
 21
-1.52963
  0
LINE
  8
0
 10
4.70772
 20
-1.52963
 11
4.88905
 21
-0.774338
  0
LINE
  8
0
 10
4.88905
 20
-0.774338
 11
4.95
 21
0
  0
LINE
  8
0
 10
4.95
 20
0
 11
4.88905
 21
0.774338
  0
LINE
  8
0
 10
4.88905
 20
0.774338
 11
4.70772
 21
1.52963
  0
LINE
  8
0
 10
4.70772
 20
1.52963
 11
4.41048
 21
2.24724
  0
LINE
  8
0
 10
4.41048
 20
2.24724
 11
4.00462
 21
2.90953
  0
LINE
  8
0
 10
4.00462
 20
2.90953
 11
3.50017
 21
3.50017
  0
LINE
  8
0
 10
3.50017
 20
3.50017
 11
2.90953
 21
4.00462
  0
LINE
  8
0
 10
2.90953
 20
4.00462
 11
2.24724
 21
4.41048
  0
LINE
  8
0
 10
2.24724
 20
4.41048
 11
1.52963
 21
4.70772
  0
LINE
  8
0
 10
1.52963
 20
4.70772
 11
1.5
 21
4.71483
  0
LINE
  8
0
 10
1.5
 20
4.71483
 11
1.5
 21
17.95
  0
LINE
  8
0
 10
1.5
 20
17.95
 11
-1.5
 21
17.95
  0
LINE
  8
0
 10
-1.5
 20
17.95
 11
-1.5
 21
4.71483
  0
LINE
  8
0
 10
-1.5
 20
4.71483
 11
-1.52963
 21
4.70772
  0
LINE
  8
0
 10
-1.52963
 20
4.70772
 11
-2.24724
 21
4.41048
  0
LINE
  8
0
 10
-2.24724
 20
4.41048
 11
-2.90953
 21
4.00462
  0
LINE
  8
0
 10
-2.90953
 20
4.00462
 11
-3.50017
 21
3.50017
  0
LINE
  8
0
 10
-3.50017
 20
3.50017
 11
-4.00462
 21
2.90953
  0
LINE
  8
0
 10
-4.00462
 20
2.90953
 11
-4.41048
 21
2.24724
  0
LINE
  8
0
 10
-4.41048
 20
2.24724
 11
-4.70772
 21
1.52963
  0
LINE
  8
0
 10
-4.70772
 20
1.52963
 11
-4.88905
 21
0.774338
  0
LINE
  8
0
 10
-4.88905
 20
0.774338
 11
-4.95
 21
0
  0
LINE
  8
0
 10
-4.95
 20
0
 11
-4.88905
 21
-0.774338
  0
LINE
  8
0
 10
-4.88905
 20
-0.774338
 11
-4.70772
 21
-1.52963
  0
LINE
  8
0
 10
-4.70772
 20
-1.52963
 11
-4.41048
 21
-2.24724
  0
LINE
  8
0
 10
-4.41048
 20
-2.24724
 11
-4.00462
 21
-2.90953
  0
LINE
  8
0
 10
-4.00462
 20
-2.90953
 11
-3.50017
 21
-3.50017
  0
LINE
  8
0
 10
-3.50017
 20
-3.50017
 11
-2.90953
 21
-4.00462
  0
LINE
  8
0
 10
-2.90953
 20
-4.00462
 11
-2.24724
 21
-4.41048
  0
LINE
  8
0
 10
-2.24724
 20
-4.41048
 11
-1.52963
 21
-4.70772
  0
LINE
  8
0
 10
-1.52963
 20
-4.70772
 11
-0.774338
 21
-4.88905
  0
LINE
  8
0
 10
-0.774338
 20
-4.88905
 11
0
 21
-4.95
  0
LINE
  8
0
 10
0
 20
-4.95
 11
0.774338
 21
-4.88905
  0
LINE
  8
0
 10
-0.461472
 20
-2.91367
 11
-0.911591
 21
-2.8056
  0
LINE
  8
0
 10
-0.911591
 20
-2.8056
 11
-1.33926
 21
-2.62846
  0
LINE
  8
0
 10
-1.33926
 20
-2.62846
 11
-1.73396
 21
-2.3866
  0
LINE
  8
0
 10
-1.73396
 20
-2.3866
 11
-2.08595
 21
-2.08595
  0
LINE
  8
0
 10
-2.08595
 20
-2.08595
 11
-2.3866
 21
-1.73396
  0
LINE
  8
0
 10
-2.3866
 20
-1.73396
 11
-2.62846
 21
-1.33926
  0
LINE
  8
0
 10
-2.62846
 20
-1.33926
 11
-2.8056
 21
-0.911591
  0
LINE
  8
0
 10
-2.8056
 20
-0.911591
 11
-2.91367
 21
-0.461472
  0
LINE
  8
0
 10
-2.91367
 20
-0.461472
 11
-2.95
 21
0
  0
LINE
  8
0
 10
-2.95
 20
0
 11
-2.91367
 21
0.461472
  0
LINE
  8
0
 10
-2.91367
 20
0.461472
 11
-2.8056
 21
0.911591
  0
LINE
  8
0
 10
-2.8056
 20
0.911591
 11
-2.62846
 21
1.33926
  0
LINE
  8
0
 10
-2.62846
 20
1.33926
 11
-2.3866
 21
1.73396
  0
LINE
  8
0
 10
-2.3866
 20
1.73396
 11
-2.08595
 21
2.08595
  0
LINE
  8
0
 10
-2.08595
 20
2.08595
 11
-1.73396
 21
2.3866
  0
LINE
  8
0
 10
-1.73396
 20
2.3866
 11
-1.33926
 21
2.62846
  0
LINE
  8
0
 10
-1.33926
 20
2.62846
 11
-0.911591
 21
2.8056
  0
LINE
  8
0
 10
-0.911591
 20
2.8056
 11
-0.461472
 21
2.91367
  0
LINE
  8
0
 10
-0.461472
 20
2.91367
 11
0
 21
2.95
  0
LINE
  8
0
 10
0
 20
2.95
 11
0.461472
 21
2.91367
  0
LINE
  8
0
 10
0.461472
 20
2.91367
 11
0.911591
 21
2.8056
  0
LINE
  8
0
 10
0.911591
 20
2.8056
 11
1.33926
 21
2.62846
  0
LINE
  8
0
 10
1.33926
 20
2.62846
 11
1.73396
 21
2.3866
  0
LINE
  8
0
 10
1.73396
 20
2.3866
 11
2.08595
 21
2.08595
  0
LINE
  8
0
 10
2.08595
 20
2.08595
 11
2.3866
 21
1.73396
  0
LINE
  8
0
 10
2.3866
 20
1.73396
 11
2.62846
 21
1.33926
  0
LINE
  8
0
 10
2.62846
 20
1.33926
 11
2.8056
 21
0.911591
  0
LINE
  8
0
 10
2.8056
 20
0.911591
 11
2.91367
 21
0.461472
  0
LINE
  8
0
 10
2.91367
 20
0.461472
 11
2.95
 21
0
  0
LINE
  8
0
 10
2.95
 20
0
 11
2.91367
 21
-0.461472
  0
LINE
  8
0
 10
2.91367
 20
-0.461472
 11
2.8056
 21
-0.911591
  0
LINE
  8
0
 10
2.8056
 20
-0.911591
 11
2.62846
 21
-1.33926
  0
LINE
  8
0
 10
2.62846
 20
-1.33926
 11
2.3866
 21
-1.73396
  0
LINE
  8
0
 10
2.3866
 20
-1.73396
 11
2.08595
 21
-2.08595
  0
LINE
  8
0
 10
2.08595
 20
-2.08595
 11
1.73396
 21
-2.3866
  0
LINE
  8
0
 10
1.73396
 20
-2.3866
 11
1.33926
 21
-2.62846
  0
LINE
  8
0
 10
1.33926
 20
-2.62846
 11
0.911591
 21
-2.8056
  0
LINE
  8
0
 10
0.911591
 20
-2.8056
 11
0.461472
 21
-2.91367
  0
LINE
  8
0
 10
0.461472
 20
-2.91367
 11
0
 21
-2.95
  0
LINE
  8
0
 10
0
 20
-2.95
 11
-0.461472
 21
-2.91367
  0
ENDSEC
  0
SECTION
  2
OBJECTS
  0
DICTIONARY
  0
ENDSEC
  0
EOF
