  0
SECTION
  2
BLOCKS
  0
ENDSEC
  0
SECTION
  2
ENTITIES
  0
LINE
  8
0
 10
0
 20
-2.34999
 11
0.00999451
 21
-2.34999
  0
LINE
  8
0
 10
0.00999451
 20
-2.34999
 11
0.00999451
 21
-4.3492
  0
LINE
  8
0
 10
0.00999451
 20
-4.3492
 11
0.680481
 21
-4.29643
  0
LINE
  8
0
 10
0.680481
 20
-4.29643
 11
1.34422
 21
-4.13708
  0
LINE
  8
0
 10
1.34422
 20
-4.13708
 11
1.97485
 21
-3.87587
  0
LINE
  8
0
 10
1.97485
 20
-3.87587
 11
2.55685
 21
-3.51921
  0
LINE
  8
0
 10
2.55685
 20
-3.51921
 11
3.07591
 21
-3.07591
  0
LINE
  8
0
 10
3.07591
 20
-3.07591
 11
3.51921
 21
-2.55685
  0
LINE
  8
0
 10
3.51921
 20
-2.55685
 11
3.87587
 21
-1.97485
  0
LINE
  8
0
 10
3.87587
 20
-1.97485
 11
4.13708
 21
-1.34422
  0
LINE
  8
0
 10
4.13708
 20
-1.34422
 11
4.29643
 21
-0.680481
  0
LINE
  8
0
 10
4.29643
 20
-0.680481
 11
4.34999
 21
0
  0
LINE
  8
0
 10
4.34999
 20
0
 11
4.29643
 21
0.680481
  0
LINE
  8
0
 10
4.29643
 20
0.680481
 11
4.13708
 21
1.34422
  0
LINE
  8
0
 10
4.13708
 20
1.34422
 11
3.87587
 21
1.97485
  0
LINE
  8
0
 10
3.87587
 20
1.97485
 11
3.51921
 21
2.55685
  0
LINE
  8
0
 10
3.51921
 20
2.55685
 11
3.07591
 21
3.07591
  0
LINE
  8
0
 10
3.07591
 20
3.07591
 11
2.55685
 21
3.51921
  0
LINE
  8
0
 10
2.55685
 20
3.51921
 11
1.97485
 21
3.87587
  0
LINE
  8
0
 10
1.97485
 20
3.87587
 11
1.5
 21
4.07256
  0
LINE
  8
0
 10
1.5
 20
4.07256
 11
1.5
 21
17.35
  0
LINE
  8
0
 10
1.5
 20
17.35
 11
-1.5
 21
17.35
  0
LINE
  8
0
 10
-1.5
 20
17.35
 11
-1.5
 21
4.07256
  0
LINE
  8
0
 10
-1.5
 20
4.07256
 11
-1.97485
 21
3.87587
  0
LINE
  8
0
 10
-1.97485
 20
3.87587
 11
-2.55685
 21
3.51921
  0
LINE
  8
0
 10
-2.55685
 20
3.51921
 11
-3.07591
 21
3.07591
  0
LINE
  8
0
 10
-3.07591
 20
3.07591
 11
-3.51921
 21
2.55685
  0
LINE
  8
0
 10
-3.51921
 20
2.55685
 11
-3.87587
 21
1.97485
  0
LINE
  8
0
 10
-3.87587
 20
1.97485
 11
-4.13708
 21
1.34422
  0
LINE
  8
0
 10
-4.13708
 20
1.34422
 11
-4.29643
 21
0.680481
  0
LINE
  8
0
 10
-4.29643
 20
0.680481
 11
-4.34999
 21
0
  0
LINE
  8
0
 10
-4.34999
 20
0
 11
-4.29643
 21
-0.680481
  0
LINE
  8
0
 10
-4.29643
 20
-0.680481
 11
-4.13708
 21
-1.34422
  0
LINE
  8
0
 10
-4.13708
 20
-1.34422
 11
-3.87587
 21
-1.97485
  0
LINE
  8
0
 10
-3.87587
 20
-1.97485
 11
-3.51921
 21
-2.55685
  0
LINE
  8
0
 10
-3.51921
 20
-2.55685
 11
-3.07591
 21
-3.07591
  0
LINE
  8
0
 10
-3.07591
 20
-3.07591
 11
-2.55685
 21
-3.51921
  0
LINE
  8
0
 10
-2.55685
 20
-3.51921
 11
-1.97485
 21
-3.87587
  0
LINE
  8
0
 10
-1.97485
 20
-3.87587
 11
-1.34422
 21
-4.13708
  0
LINE
  8
0
 10
-1.34422
 20
-4.13708
 11
-0.680481
 21
-4.29643
  0
LINE
  8
0
 10
-0.680481
 20
-4.29643
 11
0
 21
-4.34999
  0
LINE
  8
0
 10
0
 20
-4.34999
 11
0
 21
-2.34999
  0
LINE
  8
0
 10
-0.367615
 20
-2.32106
 11
-0.726181
 21
-2.23497
  0
LINE
  8
0
 10
-0.726181
 20
-2.23497
 11
-1.06686
 21
-2.09386
  0
LINE
  8
0
 10
-1.06686
 20
-2.09386
 11
-1.38129
 21
-1.90118
  0
LINE
  8
0
 10
-1.38129
 20
-1.90118
 11
-1.6617
 21
-1.6617
  0
LINE
  8
0
 10
-1.6617
 20
-1.6617
 11
-1.90118
 21
-1.38129
  0
LINE
  8
0
 10
-1.90118
 20
-1.38129
 11
-2.09386
 21
-1.06686
  0
LINE
  8
0
 10
-2.09386
 20
-1.06686
 11
-2.23497
 21
-0.726181
  0
LINE
  8
0
 10
-2.23497
 20
-0.726181
 11
-2.32106
 21
-0.367615
  0
LINE
  8
0
 10
-2.32106
 20
-0.367615
 11
-2.34999
 21
0
  0
LINE
  8
0
 10
-2.34999
 20
0
 11
-2.32106
 21
0.367615
  0
LINE
  8
0
 10
-2.32106
 20
0.367615
 11
-2.23497
 21
0.726181
  0
LINE
  8
0
 10
-2.23497
 20
0.726181
 11
-2.09386
 21
1.06686
  0
LINE
  8
0
 10
-2.09386
 20
1.06686
 11
-1.90118
 21
1.38129
  0
LINE
  8
0
 10
-1.90118
 20
1.38129
 11
-1.6617
 21
1.6617
  0
LINE
  8
0
 10
-1.6617
 20
1.6617
 11
-1.38129
 21
1.90118
  0
LINE
  8
0
 10
-1.38129
 20
1.90118
 11
-1.06686
 21
2.09386
  0
LINE
  8
0
 10
-1.06686
 20
2.09386
 11
-0.726181
 21
2.23497
  0
LINE
  8
0
 10
-0.726181
 20
2.23497
 11
-0.367615
 21
2.32106
  0
LINE
  8
0
 10
-0.367615
 20
2.32106
 11
0
 21
2.34999
  0
LINE
  8
0
 10
0
 20
2.34999
 11
0.367615
 21
2.32106
  0
LINE
  8
0
 10
0.367615
 20
2.32106
 11
0.726181
 21
2.23497
  0
LINE
  8
0
 10
0.726181
 20
2.23497
 11
1.06686
 21
2.09386
  0
LINE
  8
0
 10
1.06686
 20
2.09386
 11
1.38129
 21
1.90118
  0
LINE
  8
0
 10
1.38129
 20
1.90118
 11
1.6617
 21
1.6617
  0
LINE
  8
0
 10
1.6617
 20
1.6617
 11
1.90118
 21
1.38129
  0
LINE
  8
0
 10
1.90118
 20
1.38129
 11
2.09386
 21
1.06686
  0
LINE
  8
0
 10
2.09386
 20
1.06686
 11
2.23497
 21
0.726181
  0
LINE
  8
0
 10
2.23497
 20
0.726181
 11
2.32106
 21
0.367615
  0
LINE
  8
0
 10
2.32106
 20
0.367615
 11
2.34999
 21
0
  0
LINE
  8
0
 10
2.34999
 20
0
 11
2.32106
 21
-0.367615
  0
LINE
  8
0
 10
2.32106
 20
-0.367615
 11
2.23497
 21
-0.726181
  0
LINE
  8
0
 10
2.23497
 20
-0.726181
 11
2.09386
 21
-1.06686
  0
LINE
  8
0
 10
2.09386
 20
-1.06686
 11
1.90118
 21
-1.38129
  0
LINE
  8
0
 10
1.90118
 20
-1.38129
 11
1.6617
 21
-1.6617
  0
LINE
  8
0
 10
1.6617
 20
-1.6617
 11
1.38129
 21
-1.90118
  0
LINE
  8
0
 10
1.38129
 20
-1.90118
 11
1.06686
 21
-2.09386
  0
LINE
  8
0
 10
1.06686
 20
-2.09386
 11
0.726181
 21
-2.23497
  0
LINE
  8
0
 10
0.726181
 20
-2.23497
 11
0.367615
 21
-2.32106
  0
LINE
  8
0
 10
0.367615
 20
-2.32106
 11
0
 21
-2.34999
  0
LINE
  8
0
 10
0
 20
-2.34999
 11
-0.367615
 21
-2.32106
  0
ENDSEC
  0
SECTION
  2
OBJECTS
  0
DICTIONARY
  0
ENDSEC
  0
EOF
