  0
SECTION
  2
BLOCKS
  0
ENDSEC
  0
SECTION
  2
ENTITIES
  0
LINE
  8
0
 10
-11.45
 11
-11.45
 20
-11.275
 21
1.175
  0
LINE
  8
0
 10
-11.45
 11
-11.443
 20
1.175
 21
1.175
  0
LINE
  8
0
 10
-11.443
 11
-11.443
 20
1.175
 21
1.87
  0
LINE
  8
0
 10
-11.443
 11
-11.389
 20
1.87
 21
2.659
  0
LINE
  8
0
 10
-11.389
 11
-11.28
 20
2.659
 21
3.442
  0
LINE
  8
0
 10
-11.28
 11
-11.117
 20
3.442
 21
4.215
  0
LINE
  8
0
 10
-11.117
 11
-10.902
 20
4.215
 21
4.976
  0
LINE
  8
0
 10
-10.902
 11
-10.634
 20
4.976
 21
5.719
  0
LINE
  8
0
 10
-10.634
 11
-10.316
 20
5.719
 21
6.443
  0
LINE
  8
0
 10
-10.316
 11
-9.949
 20
6.443
 21
7.143
  0
LINE
  8
0
 10
-9.949
 11
-9.534
 20
7.143
 21
7.816
  0
LINE
  8
0
 10
-9.534
 11
-9.074
 20
7.816
 21
8.458
  0
LINE
  8
0
 10
-9.074
 11
-8.57
 20
8.458
 21
9.068
  0
LINE
  8
0
 10
-8.57
 11
-8.026
 20
9.068
 21
9.641
  0
LINE
  8
0
 10
-8.026
 11
-7.444
 20
9.641
 21
10.175
  0
LINE
  8
0
 10
-7.444
 11
-6.826
 20
10.175
 21
10.668
  0
LINE
  8
0
 10
-6.826
 11
-6.175
 20
10.668
 21
11.117
  0
LINE
  8
0
 10
-6.175
 11
-5.495
 20
11.117
 21
11.52
  0
LINE
  8
0
 10
-5.495
 11
-4.789
 20
11.52
 21
11.875
  0
LINE
  8
0
 10
-4.789
 11
-4.06
 20
11.875
 21
12.181
  0
LINE
  8
0
 10
-4.06
 11
-3.312
 20
12.181
 21
12.436
  0
LINE
  8
0
 10
-3.312
 11
-2.548
 20
12.436
 21
12.638
  0
LINE
  8
0
 10
-2.548
 11
-1.772
 20
12.638
 21
12.787
  0
LINE
  8
0
 10
-1.772
 11
-0.987
 20
12.787
 21
12.882
  0
LINE
  8
0
 10
-0.987
 11
-0.198
 20
12.882
 21
12.923
  0
LINE
  8
0
 10
-0.198
 11
0.593
 20
12.923
 21
12.91
  0
LINE
  8
0
 10
0.593
 11
1.38
 20
12.91
 21
12.842
  0
LINE
  8
0
 10
1.38
 11
2.161
 20
12.842
 21
12.719
  0
LINE
  8
0
 10
2.161
 11
2.932
 20
12.719
 21
12.543
  0
LINE
  8
0
 10
2.932
 11
3.688
 20
12.543
 21
12.315
  0
LINE
  8
0
 10
3.688
 11
4.427
 20
12.315
 21
12.034
  0
LINE
  8
0
 10
4.427
 11
5.145
 20
12.034
 21
11.704
  0
LINE
  8
0
 10
5.145
 11
5.839
 20
11.704
 21
11.324
  0
LINE
  8
0
 10
5.839
 11
6.504
 20
11.324
 21
10.898
  0
LINE
  8
0
 10
6.504
 11
7.139
 20
10.898
 21
10.427
  0
LINE
  8
0
 10
7.139
 11
7.74
 20
10.427
 21
9.913
  0
LINE
  8
0
 10
7.74
 11
8.303
 20
9.913
 21
9.359
  0
LINE
  8
0
 10
8.303
 11
8.827
 20
9.359
 21
8.767
  0
LINE
  8
0
 10
8.827
 11
9.309
 20
8.767
 21
8.141
  0
LINE
  8
0
 10
9.309
 11
9.747
 20
8.141
 21
7.483
  0
LINE
  8
0
 10
9.747
 11
10.138
 20
7.483
 21
6.796
  0
LINE
  8
0
 10
10.138
 11
10.481
 20
6.796
 21
6.084
  0
LINE
  8
0
 10
10.481
 11
10.774
 20
6.084
 21
5.35
  0
LINE
  8
0
 10
10.774
 11
11.016
 20
5.35
 21
4.597
  0
LINE
  8
0
 10
11.016
 11
11.205
 20
4.597
 21
3.83
  0
LINE
  8
0
 10
11.205
 11
11.341
 20
3.83
 21
3.051
  0
LINE
  8
0
 10
11.341
 11
11.423
 20
3.051
 21
2.265
  0
LINE
  8
0
 10
11.423
 11
11.45
 20
2.265
 21
1.475
  0
LINE
  8
0
 10
11.45
 11
11.44
 20
1.475
 21
1.175
  0
LINE
  8
0
 10
11.44
 11
11.45
 20
1.175
 21
1.175
  0
LINE
  8
0
 10
11.45
 11
11.45
 20
1.175
 21
-11.275
  0
LINE
  8
0
 10
11.45
 11
-11.45
 20
-11.275
 21
-11.275
  0
LINE
  8
0
 10
-9.644
 11
-9.644
 20
1.142
 21
1.808
  0
LINE
  8
0
 10
-9.644
 11
-9.598
 20
1.808
 21
2.473
  0
LINE
  8
0
 10
-9.598
 11
-9.507
 20
2.473
 21
3.132
  0
LINE
  8
0
 10
-9.507
 11
-9.37
 20
3.132
 21
3.784
  0
LINE
  8
0
 10
-9.37
 11
-9.188
 20
3.784
 21
4.425
  0
LINE
  8
0
 10
-9.188
 11
-8.962
 20
4.425
 21
5.052
  0
LINE
  8
0
 10
-8.962
 11
-8.694
 20
5.052
 21
5.662
  0
LINE
  8
0
 10
-8.694
 11
-8.385
 20
5.662
 21
6.252
  0
LINE
  8
0
 10
-8.385
 11
-8.035
 20
6.252
 21
6.819
  0
LINE
  8
0
 10
-8.035
 11
-7.647
 20
6.819
 21
7.361
  0
LINE
  8
0
 10
-7.647
 11
-7.223
 20
7.361
 21
7.874
  0
LINE
  8
0
 10
-7.223
 11
-6.764
 20
7.874
 21
8.357
  0
LINE
  8
0
 10
-6.764
 11
-6.274
 20
8.357
 21
8.808
  0
LINE
  8
0
 10
-6.274
 11
-5.753
 20
8.808
 21
9.223
  0
LINE
  8
0
 10
-5.753
 11
-5.204
 20
9.223
 21
9.601
  0
LINE
  8
0
 10
-5.204
 11
-4.631
 20
9.601
 21
9.941
  0
LINE
  8
0
 10
-4.631
 11
-4.15
 20
9.941
 21
10.183
  0
LINE
  8
0
 10
-4.15
 11
-4.15
 20
10.183
 21
5.65
  0
LINE
  8
0
 10
-4.15
 11
-4.059
 20
5.65
 21
4.787
  0
LINE
  8
0
 10
-4.059
 11
-3.791
 20
4.787
 21
3.962
  0
LINE
  8
0
 10
-3.791
 11
-3.524
 20
3.962
 21
3.5
  0
LINE
  8
0
 10
-3.524
 11
3.524
 20
3.5
 21
3.5
  0
LINE
  8
0
 10
3.524
 11
3.791
 20
3.5
 21
3.962
  0
LINE
  8
0
 10
3.791
 11
4.059
 20
3.962
 21
4.787
  0
LINE
  8
0
 10
4.059
 11
4.15
 20
4.787
 21
5.65
  0
LINE
  8
0
 10
4.15
 11
4.15
 20
5.65
 21
10.181
  0
LINE
  8
0
 10
4.15
 11
4.336
 20
10.181
 21
10.096
  0
LINE
  8
0
 10
4.336
 11
4.921
 20
10.096
 21
9.776
  0
LINE
  8
0
 10
4.921
 11
5.482
 20
9.776
 21
9.417
  0
LINE
  8
0
 10
5.482
 11
6.017
 20
9.417
 21
9.02
  0
LINE
  8
0
 10
6.017
 11
6.523
 20
9.02
 21
8.587
  0
LINE
  8
0
 10
6.523
 11
6.998
 20
8.587
 21
8.12
  0
LINE
  8
0
 10
6.998
 11
7.44
 20
8.12
 21
7.621
  0
LINE
  8
0
 10
7.44
 11
7.846
 20
7.621
 21
7.093
  0
LINE
  8
0
 10
7.846
 11
8.215
 20
7.093
 21
6.538
  0
LINE
  8
0
 10
8.215
 11
8.545
 20
6.538
 21
5.96
  0
LINE
  8
0
 10
8.545
 11
8.834
 20
5.96
 21
5.359
  0
LINE
  8
0
 10
8.834
 11
9.081
 20
5.359
 21
4.741
  0
LINE
  8
0
 10
9.081
 11
9.284
 20
4.741
 21
4.106
  0
LINE
  8
0
 10
9.284
 11
9.444
 20
4.106
 21
3.46
  0
LINE
  8
0
 10
9.444
 11
9.558
 20
3.46
 21
2.803
  0
LINE
  8
0
 10
9.558
 11
9.627
 20
2.803
 21
2.141
  0
LINE
  8
0
 10
9.627
 11
9.65
 20
2.141
 21
1.475
  0
LINE
  8
0
 10
9.65
 11
9.627
 20
1.475
 21
0.809
  0
LINE
  8
0
 10
9.627
 11
9.558
 20
0.809
 21
0.147
  0
LINE
  8
0
 10
9.558
 11
9.444
 20
0.147
 21
-0.51
  0
LINE
  8
0
 10
9.444
 11
9.284
 20
-0.51
 21
-1.156
  0
LINE
  8
0
 10
9.284
 11
9.081
 20
-1.156
 21
-1.791
  0
LINE
  8
0
 10
9.081
 11
8.834
 20
-1.791
 21
-2.409
  0
LINE
  8
0
 10
8.834
 11
8.545
 20
-2.409
 21
-3.01
  0
LINE
  8
0
 10
8.545
 11
8.215
 20
-3.01
 21
-3.588
  0
LINE
  8
0
 10
8.215
 11
7.846
 20
-3.588
 21
-4.143
  0
LINE
  8
0
 10
7.846
 11
7.44
 20
-4.143
 21
-4.671
  0
LINE
  8
0
 10
7.44
 11
6.998
 20
-4.671
 21
-5.17
  0
LINE
  8
0
 10
6.998
 11
6.523
 20
-5.17
 21
-5.637
  0
LINE
  8
0
 10
6.523
 11
6.017
 20
-5.637
 21
-6.07
  0
LINE
  8
0
 10
6.017
 11
5.482
 20
-6.07
 21
-6.467
  0
LINE
  8
0
 10
5.482
 11
4.921
 20
-6.467
 21
-6.826
  0
LINE
  8
0
 10
4.921
 11
4.336
 20
-6.826
 21
-7.146
  0
LINE
  8
0
 10
4.336
 11
4.15
 20
-7.146
 21
-7.231
  0
LINE
  8
0
 10
4.15
 11
4.15
 20
-7.231
 21
-5.65
  0
LINE
  8
0
 10
4.15
 11
4.059
 20
-5.65
 21
-4.787
  0
LINE
  8
0
 10
4.059
 11
3.791
 20
-4.787
 21
-3.962
  0
LINE
  8
0
 10
3.791
 11
3.524
 20
-3.962
 21
-3.5
  0
LINE
  8
0
 10
3.524
 11
-3.524
 20
-3.5
 21
-3.5
  0
LINE
  8
0
 10
-3.524
 11
-3.791
 20
-3.5
 21
-3.962
  0
LINE
  8
0
 10
-3.791
 11
-4.059
 20
-3.962
 21
-4.787
  0
LINE
  8
0
 10
-4.059
 11
-4.15
 20
-4.787
 21
-5.65
  0
LINE
  8
0
 10
-4.15
 11
-4.15
 20
-5.65
 21
-7.233
  0
LINE
  8
0
 10
-4.15
 11
-4.631
 20
-7.233
 21
-6.991
  0
LINE
  8
0
 10
-4.631
 11
-5.204
 20
-6.991
 21
-6.651
  0
LINE
  8
0
 10
-5.204
 11
-5.753
 20
-6.651
 21
-6.273
  0
LINE
  8
0
 10
-5.753
 11
-6.274
 20
-6.273
 21
-5.858
  0
LINE
  8
0
 10
-6.274
 11
-6.764
 20
-5.858
 21
-5.407
  0
LINE
  8
0
 10
-6.764
 11
-7.223
 20
-5.407
 21
-4.924
  0
LINE
  8
0
 10
-7.223
 11
-7.647
 20
-4.924
 21
-4.411
  0
LINE
  8
0
 10
-7.647
 11
-8.035
 20
-4.411
 21
-3.869
  0
LINE
  8
0
 10
-8.035
 11
-8.385
 20
-3.869
 21
-3.302
  0
LINE
  8
0
 10
-8.385
 11
-8.694
 20
-3.302
 21
-2.712
  0
LINE
  8
0
 10
-8.694
 11
-8.962
 20
-2.712
 21
-2.102
  0
LINE
  8
0
 10
-8.962
 11
-9.188
 20
-2.102
 21
-1.475
  0
LINE
  8
0
 10
-9.188
 11
-9.37
 20
-1.475
 21
-0.834
  0
LINE
  8
0
 10
-9.37
 11
-9.507
 20
-0.834
 21
-0.182
  0
LINE
  8
0
 10
-9.507
 11
-9.598
 20
-0.182
 21
0.477
  0
LINE
  8
0
 10
-9.598
 11
-9.644
 20
0.477
 21
1.142
  0
LINE
  8
0
 10
-2.15
 11
-2.103
 20
-5.65
 21
-5.203
  0
LINE
  8
0
 10
-2.103
 11
-1.964
 20
-5.203
 21
-4.776
  0
LINE
  8
0
 10
-1.964
 11
-1.739
 20
-4.776
 21
-4.386
  0
LINE
  8
0
 10
-1.739
 11
-1.439
 20
-4.386
 21
-4.052
  0
LINE
  8
0
 10
-1.439
 11
-1.075
 20
-4.052
 21
-3.788
  0
LINE
  8
0
 10
-1.075
 11
-0.664
 20
-3.788
 21
-3.605
  0
LINE
  8
0
 10
-0.664
 11
-0.225
 20
-3.605
 21
-3.512
  0
LINE
  8
0
 10
-0.225
 11
0.225
 20
-3.512
 21
-3.512
  0
LINE
  8
0
 10
0.225
 11
0.664
 20
-3.512
 21
-3.605
  0
LINE
  8
0
 10
0.664
 11
1.075
 20
-3.605
 21
-3.788
  0
LINE
  8
0
 10
1.075
 11
1.439
 20
-3.788
 21
-4.052
  0
LINE
  8
0
 10
1.439
 11
1.739
 20
-4.052
 21
-4.386
  0
LINE
  8
0
 10
1.739
 11
1.964
 20
-4.386
 21
-4.776
  0
LINE
  8
0
 10
1.964
 11
2.103
 20
-4.776
 21
-5.203
  0
LINE
  8
0
 10
2.103
 11
2.15
 20
-5.203
 21
-5.65
  0
LINE
  8
0
 10
2.15
 11
2.103
 20
-5.65
 21
-6.097
  0
LINE
  8
0
 10
2.103
 11
1.964
 20
-6.097
 21
-6.524
  0
LINE
  8
0
 10
1.964
 11
1.739
 20
-6.524
 21
-6.914
  0
LINE
  8
0
 10
1.739
 11
1.439
 20
-6.914
 21
-7.248
  0
LINE
  8
0
 10
1.439
 11
1.075
 20
-7.248
 21
-7.512
  0
LINE
  8
0
 10
1.075
 11
0.664
 20
-7.512
 21
-7.695
  0
LINE
  8
0
 10
0.664
 11
0.225
 20
-7.695
 21
-7.788
  0
LINE
  8
0
 10
0.225
 11
-0.225
 20
-7.788
 21
-7.788
  0
LINE
  8
0
 10
-0.225
 11
-0.664
 20
-7.788
 21
-7.695
  0
LINE
  8
0
 10
-0.664
 11
-1.075
 20
-7.695
 21
-7.512
  0
LINE
  8
0
 10
-1.075
 11
-1.439
 20
-7.512
 21
-7.248
  0
LINE
  8
0
 10
-1.439
 11
-1.739
 20
-7.248
 21
-6.914
  0
LINE
  8
0
 10
-1.739
 11
-1.964
 20
-6.914
 21
-6.524
  0
LINE
  8
0
 10
-1.964
 11
-2.103
 20
-6.524
 21
-6.097
  0
LINE
  8
0
 10
-2.103
 11
-2.15
 20
-6.097
 21
-5.65
  0
LINE
  8
0
 10
-2.15
 11
-2.103
 20
5.65
 21
6.097
  0
LINE
  8
0
 10
-2.103
 11
-1.964
 20
6.097
 21
6.524
  0
LINE
  8
0
 10
-1.964
 11
-1.739
 20
6.524
 21
6.914
  0
LINE
  8
0
 10
-1.739
 11
-1.439
 20
6.914
 21
7.248
  0
LINE
  8
0
 10
-1.439
 11
-1.075
 20
7.248
 21
7.512
  0
LINE
  8
0
 10
-1.075
 11
-0.664
 20
7.512
 21
7.695
  0
LINE
  8
0
 10
-0.664
 11
-0.225
 20
7.695
 21
7.788
  0
LINE
  8
0
 10
-0.225
 11
0.225
 20
7.788
 21
7.788
  0
LINE
  8
0
 10
0.225
 11
0.664
 20
7.788
 21
7.695
  0
LINE
  8
0
 10
0.664
 11
1.075
 20
7.695
 21
7.512
  0
LINE
  8
0
 10
1.075
 11
1.439
 20
7.512
 21
7.248
  0
LINE
  8
0
 10
1.439
 11
1.739
 20
7.248
 21
6.914
  0
LINE
  8
0
 10
1.739
 11
1.964
 20
6.914
 21
6.524
  0
LINE
  8
0
 10
1.964
 11
2.103
 20
6.524
 21
6.097
  0
LINE
  8
0
 10
2.103
 11
2.15
 20
6.097
 21
5.65
  0
LINE
  8
0
 10
2.15
 11
2.103
 20
5.65
 21
5.203
  0
LINE
  8
0
 10
2.103
 11
1.964
 20
5.203
 21
4.776
  0
LINE
  8
0
 10
1.964
 11
1.739
 20
4.776
 21
4.386
  0
LINE
  8
0
 10
1.739
 11
1.439
 20
4.386
 21
4.052
  0
LINE
  8
0
 10
1.439
 11
1.075
 20
4.052
 21
3.788
  0
LINE
  8
0
 10
1.075
 11
0.664
 20
3.788
 21
3.605
  0
LINE
  8
0
 10
0.664
 11
0.225
 20
3.605
 21
3.512
  0
LINE
  8
0
 10
0.225
 11
-0.225
 20
3.512
 21
3.512
  0
LINE
  8
0
 10
-0.225
 11
-0.664
 20
3.512
 21
3.605
  0
LINE
  8
0
 10
-0.664
 11
-1.075
 20
3.605
 21
3.788
  0
LINE
  8
0
 10
-1.075
 11
-1.439
 20
3.788
 21
4.052
  0
LINE
  8
0
 10
-1.439
 11
-1.739
 20
4.052
 21
4.386
  0
LINE
  8
0
 10
-1.739
 11
-1.964
 20
4.386
 21
4.776
  0
LINE
  8
0
 10
-1.964
 11
-2.103
 20
4.776
 21
5.203
  0
LINE
  8
0
 10
-2.103
 11
-2.15
 20
5.203
 21
5.65
  0
LINE
  8
0
 10
-0.9
 11
-0.88
 20
-9
 21
-8.813
  0
LINE
  8
0
 10
-0.88
 11
-0.822
 20
-8.813
 21
-8.634
  0
LINE
  8
0
 10
-0.822
 11
-0.728
 20
-8.634
 21
-8.471
  0
LINE
  8
0
 10
-0.728
 11
-0.602
 20
-8.471
 21
-8.331
  0
LINE
  8
0
 10
-0.602
 11
-0.45
 20
-8.331
 21
-8.221
  0
LINE
  8
0
 10
-0.45
 11
-0.278
 20
-8.221
 21
-8.144
  0
LINE
  8
0
 10
-0.278
 11
-0.094
 20
-8.144
 21
-8.105
  0
LINE
  8
0
 10
-0.094
 11
0.094
 20
-8.105
 21
-8.105
  0
LINE
  8
0
 10
0.094
 11
0.278
 20
-8.105
 21
-8.144
  0
LINE
  8
0
 10
0.278
 11
0.45
 20
-8.144
 21
-8.221
  0
LINE
  8
0
 10
0.45
 11
0.602
 20
-8.221
 21
-8.331
  0
LINE
  8
0
 10
0.602
 11
0.728
 20
-8.331
 21
-8.471
  0
LINE
  8
0
 10
0.728
 11
0.822
 20
-8.471
 21
-8.634
  0
LINE
  8
0
 10
0.822
 11
0.88
 20
-8.634
 21
-8.813
  0
LINE
  8
0
 10
0.88
 11
0.9
 20
-8.813
 21
-9
  0
LINE
  8
0
 10
0.9
 11
0.88
 20
-9
 21
-9.187
  0
LINE
  8
0
 10
0.88
 11
0.822
 20
-9.187
 21
-9.366
  0
LINE
  8
0
 10
0.822
 11
0.728
 20
-9.366
 21
-9.529
  0
LINE
  8
0
 10
0.728
 11
0.602
 20
-9.529
 21
-9.669
  0
LINE
  8
0
 10
0.602
 11
0.45
 20
-9.669
 21
-9.779
  0
LINE
  8
0
 10
0.45
 11
0.278
 20
-9.779
 21
-9.856
  0
LINE
  8
0
 10
0.278
 11
0.094
 20
-9.856
 21
-9.895
  0
LINE
  8
0
 10
0.094
 11
-0.094
 20
-9.895
 21
-9.895
  0
LINE
  8
0
 10
-0.094
 11
-0.278
 20
-9.895
 21
-9.856
  0
LINE
  8
0
 10
-0.278
 11
-0.45
 20
-9.856
 21
-9.779
  0
LINE
  8
0
 10
-0.45
 11
-0.602
 20
-9.779
 21
-9.669
  0
LINE
  8
0
 10
-0.602
 11
-0.728
 20
-9.669
 21
-9.529
  0
LINE
  8
0
 10
-0.728
 11
-0.822
 20
-9.529
 21
-9.366
  0
LINE
  8
0
 10
-0.822
 11
-0.88
 20
-9.366
 21
-9.187
  0
LINE
  8
0
 10
-0.88
 11
-0.9
 20
-9.187
 21
-9
  0
LINE
  8
0
 10
-0.9
 11
-0.88
 20
9
 21
9.187
  0
LINE
  8
0
 10
-0.88
 11
-0.822
 20
9.187
 21
9.366
  0
LINE
  8
0
 10
-0.822
 11
-0.728
 20
9.366
 21
9.529
  0
LINE
  8
0
 10
-0.728
 11
-0.602
 20
9.529
 21
9.669
  0
LINE
  8
0
 10
-0.602
 11
-0.45
 20
9.669
 21
9.779
  0
LINE
  8
0
 10
-0.45
 11
-0.278
 20
9.779
 21
9.856
  0
LINE
  8
0
 10
-0.278
 11
-0.094
 20
9.856
 21
9.895
  0
LINE
  8
0
 10
-0.094
 11
0.094
 20
9.895
 21
9.895
  0
LINE
  8
0
 10
0.094
 11
0.278
 20
9.895
 21
9.856
  0
LINE
  8
0
 10
0.278
 11
0.45
 20
9.856
 21
9.779
  0
LINE
  8
0
 10
0.45
 11
0.602
 20
9.779
 21
9.669
  0
LINE
  8
0
 10
0.602
 11
0.728
 20
9.669
 21
9.529
  0
LINE
  8
0
 10
0.728
 11
0.822
 20
9.529
 21
9.366
  0
LINE
  8
0
 10
0.822
 11
0.88
 20
9.366
 21
9.187
  0
LINE
  8
0
 10
0.88
 11
0.9
 20
9.187
 21
9
  0
LINE
  8
0
 10
0.9
 11
0.88
 20
9
 21
8.813
  0
LINE
  8
0
 10
0.88
 11
0.822
 20
8.813
 21
8.634
  0
LINE
  8
0
 10
0.822
 11
0.728
 20
8.634
 21
8.471
  0
LINE
  8
0
 10
0.728
 11
0.602
 20
8.471
 21
8.331
  0
LINE
  8
0
 10
0.602
 11
0.45
 20
8.331
 21
8.221
  0
LINE
  8
0
 10
0.45
 11
0.278
 20
8.221
 21
8.144
  0
LINE
  8
0
 10
0.278
 11
0.094
 20
8.144
 21
8.105
  0
LINE
  8
0
 10
0.094
 11
-0.094
 20
8.105
 21
8.105
  0
LINE
  8
0
 10
-0.094
 11
-0.278
 20
8.105
 21
8.144
  0
LINE
  8
0
 10
-0.278
 11
-0.45
 20
8.144
 21
8.221
  0
LINE
  8
0
 10
-0.45
 11
-0.602
 20
8.221
 21
8.331
  0
LINE
  8
0
 10
-0.602
 11
-0.728
 20
8.331
 21
8.471
  0
LINE
  8
0
 10
-0.728
 11
-0.822
 20
8.471
 21
8.634
  0
LINE
  8
0
 10
-0.822
 11
-0.88
 20
8.634
 21
8.813
  0
LINE
  8
0
 10
-0.88
 11
-0.9
 20
8.813
 21
9
  0
ENDSEC
  0
SECTION
  2
OBJECTS
  0
DICTIONARY
  0
ENDSEC
  0
EOF
