  0
SECTION
  2
BLOCKS
  0
ENDSEC
  0
SECTION
  2
ENTITIES
  0
LINE
  8
0
 10
0
 20
-2.89999
 11
0.00999451
 21
-2.89999
  0
LINE
  8
0
 10
0.00999451
 20
-2.89999
 11
0.00999451
 21
-4.8992
  0
LINE
  8
0
 10
0.00999451
 20
-4.8992
 11
0.766525
 21
-4.83966
  0
LINE
  8
0
 10
0.766525
 20
-4.83966
 11
1.51418
 21
-4.66017
  0
LINE
  8
0
 10
1.51418
 20
-4.66017
 11
2.22455
 21
-4.36592
  0
LINE
  8
0
 10
2.22455
 20
-4.36592
 11
2.88014
 21
-3.96417
  0
LINE
  8
0
 10
2.88014
 20
-3.96417
 11
3.46481
 21
-3.46481
  0
LINE
  8
0
 10
3.46481
 20
-3.46481
 11
3.96417
 21
-2.88014
  0
LINE
  8
0
 10
3.96417
 20
-2.88014
 11
4.36592
 21
-2.22455
  0
LINE
  8
0
 10
4.36592
 20
-2.22455
 11
4.66017
 21
-1.51418
  0
LINE
  8
0
 10
4.66017
 20
-1.51418
 11
4.83966
 21
-0.766525
  0
LINE
  8
0
 10
4.83966
 20
-0.766525
 11
4.89999
 21
0
  0
LINE
  8
0
 10
4.89999
 20
0
 11
4.83966
 21
0.766525
  0
LINE
  8
0
 10
4.83966
 20
0.766525
 11
4.66017
 21
1.51418
  0
LINE
  8
0
 10
4.66017
 20
1.51418
 11
4.36592
 21
2.22455
  0
LINE
  8
0
 10
4.36592
 20
2.22455
 11
3.96417
 21
2.88014
  0
LINE
  8
0
 10
3.96417
 20
2.88014
 11
3.46481
 21
3.46481
  0
LINE
  8
0
 10
3.46481
 20
3.46481
 11
2.88014
 21
3.96417
  0
LINE
  8
0
 10
2.88014
 20
3.96417
 11
2.22455
 21
4.36592
  0
LINE
  8
0
 10
2.22455
 20
4.36592
 11
1.51418
 21
4.66017
  0
LINE
  8
0
 10
1.51418
 20
4.66017
 11
1.5
 21
4.66357
  0
LINE
  8
0
 10
1.5
 20
4.66357
 11
1.5
 21
17.9
  0
LINE
  8
0
 10
1.5
 20
17.9
 11
-1.5
 21
17.9
  0
LINE
  8
0
 10
-1.5
 20
17.9
 11
-1.5
 21
4.66357
  0
LINE
  8
0
 10
-1.5
 20
4.66357
 11
-1.51418
 21
4.66017
  0
LINE
  8
0
 10
-1.51418
 20
4.66017
 11
-2.22455
 21
4.36592
  0
LINE
  8
0
 10
-2.22455
 20
4.36592
 11
-2.88014
 21
3.96417
  0
LINE
  8
0
 10
-2.88014
 20
3.96417
 11
-3.46481
 21
3.46481
  0
LINE
  8
0
 10
-3.46481
 20
3.46481
 11
-3.96417
 21
2.88014
  0
LINE
  8
0
 10
-3.96417
 20
2.88014
 11
-4.36592
 21
2.22455
  0
LINE
  8
0
 10
-4.36592
 20
2.22455
 11
-4.66017
 21
1.51418
  0
LINE
  8
0
 10
-4.66017
 20
1.51418
 11
-4.83966
 21
0.766525
  0
LINE
  8
0
 10
-4.83966
 20
0.766525
 11
-4.89999
 21
0
  0
LINE
  8
0
 10
-4.89999
 20
0
 11
-4.83966
 21
-0.766525
  0
LINE
  8
0
 10
-4.83966
 20
-0.766525
 11
-4.66017
 21
-1.51418
  0
LINE
  8
0
 10
-4.66017
 20
-1.51418
 11
-4.36592
 21
-2.22455
  0
LINE
  8
0
 10
-4.36592
 20
-2.22455
 11
-3.96417
 21
-2.88014
  0
LINE
  8
0
 10
-3.96417
 20
-2.88014
 11
-3.46481
 21
-3.46481
  0
LINE
  8
0
 10
-3.46481
 20
-3.46481
 11
-2.88014
 21
-3.96417
  0
LINE
  8
0
 10
-2.88014
 20
-3.96417
 11
-2.22455
 21
-4.36592
  0
LINE
  8
0
 10
-2.22455
 20
-4.36592
 11
-1.51418
 21
-4.66017
  0
LINE
  8
0
 10
-1.51418
 20
-4.66017
 11
-0.766525
 21
-4.83966
  0
LINE
  8
0
 10
-0.766525
 20
-4.83966
 11
0
 21
-4.89999
  0
LINE
  8
0
 10
0
 20
-4.89999
 11
0
 21
-2.89999
  0
LINE
  8
0
 10
-0.453659
 20
-2.86429
 11
-0.896149
 21
-2.75806
  0
LINE
  8
0
 10
-0.896149
 20
-2.75806
 11
-1.31656
 21
-2.58391
  0
LINE
  8
0
 10
-1.31656
 20
-2.58391
 11
-1.70457
 21
-2.34615
  0
LINE
  8
0
 10
-1.70457
 20
-2.34615
 11
-2.0506
 21
-2.0506
  0
LINE
  8
0
 10
-2.0506
 20
-2.0506
 11
-2.34615
 21
-1.70457
  0
LINE
  8
0
 10
-2.34615
 20
-1.70457
 11
-2.58391
 21
-1.31656
  0
LINE
  8
0
 10
-2.58391
 20
-1.31656
 11
-2.75806
 21
-0.896149
  0
LINE
  8
0
 10
-2.75806
 20
-0.896149
 11
-2.86429
 21
-0.453659
  0
LINE
  8
0
 10
-2.86429
 20
-0.453659
 11
-2.89999
 21
0
  0
LINE
  8
0
 10
-2.89999
 20
0
 11
-2.86429
 21
0.453659
  0
LINE
  8
0
 10
-2.86429
 20
0.453659
 11
-2.75806
 21
0.896149
  0
LINE
  8
0
 10
-2.75806
 20
0.896149
 11
-2.58391
 21
1.31656
  0
LINE
  8
0
 10
-2.58391
 20
1.31656
 11
-2.34615
 21
1.70457
  0
LINE
  8
0
 10
-2.34615
 20
1.70457
 11
-2.0506
 21
2.0506
  0
LINE
  8
0
 10
-2.0506
 20
2.0506
 11
-1.70457
 21
2.34615
  0
LINE
  8
0
 10
-1.70457
 20
2.34615
 11
-1.31656
 21
2.58391
  0
LINE
  8
0
 10
-1.31656
 20
2.58391
 11
-0.896149
 21
2.75806
  0
LINE
  8
0
 10
-0.896149
 20
2.75806
 11
-0.453659
 21
2.86429
  0
LINE
  8
0
 10
-0.453659
 20
2.86429
 11
0
 21
2.89999
  0
LINE
  8
0
 10
0
 20
2.89999
 11
0.453659
 21
2.86429
  0
LINE
  8
0
 10
0.453659
 20
2.86429
 11
0.896149
 21
2.75806
  0
LINE
  8
0
 10
0.896149
 20
2.75806
 11
1.31656
 21
2.58391
  0
LINE
  8
0
 10
1.31656
 20
2.58391
 11
1.70457
 21
2.34615
  0
LINE
  8
0
 10
1.70457
 20
2.34615
 11
2.0506
 21
2.0506
  0
LINE
  8
0
 10
2.0506
 20
2.0506
 11
2.34615
 21
1.70457
  0
LINE
  8
0
 10
2.34615
 20
1.70457
 11
2.58391
 21
1.31656
  0
LINE
  8
0
 10
2.58391
 20
1.31656
 11
2.75806
 21
0.896149
  0
LINE
  8
0
 10
2.75806
 20
0.896149
 11
2.86429
 21
0.453659
  0
LINE
  8
0
 10
2.86429
 20
0.453659
 11
2.89999
 21
0
  0
LINE
  8
0
 10
2.89999
 20
0
 11
2.86429
 21
-0.453659
  0
LINE
  8
0
 10
2.86429
 20
-0.453659
 11
2.75806
 21
-0.896149
  0
LINE
  8
0
 10
2.75806
 20
-0.896149
 11
2.58391
 21
-1.31656
  0
LINE
  8
0
 10
2.58391
 20
-1.31656
 11
2.34615
 21
-1.70457
  0
LINE
  8
0
 10
2.34615
 20
-1.70457
 11
2.0506
 21
-2.0506
  0
LINE
  8
0
 10
2.0506
 20
-2.0506
 11
1.70457
 21
-2.34615
  0
LINE
  8
0
 10
1.70457
 20
-2.34615
 11
1.31656
 21
-2.58391
  0
LINE
  8
0
 10
1.31656
 20
-2.58391
 11
0.896149
 21
-2.75806
  0
LINE
  8
0
 10
0.896149
 20
-2.75806
 11
0.453659
 21
-2.86429
  0
LINE
  8
0
 10
0.453659
 20
-2.86429
 11
0
 21
-2.89999
  0
LINE
  8
0
 10
0
 20
-2.89999
 11
-0.453659
 21
-2.86429
  0
ENDSEC
  0
SECTION
  2
OBJECTS
  0
DICTIONARY
  0
ENDSEC
  0
EOF
