  0
SECTION
  2
BLOCKS
  0
ENDSEC
  0
SECTION
  2
ENTITIES
  0
LINE
  8
0
 10
11.25
 20
1.17499
 11
11.2395
 21
1.17499
  0
LINE
  8
0
 10
11.2395
 20
1.17499
 11
11.25
 21
1.47499
  0
LINE
  8
0
 10
11.25
 20
1.47499
 11
11.2226
 21
2.25975
  0
LINE
  8
0
 10
11.2226
 20
2.25975
 11
11.1405
 21
3.04068
  0
LINE
  8
0
 10
11.1405
 20
3.04068
 11
11.0042
 21
3.814
  0
LINE
  8
0
 10
11.0042
 20
3.814
 11
10.8142
 21
4.5759
  0
LINE
  8
0
 10
10.8142
 20
4.5759
 11
10.5715
 21
5.32271
  0
LINE
  8
0
 10
10.5715
 20
5.32271
 11
10.2774
 21
6.05077
  0
LINE
  8
0
 10
10.2774
 20
6.05077
 11
9.93315
 21
6.75653
  0
LINE
  8
0
 10
9.93315
 20
6.75653
 11
9.54053
 21
7.43657
  0
LINE
  8
0
 10
9.54053
 20
7.43657
 11
9.10144
 21
8.08757
  0
LINE
  8
0
 10
9.10144
 20
8.08757
 11
8.618
 21
8.70634
  0
LINE
  8
0
 10
8.618
 20
8.70634
 11
8.09256
 21
9.28989
  0
LINE
  8
0
 10
8.09256
 20
9.28989
 11
7.52771
 21
9.83536
  0
LINE
  8
0
 10
7.52771
 20
9.83536
 11
6.92618
 21
10.3401
  0
LINE
  8
0
 10
6.92618
 20
10.3401
 11
6.29091
 21
10.8017
  0
LINE
  8
0
 10
6.29091
 20
10.8017
 11
5.625
 21
11.2178
  0
LINE
  8
0
 10
5.625
 20
11.2178
 11
4.93167
 21
11.5864
  0
LINE
  8
0
 10
4.93167
 20
11.5864
 11
4.21431
 21
11.9058
  0
LINE
  8
0
 10
4.21431
 20
11.9058
 11
3.47644
 21
12.1744
  0
LINE
  8
0
 10
3.47644
 20
12.1744
 11
2.72162
 21
12.3908
  0
LINE
  8
0
 10
2.72162
 20
12.3908
 11
1.95354
 21
12.5541
  0
LINE
  8
0
 10
1.95354
 20
12.5541
 11
1.17593
 21
12.6634
  0
LINE
  8
0
 10
1.17593
 20
12.6634
 11
0.392609
 21
12.7181
  0
LINE
  8
0
 10
0.392609
 20
12.7181
 11
-0.392609
 21
12.7181
  0
LINE
  8
0
 10
-0.392609
 20
12.7181
 11
-1.17593
 21
12.6634
  0
LINE
  8
0
 10
-1.17593
 20
12.6634
 11
-1.95354
 21
12.5541
  0
LINE
  8
0
 10
-1.95354
 20
12.5541
 11
-2.72162
 21
12.3908
  0
LINE
  8
0
 10
-2.72162
 20
12.3908
 11
-3.47644
 21
12.1744
  0
LINE
  8
0
 10
-3.47644
 20
12.1744
 11
-4.21431
 21
11.9058
  0
LINE
  8
0
 10
-4.21431
 20
11.9058
 11
-4.93167
 21
11.5864
  0
LINE
  8
0
 10
-4.93167
 20
11.5864
 11
-5.62498
 21
11.2178
  0
LINE
  8
0
 10
-5.62498
 20
11.2178
 11
-6.29091
 21
10.8017
  0
LINE
  8
0
 10
-6.29091
 20
10.8017
 11
-6.92618
 21
10.3401
  0
LINE
  8
0
 10
-6.92618
 20
10.3401
 11
-7.52771
 21
9.83536
  0
LINE
  8
0
 10
-7.52771
 20
9.83536
 11
-8.09256
 21
9.28989
  0
LINE
  8
0
 10
-8.09256
 20
9.28989
 11
-8.618
 21
8.70634
  0
LINE
  8
0
 10
-8.618
 20
8.70634
 11
-9.10144
 21
8.08757
  0
LINE
  8
0
 10
-9.10144
 20
8.08757
 11
-9.54053
 21
7.43657
  0
LINE
  8
0
 10
-9.54053
 20
7.43657
 11
-9.93315
 21
6.75653
  0
LINE
  8
0
 10
-9.93315
 20
6.75653
 11
-10.2774
 21
6.05077
  0
LINE
  8
0
 10
-10.2774
 20
6.05077
 11
-10.5715
 21
5.32271
  0
LINE
  8
0
 10
-10.5715
 20
5.32271
 11
-10.8142
 21
4.5759
  0
LINE
  8
0
 10
-10.8142
 20
4.5759
 11
-11.0042
 21
3.814
  0
LINE
  8
0
 10
-11.0042
 20
3.814
 11
-11.1405
 21
3.04068
  0
LINE
  8
0
 10
-11.1405
 20
3.04068
 11
-11.2226
 21
2.25975
  0
LINE
  8
0
 10
-11.2226
 20
2.25975
 11
-11.25
 21
1.47499
  0
LINE
  8
0
 10
-11.25
 20
1.47499
 11
-11.2395
 21
1.17499
  0
LINE
  8
0
 10
-11.2395
 20
1.17499
 11
-11.25
 21
1.17499
  0
LINE
  8
0
 10
-11.25
 20
1.17499
 11
-11.25
 21
-11.075
  0
LINE
  8
0
 10
-11.25
 20
-11.075
 11
11.25
 21
-11.075
  0
LINE
  8
0
 10
11.25
 20
-11.075
 11
11.25
 21
1.17499
  0
LINE
  8
0
 10
4.14999
 20
-5.64999
 11
4.05931
 21
-4.78716
  0
LINE
  8
0
 10
4.05931
 20
-4.78716
 11
3.7912
 21
-3.96204
  0
LINE
  8
0
 10
3.7912
 20
-3.96204
 11
3.52444
 21
-3.5
  0
LINE
  8
0
 10
3.52444
 20
-3.5
 11
-3.52444
 21
-3.5
  0
LINE
  8
0
 10
-3.52444
 20
-3.5
 11
-3.7912
 21
-3.96204
  0
LINE
  8
0
 10
-3.7912
 20
-3.96204
 11
-4.05931
 21
-4.78716
  0
LINE
  8
0
 10
-4.05931
 20
-4.78716
 11
-4.14999
 21
-5.64999
  0
LINE
  8
0
 10
-4.14999
 20
-5.64999
 11
-4.14999
 21
-7.01465
  0
LINE
  8
0
 10
-4.14999
 20
-7.01465
 11
-4.72499
 21
-6.70892
  0
LINE
  8
0
 10
-4.72499
 20
-6.70892
 11
-5.28436
 21
-6.35939
  0
LINE
  8
0
 10
-5.28436
 20
-6.35939
 11
-5.81799
 21
-5.97169
  0
LINE
  8
0
 10
-5.81799
 20
-5.97169
 11
-6.32327
 21
-5.5477
  0
LINE
  8
0
 10
-6.32327
 20
-5.5477
 11
-6.79776
 21
-5.08951
  0
LINE
  8
0
 10
-6.79776
 20
-5.08951
 11
-7.23911
 21
-4.59933
  0
LINE
  8
0
 10
-7.23911
 20
-4.59933
 11
-7.6452
 21
-4.07956
  0
LINE
  8
0
 10
-7.6452
 20
-4.07956
 11
-8.01405
 21
-3.53273
  0
LINE
  8
0
 10
-8.01405
 20
-3.53273
 11
-8.34384
 21
-2.96149
  0
LINE
  8
0
 10
-8.34384
 20
-2.96149
 11
-8.633
 21
-2.36865
  0
LINE
  8
0
 10
-8.633
 20
-2.36865
 11
-8.88008
 21
-1.75708
  0
LINE
  8
0
 10
-8.88008
 20
-1.75708
 11
-9.08391
 21
-1.12976
  0
LINE
  8
0
 10
-9.08391
 20
-1.12976
 11
-9.24348
 21
-0.489746
  0
LINE
  8
0
 10
-9.24348
 20
-0.489746
 11
-9.35803
 21
0.159805
  0
LINE
  8
0
 10
-9.35803
 20
0.159805
 11
-9.42697
 21
0.815796
  0
LINE
  8
0
 10
-9.42697
 20
0.815796
 11
-9.45
 21
1.47499
  0
LINE
  8
0
 10
-9.45
 20
1.47499
 11
-9.42697
 21
2.13419
  0
LINE
  8
0
 10
-9.42697
 20
2.13419
 11
-9.35803
 21
2.79018
  0
LINE
  8
0
 10
-9.35803
 20
2.79018
 11
-9.24348
 21
3.43974
  0
LINE
  8
0
 10
-9.24348
 20
3.43974
 11
-9.08391
 21
4.07976
  0
LINE
  8
0
 10
-9.08391
 20
4.07976
 11
-8.88008
 21
4.70708
  0
LINE
  8
0
 10
-8.88008
 20
4.70708
 11
-8.633
 21
5.31865
  0
LINE
  8
0
 10
-8.633
 20
5.31865
 11
-8.34384
 21
5.91148
  0
LINE
  8
0
 10
-8.34384
 20
5.91148
 11
-8.01405
 21
6.48273
  0
LINE
  8
0
 10
-8.01405
 20
6.48273
 11
-7.6452
 21
7.02956
  0
LINE
  8
0
 10
-7.6452
 20
7.02956
 11
-7.23911
 21
7.54933
  0
LINE
  8
0
 10
-7.23911
 20
7.54933
 11
-6.79776
 21
8.03951
  0
LINE
  8
0
 10
-6.79776
 20
8.03951
 11
-6.32327
 21
8.4977
  0
LINE
  8
0
 10
-6.32327
 20
8.4977
 11
-5.81799
 21
8.92169
  0
LINE
  8
0
 10
-5.81799
 20
8.92169
 11
-5.28436
 21
9.30939
  0
LINE
  8
0
 10
-5.28436
 20
9.30939
 11
-4.72499
 21
9.65892
  0
LINE
  8
0
 10
-4.72499
 20
9.65892
 11
-4.14999
 21
9.96465
  0
LINE
  8
0
 10
-4.14999
 20
9.96465
 11
-4.14999
 21
5.64999
  0
LINE
  8
0
 10
-4.14999
 20
5.64999
 11
-4.05931
 21
4.78716
  0
LINE
  8
0
 10
-4.05931
 20
4.78716
 11
-3.7912
 21
3.96204
  0
LINE
  8
0
 10
-3.7912
 20
3.96204
 11
-3.52444
 21
3.5
  0
LINE
  8
0
 10
-3.52444
 20
3.5
 11
3.52444
 21
3.5
  0
LINE
  8
0
 10
3.52444
 20
3.5
 11
3.7912
 21
3.96204
  0
LINE
  8
0
 10
3.7912
 20
3.96204
 11
4.05931
 21
4.78716
  0
LINE
  8
0
 10
4.05931
 20
4.78716
 11
4.14999
 21
5.64999
  0
LINE
  8
0
 10
4.14999
 20
5.64999
 11
4.14999
 21
9.96465
  0
LINE
  8
0
 10
4.14999
 20
9.96465
 11
4.72499
 21
9.65892
  0
LINE
  8
0
 10
4.72499
 20
9.65892
 11
5.28436
 21
9.30939
  0
LINE
  8
0
 10
5.28436
 20
9.30939
 11
5.81799
 21
8.92169
  0
LINE
  8
0
 10
5.81799
 20
8.92169
 11
6.32327
 21
8.4977
  0
LINE
  8
0
 10
6.32327
 20
8.4977
 11
6.79776
 21
8.03951
  0
LINE
  8
0
 10
6.79776
 20
8.03951
 11
7.23911
 21
7.54933
  0
LINE
  8
0
 10
7.23911
 20
7.54933
 11
7.6452
 21
7.02956
  0
LINE
  8
0
 10
7.6452
 20
7.02956
 11
8.01405
 21
6.48273
  0
LINE
  8
0
 10
8.01405
 20
6.48273
 11
8.34384
 21
5.91148
  0
LINE
  8
0
 10
8.34384
 20
5.91148
 11
8.633
 21
5.31865
  0
LINE
  8
0
 10
8.633
 20
5.31865
 11
8.88008
 21
4.70708
  0
LINE
  8
0
 10
8.88008
 20
4.70708
 11
9.08391
 21
4.07976
  0
LINE
  8
0
 10
9.08391
 20
4.07976
 11
9.24348
 21
3.43974
  0
LINE
  8
0
 10
9.24348
 20
3.43974
 11
9.35803
 21
2.79018
  0
LINE
  8
0
 10
9.35803
 20
2.79018
 11
9.42697
 21
2.13419
  0
LINE
  8
0
 10
9.42697
 20
2.13419
 11
9.45
 21
1.47499
  0
LINE
  8
0
 10
9.45
 20
1.47499
 11
9.42697
 21
0.815796
  0
LINE
  8
0
 10
9.42697
 20
0.815796
 11
9.35803
 21
0.159805
  0
LINE
  8
0
 10
9.35803
 20
0.159805
 11
9.24348
 21
-0.489746
  0
LINE
  8
0
 10
9.24348
 20
-0.489746
 11
9.08391
 21
-1.12976
  0
LINE
  8
0
 10
9.08391
 20
-1.12976
 11
8.88008
 21
-1.75708
  0
LINE
  8
0
 10
8.88008
 20
-1.75708
 11
8.633
 21
-2.36865
  0
LINE
  8
0
 10
8.633
 20
-2.36865
 11
8.34384
 21
-2.96149
  0
LINE
  8
0
 10
8.34384
 20
-2.96149
 11
8.01405
 21
-3.53273
  0
LINE
  8
0
 10
8.01405
 20
-3.53273
 11
7.6452
 21
-4.07956
  0
LINE
  8
0
 10
7.6452
 20
-4.07956
 11
7.23911
 21
-4.59933
  0
LINE
  8
0
 10
7.23911
 20
-4.59933
 11
6.79776
 21
-5.08951
  0
LINE
  8
0
 10
6.79776
 20
-5.08951
 11
6.32327
 21
-5.5477
  0
LINE
  8
0
 10
6.32327
 20
-5.5477
 11
5.81799
 21
-5.97169
  0
LINE
  8
0
 10
5.81799
 20
-5.97169
 11
5.28436
 21
-6.35939
  0
LINE
  8
0
 10
5.28436
 20
-6.35939
 11
4.72499
 21
-6.70892
  0
LINE
  8
0
 10
4.72499
 20
-6.70892
 11
4.14999
 21
-7.01465
  0
LINE
  8
0
 10
4.14999
 20
-7.01465
 11
4.14999
 21
-5.64999
  0
LINE
  8
0
 10
-0.0940704
 20
8.10492
 11
-0.278107
 21
8.14404
  0
LINE
  8
0
 10
-0.278107
 20
8.14404
 11
-0.449997
 21
8.22057
  0
LINE
  8
0
 10
-0.449997
 20
8.22057
 11
-0.602203
 21
8.33116
  0
LINE
  8
0
 10
-0.602203
 20
8.33116
 11
-0.728104
 21
8.47099
  0
LINE
  8
0
 10
-0.728104
 20
8.47099
 11
-0.822189
 21
8.63393
  0
LINE
  8
0
 10
-0.822189
 20
8.63393
 11
-0.880325
 21
8.81287
  0
LINE
  8
0
 10
-0.880325
 20
8.81287
 11
-0.899994
 21
9
  0
LINE
  8
0
 10
-0.899994
 20
9
 11
-0.880325
 21
9.18712
  0
LINE
  8
0
 10
-0.880325
 20
9.18712
 11
-0.822189
 21
9.36606
  0
LINE
  8
0
 10
-0.822189
 20
9.36606
 11
-0.728104
 21
9.52899
  0
LINE
  8
0
 10
-0.728104
 20
9.52899
 11
-0.602203
 21
9.66882
  0
LINE
  8
0
 10
-0.602203
 20
9.66882
 11
-0.449997
 21
9.77942
  0
LINE
  8
0
 10
-0.449997
 20
9.77942
 11
-0.278107
 21
9.85594
  0
LINE
  8
0
 10
-0.278107
 20
9.85594
 11
-0.0940704
 21
9.89507
  0
LINE
  8
0
 10
-0.0940704
 20
9.89507
 11
0.0940704
 21
9.89507
  0
LINE
  8
0
 10
0.0940704
 20
9.89507
 11
0.278107
 21
9.85594
  0
LINE
  8
0
 10
0.278107
 20
9.85594
 11
0.449997
 21
9.77942
  0
LINE
  8
0
 10
0.449997
 20
9.77942
 11
0.602203
 21
9.66882
  0
LINE
  8
0
 10
0.602203
 20
9.66882
 11
0.728104
 21
9.52899
  0
LINE
  8
0
 10
0.728104
 20
9.52899
 11
0.822189
 21
9.36606
  0
LINE
  8
0
 10
0.822189
 20
9.36606
 11
0.880325
 21
9.18712
  0
LINE
  8
0
 10
0.880325
 20
9.18712
 11
0.899994
 21
9
  0
LINE
  8
0
 10
0.899994
 20
9
 11
0.880325
 21
8.81287
  0
LINE
  8
0
 10
0.880325
 20
8.81287
 11
0.822189
 21
8.63393
  0
LINE
  8
0
 10
0.822189
 20
8.63393
 11
0.728104
 21
8.47099
  0
LINE
  8
0
 10
0.728104
 20
8.47099
 11
0.602203
 21
8.33116
  0
LINE
  8
0
 10
0.602203
 20
8.33116
 11
0.449997
 21
8.22057
  0
LINE
  8
0
 10
0.449997
 20
8.22057
 11
0.278107
 21
8.14404
  0
LINE
  8
0
 10
0.278107
 20
8.14404
 11
0.0940704
 21
8.10492
  0
LINE
  8
0
 10
0.0940704
 20
8.10492
 11
-0.0940704
 21
8.10492
  0
LINE
  8
0
 10
-0.224731
 20
3.51176
 11
-0.664383
 21
3.60522
  0
LINE
  8
0
 10
-0.664383
 20
3.60522
 11
-1.075
 21
3.78804
  0
LINE
  8
0
 10
-1.075
 20
3.78804
 11
-1.43863
 21
4.05223
  0
LINE
  8
0
 10
-1.43863
 20
4.05223
 11
-1.73938
 21
4.38626
  0
LINE
  8
0
 10
-1.73938
 20
4.38626
 11
-1.96411
 21
4.77551
  0
LINE
  8
0
 10
-1.96411
 20
4.77551
 11
-2.10301
 21
5.20299
  0
LINE
  8
0
 10
-2.10301
 20
5.20299
 11
-2.14999
 21
5.64999
  0
LINE
  8
0
 10
-2.14999
 20
5.64999
 11
-2.10301
 21
6.097
  0
LINE
  8
0
 10
-2.10301
 20
6.097
 11
-1.96411
 21
6.52448
  0
LINE
  8
0
 10
-1.96411
 20
6.52448
 11
-1.73938
 21
6.91373
  0
LINE
  8
0
 10
-1.73938
 20
6.91373
 11
-1.43863
 21
7.24776
  0
LINE
  8
0
 10
-1.43863
 20
7.24776
 11
-1.075
 21
7.51195
  0
LINE
  8
0
 10
-1.075
 20
7.51195
 11
-0.664383
 21
7.69476
  0
LINE
  8
0
 10
-0.664383
 20
7.69476
 11
-0.224731
 21
7.78821
  0
LINE
  8
0
 10
-0.224731
 20
7.78821
 11
0.224731
 21
7.78821
  0
LINE
  8
0
 10
0.224731
 20
7.78821
 11
0.664383
 21
7.69476
  0
LINE
  8
0
 10
0.664383
 20
7.69476
 11
1.075
 21
7.51195
  0
LINE
  8
0
 10
1.075
 20
7.51195
 11
1.43863
 21
7.24776
  0
LINE
  8
0
 10
1.43863
 20
7.24776
 11
1.73938
 21
6.91373
  0
LINE
  8
0
 10
1.73938
 20
6.91373
 11
1.96411
 21
6.52448
  0
LINE
  8
0
 10
1.96411
 20
6.52448
 11
2.10301
 21
6.097
  0
LINE
  8
0
 10
2.10301
 20
6.097
 11
2.14999
 21
5.64999
  0
LINE
  8
0
 10
2.14999
 20
5.64999
 11
2.10301
 21
5.20299
  0
LINE
  8
0
 10
2.10301
 20
5.20299
 11
1.96411
 21
4.77551
  0
LINE
  8
0
 10
1.96411
 20
4.77551
 11
1.73938
 21
4.38626
  0
LINE
  8
0
 10
1.73938
 20
4.38626
 11
1.43863
 21
4.05223
  0
LINE
  8
0
 10
1.43863
 20
4.05223
 11
1.075
 21
3.78804
  0
LINE
  8
0
 10
1.075
 20
3.78804
 11
0.664383
 21
3.60522
  0
LINE
  8
0
 10
0.664383
 20
3.60522
 11
0.224731
 21
3.51176
  0
LINE
  8
0
 10
0.224731
 20
3.51176
 11
-0.224731
 21
3.51176
  0
LINE
  8
0
 10
-0.224731
 20
-7.78821
 11
-0.664383
 21
-7.69476
  0
LINE
  8
0
 10
-0.664383
 20
-7.69476
 11
-1.075
 21
-7.51195
  0
LINE
  8
0
 10
-1.075
 20
-7.51195
 11
-1.43863
 21
-7.24776
  0
LINE
  8
0
 10
-1.43863
 20
-7.24776
 11
-1.73938
 21
-6.91373
  0
LINE
  8
0
 10
-1.73938
 20
-6.91373
 11
-1.96411
 21
-6.52448
  0
LINE
  8
0
 10
-1.96411
 20
-6.52448
 11
-2.10301
 21
-6.097
  0
LINE
  8
0
 10
-2.10301
 20
-6.097
 11
-2.14999
 21
-5.64999
  0
LINE
  8
0
 10
-2.14999
 20
-5.64999
 11
-2.10301
 21
-5.20299
  0
LINE
  8
0
 10
-2.10301
 20
-5.20299
 11
-1.96411
 21
-4.77551
  0
LINE
  8
0
 10
-1.96411
 20
-4.77551
 11
-1.73938
 21
-4.38626
  0
LINE
  8
0
 10
-1.73938
 20
-4.38626
 11
-1.43863
 21
-4.05223
  0
LINE
  8
0
 10
-1.43863
 20
-4.05223
 11
-1.075
 21
-3.78804
  0
LINE
  8
0
 10
-1.075
 20
-3.78804
 11
-0.664383
 21
-3.60522
  0
LINE
  8
0
 10
-0.664383
 20
-3.60522
 11
-0.224731
 21
-3.51176
  0
LINE
  8
0
 10
-0.224731
 20
-3.51176
 11
0.224731
 21
-3.51176
  0
LINE
  8
0
 10
0.224731
 20
-3.51176
 11
0.664383
 21
-3.60522
  0
LINE
  8
0
 10
0.664383
 20
-3.60522
 11
1.075
 21
-3.78804
  0
LINE
  8
0
 10
1.075
 20
-3.78804
 11
1.43863
 21
-4.05223
  0
LINE
  8
0
 10
1.43863
 20
-4.05223
 11
1.73938
 21
-4.38626
  0
LINE
  8
0
 10
1.73938
 20
-4.38626
 11
1.96411
 21
-4.77551
  0
LINE
  8
0
 10
1.96411
 20
-4.77551
 11
2.10301
 21
-5.20299
  0
LINE
  8
0
 10
2.10301
 20
-5.20299
 11
2.14999
 21
-5.64999
  0
LINE
  8
0
 10
2.14999
 20
-5.64999
 11
2.10301
 21
-6.097
  0
LINE
  8
0
 10
2.10301
 20
-6.097
 11
1.96411
 21
-6.52448
  0
LINE
  8
0
 10
1.96411
 20
-6.52448
 11
1.73938
 21
-6.91373
  0
LINE
  8
0
 10
1.73938
 20
-6.91373
 11
1.43863
 21
-7.24776
  0
LINE
  8
0
 10
1.43863
 20
-7.24776
 11
1.075
 21
-7.51195
  0
LINE
  8
0
 10
1.075
 20
-7.51195
 11
0.664383
 21
-7.69476
  0
LINE
  8
0
 10
0.664383
 20
-7.69476
 11
0.224731
 21
-7.78821
  0
LINE
  8
0
 10
0.224731
 20
-7.78821
 11
-0.224731
 21
-7.78821
  0
LINE
  8
0
 10
-0.0940704
 20
-9.89507
 11
-0.278107
 21
-9.85594
  0
LINE
  8
0
 10
-0.278107
 20
-9.85594
 11
-0.449997
 21
-9.77942
  0
LINE
  8
0
 10
-0.449997
 20
-9.77942
 11
-0.602203
 21
-9.66882
  0
LINE
  8
0
 10
-0.602203
 20
-9.66882
 11
-0.728104
 21
-9.52899
  0
LINE
  8
0
 10
-0.728104
 20
-9.52899
 11
-0.822189
 21
-9.36606
  0
LINE
  8
0
 10
-0.822189
 20
-9.36606
 11
-0.880325
 21
-9.18712
  0
LINE
  8
0
 10
-0.880325
 20
-9.18712
 11
-0.899994
 21
-9
  0
LINE
  8
0
 10
-0.899994
 20
-9
 11
-0.880325
 21
-8.81287
  0
LINE
  8
0
 10
-0.880325
 20
-8.81287
 11
-0.822189
 21
-8.63393
  0
LINE
  8
0
 10
-0.822189
 20
-8.63393
 11
-0.728104
 21
-8.47099
  0
LINE
  8
0
 10
-0.728104
 20
-8.47099
 11
-0.602203
 21
-8.33116
  0
LINE
  8
0
 10
-0.602203
 20
-8.33116
 11
-0.449997
 21
-8.22057
  0
LINE
  8
0
 10
-0.449997
 20
-8.22057
 11
-0.278107
 21
-8.14404
  0
LINE
  8
0
 10
-0.278107
 20
-8.14404
 11
-0.0940704
 21
-8.10492
  0
LINE
  8
0
 10
-0.0940704
 20
-8.10492
 11
0.0940704
 21
-8.10492
  0
LINE
  8
0
 10
0.0940704
 20
-8.10492
 11
0.278107
 21
-8.14404
  0
LINE
  8
0
 10
0.278107
 20
-8.14404
 11
0.449997
 21
-8.22057
  0
LINE
  8
0
 10
0.449997
 20
-8.22057
 11
0.602203
 21
-8.33116
  0
LINE
  8
0
 10
0.602203
 20
-8.33116
 11
0.728104
 21
-8.47099
  0
LINE
  8
0
 10
0.728104
 20
-8.47099
 11
0.822189
 21
-8.63393
  0
LINE
  8
0
 10
0.822189
 20
-8.63393
 11
0.880325
 21
-8.81287
  0
LINE
  8
0
 10
0.880325
 20
-8.81287
 11
0.899994
 21
-9
  0
LINE
  8
0
 10
0.899994
 20
-9
 11
0.880325
 21
-9.18712
  0
LINE
  8
0
 10
0.880325
 20
-9.18712
 11
0.822189
 21
-9.36606
  0
LINE
  8
0
 10
0.822189
 20
-9.36606
 11
0.728104
 21
-9.52899
  0
LINE
  8
0
 10
0.728104
 20
-9.52899
 11
0.602203
 21
-9.66882
  0
LINE
  8
0
 10
0.602203
 20
-9.66882
 11
0.449997
 21
-9.77942
  0
LINE
  8
0
 10
0.449997
 20
-9.77942
 11
0.278107
 21
-9.85594
  0
LINE
  8
0
 10
0.278107
 20
-9.85594
 11
0.0940704
 21
-9.89507
  0
LINE
  8
0
 10
0.0940704
 20
-9.89507
 11
-0.0940704
 21
-9.89507
  0
ENDSEC
  0
SECTION
  2
OBJECTS
  0
DICTIONARY
  0
ENDSEC
  0
EOF
