  0
SECTION
  2
BLOCKS
  0
ENDSEC
  0
SECTION
  2
ENTITIES
  0
LINE
  8
0
 10
188.46
 20
172.73
 11
0
 21
172.73
  0
LINE
  8
0
 10
0
 20
172.73
 11
0
 21
86.37
  0
LINE
  8
0
 10
0
 20
86.37
 11
188.46
 21
86.37
  0
LINE
  8
0
 10
188.46
 20
86.37
 11
188.46
 21
172.73
  0
LINE
  8
0
 10
15
 20
131.73
 11
15
 21
162.73
  0
LINE
  8
0
 10
15
 20
162.73
 11
173.46
 21
162.73
  0
LINE
  8
0
 10
173.46
 20
162.73
 11
173.46
 21
131.73
  0
LINE
  8
0
 10
173.46
 20
131.73
 11
15
 21
131.73
  0
LINE
  8
0
 10
165.683
 20
129.107
 11
165.592
 21
129.127
  0
LINE
  8
0
 10
165.592
 20
129.127
 11
165.507
 21
129.165
  0
LINE
  8
0
 10
165.507
 20
129.165
 11
165.432
 21
129.219
  0
LINE
  8
0
 10
165.432
 20
129.219
 11
165.37
 21
129.288
  0
LINE
  8
0
 10
165.37
 20
129.288
 11
165.323
 21
129.369
  0
LINE
  8
0
 10
165.323
 20
129.369
 11
165.295
 21
129.457
  0
LINE
  8
0
 10
165.295
 20
129.457
 11
165.285
 21
129.55
  0
LINE
  8
0
 10
165.285
 20
129.55
 11
165.295
 21
129.643
  0
LINE
  8
0
 10
165.295
 20
129.643
 11
165.323
 21
129.731
  0
LINE
  8
0
 10
165.323
 20
129.731
 11
165.37
 21
129.812
  0
LINE
  8
0
 10
165.37
 20
129.812
 11
165.432
 21
129.881
  0
LINE
  8
0
 10
165.432
 20
129.881
 11
165.507
 21
129.935
  0
LINE
  8
0
 10
165.507
 20
129.935
 11
165.592
 21
129.973
  0
LINE
  8
0
 10
165.592
 20
129.973
 11
165.683
 21
129.993
  0
LINE
  8
0
 10
165.683
 20
129.993
 11
165.777
 21
129.993
  0
LINE
  8
0
 10
165.777
 20
129.993
 11
165.868
 21
129.973
  0
LINE
  8
0
 10
165.868
 20
129.973
 11
165.952
 21
129.935
  0
LINE
  8
0
 10
165.952
 20
129.935
 11
166.028
 21
129.881
  0
LINE
  8
0
 10
166.028
 20
129.881
 11
166.09
 21
129.812
  0
LINE
  8
0
 10
166.09
 20
129.812
 11
166.137
 21
129.731
  0
LINE
  8
0
 10
166.137
 20
129.731
 11
166.165
 21
129.643
  0
LINE
  8
0
 10
166.165
 20
129.643
 11
166.175
 21
129.55
  0
LINE
  8
0
 10
166.175
 20
129.55
 11
166.165
 21
129.457
  0
LINE
  8
0
 10
166.165
 20
129.457
 11
166.137
 21
129.369
  0
LINE
  8
0
 10
166.137
 20
129.369
 11
166.09
 21
129.288
  0
LINE
  8
0
 10
166.09
 20
129.288
 11
166.028
 21
129.219
  0
LINE
  8
0
 10
166.028
 20
129.219
 11
165.952
 21
129.165
  0
LINE
  8
0
 10
165.952
 20
129.165
 11
165.868
 21
129.127
  0
LINE
  8
0
 10
165.868
 20
129.127
 11
165.777
 21
129.107
  0
LINE
  8
0
 10
165.777
 20
129.107
 11
165.683
 21
129.107
  0
LINE
  8
0
 10
22.6835
 20
129.107
 11
22.5925
 21
129.127
  0
LINE
  8
0
 10
22.5925
 20
129.127
 11
22.5075
 21
129.165
  0
LINE
  8
0
 10
22.5075
 20
129.165
 11
22.4322
 21
129.219
  0
LINE
  8
0
 10
22.4322
 20
129.219
 11
22.37
 21
129.288
  0
LINE
  8
0
 10
22.37
 20
129.288
 11
22.3235
 21
129.369
  0
LINE
  8
0
 10
22.3235
 20
129.369
 11
22.2947
 21
129.457
  0
LINE
  8
0
 10
22.2947
 20
129.457
 11
22.285
 21
129.55
  0
LINE
  8
0
 10
22.285
 20
129.55
 11
22.2947
 21
129.643
  0
LINE
  8
0
 10
22.2947
 20
129.643
 11
22.3235
 21
129.731
  0
LINE
  8
0
 10
22.3235
 20
129.731
 11
22.37
 21
129.812
  0
LINE
  8
0
 10
22.37
 20
129.812
 11
22.4322
 21
129.881
  0
LINE
  8
0
 10
22.4322
 20
129.881
 11
22.5075
 21
129.935
  0
LINE
  8
0
 10
22.5075
 20
129.935
 11
22.5925
 21
129.973
  0
LINE
  8
0
 10
22.5925
 20
129.973
 11
22.6835
 21
129.993
  0
LINE
  8
0
 10
22.6835
 20
129.993
 11
22.7765
 21
129.993
  0
LINE
  8
0
 10
22.7765
 20
129.993
 11
22.8675
 21
129.973
  0
LINE
  8
0
 10
22.8675
 20
129.973
 11
22.9525
 21
129.935
  0
LINE
  8
0
 10
22.9525
 20
129.935
 11
23.0278
 21
129.881
  0
LINE
  8
0
 10
23.0278
 20
129.881
 11
23.09
 21
129.812
  0
LINE
  8
0
 10
23.09
 20
129.812
 11
23.1365
 21
129.731
  0
LINE
  8
0
 10
23.1365
 20
129.731
 11
23.1653
 21
129.643
  0
LINE
  8
0
 10
23.1653
 20
129.643
 11
23.175
 21
129.55
  0
LINE
  8
0
 10
23.175
 20
129.55
 11
23.1653
 21
129.457
  0
LINE
  8
0
 10
23.1653
 20
129.457
 11
23.1365
 21
129.369
  0
LINE
  8
0
 10
23.1365
 20
129.369
 11
23.09
 21
129.288
  0
LINE
  8
0
 10
23.09
 20
129.288
 11
23.0278
 21
129.219
  0
LINE
  8
0
 10
23.0278
 20
129.219
 11
22.9525
 21
129.165
  0
LINE
  8
0
 10
22.9525
 20
129.165
 11
22.8675
 21
129.127
  0
LINE
  8
0
 10
22.8675
 20
129.127
 11
22.7765
 21
129.107
  0
LINE
  8
0
 10
22.7765
 20
129.107
 11
22.6835
 21
129.107
  0
LINE
  8
0
 10
35.6835
 20
129.107
 11
35.5925
 21
129.127
  0
LINE
  8
0
 10
35.5925
 20
129.127
 11
35.5075
 21
129.165
  0
LINE
  8
0
 10
35.5075
 20
129.165
 11
35.4322
 21
129.219
  0
LINE
  8
0
 10
35.4322
 20
129.219
 11
35.37
 21
129.288
  0
LINE
  8
0
 10
35.37
 20
129.288
 11
35.3235
 21
129.369
  0
LINE
  8
0
 10
35.3235
 20
129.369
 11
35.2947
 21
129.457
  0
LINE
  8
0
 10
35.2947
 20
129.457
 11
35.285
 21
129.55
  0
LINE
  8
0
 10
35.285
 20
129.55
 11
35.2947
 21
129.643
  0
LINE
  8
0
 10
35.2947
 20
129.643
 11
35.3235
 21
129.731
  0
LINE
  8
0
 10
35.3235
 20
129.731
 11
35.37
 21
129.812
  0
LINE
  8
0
 10
35.37
 20
129.812
 11
35.4322
 21
129.881
  0
LINE
  8
0
 10
35.4322
 20
129.881
 11
35.5075
 21
129.935
  0
LINE
  8
0
 10
35.5075
 20
129.935
 11
35.5925
 21
129.973
  0
LINE
  8
0
 10
35.5925
 20
129.973
 11
35.6835
 21
129.993
  0
LINE
  8
0
 10
35.6835
 20
129.993
 11
35.7765
 21
129.993
  0
LINE
  8
0
 10
35.7765
 20
129.993
 11
35.8675
 21
129.973
  0
LINE
  8
0
 10
35.8675
 20
129.973
 11
35.9525
 21
129.935
  0
LINE
  8
0
 10
35.9525
 20
129.935
 11
36.0278
 21
129.881
  0
LINE
  8
0
 10
36.0278
 20
129.881
 11
36.09
 21
129.812
  0
LINE
  8
0
 10
36.09
 20
129.812
 11
36.1365
 21
129.731
  0
LINE
  8
0
 10
36.1365
 20
129.731
 11
36.1653
 21
129.643
  0
LINE
  8
0
 10
36.1653
 20
129.643
 11
36.175
 21
129.55
  0
LINE
  8
0
 10
36.175
 20
129.55
 11
36.1653
 21
129.457
  0
LINE
  8
0
 10
36.1653
 20
129.457
 11
36.1365
 21
129.369
  0
LINE
  8
0
 10
36.1365
 20
129.369
 11
36.09
 21
129.288
  0
LINE
  8
0
 10
36.09
 20
129.288
 11
36.0278
 21
129.219
  0
LINE
  8
0
 10
36.0278
 20
129.219
 11
35.9525
 21
129.165
  0
LINE
  8
0
 10
35.9525
 20
129.165
 11
35.8675
 21
129.127
  0
LINE
  8
0
 10
35.8675
 20
129.127
 11
35.7765
 21
129.107
  0
LINE
  8
0
 10
35.7765
 20
129.107
 11
35.6835
 21
129.107
  0
LINE
  8
0
 10
48.6835
 20
129.107
 11
48.5925
 21
129.127
  0
LINE
  8
0
 10
48.5925
 20
129.127
 11
48.5075
 21
129.165
  0
LINE
  8
0
 10
48.5075
 20
129.165
 11
48.4322
 21
129.219
  0
LINE
  8
0
 10
48.4322
 20
129.219
 11
48.37
 21
129.288
  0
LINE
  8
0
 10
48.37
 20
129.288
 11
48.3235
 21
129.369
  0
LINE
  8
0
 10
48.3235
 20
129.369
 11
48.2947
 21
129.457
  0
LINE
  8
0
 10
48.2947
 20
129.457
 11
48.285
 21
129.55
  0
LINE
  8
0
 10
48.285
 20
129.55
 11
48.2947
 21
129.643
  0
LINE
  8
0
 10
48.2947
 20
129.643
 11
48.3235
 21
129.731
  0
LINE
  8
0
 10
48.3235
 20
129.731
 11
48.37
 21
129.812
  0
LINE
  8
0
 10
48.37
 20
129.812
 11
48.4322
 21
129.881
  0
LINE
  8
0
 10
48.4322
 20
129.881
 11
48.5075
 21
129.935
  0
LINE
  8
0
 10
48.5075
 20
129.935
 11
48.5925
 21
129.973
  0
LINE
  8
0
 10
48.5925
 20
129.973
 11
48.6835
 21
129.993
  0
LINE
  8
0
 10
48.6835
 20
129.993
 11
48.7765
 21
129.993
  0
LINE
  8
0
 10
48.7765
 20
129.993
 11
48.8675
 21
129.973
  0
LINE
  8
0
 10
48.8675
 20
129.973
 11
48.9525
 21
129.935
  0
LINE
  8
0
 10
48.9525
 20
129.935
 11
49.0278
 21
129.881
  0
LINE
  8
0
 10
49.0278
 20
129.881
 11
49.09
 21
129.812
  0
LINE
  8
0
 10
49.09
 20
129.812
 11
49.1365
 21
129.731
  0
LINE
  8
0
 10
49.1365
 20
129.731
 11
49.1653
 21
129.643
  0
LINE
  8
0
 10
49.1653
 20
129.643
 11
49.175
 21
129.55
  0
LINE
  8
0
 10
49.175
 20
129.55
 11
49.1653
 21
129.457
  0
LINE
  8
0
 10
49.1653
 20
129.457
 11
49.1365
 21
129.369
  0
LINE
  8
0
 10
49.1365
 20
129.369
 11
49.09
 21
129.288
  0
LINE
  8
0
 10
49.09
 20
129.288
 11
49.0278
 21
129.219
  0
LINE
  8
0
 10
49.0278
 20
129.219
 11
48.9525
 21
129.165
  0
LINE
  8
0
 10
48.9525
 20
129.165
 11
48.8675
 21
129.127
  0
LINE
  8
0
 10
48.8675
 20
129.127
 11
48.7765
 21
129.107
  0
LINE
  8
0
 10
48.7765
 20
129.107
 11
48.6835
 21
129.107
  0
LINE
  8
0
 10
61.6835
 20
129.107
 11
61.5925
 21
129.127
  0
LINE
  8
0
 10
61.5925
 20
129.127
 11
61.5075
 21
129.165
  0
LINE
  8
0
 10
61.5075
 20
129.165
 11
61.4322
 21
129.219
  0
LINE
  8
0
 10
61.4322
 20
129.219
 11
61.37
 21
129.288
  0
LINE
  8
0
 10
61.37
 20
129.288
 11
61.3235
 21
129.369
  0
LINE
  8
0
 10
61.3235
 20
129.369
 11
61.2947
 21
129.457
  0
LINE
  8
0
 10
61.2947
 20
129.457
 11
61.285
 21
129.55
  0
LINE
  8
0
 10
61.285
 20
129.55
 11
61.2947
 21
129.643
  0
LINE
  8
0
 10
61.2947
 20
129.643
 11
61.3235
 21
129.731
  0
LINE
  8
0
 10
61.3235
 20
129.731
 11
61.37
 21
129.812
  0
LINE
  8
0
 10
61.37
 20
129.812
 11
61.4322
 21
129.881
  0
LINE
  8
0
 10
61.4322
 20
129.881
 11
61.5075
 21
129.935
  0
LINE
  8
0
 10
61.5075
 20
129.935
 11
61.5925
 21
129.973
  0
LINE
  8
0
 10
61.5925
 20
129.973
 11
61.6835
 21
129.993
  0
LINE
  8
0
 10
61.6835
 20
129.993
 11
61.7765
 21
129.993
  0
LINE
  8
0
 10
61.7765
 20
129.993
 11
61.8675
 21
129.973
  0
LINE
  8
0
 10
61.8675
 20
129.973
 11
61.9525
 21
129.935
  0
LINE
  8
0
 10
61.9525
 20
129.935
 11
62.0278
 21
129.881
  0
LINE
  8
0
 10
62.0278
 20
129.881
 11
62.09
 21
129.812
  0
LINE
  8
0
 10
62.09
 20
129.812
 11
62.1365
 21
129.731
  0
LINE
  8
0
 10
62.1365
 20
129.731
 11
62.1653
 21
129.643
  0
LINE
  8
0
 10
62.1653
 20
129.643
 11
62.175
 21
129.55
  0
LINE
  8
0
 10
62.175
 20
129.55
 11
62.1653
 21
129.457
  0
LINE
  8
0
 10
62.1653
 20
129.457
 11
62.1365
 21
129.369
  0
LINE
  8
0
 10
62.1365
 20
129.369
 11
62.09
 21
129.288
  0
LINE
  8
0
 10
62.09
 20
129.288
 11
62.0278
 21
129.219
  0
LINE
  8
0
 10
62.0278
 20
129.219
 11
61.9525
 21
129.165
  0
LINE
  8
0
 10
61.9525
 20
129.165
 11
61.8675
 21
129.127
  0
LINE
  8
0
 10
61.8675
 20
129.127
 11
61.7765
 21
129.107
  0
LINE
  8
0
 10
61.7765
 20
129.107
 11
61.6835
 21
129.107
  0
LINE
  8
0
 10
74.6835
 20
129.107
 11
74.5925
 21
129.127
  0
LINE
  8
0
 10
74.5925
 20
129.127
 11
74.5075
 21
129.165
  0
LINE
  8
0
 10
74.5075
 20
129.165
 11
74.4322
 21
129.219
  0
LINE
  8
0
 10
74.4322
 20
129.219
 11
74.37
 21
129.288
  0
LINE
  8
0
 10
74.37
 20
129.288
 11
74.3235
 21
129.369
  0
LINE
  8
0
 10
74.3235
 20
129.369
 11
74.2947
 21
129.457
  0
LINE
  8
0
 10
74.2947
 20
129.457
 11
74.285
 21
129.55
  0
LINE
  8
0
 10
74.285
 20
129.55
 11
74.2947
 21
129.643
  0
LINE
  8
0
 10
74.2947
 20
129.643
 11
74.3235
 21
129.731
  0
LINE
  8
0
 10
74.3235
 20
129.731
 11
74.37
 21
129.812
  0
LINE
  8
0
 10
74.37
 20
129.812
 11
74.4322
 21
129.881
  0
LINE
  8
0
 10
74.4322
 20
129.881
 11
74.5075
 21
129.935
  0
LINE
  8
0
 10
74.5075
 20
129.935
 11
74.5925
 21
129.973
  0
LINE
  8
0
 10
74.5925
 20
129.973
 11
74.6835
 21
129.993
  0
LINE
  8
0
 10
74.6835
 20
129.993
 11
74.7765
 21
129.993
  0
LINE
  8
0
 10
74.7765
 20
129.993
 11
74.8675
 21
129.973
  0
LINE
  8
0
 10
74.8675
 20
129.973
 11
74.9525
 21
129.935
  0
LINE
  8
0
 10
74.9525
 20
129.935
 11
75.0278
 21
129.881
  0
LINE
  8
0
 10
75.0278
 20
129.881
 11
75.09
 21
129.812
  0
LINE
  8
0
 10
75.09
 20
129.812
 11
75.1365
 21
129.731
  0
LINE
  8
0
 10
75.1365
 20
129.731
 11
75.1653
 21
129.643
  0
LINE
  8
0
 10
75.1653
 20
129.643
 11
75.175
 21
129.55
  0
LINE
  8
0
 10
75.175
 20
129.55
 11
75.1653
 21
129.457
  0
LINE
  8
0
 10
75.1653
 20
129.457
 11
75.1365
 21
129.369
  0
LINE
  8
0
 10
75.1365
 20
129.369
 11
75.09
 21
129.288
  0
LINE
  8
0
 10
75.09
 20
129.288
 11
75.0278
 21
129.219
  0
LINE
  8
0
 10
75.0278
 20
129.219
 11
74.9525
 21
129.165
  0
LINE
  8
0
 10
74.9525
 20
129.165
 11
74.8675
 21
129.127
  0
LINE
  8
0
 10
74.8675
 20
129.127
 11
74.7765
 21
129.107
  0
LINE
  8
0
 10
74.7765
 20
129.107
 11
74.6835
 21
129.107
  0
LINE
  8
0
 10
87.6835
 20
129.107
 11
87.5925
 21
129.127
  0
LINE
  8
0
 10
87.5925
 20
129.127
 11
87.5075
 21
129.165
  0
LINE
  8
0
 10
87.5075
 20
129.165
 11
87.4322
 21
129.219
  0
LINE
  8
0
 10
87.4322
 20
129.219
 11
87.37
 21
129.288
  0
LINE
  8
0
 10
87.37
 20
129.288
 11
87.3235
 21
129.369
  0
LINE
  8
0
 10
87.3235
 20
129.369
 11
87.2947
 21
129.457
  0
LINE
  8
0
 10
87.2947
 20
129.457
 11
87.285
 21
129.55
  0
LINE
  8
0
 10
87.285
 20
129.55
 11
87.2947
 21
129.643
  0
LINE
  8
0
 10
87.2947
 20
129.643
 11
87.3235
 21
129.731
  0
LINE
  8
0
 10
87.3235
 20
129.731
 11
87.37
 21
129.812
  0
LINE
  8
0
 10
87.37
 20
129.812
 11
87.4322
 21
129.881
  0
LINE
  8
0
 10
87.4322
 20
129.881
 11
87.5075
 21
129.935
  0
LINE
  8
0
 10
87.5075
 20
129.935
 11
87.5925
 21
129.973
  0
LINE
  8
0
 10
87.5925
 20
129.973
 11
87.6835
 21
129.993
  0
LINE
  8
0
 10
87.6835
 20
129.993
 11
87.7765
 21
129.993
  0
LINE
  8
0
 10
87.7765
 20
129.993
 11
87.8675
 21
129.973
  0
LINE
  8
0
 10
87.8675
 20
129.973
 11
87.9525
 21
129.935
  0
LINE
  8
0
 10
87.9525
 20
129.935
 11
88.0278
 21
129.881
  0
LINE
  8
0
 10
88.0278
 20
129.881
 11
88.09
 21
129.812
  0
LINE
  8
0
 10
88.09
 20
129.812
 11
88.1365
 21
129.731
  0
LINE
  8
0
 10
88.1365
 20
129.731
 11
88.1653
 21
129.643
  0
LINE
  8
0
 10
88.1653
 20
129.643
 11
88.175
 21
129.55
  0
LINE
  8
0
 10
88.175
 20
129.55
 11
88.1653
 21
129.457
  0
LINE
  8
0
 10
88.1653
 20
129.457
 11
88.1365
 21
129.369
  0
LINE
  8
0
 10
88.1365
 20
129.369
 11
88.09
 21
129.288
  0
LINE
  8
0
 10
88.09
 20
129.288
 11
88.0278
 21
129.219
  0
LINE
  8
0
 10
88.0278
 20
129.219
 11
87.9525
 21
129.165
  0
LINE
  8
0
 10
87.9525
 20
129.165
 11
87.8675
 21
129.127
  0
LINE
  8
0
 10
87.8675
 20
129.127
 11
87.7765
 21
129.107
  0
LINE
  8
0
 10
87.7765
 20
129.107
 11
87.6835
 21
129.107
  0
LINE
  8
0
 10
100.683
 20
129.107
 11
100.592
 21
129.127
  0
LINE
  8
0
 10
100.592
 20
129.127
 11
100.507
 21
129.165
  0
LINE
  8
0
 10
100.507
 20
129.165
 11
100.432
 21
129.219
  0
LINE
  8
0
 10
100.432
 20
129.219
 11
100.37
 21
129.288
  0
LINE
  8
0
 10
100.37
 20
129.288
 11
100.323
 21
129.369
  0
LINE
  8
0
 10
100.323
 20
129.369
 11
100.295
 21
129.457
  0
LINE
  8
0
 10
100.295
 20
129.457
 11
100.285
 21
129.55
  0
LINE
  8
0
 10
100.285
 20
129.55
 11
100.295
 21
129.643
  0
LINE
  8
0
 10
100.295
 20
129.643
 11
100.323
 21
129.731
  0
LINE
  8
0
 10
100.323
 20
129.731
 11
100.37
 21
129.812
  0
LINE
  8
0
 10
100.37
 20
129.812
 11
100.432
 21
129.881
  0
LINE
  8
0
 10
100.432
 20
129.881
 11
100.507
 21
129.935
  0
LINE
  8
0
 10
100.507
 20
129.935
 11
100.592
 21
129.973
  0
LINE
  8
0
 10
100.592
 20
129.973
 11
100.683
 21
129.993
  0
LINE
  8
0
 10
100.683
 20
129.993
 11
100.777
 21
129.993
  0
LINE
  8
0
 10
100.777
 20
129.993
 11
100.868
 21
129.973
  0
LINE
  8
0
 10
100.868
 20
129.973
 11
100.952
 21
129.935
  0
LINE
  8
0
 10
100.952
 20
129.935
 11
101.028
 21
129.881
  0
LINE
  8
0
 10
101.028
 20
129.881
 11
101.09
 21
129.812
  0
LINE
  8
0
 10
101.09
 20
129.812
 11
101.137
 21
129.731
  0
LINE
  8
0
 10
101.137
 20
129.731
 11
101.165
 21
129.643
  0
LINE
  8
0
 10
101.165
 20
129.643
 11
101.175
 21
129.55
  0
LINE
  8
0
 10
101.175
 20
129.55
 11
101.165
 21
129.457
  0
LINE
  8
0
 10
101.165
 20
129.457
 11
101.137
 21
129.369
  0
LINE
  8
0
 10
101.137
 20
129.369
 11
101.09
 21
129.288
  0
LINE
  8
0
 10
101.09
 20
129.288
 11
101.028
 21
129.219
  0
LINE
  8
0
 10
101.028
 20
129.219
 11
100.952
 21
129.165
  0
LINE
  8
0
 10
100.952
 20
129.165
 11
100.868
 21
129.127
  0
LINE
  8
0
 10
100.868
 20
129.127
 11
100.777
 21
129.107
  0
LINE
  8
0
 10
100.777
 20
129.107
 11
100.683
 21
129.107
  0
LINE
  8
0
 10
113.683
 20
129.107
 11
113.592
 21
129.127
  0
LINE
  8
0
 10
113.592
 20
129.127
 11
113.507
 21
129.165
  0
LINE
  8
0
 10
113.507
 20
129.165
 11
113.432
 21
129.219
  0
LINE
  8
0
 10
113.432
 20
129.219
 11
113.37
 21
129.288
  0
LINE
  8
0
 10
113.37
 20
129.288
 11
113.323
 21
129.369
  0
LINE
  8
0
 10
113.323
 20
129.369
 11
113.295
 21
129.457
  0
LINE
  8
0
 10
113.295
 20
129.457
 11
113.285
 21
129.55
  0
LINE
  8
0
 10
113.285
 20
129.55
 11
113.295
 21
129.643
  0
LINE
  8
0
 10
113.295
 20
129.643
 11
113.323
 21
129.731
  0
LINE
  8
0
 10
113.323
 20
129.731
 11
113.37
 21
129.812
  0
LINE
  8
0
 10
113.37
 20
129.812
 11
113.432
 21
129.881
  0
LINE
  8
0
 10
113.432
 20
129.881
 11
113.507
 21
129.935
  0
LINE
  8
0
 10
113.507
 20
129.935
 11
113.592
 21
129.973
  0
LINE
  8
0
 10
113.592
 20
129.973
 11
113.683
 21
129.993
  0
LINE
  8
0
 10
113.683
 20
129.993
 11
113.777
 21
129.993
  0
LINE
  8
0
 10
113.777
 20
129.993
 11
113.868
 21
129.973
  0
LINE
  8
0
 10
113.868
 20
129.973
 11
113.952
 21
129.935
  0
LINE
  8
0
 10
113.952
 20
129.935
 11
114.028
 21
129.881
  0
LINE
  8
0
 10
114.028
 20
129.881
 11
114.09
 21
129.812
  0
LINE
  8
0
 10
114.09
 20
129.812
 11
114.137
 21
129.731
  0
LINE
  8
0
 10
114.137
 20
129.731
 11
114.165
 21
129.643
  0
LINE
  8
0
 10
114.165
 20
129.643
 11
114.175
 21
129.55
  0
LINE
  8
0
 10
114.175
 20
129.55
 11
114.165
 21
129.457
  0
LINE
  8
0
 10
114.165
 20
129.457
 11
114.137
 21
129.369
  0
LINE
  8
0
 10
114.137
 20
129.369
 11
114.09
 21
129.288
  0
LINE
  8
0
 10
114.09
 20
129.288
 11
114.028
 21
129.219
  0
LINE
  8
0
 10
114.028
 20
129.219
 11
113.952
 21
129.165
  0
LINE
  8
0
 10
113.952
 20
129.165
 11
113.868
 21
129.127
  0
LINE
  8
0
 10
113.868
 20
129.127
 11
113.777
 21
129.107
  0
LINE
  8
0
 10
113.777
 20
129.107
 11
113.683
 21
129.107
  0
LINE
  8
0
 10
126.683
 20
129.107
 11
126.592
 21
129.127
  0
LINE
  8
0
 10
126.592
 20
129.127
 11
126.507
 21
129.165
  0
LINE
  8
0
 10
126.507
 20
129.165
 11
126.432
 21
129.219
  0
LINE
  8
0
 10
126.432
 20
129.219
 11
126.37
 21
129.288
  0
LINE
  8
0
 10
126.37
 20
129.288
 11
126.323
 21
129.369
  0
LINE
  8
0
 10
126.323
 20
129.369
 11
126.295
 21
129.457
  0
LINE
  8
0
 10
126.295
 20
129.457
 11
126.285
 21
129.55
  0
LINE
  8
0
 10
126.285
 20
129.55
 11
126.295
 21
129.643
  0
LINE
  8
0
 10
126.295
 20
129.643
 11
126.323
 21
129.731
  0
LINE
  8
0
 10
126.323
 20
129.731
 11
126.37
 21
129.812
  0
LINE
  8
0
 10
126.37
 20
129.812
 11
126.432
 21
129.881
  0
LINE
  8
0
 10
126.432
 20
129.881
 11
126.507
 21
129.935
  0
LINE
  8
0
 10
126.507
 20
129.935
 11
126.592
 21
129.973
  0
LINE
  8
0
 10
126.592
 20
129.973
 11
126.683
 21
129.993
  0
LINE
  8
0
 10
126.683
 20
129.993
 11
126.777
 21
129.993
  0
LINE
  8
0
 10
126.777
 20
129.993
 11
126.868
 21
129.973
  0
LINE
  8
0
 10
126.868
 20
129.973
 11
126.952
 21
129.935
  0
LINE
  8
0
 10
126.952
 20
129.935
 11
127.028
 21
129.881
  0
LINE
  8
0
 10
127.028
 20
129.881
 11
127.09
 21
129.812
  0
LINE
  8
0
 10
127.09
 20
129.812
 11
127.137
 21
129.731
  0
LINE
  8
0
 10
127.137
 20
129.731
 11
127.165
 21
129.643
  0
LINE
  8
0
 10
127.165
 20
129.643
 11
127.175
 21
129.55
  0
LINE
  8
0
 10
127.175
 20
129.55
 11
127.165
 21
129.457
  0
LINE
  8
0
 10
127.165
 20
129.457
 11
127.137
 21
129.369
  0
LINE
  8
0
 10
127.137
 20
129.369
 11
127.09
 21
129.288
  0
LINE
  8
0
 10
127.09
 20
129.288
 11
127.028
 21
129.219
  0
LINE
  8
0
 10
127.028
 20
129.219
 11
126.952
 21
129.165
  0
LINE
  8
0
 10
126.952
 20
129.165
 11
126.868
 21
129.127
  0
LINE
  8
0
 10
126.868
 20
129.127
 11
126.777
 21
129.107
  0
LINE
  8
0
 10
126.777
 20
129.107
 11
126.683
 21
129.107
  0
LINE
  8
0
 10
139.683
 20
129.107
 11
139.592
 21
129.127
  0
LINE
  8
0
 10
139.592
 20
129.127
 11
139.507
 21
129.165
  0
LINE
  8
0
 10
139.507
 20
129.165
 11
139.432
 21
129.219
  0
LINE
  8
0
 10
139.432
 20
129.219
 11
139.37
 21
129.288
  0
LINE
  8
0
 10
139.37
 20
129.288
 11
139.323
 21
129.369
  0
LINE
  8
0
 10
139.323
 20
129.369
 11
139.295
 21
129.457
  0
LINE
  8
0
 10
139.295
 20
129.457
 11
139.285
 21
129.55
  0
LINE
  8
0
 10
139.285
 20
129.55
 11
139.295
 21
129.643
  0
LINE
  8
0
 10
139.295
 20
129.643
 11
139.323
 21
129.731
  0
LINE
  8
0
 10
139.323
 20
129.731
 11
139.37
 21
129.812
  0
LINE
  8
0
 10
139.37
 20
129.812
 11
139.432
 21
129.881
  0
LINE
  8
0
 10
139.432
 20
129.881
 11
139.507
 21
129.935
  0
LINE
  8
0
 10
139.507
 20
129.935
 11
139.592
 21
129.973
  0
LINE
  8
0
 10
139.592
 20
129.973
 11
139.683
 21
129.993
  0
LINE
  8
0
 10
139.683
 20
129.993
 11
139.777
 21
129.993
  0
LINE
  8
0
 10
139.777
 20
129.993
 11
139.868
 21
129.973
  0
LINE
  8
0
 10
139.868
 20
129.973
 11
139.952
 21
129.935
  0
LINE
  8
0
 10
139.952
 20
129.935
 11
140.028
 21
129.881
  0
LINE
  8
0
 10
140.028
 20
129.881
 11
140.09
 21
129.812
  0
LINE
  8
0
 10
140.09
 20
129.812
 11
140.137
 21
129.731
  0
LINE
  8
0
 10
140.137
 20
129.731
 11
140.165
 21
129.643
  0
LINE
  8
0
 10
140.165
 20
129.643
 11
140.175
 21
129.55
  0
LINE
  8
0
 10
140.175
 20
129.55
 11
140.165
 21
129.457
  0
LINE
  8
0
 10
140.165
 20
129.457
 11
140.137
 21
129.369
  0
LINE
  8
0
 10
140.137
 20
129.369
 11
140.09
 21
129.288
  0
LINE
  8
0
 10
140.09
 20
129.288
 11
140.028
 21
129.219
  0
LINE
  8
0
 10
140.028
 20
129.219
 11
139.952
 21
129.165
  0
LINE
  8
0
 10
139.952
 20
129.165
 11
139.868
 21
129.127
  0
LINE
  8
0
 10
139.868
 20
129.127
 11
139.777
 21
129.107
  0
LINE
  8
0
 10
139.777
 20
129.107
 11
139.683
 21
129.107
  0
LINE
  8
0
 10
152.683
 20
129.107
 11
152.592
 21
129.127
  0
LINE
  8
0
 10
152.592
 20
129.127
 11
152.507
 21
129.165
  0
LINE
  8
0
 10
152.507
 20
129.165
 11
152.432
 21
129.219
  0
LINE
  8
0
 10
152.432
 20
129.219
 11
152.37
 21
129.288
  0
LINE
  8
0
 10
152.37
 20
129.288
 11
152.323
 21
129.369
  0
LINE
  8
0
 10
152.323
 20
129.369
 11
152.295
 21
129.457
  0
LINE
  8
0
 10
152.295
 20
129.457
 11
152.285
 21
129.55
  0
LINE
  8
0
 10
152.285
 20
129.55
 11
152.295
 21
129.643
  0
LINE
  8
0
 10
152.295
 20
129.643
 11
152.323
 21
129.731
  0
LINE
  8
0
 10
152.323
 20
129.731
 11
152.37
 21
129.812
  0
LINE
  8
0
 10
152.37
 20
129.812
 11
152.432
 21
129.881
  0
LINE
  8
0
 10
152.432
 20
129.881
 11
152.507
 21
129.935
  0
LINE
  8
0
 10
152.507
 20
129.935
 11
152.592
 21
129.973
  0
LINE
  8
0
 10
152.592
 20
129.973
 11
152.683
 21
129.993
  0
LINE
  8
0
 10
152.683
 20
129.993
 11
152.777
 21
129.993
  0
LINE
  8
0
 10
152.777
 20
129.993
 11
152.868
 21
129.973
  0
LINE
  8
0
 10
152.868
 20
129.973
 11
152.952
 21
129.935
  0
LINE
  8
0
 10
152.952
 20
129.935
 11
153.028
 21
129.881
  0
LINE
  8
0
 10
153.028
 20
129.881
 11
153.09
 21
129.812
  0
LINE
  8
0
 10
153.09
 20
129.812
 11
153.137
 21
129.731
  0
LINE
  8
0
 10
153.137
 20
129.731
 11
153.165
 21
129.643
  0
LINE
  8
0
 10
153.165
 20
129.643
 11
153.175
 21
129.55
  0
LINE
  8
0
 10
153.175
 20
129.55
 11
153.165
 21
129.457
  0
LINE
  8
0
 10
153.165
 20
129.457
 11
153.137
 21
129.369
  0
LINE
  8
0
 10
153.137
 20
129.369
 11
153.09
 21
129.288
  0
LINE
  8
0
 10
153.09
 20
129.288
 11
153.028
 21
129.219
  0
LINE
  8
0
 10
153.028
 20
129.219
 11
152.952
 21
129.165
  0
LINE
  8
0
 10
152.952
 20
129.165
 11
152.868
 21
129.127
  0
LINE
  8
0
 10
152.868
 20
129.127
 11
152.777
 21
129.107
  0
LINE
  8
0
 10
152.777
 20
129.107
 11
152.683
 21
129.107
  0
LINE
  8
0
 10
15
 20
96.37
 11
15
 21
127.37
  0
LINE
  8
0
 10
15
 20
127.37
 11
173.46
 21
127.37
  0
LINE
  8
0
 10
173.46
 20
127.37
 11
173.46
 21
96.37
  0
LINE
  8
0
 10
173.46
 20
96.37
 11
15
 21
96.37
  0
LINE
  8
0
 10
188.46
 20
86.36
 11
0
 21
86.36
  0
LINE
  8
0
 10
0
 20
86.36
 11
0
 21
0
  0
LINE
  8
0
 10
0
 20
0
 11
188.46
 21
0
  0
LINE
  8
0
 10
188.46
 20
0
 11
188.46
 21
86.36
  0
LINE
  8
0
 10
15
 20
10
 11
15
 21
36.2
  0
LINE
  8
0
 10
15
 20
36.2
 11
10
 21
36.2
  0
LINE
  8
0
 10
10
 20
36.2
 11
10
 21
52.56
  0
LINE
  8
0
 10
10
 20
52.56
 11
15
 21
52.56
  0
LINE
  8
0
 10
15
 20
52.56
 11
15
 21
76.36
  0
LINE
  8
0
 10
15
 20
76.36
 11
173.46
 21
76.36
  0
LINE
  8
0
 10
173.46
 20
76.36
 11
173.46
 21
52.56
  0
LINE
  8
0
 10
173.46
 20
52.56
 11
178.46
 21
52.56
  0
LINE
  8
0
 10
178.46
 20
52.56
 11
178.46
 21
36.2
  0
LINE
  8
0
 10
178.46
 20
36.2
 11
173.46
 21
36.2
  0
LINE
  8
0
 10
173.46
 20
36.2
 11
173.46
 21
10
  0
LINE
  8
0
 10
173.46
 20
10
 11
15
 21
10
  0
ENDSEC
  0
SECTION
  2
OBJECTS
  0
DICTIONARY
  0
ENDSEC
  0
EOF
