  0
SECTION
  2
BLOCKS
  0
ENDSEC
  0
SECTION
  2
ENTITIES
  0
LINE
  8
0
 10
0
 20
-2.84999
 11
0.00999451
 21
-2.84999
  0
LINE
  8
0
 10
0.00999451
 20
-2.84999
 11
0.00999451
 21
-4.8492
  0
LINE
  8
0
 10
0.00999451
 20
-4.8492
 11
0.758698
 21
-4.79028
  0
LINE
  8
0
 10
0.758698
 20
-4.79028
 11
1.49872
 21
-4.61261
  0
LINE
  8
0
 10
1.49872
 20
-4.61261
 11
2.20184
 21
-4.32138
  0
LINE
  8
0
 10
2.20184
 20
-4.32138
 11
2.85075
 21
-3.92372
  0
LINE
  8
0
 10
2.85075
 20
-3.92372
 11
3.42946
 21
-3.42946
  0
LINE
  8
0
 10
3.42946
 20
-3.42946
 11
3.92372
 21
-2.85075
  0
LINE
  8
0
 10
3.92372
 20
-2.85075
 11
4.32138
 21
-2.20184
  0
LINE
  8
0
 10
4.32138
 20
-2.20184
 11
4.61261
 21
-1.49872
  0
LINE
  8
0
 10
4.61261
 20
-1.49872
 11
4.79028
 21
-0.758698
  0
LINE
  8
0
 10
4.79028
 20
-0.758698
 11
4.84999
 21
0
  0
LINE
  8
0
 10
4.84999
 20
0
 11
4.79028
 21
0.758698
  0
LINE
  8
0
 10
4.79028
 20
0.758698
 11
4.61261
 21
1.49872
  0
LINE
  8
0
 10
4.61261
 20
1.49872
 11
4.32138
 21
2.20184
  0
LINE
  8
0
 10
4.32138
 20
2.20184
 11
3.92372
 21
2.85075
  0
LINE
  8
0
 10
3.92372
 20
2.85075
 11
3.42946
 21
3.42946
  0
LINE
  8
0
 10
3.42946
 20
3.42946
 11
2.85075
 21
3.92372
  0
LINE
  8
0
 10
2.85075
 20
3.92372
 11
2.20184
 21
4.32138
  0
LINE
  8
0
 10
2.20184
 20
4.32138
 11
1.5
 21
4.61208
  0
LINE
  8
0
 10
1.5
 20
4.61208
 11
1.5
 21
17.85
  0
LINE
  8
0
 10
1.5
 20
17.85
 11
-1.5
 21
17.85
  0
LINE
  8
0
 10
-1.5
 20
17.85
 11
-1.5
 21
4.61208
  0
LINE
  8
0
 10
-1.5
 20
4.61208
 11
-2.20184
 21
4.32138
  0
LINE
  8
0
 10
-2.20184
 20
4.32138
 11
-2.85075
 21
3.92372
  0
LINE
  8
0
 10
-2.85075
 20
3.92372
 11
-3.42946
 21
3.42946
  0
LINE
  8
0
 10
-3.42946
 20
3.42946
 11
-3.92372
 21
2.85075
  0
LINE
  8
0
 10
-3.92372
 20
2.85075
 11
-4.32138
 21
2.20184
  0
LINE
  8
0
 10
-4.32138
 20
2.20184
 11
-4.61261
 21
1.49872
  0
LINE
  8
0
 10
-4.61261
 20
1.49872
 11
-4.79028
 21
0.758698
  0
LINE
  8
0
 10
-4.79028
 20
0.758698
 11
-4.84999
 21
0
  0
LINE
  8
0
 10
-4.84999
 20
0
 11
-4.79028
 21
-0.758698
  0
LINE
  8
0
 10
-4.79028
 20
-0.758698
 11
-4.61261
 21
-1.49872
  0
LINE
  8
0
 10
-4.61261
 20
-1.49872
 11
-4.32138
 21
-2.20184
  0
LINE
  8
0
 10
-4.32138
 20
-2.20184
 11
-3.92372
 21
-2.85075
  0
LINE
  8
0
 10
-3.92372
 20
-2.85075
 11
-3.42946
 21
-3.42946
  0
LINE
  8
0
 10
-3.42946
 20
-3.42946
 11
-2.85075
 21
-3.92372
  0
LINE
  8
0
 10
-2.85075
 20
-3.92372
 11
-2.20184
 21
-4.32138
  0
LINE
  8
0
 10
-2.20184
 20
-4.32138
 11
-1.49872
 21
-4.61261
  0
LINE
  8
0
 10
-1.49872
 20
-4.61261
 11
-0.758698
 21
-4.79028
  0
LINE
  8
0
 10
-0.758698
 20
-4.79028
 11
0
 21
-4.84999
  0
LINE
  8
0
 10
0
 20
-4.84999
 11
0
 21
-2.84999
  0
LINE
  8
0
 10
-0.445831
 20
-2.81491
 11
-0.880692
 21
-2.71051
  0
LINE
  8
0
 10
-0.880692
 20
-2.71051
 11
-1.29387
 21
-2.53937
  0
LINE
  8
0
 10
-1.29387
 20
-2.53937
 11
-1.67519
 21
-2.30569
  0
LINE
  8
0
 10
-1.67519
 20
-2.30569
 11
-2.01524
 21
-2.01524
  0
LINE
  8
0
 10
-2.01524
 20
-2.01524
 11
-2.30569
 21
-1.67519
  0
LINE
  8
0
 10
-2.30569
 20
-1.67519
 11
-2.53937
 21
-1.29387
  0
LINE
  8
0
 10
-2.53937
 20
-1.29387
 11
-2.71051
 21
-0.880692
  0
LINE
  8
0
 10
-2.71051
 20
-0.880692
 11
-2.81491
 21
-0.445831
  0
LINE
  8
0
 10
-2.81491
 20
-0.445831
 11
-2.84999
 21
0
  0
LINE
  8
0
 10
-2.84999
 20
0
 11
-2.81491
 21
0.445831
  0
LINE
  8
0
 10
-2.81491
 20
0.445831
 11
-2.71051
 21
0.880692
  0
LINE
  8
0
 10
-2.71051
 20
0.880692
 11
-2.53937
 21
1.29387
  0
LINE
  8
0
 10
-2.53937
 20
1.29387
 11
-2.30569
 21
1.67519
  0
LINE
  8
0
 10
-2.30569
 20
1.67519
 11
-2.01524
 21
2.01524
  0
LINE
  8
0
 10
-2.01524
 20
2.01524
 11
-1.67519
 21
2.30569
  0
LINE
  8
0
 10
-1.67519
 20
2.30569
 11
-1.29387
 21
2.53937
  0
LINE
  8
0
 10
-1.29387
 20
2.53937
 11
-0.880692
 21
2.71051
  0
LINE
  8
0
 10
-0.880692
 20
2.71051
 11
-0.445831
 21
2.81491
  0
LINE
  8
0
 10
-0.445831
 20
2.81491
 11
0
 21
2.84999
  0
LINE
  8
0
 10
0
 20
2.84999
 11
0.445831
 21
2.81491
  0
LINE
  8
0
 10
0.445831
 20
2.81491
 11
0.880692
 21
2.71051
  0
LINE
  8
0
 10
0.880692
 20
2.71051
 11
1.29387
 21
2.53937
  0
LINE
  8
0
 10
1.29387
 20
2.53937
 11
1.67519
 21
2.30569
  0
LINE
  8
0
 10
1.67519
 20
2.30569
 11
2.01524
 21
2.01524
  0
LINE
  8
0
 10
2.01524
 20
2.01524
 11
2.30569
 21
1.67519
  0
LINE
  8
0
 10
2.30569
 20
1.67519
 11
2.53937
 21
1.29387
  0
LINE
  8
0
 10
2.53937
 20
1.29387
 11
2.71051
 21
0.880692
  0
LINE
  8
0
 10
2.71051
 20
0.880692
 11
2.81491
 21
0.445831
  0
LINE
  8
0
 10
2.81491
 20
0.445831
 11
2.84999
 21
0
  0
LINE
  8
0
 10
2.84999
 20
0
 11
2.81491
 21
-0.445831
  0
LINE
  8
0
 10
2.81491
 20
-0.445831
 11
2.71051
 21
-0.880692
  0
LINE
  8
0
 10
2.71051
 20
-0.880692
 11
2.53937
 21
-1.29387
  0
LINE
  8
0
 10
2.53937
 20
-1.29387
 11
2.30569
 21
-1.67519
  0
LINE
  8
0
 10
2.30569
 20
-1.67519
 11
2.01524
 21
-2.01524
  0
LINE
  8
0
 10
2.01524
 20
-2.01524
 11
1.67519
 21
-2.30569
  0
LINE
  8
0
 10
1.67519
 20
-2.30569
 11
1.29387
 21
-2.53937
  0
LINE
  8
0
 10
1.29387
 20
-2.53937
 11
0.880692
 21
-2.71051
  0
LINE
  8
0
 10
0.880692
 20
-2.71051
 11
0.445831
 21
-2.81491
  0
LINE
  8
0
 10
0.445831
 20
-2.81491
 11
0
 21
-2.84999
  0
LINE
  8
0
 10
0
 20
-2.84999
 11
-0.445831
 21
-2.81491
  0
ENDSEC
  0
SECTION
  2
OBJECTS
  0
DICTIONARY
  0
ENDSEC
  0
EOF
