  0
SECTION
  2
BLOCKS
  0
ENDSEC
  0
SECTION
  2
ENTITIES
  0
LINE
  8
0
 10
-2
 11
-2
 20
-1
 21
11
  0
LINE
  8
0
 10
-2
 11
-0.199
 20
11
 21
11
  0
LINE
  8
0
 10
-0.199
 11
0.001
 20
11
 21
10
  0
LINE
  8
0
 10
0.001
 11
2.66
 20
10
 21
10
  0
LINE
  8
0
 10
2.66
 11
2.86
 20
10
 21
10.65
  0
LINE
  8
0
 10
2.86
 11
4.661
 20
10.65
 21
10
  0
LINE
  8
0
 10
4.661
 11
22
 20
10
 21
10
  0
LINE
  8
0
 10
22
 11
22
 20
10
 21
0
  0
LINE
  8
0
 10
22
 11
6.249
 20
0
 21
0
  0
LINE
  8
0
 10
6.249
 11
6.182
 20
0
 21
-0.092
  0
LINE
  8
0
 10
6.182
 11
5.94
 20
-0.092
 21
-0.343
  0
LINE
  8
0
 10
5.94
 11
5.665
 20
-0.343
 21
-0.558
  0
LINE
  8
0
 10
5.665
 11
5.363
 20
-0.558
 21
-0.732
  0
LINE
  8
0
 10
5.363
 11
5.04
 20
-0.732
 21
-0.863
  0
LINE
  8
0
 10
5.04
 11
4.701
 20
-0.863
 21
-0.947
  0
LINE
  8
0
 10
4.701
 11
4.354
 20
-0.947
 21
-0.983
  0
LINE
  8
0
 10
4.354
 11
4.006
 20
-0.983
 21
-0.971
  0
LINE
  8
0
 10
4.006
 11
3.662
 20
-0.971
 21
-0.911
  0
LINE
  8
0
 10
3.662
 11
3.33
 20
-0.911
 21
-0.803
  0
LINE
  8
0
 10
3.33
 11
3.017
 20
-0.803
 21
-0.65
  0
LINE
  8
0
 10
3.017
 11
2.728
 20
-0.65
 21
-0.455
  0
LINE
  8
0
 10
2.728
 11
2.66
 20
-0.455
 21
-0.394
  0
LINE
  8
0
 10
2.66
 11
2.66
 20
-0.394
 21
-0.4
  0
LINE
  8
0
 10
2.66
 11
1.5
 20
-0.4
 21
-0.4
  0
LINE
  8
0
 10
1.5
 11
1.5
 20
-0.4
 21
0
  0
LINE
  8
0
 10
1.5
 11
1.5
 20
0
 21
2.9
  0
LINE
  8
0
 10
1.5
 11
17.65
 20
2.9
 21
2.9
  0
LINE
  8
0
 10
17.65
 11
17.65
 20
2.9
 21
4.4
  0
LINE
  8
0
 10
17.65
 11
0
 20
4.4
 21
4.4
  0
LINE
  8
0
 10
0
 11
0
 20
4.4
 21
-1
  0
LINE
  8
0
 10
0
 11
-2
 20
-1
 21
-1
  0
LINE
  8
0
 10
0
 11
0
 20
20
 21
26.86
  0
LINE
  8
0
 10
0
 11
17
 20
26.86
 21
26.86
  0
LINE
  8
0
 10
17
 11
17
 20
26.86
 21
20
  0
LINE
  8
0
 10
17
 11
0
 20
20
 21
20
  0
LINE
  8
0
 10
1.5
 11
1.5
 20
24.159
 21
24.161
  0
LINE
  8
0
 10
1.5
 11
15.5
 20
24.161
 21
24.161
  0
LINE
  8
0
 10
15.5
 11
15.5
 20
24.161
 21
24.159
  0
LINE
  8
0
 10
15.5
 11
13.5
 20
24.159
 21
24.159
  0
LINE
  8
0
 10
13.5
 11
13.5
 20
24.159
 21
21.5
  0
LINE
  8
0
 10
13.5
 11
3.5
 20
21.5
 21
21.5
  0
LINE
  8
0
 10
3.5
 11
3.5
 20
21.5
 21
24.159
  0
LINE
  8
0
 10
3.5
 11
1.5
 20
24.159
 21
24.159
  0
LINE
  8
0
 10
1.5
 11
1.5
 20
25.31
 21
25.41
  0
LINE
  8
0
 10
1.5
 11
15.5
 20
25.41
 21
25.41
  0
LINE
  8
0
 10
15.5
 11
15.5
 20
25.41
 21
25.31
  0
LINE
  8
0
 10
15.5
 11
1.5
 20
25.31
 21
25.31
  0
ENDSEC
  0
SECTION
  2
OBJECTS
  0
DICTIONARY
  0
ENDSEC
  0
EOF
